
    <svg
      xmlns="http://www.w3.org/2000/svg"
      width="12"
      height="12"
      viewBox="0 0 12 12"
      fill="currentColor"
      stroke="none"
      strokeWidth="2"
      shapeRendering="crispEdges"
      stroke-linecap="butt"
      stroke-linejoin="miter"
    ><rect x="3" y="1" width="1" height="1" /><rect x="4" y="1" width="1" height="1" /><rect x="5" y="1" width="1" height="1" /><rect x="8" y="1" width="1" height="1" /><rect x="2" y="2" width="1" height="1" /><rect x="6" y="2" width="1" height="1" /><rect x="9" y="2" width="1" height="1" /><rect x="2" y="3" width="1" height="1" /><rect x="6" y="3" width="1" height="1" /><rect x="9" y="3" width="1" height="1" /><rect x="2" y="4" width="1" height="1" /><rect x="6" y="4" width="1" height="1" /><rect x="9" y="4" width="1" height="1" /><rect x="3" y="5" width="1" height="1" /><rect x="4" y="5" width="1" height="1" /><rect x="5" y="5" width="1" height="1" /><rect x="8" y="5" width="1" height="1" /><rect x="2" y="7" width="1" height="1" /><rect x="3" y="7" width="1" height="1" /><rect x="4" y="7" width="1" height="1" /><rect x="5" y="7" width="1" height="1" /><rect x="6" y="7" width="1" height="1" /><rect x="9" y="7" width="1" height="1" /><rect x="1" y="8" width="1" height="1" /><rect x="7" y="8" width="1" height="1" /><rect x="10" y="8" width="1" height="1" /><rect x="1" y="9" width="1" height="1" /><rect x="7" y="9" width="1" height="1" /><rect x="10" y="9" width="1" height="1" /><rect x="1" y="10" width="1" height="1" /><rect x="7" y="10" width="1" height="1" /><rect x="10" y="10" width="1" height="1" /></svg>