<svg xmlns="http://www.w3.org/2000/svg" width="12" height="12" fill="currentColor" shape-rendering="crispEdges"><path d="M2 1h1v1H2zM3 1h1v1H3zM4 1h1v1H4zM5 1h1v1H5zM6 1h1v1H6zM7 1h1v1H7zM8 1h1v1H8zM9 1h1v1H9zM1 2h1v1H1zM10 2h1v1h-1zM1 3h1v1H1zM8 3h1v1H8zM10 3h1v1h-1zM1 4h1v1H1zM5 4h1v1H5zM6 4h1v1H6zM10 4h1v1h-1zM1 5h1v1H1zM4 5h1v1H4zM7 5h1v1H7zM10 5h1v1h-1zM1 6h1v1H1zM4 6h1v1H4zM7 6h1v1H7zM10 6h1v1h-1zM1 7h1v1H1zM5 7h1v1H5zM6 7h1v1H6zM10 7h1v1h-1zM1 8h1v1H1zM10 8h1v1h-1zM1 9h1v1H1zM10 9h1v1h-1zM2 10h1v1H2zM3 10h1v1H3zM4 10h1v1H4zM5 10h1v1H5zM6 10h1v1H6zM7 10h1v1H7zM8 10h1v1H8zM9 10h1v1H9z"/></svg>