<svg xmlns="http://www.w3.org/2000/svg" width="24" height="24" shape-rendering="crispEdges"><path d="M7 6h1v1H7zM6 7h1v1H6zM7 7h1v1H7zM8 7h1v1H8zM6 8h1v1H6zM7 8h1v1H7zM8 8h1v1H8zM5 9h1v1H5zM6 9h1v1H6zM7 9h1v1H7zM8 9h1v1H8zM9 9h1v1H9zM17 9h1v1h-1zM18 9h1v1h-1zM19 9h1v1h-1zM5 10h1v1H5zM6 10h1v1H6zM8 10h1v1H8zM9 10h1v1H9zM16 10h1v1h-1zM17 10h1v1h-1zM18 10h1v1h-1zM19 10h1v1h-1zM20 10h1v1h-1zM4 11h1v1H4zM5 11h1v1H5zM9 11h1v1H9zM10 11h1v1h-1zM15 11h1v1h-1zM16 11h1v1h-1zM20 11h1v1h-1zM21 11h1v1h-1zM3 12h1v1H3zM4 12h1v1H4zM5 12h1v1H5zM6 12h1v1H6zM7 12h1v1H7zM8 12h1v1H8zM9 12h1v1H9zM10 12h1v1h-1zM11 12h1v1h-1zM15 12h1v1h-1zM16 12h1v1h-1zM20 12h1v1h-1zM21 12h1v1h-1zM3 13h1v1H3zM4 13h1v1H4zM5 13h1v1H5zM6 13h1v1H6zM7 13h1v1H7zM8 13h1v1H8zM9 13h1v1H9zM10 13h1v1h-1zM11 13h1v1h-1zM15 13h1v1h-1zM16 13h1v1h-1zM17 13h1v1h-1zM18 13h1v1h-1zM19 13h1v1h-1zM20 13h1v1h-1zM21 13h1v1h-1zM3 14h1v1H3zM4 14h1v1H4zM10 14h1v1h-1zM11 14h1v1h-1zM15 14h1v1h-1zM16 14h1v1h-1zM17 14h1v1h-1zM18 14h1v1h-1zM19 14h1v1h-1zM20 14h1v1h-1zM21 14h1v1h-1zM2 15h1v1H2zM3 15h1v1H3zM11 15h1v1h-1zM12 15h1v1h-1zM15 15h1v1h-1zM16 15h1v1h-1zM20 15h1v1h-1zM21 15h1v1h-1zM2 16h1v1H2zM3 16h1v1H3zM11 16h1v1h-1zM12 16h1v1h-1zM15 16h1v1h-1zM16 16h1v1h-1zM20 16h1v1h-1zM21 16h1v1h-1z"/></svg>