<svg xmlns="http://www.w3.org/2000/svg" width="24" height="24" shape-rendering="crispEdges"><path d="M8 1h1v1H8zM9 1h1v1H9zM8 2h1v1H8zM9 2h1v1H9zM7 3h1v1H7zM8 3h1v1H8zM9 3h1v1H9zM10 3h1v1h-1zM7 4h1v1H7zM8 4h1v1H8zM9 4h1v1H9zM10 4h1v1h-1zM7 5h1v1H7zM8 5h1v1H8zM9 5h1v1H9zM10 5h1v1h-1zM7 6h1v1H7zM8 6h1v1H8zM9 6h1v1H9zM10 6h1v1h-1zM6 7h1v1H6zM7 7h1v1H7zM10 7h1v1h-1zM11 7h1v1h-1zM6 8h1v1H6zM7 8h1v1H7zM10 8h1v1h-1zM11 8h1v1h-1zM6 9h1v1H6zM7 9h1v1H7zM10 9h1v1h-1zM11 9h1v1h-1zM5 10h1v1H5zM6 10h1v1H6zM11 10h1v1h-1zM12 10h1v1h-1zM1 11h1v1H1zM2 11h1v1H2zM3 11h1v1H3zM4 11h1v1H4zM5 11h1v1H5zM6 11h1v1H6zM11 11h1v1h-1zM12 11h1v1h-1zM18 11h1v1h-1zM19 11h1v1h-1zM20 11h1v1h-1zM21 11h1v1h-1zM22 11h1v1h-1zM1 12h1v1H1zM2 12h1v1H2zM3 12h1v1H3zM4 12h1v1H4zM5 12h1v1H5zM11 12h1v1h-1zM12 12h1v1h-1zM17 12h1v1h-1zM18 12h1v1h-1zM19 12h1v1h-1zM20 12h1v1h-1zM21 12h1v1h-1zM22 12h1v1h-1zM11 13h1v1h-1zM12 13h1v1h-1zM17 13h1v1h-1zM18 13h1v1h-1zM12 14h1v1h-1zM13 14h1v1h-1zM16 14h1v1h-1zM17 14h1v1h-1zM12 15h1v1h-1zM13 15h1v1h-1zM16 15h1v1h-1zM17 15h1v1h-1zM12 16h1v1h-1zM13 16h1v1h-1zM16 16h1v1h-1zM17 16h1v1h-1zM13 17h1v1h-1zM14 17h1v1h-1zM15 17h1v1h-1zM16 17h1v1h-1zM13 18h1v1h-1zM14 18h1v1h-1zM15 18h1v1h-1zM16 18h1v1h-1zM13 19h1v1h-1zM14 19h1v1h-1zM15 19h1v1h-1zM16 19h1v1h-1zM13 20h1v1h-1zM14 20h1v1h-1zM15 20h1v1h-1zM16 20h1v1h-1zM14 21h1v1h-1zM15 21h1v1h-1zM14 22h1v1h-1zM15 22h1v1h-1z"/></svg>