<svg xmlns="http://www.w3.org/2000/svg" width="24" height="24" shape-rendering="crispEdges"><path d="M9 1h1v1H9zM10 1h1v1h-1zM19 1h1v1h-1zM20 1h1v1h-1zM9 2h1v1H9zM10 2h1v1h-1zM19 2h1v1h-1zM20 2h1v1h-1zM9 3h1v1H9zM10 3h1v1h-1zM19 3h1v1h-1zM20 3h1v1h-1zM4 4h1v1H4zM5 4h1v1H5zM6 4h1v1H6zM7 4h1v1H7zM8 4h1v1H8zM9 4h1v1H9zM10 4h1v1h-1zM19 4h1v1h-1zM20 4h1v1h-1zM3 5h1v1H3zM4 5h1v1H4zM5 5h1v1H5zM6 5h1v1H6zM7 5h1v1H7zM8 5h1v1H8zM9 5h1v1H9zM10 5h1v1h-1zM19 5h1v1h-1zM20 5h1v1h-1zM3 6h1v1H3zM4 6h1v1H4zM9 6h1v1H9zM10 6h1v1h-1zM14 6h1v1h-1zM15 6h1v1h-1zM16 6h1v1h-1zM17 6h1v1h-1zM18 6h1v1h-1zM19 6h1v1h-1zM20 6h1v1h-1zM3 7h1v1H3zM4 7h1v1H4zM9 7h1v1H9zM10 7h1v1h-1zM13 7h1v1h-1zM14 7h1v1h-1zM15 7h1v1h-1zM16 7h1v1h-1zM17 7h1v1h-1zM18 7h1v1h-1zM19 7h1v1h-1zM20 7h1v1h-1zM3 8h1v1H3zM4 8h1v1H4zM9 8h1v1H9zM10 8h1v1h-1zM13 8h1v1h-1zM14 8h1v1h-1zM19 8h1v1h-1zM20 8h1v1h-1zM3 9h1v1H3zM4 9h1v1H4zM9 9h1v1H9zM10 9h1v1h-1zM13 9h1v1h-1zM14 9h1v1h-1zM19 9h1v1h-1zM20 9h1v1h-1zM3 10h1v1H3zM4 10h1v1H4zM9 10h1v1H9zM10 10h1v1h-1zM13 10h1v1h-1zM14 10h1v1h-1zM19 10h1v1h-1zM20 10h1v1h-1zM3 11h1v1H3zM4 11h1v1H4zM9 11h1v1H9zM10 11h1v1h-1zM13 11h1v1h-1zM14 11h1v1h-1zM19 11h1v1h-1zM20 11h1v1h-1zM3 12h1v1H3zM4 12h1v1H4zM9 12h1v1H9zM10 12h1v1h-1zM13 12h1v1h-1zM14 12h1v1h-1zM19 12h1v1h-1zM20 12h1v1h-1zM3 13h1v1H3zM4 13h1v1H4zM9 13h1v1H9zM10 13h1v1h-1zM13 13h1v1h-1zM14 13h1v1h-1zM19 13h1v1h-1zM20 13h1v1h-1zM3 14h1v1H3zM4 14h1v1H4zM9 14h1v1H9zM10 14h1v1h-1zM13 14h1v1h-1zM14 14h1v1h-1zM19 14h1v1h-1zM20 14h1v1h-1zM3 15h1v1H3zM4 15h1v1H4zM9 15h1v1H9zM10 15h1v1h-1zM13 15h1v1h-1zM14 15h1v1h-1zM19 15h1v1h-1zM20 15h1v1h-1zM3 16h1v1H3zM4 16h1v1H4zM9 16h1v1H9zM10 16h1v1h-1zM13 16h1v1h-1zM14 16h1v1h-1zM15 16h1v1h-1zM16 16h1v1h-1zM17 16h1v1h-1zM18 16h1v1h-1zM19 16h1v1h-1zM20 16h1v1h-1zM3 17h1v1H3zM4 17h1v1H4zM9 17h1v1H9zM10 17h1v1h-1zM14 17h1v1h-1zM15 17h1v1h-1zM16 17h1v1h-1zM17 17h1v1h-1zM18 17h1v1h-1zM19 17h1v1h-1zM20 17h1v1h-1zM3 18h1v1H3zM4 18h1v1H4zM5 18h1v1H5zM6 18h1v1H6zM7 18h1v1H7zM8 18h1v1H8zM9 18h1v1H9zM10 18h1v1h-1zM19 18h1v1h-1zM20 18h1v1h-1zM4 19h1v1H4zM5 19h1v1H5zM6 19h1v1H6zM7 19h1v1H7zM8 19h1v1H8zM9 19h1v1H9zM10 19h1v1h-1zM19 19h1v1h-1zM20 19h1v1h-1zM9 20h1v1H9zM10 20h1v1h-1zM19 20h1v1h-1zM20 20h1v1h-1zM9 21h1v1H9zM10 21h1v1h-1zM19 21h1v1h-1zM20 21h1v1h-1zM9 22h1v1H9zM10 22h1v1h-1zM19 22h1v1h-1zM20 22h1v1h-1z"/></svg>