<svg xmlns="http://www.w3.org/2000/svg" width="24" height="24" shape-rendering="crispEdges"><path d="M6 1h1v1H6zM7 1h1v1H7zM11 1h1v1h-1zM12 1h1v1h-1zM16 1h1v1h-1zM17 1h1v1h-1zM21 1h1v1h-1zM22 1h1v1h-1zM6 2h1v1H6zM7 2h1v1H7zM11 2h1v1h-1zM12 2h1v1h-1zM16 2h1v1h-1zM17 2h1v1h-1zM21 2h1v1h-1zM22 2h1v1h-1zM5 3h1v1H5zM6 3h1v1H6zM10 3h1v1h-1zM11 3h1v1h-1zM15 3h1v1h-1zM16 3h1v1h-1zM20 3h1v1h-1zM21 3h1v1h-1zM5 4h1v1H5zM6 4h1v1H6zM10 4h1v1h-1zM11 4h1v1h-1zM15 4h1v1h-1zM16 4h1v1h-1zM20 4h1v1h-1zM21 4h1v1h-1zM4 5h1v1H4zM5 5h1v1H5zM9 5h1v1H9zM10 5h1v1h-1zM14 5h1v1h-1zM15 5h1v1h-1zM19 5h1v1h-1zM20 5h1v1h-1zM3 6h1v1H3zM4 6h1v1H4zM5 6h1v1H5zM6 6h1v1H6zM7 6h1v1H7zM8 6h1v1H8zM9 6h1v1H9zM10 6h1v1h-1zM11 6h1v1h-1zM12 6h1v1h-1zM13 6h1v1h-1zM14 6h1v1h-1zM15 6h1v1h-1zM16 6h1v1h-1zM17 6h1v1h-1zM18 6h1v1h-1zM19 6h1v1h-1zM20 6h1v1h-1zM3 7h1v1H3zM4 7h1v1H4zM5 7h1v1H5zM6 7h1v1H6zM7 7h1v1H7zM8 7h1v1H8zM9 7h1v1H9zM10 7h1v1h-1zM11 7h1v1h-1zM12 7h1v1h-1zM13 7h1v1h-1zM14 7h1v1h-1zM15 7h1v1h-1zM16 7h1v1h-1zM17 7h1v1h-1zM18 7h1v1h-1zM19 7h1v1h-1zM20 7h1v1h-1zM3 8h1v1H3zM4 8h1v1H4zM8 8h1v1H8zM9 8h1v1H9zM13 8h1v1h-1zM14 8h1v1h-1zM18 8h1v1h-1zM19 8h1v1h-1zM2 9h1v1H2zM3 9h1v1H3zM7 9h1v1H7zM8 9h1v1H8zM12 9h1v1h-1zM13 9h1v1h-1zM17 9h1v1h-1zM18 9h1v1h-1zM2 10h1v1H2zM3 10h1v1H3zM7 10h1v1H7zM8 10h1v1H8zM12 10h1v1h-1zM13 10h1v1h-1zM17 10h1v1h-1zM18 10h1v1h-1zM1 11h1v1H1zM2 11h1v1H2zM6 11h1v1H6zM7 11h1v1H7zM11 11h1v1h-1zM12 11h1v1h-1zM16 11h1v1h-1zM17 11h1v1h-1zM1 12h1v1H1zM2 12h1v1H2zM6 12h1v1H6zM7 12h1v1H7zM11 12h1v1h-1zM12 12h1v1h-1zM16 12h1v1h-1zM17 12h1v1h-1zM11 15h1v1h-1zM12 15h1v1h-1zM11 16h1v1h-1zM12 16h1v1h-1zM11 17h1v1h-1zM12 17h1v1h-1zM11 18h1v1h-1zM12 18h1v1h-1zM11 19h1v1h-1zM12 19h1v1h-1zM11 20h1v1h-1zM12 20h1v1h-1zM11 21h1v1h-1zM12 21h1v1h-1zM11 22h1v1h-1zM12 22h1v1h-1z"/></svg>