<svg xmlns="http://www.w3.org/2000/svg" width="24" height="24" shape-rendering="crispEdges"><path d="M9 1h1v1H9zM10 1h1v1h-1zM9 2h1v1H9zM10 2h1v1h-1zM11 2h1v1h-1zM10 3h1v1h-1zM11 3h1v1h-1zM5 4h1v1H5zM6 4h1v1H6zM7 4h1v1H7zM8 4h1v1H8zM11 4h1v1h-1zM12 4h1v1h-1zM15 4h1v1h-1zM16 4h1v1h-1zM17 4h1v1h-1zM18 4h1v1h-1zM3 5h1v1H3zM4 5h1v1H4zM5 5h1v1H5zM6 5h1v1H6zM7 5h1v1H7zM8 5h1v1H8zM9 5h1v1H9zM10 5h1v1h-1zM11 5h1v1h-1zM12 5h1v1h-1zM13 5h1v1h-1zM14 5h1v1h-1zM15 5h1v1h-1zM16 5h1v1h-1zM17 5h1v1h-1zM18 5h1v1h-1zM19 5h1v1h-1zM20 5h1v1h-1zM2 6h1v1H2zM3 6h1v1H3zM4 6h1v1H4zM9 6h1v1H9zM10 6h1v1h-1zM11 6h1v1h-1zM12 6h1v1h-1zM13 6h1v1h-1zM14 6h1v1h-1zM19 6h1v1h-1zM20 6h1v1h-1zM21 6h1v1h-1zM2 7h1v1H2zM3 7h1v1H3zM11 7h1v1h-1zM12 7h1v1h-1zM20 7h1v1h-1zM21 7h1v1h-1zM1 8h1v1H1zM2 8h1v1H2zM21 8h1v1h-1zM22 8h1v1h-1zM1 9h1v1H1zM2 9h1v1H2zM21 9h1v1h-1zM22 9h1v1h-1zM1 10h1v1H1zM2 10h1v1H2zM21 10h1v1h-1zM22 10h1v1h-1zM1 11h1v1H1zM2 11h1v1H2zM21 11h1v1h-1zM22 11h1v1h-1zM1 12h1v1H1zM2 12h1v1H2zM21 12h1v1h-1zM22 12h1v1h-1zM2 13h1v1H2zM3 13h1v1H3zM20 13h1v1h-1zM21 13h1v1h-1zM2 14h1v1H2zM3 14h1v1H3zM20 14h1v1h-1zM21 14h1v1h-1zM2 15h1v1H2zM3 15h1v1H3zM20 15h1v1h-1zM21 15h1v1h-1zM2 16h1v1H2zM3 16h1v1H3zM4 16h1v1H4zM19 16h1v1h-1zM20 16h1v1h-1zM21 16h1v1h-1zM3 17h1v1H3zM4 17h1v1H4zM19 17h1v1h-1zM20 17h1v1h-1zM3 18h1v1H3zM4 18h1v1H4zM5 18h1v1H5zM18 18h1v1h-1zM19 18h1v1h-1zM20 18h1v1h-1zM4 19h1v1H4zM5 19h1v1H5zM18 19h1v1h-1zM19 19h1v1h-1zM4 20h1v1H4zM5 20h1v1H5zM6 20h1v1H6zM10 20h1v1h-1zM11 20h1v1h-1zM12 20h1v1h-1zM13 20h1v1h-1zM17 20h1v1h-1zM18 20h1v1h-1zM19 20h1v1h-1zM5 21h1v1H5zM6 21h1v1H6zM7 21h1v1H7zM8 21h1v1H8zM9 21h1v1H9zM10 21h1v1h-1zM11 21h1v1h-1zM12 21h1v1h-1zM13 21h1v1h-1zM14 21h1v1h-1zM15 21h1v1h-1zM16 21h1v1h-1zM17 21h1v1h-1zM18 21h1v1h-1zM6 22h1v1H6zM7 22h1v1H7zM8 22h1v1H8zM9 22h1v1H9zM14 22h1v1h-1zM15 22h1v1h-1zM16 22h1v1h-1zM17 22h1v1h-1z"/></svg>