<svg xmlns="http://www.w3.org/2000/svg" width="24" height="24" shape-rendering="crispEdges"><path d="M11 4h1v1h-1zM12 4h1v1h-1zM10 5h1v1h-1zM11 5h1v1h-1zM12 5h1v1h-1zM13 5h1v1h-1zM9 6h1v1H9zM10 6h1v1h-1zM11 6h1v1h-1zM12 6h1v1h-1zM13 6h1v1h-1zM14 6h1v1h-1zM8 7h1v1H8zM9 7h1v1H9zM10 7h1v1h-1zM11 7h1v1h-1zM12 7h1v1h-1zM13 7h1v1h-1zM14 7h1v1h-1zM15 7h1v1h-1zM7 8h1v1H7zM8 8h1v1H8zM9 8h1v1H9zM11 8h1v1h-1zM12 8h1v1h-1zM14 8h1v1h-1zM15 8h1v1h-1zM16 8h1v1h-1zM6 9h1v1H6zM7 9h1v1H7zM8 9h1v1H8zM11 9h1v1h-1zM12 9h1v1h-1zM15 9h1v1h-1zM16 9h1v1h-1zM17 9h1v1h-1zM5 10h1v1H5zM6 10h1v1H6zM7 10h1v1H7zM11 10h1v1h-1zM12 10h1v1h-1zM16 10h1v1h-1zM17 10h1v1h-1zM18 10h1v1h-1zM4 11h1v1H4zM5 11h1v1H5zM6 11h1v1H6zM11 11h1v1h-1zM12 11h1v1h-1zM17 11h1v1h-1zM18 11h1v1h-1zM19 11h1v1h-1zM4 12h1v1H4zM5 12h1v1H5zM11 12h1v1h-1zM12 12h1v1h-1zM18 12h1v1h-1zM19 12h1v1h-1zM11 13h1v1h-1zM12 13h1v1h-1zM11 14h1v1h-1zM12 14h1v1h-1zM11 15h1v1h-1zM12 15h1v1h-1zM11 16h1v1h-1zM12 16h1v1h-1zM11 17h1v1h-1zM12 17h1v1h-1zM11 18h1v1h-1zM12 18h1v1h-1zM11 19h1v1h-1zM12 19h1v1h-1z"/></svg>