<svg xmlns="http://www.w3.org/2000/svg" width="24" height="24" shape-rendering="crispEdges"><path d="M20 4h1v1h-1zM21 4h1v1h-1zM8 5h1v1H8zM9 5h1v1H9zM20 5h1v1h-1zM21 5h1v1h-1zM7 6h1v1H7zM8 6h1v1H8zM9 6h1v1H9zM20 6h1v1h-1zM21 6h1v1h-1zM6 7h1v1H6zM7 7h1v1H7zM8 7h1v1H8zM20 7h1v1h-1zM21 7h1v1h-1zM5 8h1v1H5zM6 8h1v1H6zM7 8h1v1H7zM20 8h1v1h-1zM21 8h1v1h-1zM4 9h1v1H4zM5 9h1v1H5zM6 9h1v1H6zM20 9h1v1h-1zM21 9h1v1h-1zM3 10h1v1H3zM4 10h1v1H4zM5 10h1v1H5zM20 10h1v1h-1zM21 10h1v1h-1zM2 11h1v1H2zM3 11h1v1H3zM4 11h1v1H4zM5 11h1v1H5zM6 11h1v1H6zM7 11h1v1H7zM8 11h1v1H8zM9 11h1v1H9zM10 11h1v1h-1zM11 11h1v1h-1zM12 11h1v1h-1zM13 11h1v1h-1zM14 11h1v1h-1zM15 11h1v1h-1zM16 11h1v1h-1zM17 11h1v1h-1zM20 11h1v1h-1zM21 11h1v1h-1zM2 12h1v1H2zM3 12h1v1H3zM4 12h1v1H4zM5 12h1v1H5zM6 12h1v1H6zM7 12h1v1H7zM8 12h1v1H8zM9 12h1v1H9zM10 12h1v1h-1zM11 12h1v1h-1zM12 12h1v1h-1zM13 12h1v1h-1zM14 12h1v1h-1zM15 12h1v1h-1zM16 12h1v1h-1zM17 12h1v1h-1zM20 12h1v1h-1zM21 12h1v1h-1zM3 13h1v1H3zM4 13h1v1H4zM5 13h1v1H5zM20 13h1v1h-1zM21 13h1v1h-1zM4 14h1v1H4zM5 14h1v1H5zM6 14h1v1H6zM20 14h1v1h-1zM21 14h1v1h-1zM5 15h1v1H5zM6 15h1v1H6zM7 15h1v1H7zM20 15h1v1h-1zM21 15h1v1h-1zM6 16h1v1H6zM7 16h1v1H7zM8 16h1v1H8zM20 16h1v1h-1zM21 16h1v1h-1zM7 17h1v1H7zM8 17h1v1H8zM9 17h1v1H9zM20 17h1v1h-1zM21 17h1v1h-1zM8 18h1v1H8zM9 18h1v1H9zM20 18h1v1h-1zM21 18h1v1h-1zM20 19h1v1h-1zM21 19h1v1h-1z"/></svg>