<svg xmlns="http://www.w3.org/2000/svg" width="24" height="24" shape-rendering="crispEdges"><path d="M6 6h1v1H6zM7 6h1v1H7zM8 6h1v1H8zM9 6h1v1H9zM10 6h1v1h-1zM11 6h1v1h-1zM12 6h1v1h-1zM13 6h1v1h-1zM14 6h1v1h-1zM15 6h1v1h-1zM16 6h1v1h-1zM17 6h1v1h-1zM6 7h1v1H6zM7 7h1v1H7zM8 7h1v1H8zM9 7h1v1H9zM10 7h1v1h-1zM11 7h1v1h-1zM12 7h1v1h-1zM13 7h1v1h-1zM14 7h1v1h-1zM15 7h1v1h-1zM16 7h1v1h-1zM17 7h1v1h-1zM6 8h1v1H6zM7 8h1v1H7zM8 8h1v1H8zM9 8h1v1H9zM6 9h1v1H6zM7 9h1v1H7zM8 9h1v1H8zM9 9h1v1H9zM10 9h1v1h-1zM6 10h1v1H6zM7 10h1v1H7zM9 10h1v1H9zM10 10h1v1h-1zM11 10h1v1h-1zM6 11h1v1H6zM7 11h1v1H7zM10 11h1v1h-1zM11 11h1v1h-1zM12 11h1v1h-1zM6 12h1v1H6zM7 12h1v1H7zM11 12h1v1h-1zM12 12h1v1h-1zM13 12h1v1h-1zM6 13h1v1H6zM7 13h1v1H7zM12 13h1v1h-1zM13 13h1v1h-1zM14 13h1v1h-1zM6 14h1v1H6zM7 14h1v1H7zM13 14h1v1h-1zM14 14h1v1h-1zM15 14h1v1h-1zM6 15h1v1H6zM7 15h1v1H7zM14 15h1v1h-1zM15 15h1v1h-1zM16 15h1v1h-1zM6 16h1v1H6zM7 16h1v1H7zM15 16h1v1h-1zM16 16h1v1h-1zM17 16h1v1h-1zM6 17h1v1H6zM7 17h1v1H7zM16 17h1v1h-1zM17 17h1v1h-1z"/></svg>