<svg xmlns="http://www.w3.org/2000/svg" width="24" height="24" shape-rendering="crispEdges"><path d="M6 3h1v1H6zM7 3h1v1H7zM14 3h1v1h-1zM15 3h1v1h-1zM16 3h1v1h-1zM17 3h1v1h-1zM6 4h1v1H6zM7 4h1v1H7zM14 4h1v1h-1zM15 4h1v1h-1zM16 4h1v1h-1zM17 4h1v1h-1zM6 5h1v1H6zM7 5h1v1H7zM16 5h1v1h-1zM17 5h1v1h-1zM6 6h1v1H6zM7 6h1v1H7zM16 6h1v1h-1zM17 6h1v1h-1zM6 7h1v1H6zM7 7h1v1H7zM16 7h1v1h-1zM17 7h1v1h-1zM6 8h1v1H6zM7 8h1v1H7zM16 8h1v1h-1zM17 8h1v1h-1zM6 9h1v1H6zM7 9h1v1H7zM14 9h1v1h-1zM15 9h1v1h-1zM16 9h1v1h-1zM17 9h1v1h-1zM18 9h1v1h-1zM19 9h1v1h-1zM6 10h1v1H6zM7 10h1v1H7zM14 10h1v1h-1zM15 10h1v1h-1zM16 10h1v1h-1zM17 10h1v1h-1zM18 10h1v1h-1zM19 10h1v1h-1zM6 11h1v1H6zM7 11h1v1H7zM6 12h1v1H6zM7 12h1v1H7zM6 13h1v1H6zM7 13h1v1H7zM15 13h1v1h-1zM16 13h1v1h-1zM17 13h1v1h-1zM18 13h1v1h-1zM6 14h1v1H6zM7 14h1v1H7zM14 14h1v1h-1zM15 14h1v1h-1zM16 14h1v1h-1zM17 14h1v1h-1zM18 14h1v1h-1zM19 14h1v1h-1zM2 15h1v1H2zM3 15h1v1H3zM6 15h1v1H6zM7 15h1v1H7zM10 15h1v1h-1zM11 15h1v1h-1zM14 15h1v1h-1zM15 15h1v1h-1zM18 15h1v1h-1zM19 15h1v1h-1zM2 16h1v1H2zM3 16h1v1H3zM4 16h1v1H4zM6 16h1v1H6zM7 16h1v1H7zM9 16h1v1H9zM10 16h1v1h-1zM11 16h1v1h-1zM14 16h1v1h-1zM15 16h1v1h-1zM18 16h1v1h-1zM19 16h1v1h-1zM3 17h1v1H3zM4 17h1v1H4zM5 17h1v1H5zM6 17h1v1H6zM7 17h1v1H7zM8 17h1v1H8zM9 17h1v1H9zM10 17h1v1h-1zM14 17h1v1h-1zM15 17h1v1h-1zM18 17h1v1h-1zM19 17h1v1h-1zM4 18h1v1H4zM5 18h1v1H5zM6 18h1v1H6zM7 18h1v1H7zM8 18h1v1H8zM9 18h1v1H9zM14 18h1v1h-1zM15 18h1v1h-1zM18 18h1v1h-1zM19 18h1v1h-1zM5 19h1v1H5zM6 19h1v1H6zM7 19h1v1H7zM8 19h1v1H8zM14 19h1v1h-1zM15 19h1v1h-1zM16 19h1v1h-1zM17 19h1v1h-1zM18 19h1v1h-1zM19 19h1v1h-1zM6 20h1v1H6zM7 20h1v1H7zM15 20h1v1h-1zM16 20h1v1h-1zM17 20h1v1h-1zM18 20h1v1h-1z"/></svg>