<svg xmlns="http://www.w3.org/2000/svg" width="24" height="24" shape-rendering="crispEdges"><path d="M11 2h1v1h-1zM12 2h1v1h-1zM11 3h1v1h-1zM12 3h1v1h-1zM11 4h1v1h-1zM12 4h1v1h-1zM11 5h1v1h-1zM12 5h1v1h-1zM11 6h1v1h-1zM12 6h1v1h-1zM11 7h1v1h-1zM12 7h1v1h-1zM11 8h1v1h-1zM12 8h1v1h-1zM11 9h1v1h-1zM12 9h1v1h-1zM5 10h1v1H5zM6 10h1v1H6zM11 10h1v1h-1zM12 10h1v1h-1zM17 10h1v1h-1zM18 10h1v1h-1zM5 11h1v1H5zM6 11h1v1H6zM7 11h1v1H7zM11 11h1v1h-1zM12 11h1v1h-1zM16 11h1v1h-1zM17 11h1v1h-1zM18 11h1v1h-1zM6 12h1v1H6zM7 12h1v1H7zM8 12h1v1H8zM11 12h1v1h-1zM12 12h1v1h-1zM15 12h1v1h-1zM16 12h1v1h-1zM17 12h1v1h-1zM7 13h1v1H7zM8 13h1v1H8zM9 13h1v1H9zM11 13h1v1h-1zM12 13h1v1h-1zM14 13h1v1h-1zM15 13h1v1h-1zM16 13h1v1h-1zM8 14h1v1H8zM9 14h1v1H9zM10 14h1v1h-1zM11 14h1v1h-1zM12 14h1v1h-1zM13 14h1v1h-1zM14 14h1v1h-1zM15 14h1v1h-1zM9 15h1v1H9zM10 15h1v1h-1zM11 15h1v1h-1zM12 15h1v1h-1zM13 15h1v1h-1zM14 15h1v1h-1zM10 16h1v1h-1zM11 16h1v1h-1zM12 16h1v1h-1zM13 16h1v1h-1zM11 17h1v1h-1zM12 17h1v1h-1zM4 20h1v1H4zM5 20h1v1H5zM6 20h1v1H6zM7 20h1v1H7zM8 20h1v1H8zM9 20h1v1H9zM10 20h1v1h-1zM11 20h1v1h-1zM12 20h1v1h-1zM13 20h1v1h-1zM14 20h1v1h-1zM15 20h1v1h-1zM16 20h1v1h-1zM17 20h1v1h-1zM18 20h1v1h-1zM19 20h1v1h-1zM4 21h1v1H4zM5 21h1v1H5zM6 21h1v1H6zM7 21h1v1H7zM8 21h1v1H8zM9 21h1v1H9zM10 21h1v1h-1zM11 21h1v1h-1zM12 21h1v1h-1zM13 21h1v1h-1zM14 21h1v1h-1zM15 21h1v1h-1zM16 21h1v1h-1zM17 21h1v1h-1zM18 21h1v1h-1zM19 21h1v1h-1z"/></svg>