<svg xmlns="http://www.w3.org/2000/svg" width="24" height="24" shape-rendering="crispEdges"><path d="M6 2h1v1H6zM7 2h1v1H7zM16 2h1v1h-1zM17 2h1v1h-1zM5 3h1v1H5zM6 3h1v1H6zM7 3h1v1H7zM8 3h1v1H8zM15 3h1v1h-1zM16 3h1v1h-1zM17 3h1v1h-1zM18 3h1v1h-1zM4 4h1v1H4zM5 4h1v1H5zM6 4h1v1H6zM7 4h1v1H7zM8 4h1v1H8zM9 4h1v1H9zM14 4h1v1h-1zM15 4h1v1h-1zM16 4h1v1h-1zM17 4h1v1h-1zM18 4h1v1h-1zM19 4h1v1h-1zM3 5h1v1H3zM4 5h1v1H4zM5 5h1v1H5zM6 5h1v1H6zM7 5h1v1H7zM8 5h1v1H8zM9 5h1v1H9zM10 5h1v1h-1zM13 5h1v1h-1zM14 5h1v1h-1zM15 5h1v1h-1zM16 5h1v1h-1zM17 5h1v1h-1zM18 5h1v1h-1zM19 5h1v1h-1zM20 5h1v1h-1zM3 6h1v1H3zM4 6h1v1H4zM6 6h1v1H6zM7 6h1v1H7zM9 6h1v1H9zM10 6h1v1h-1zM13 6h1v1h-1zM14 6h1v1h-1zM16 6h1v1h-1zM17 6h1v1h-1zM19 6h1v1h-1zM20 6h1v1h-1zM6 7h1v1H6zM7 7h1v1H7zM16 7h1v1h-1zM17 7h1v1h-1zM6 8h1v1H6zM7 8h1v1H7zM16 8h1v1h-1zM17 8h1v1h-1zM6 9h1v1H6zM7 9h1v1H7zM16 9h1v1h-1zM17 9h1v1h-1zM6 10h1v1H6zM7 10h1v1H7zM16 10h1v1h-1zM17 10h1v1h-1zM6 11h1v1H6zM7 11h1v1H7zM16 11h1v1h-1zM17 11h1v1h-1zM6 12h1v1H6zM7 12h1v1H7zM16 12h1v1h-1zM17 12h1v1h-1zM6 13h1v1H6zM7 13h1v1H7zM16 13h1v1h-1zM17 13h1v1h-1zM6 14h1v1H6zM7 14h1v1H7zM16 14h1v1h-1zM17 14h1v1h-1zM6 15h1v1H6zM7 15h1v1H7zM16 15h1v1h-1zM17 15h1v1h-1zM6 16h1v1H6zM7 16h1v1H7zM16 16h1v1h-1zM17 16h1v1h-1zM6 17h1v1H6zM7 17h1v1H7zM16 17h1v1h-1zM17 17h1v1h-1zM3 20h1v1H3zM4 20h1v1H4zM5 20h1v1H5zM6 20h1v1H6zM7 20h1v1H7zM8 20h1v1H8zM9 20h1v1H9zM10 20h1v1h-1zM11 20h1v1h-1zM12 20h1v1h-1zM13 20h1v1h-1zM14 20h1v1h-1zM15 20h1v1h-1zM16 20h1v1h-1zM17 20h1v1h-1zM18 20h1v1h-1zM19 20h1v1h-1zM20 20h1v1h-1zM3 21h1v1H3zM4 21h1v1H4zM5 21h1v1H5zM6 21h1v1H6zM7 21h1v1H7zM8 21h1v1H8zM9 21h1v1H9zM10 21h1v1h-1zM11 21h1v1h-1zM12 21h1v1h-1zM13 21h1v1h-1zM14 21h1v1h-1zM15 21h1v1h-1zM16 21h1v1h-1zM17 21h1v1h-1zM18 21h1v1h-1zM19 21h1v1h-1zM20 21h1v1h-1z"/></svg>