<svg xmlns="http://www.w3.org/2000/svg" width="24" height="24" shape-rendering="crispEdges"><path d="M2 4h1v1H2zM3 4h1v1H3zM2 5h1v1H2zM3 5h1v1H3zM12 5h1v1h-1zM13 5h1v1h-1zM2 6h1v1H2zM3 6h1v1H3zM11 6h1v1h-1zM12 6h1v1h-1zM13 6h1v1h-1zM2 7h1v1H2zM3 7h1v1H3zM10 7h1v1h-1zM11 7h1v1h-1zM12 7h1v1h-1zM2 8h1v1H2zM3 8h1v1H3zM9 8h1v1H9zM10 8h1v1h-1zM11 8h1v1h-1zM2 9h1v1H2zM3 9h1v1H3zM8 9h1v1H8zM9 9h1v1H9zM10 9h1v1h-1zM2 10h1v1H2zM3 10h1v1H3zM7 10h1v1H7zM8 10h1v1H8zM9 10h1v1H9zM2 11h1v1H2zM3 11h1v1H3zM6 11h1v1H6zM7 11h1v1H7zM8 11h1v1H8zM9 11h1v1H9zM10 11h1v1h-1zM11 11h1v1h-1zM12 11h1v1h-1zM13 11h1v1h-1zM14 11h1v1h-1zM15 11h1v1h-1zM16 11h1v1h-1zM17 11h1v1h-1zM18 11h1v1h-1zM19 11h1v1h-1zM20 11h1v1h-1zM21 11h1v1h-1zM2 12h1v1H2zM3 12h1v1H3zM6 12h1v1H6zM7 12h1v1H7zM8 12h1v1H8zM9 12h1v1H9zM10 12h1v1h-1zM11 12h1v1h-1zM12 12h1v1h-1zM13 12h1v1h-1zM14 12h1v1h-1zM15 12h1v1h-1zM16 12h1v1h-1zM17 12h1v1h-1zM18 12h1v1h-1zM19 12h1v1h-1zM20 12h1v1h-1zM21 12h1v1h-1zM2 13h1v1H2zM3 13h1v1H3zM7 13h1v1H7zM8 13h1v1H8zM9 13h1v1H9zM2 14h1v1H2zM3 14h1v1H3zM8 14h1v1H8zM9 14h1v1H9zM10 14h1v1h-1zM2 15h1v1H2zM3 15h1v1H3zM9 15h1v1H9zM10 15h1v1h-1zM11 15h1v1h-1zM2 16h1v1H2zM3 16h1v1H3zM10 16h1v1h-1zM11 16h1v1h-1zM12 16h1v1h-1zM2 17h1v1H2zM3 17h1v1H3zM11 17h1v1h-1zM12 17h1v1h-1zM13 17h1v1h-1zM2 18h1v1H2zM3 18h1v1H3zM12 18h1v1h-1zM13 18h1v1h-1zM2 19h1v1H2zM3 19h1v1H3z"/></svg>