<svg xmlns="http://www.w3.org/2000/svg" width="24" height="24" shape-rendering="crispEdges"><path d="M6 3h1v1H6zM7 3h1v1H7zM10 3h1v1h-1zM11 3h1v1h-1zM12 3h1v1h-1zM13 3h1v1h-1zM14 3h1v1h-1zM15 3h1v1h-1zM6 4h1v1H6zM7 4h1v1H7zM10 4h1v1h-1zM11 4h1v1h-1zM12 4h1v1h-1zM13 4h1v1h-1zM14 4h1v1h-1zM15 4h1v1h-1zM6 5h1v1H6zM7 5h1v1H7zM6 6h1v1H6zM7 6h1v1H7zM6 7h1v1H6zM7 7h1v1H7zM10 7h1v1h-1zM11 7h1v1h-1zM12 7h1v1h-1zM13 7h1v1h-1zM14 7h1v1h-1zM15 7h1v1h-1zM16 7h1v1h-1zM17 7h1v1h-1zM18 7h1v1h-1zM6 8h1v1H6zM7 8h1v1H7zM10 8h1v1h-1zM11 8h1v1h-1zM12 8h1v1h-1zM13 8h1v1h-1zM14 8h1v1h-1zM15 8h1v1h-1zM16 8h1v1h-1zM17 8h1v1h-1zM18 8h1v1h-1zM6 9h1v1H6zM7 9h1v1H7zM6 10h1v1H6zM7 10h1v1H7zM6 11h1v1H6zM7 11h1v1H7zM10 11h1v1h-1zM11 11h1v1h-1zM12 11h1v1h-1zM13 11h1v1h-1zM14 11h1v1h-1zM15 11h1v1h-1zM16 11h1v1h-1zM17 11h1v1h-1zM18 11h1v1h-1zM19 11h1v1h-1zM20 11h1v1h-1zM21 11h1v1h-1zM6 12h1v1H6zM7 12h1v1H7zM10 12h1v1h-1zM11 12h1v1h-1zM12 12h1v1h-1zM13 12h1v1h-1zM14 12h1v1h-1zM15 12h1v1h-1zM16 12h1v1h-1zM17 12h1v1h-1zM18 12h1v1h-1zM19 12h1v1h-1zM20 12h1v1h-1zM21 12h1v1h-1zM6 13h1v1H6zM7 13h1v1H7zM6 14h1v1H6zM7 14h1v1H7zM2 15h1v1H2zM3 15h1v1H3zM6 15h1v1H6zM7 15h1v1H7zM10 15h1v1h-1zM11 15h1v1h-1zM2 16h1v1H2zM3 16h1v1H3zM4 16h1v1H4zM6 16h1v1H6zM7 16h1v1H7zM9 16h1v1H9zM10 16h1v1h-1zM11 16h1v1h-1zM3 17h1v1H3zM4 17h1v1H4zM5 17h1v1H5zM6 17h1v1H6zM7 17h1v1H7zM8 17h1v1H8zM9 17h1v1H9zM10 17h1v1h-1zM4 18h1v1H4zM5 18h1v1H5zM6 18h1v1H6zM7 18h1v1H7zM8 18h1v1H8zM9 18h1v1H9zM5 19h1v1H5zM6 19h1v1H6zM7 19h1v1H7zM8 19h1v1H8zM6 20h1v1H6zM7 20h1v1H7z"/></svg>