<svg xmlns="http://www.w3.org/2000/svg" width="24" height="24" shape-rendering="crispEdges"><path d="M12 2h1v1h-1zM13 2h1v1h-1zM11 3h1v1h-1zM12 3h1v1h-1zM13 3h1v1h-1zM14 3h1v1h-1zM10 4h1v1h-1zM11 4h1v1h-1zM12 4h1v1h-1zM13 4h1v1h-1zM14 4h1v1h-1zM15 4h1v1h-1zM9 5h1v1H9zM10 5h1v1h-1zM11 5h1v1h-1zM14 5h1v1h-1zM15 5h1v1h-1zM16 5h1v1h-1zM8 6h1v1H8zM9 6h1v1H9zM10 6h1v1h-1zM15 6h1v1h-1zM16 6h1v1h-1zM17 6h1v1h-1zM8 7h1v1H8zM9 7h1v1H9zM10 7h1v1h-1zM16 7h1v1h-1zM17 7h1v1h-1zM18 7h1v1h-1zM9 8h1v1H9zM10 8h1v1h-1zM11 8h1v1h-1zM17 8h1v1h-1zM18 8h1v1h-1zM19 8h1v1h-1zM20 8h1v1h-1zM21 8h1v1h-1zM22 8h1v1h-1zM9 9h1v1H9zM10 9h1v1h-1zM11 9h1v1h-1zM12 9h1v1h-1zM18 9h1v1h-1zM19 9h1v1h-1zM20 9h1v1h-1zM21 9h1v1h-1zM22 9h1v1h-1zM8 10h1v1H8zM9 10h1v1H9zM10 10h1v1h-1zM11 10h1v1h-1zM12 10h1v1h-1zM13 10h1v1h-1zM21 10h1v1h-1zM22 10h1v1h-1zM7 11h1v1H7zM8 11h1v1H8zM9 11h1v1H9zM12 11h1v1h-1zM13 11h1v1h-1zM14 11h1v1h-1zM20 11h1v1h-1zM21 11h1v1h-1zM6 12h1v1H6zM7 12h1v1H7zM8 12h1v1H8zM12 12h1v1h-1zM13 12h1v1h-1zM14 12h1v1h-1zM15 12h1v1h-1zM19 12h1v1h-1zM20 12h1v1h-1zM21 12h1v1h-1zM5 13h1v1H5zM6 13h1v1H6zM7 13h1v1H7zM11 13h1v1h-1zM12 13h1v1h-1zM13 13h1v1h-1zM14 13h1v1h-1zM15 13h1v1h-1zM18 13h1v1h-1zM19 13h1v1h-1zM20 13h1v1h-1zM4 14h1v1H4zM5 14h1v1H5zM6 14h1v1H6zM10 14h1v1h-1zM11 14h1v1h-1zM12 14h1v1h-1zM14 14h1v1h-1zM15 14h1v1h-1zM17 14h1v1h-1zM18 14h1v1h-1zM19 14h1v1h-1zM3 15h1v1H3zM4 15h1v1H4zM5 15h1v1H5zM9 15h1v1H9zM10 15h1v1h-1zM11 15h1v1h-1zM14 15h1v1h-1zM15 15h1v1h-1zM16 15h1v1h-1zM17 15h1v1h-1zM18 15h1v1h-1zM2 16h1v1H2zM3 16h1v1H3zM4 16h1v1H4zM8 16h1v1H8zM9 16h1v1H9zM10 16h1v1h-1zM14 16h1v1h-1zM15 16h1v1h-1zM16 16h1v1h-1zM1 17h1v1H1zM2 17h1v1H2zM3 17h1v1H3zM7 17h1v1H7zM8 17h1v1H8zM9 17h1v1H9zM1 18h1v1H1zM2 18h1v1H2zM6 18h1v1H6zM7 18h1v1H7zM8 18h1v1H8zM1 19h1v1H1zM2 19h1v1H2zM5 19h1v1H5zM6 19h1v1H6zM7 19h1v1H7zM1 20h1v1H1zM2 20h1v1H2zM3 20h1v1H3zM4 20h1v1H4zM5 20h1v1H5zM6 20h1v1H6zM2 21h1v1H2zM3 21h1v1H3zM4 21h1v1H4zM5 21h1v1H5z"/></svg>