<svg xmlns="http://www.w3.org/2000/svg" width="24" height="24" shape-rendering="crispEdges"><path d="M3 3h1v1H3zM4 3h1v1H4zM3 4h1v1H3zM4 4h1v1H4zM3 5h1v1H3zM4 5h1v1H4zM3 6h1v1H3zM4 6h1v1H4zM3 7h1v1H3zM4 7h1v1H4zM3 8h1v1H3zM4 8h1v1H4zM3 9h1v1H3zM4 9h1v1H4zM3 10h1v1H3zM4 10h1v1H4zM3 11h1v1H3zM4 11h1v1H4zM3 12h1v1H3zM4 12h1v1H4zM10 12h1v1h-1zM11 12h1v1h-1zM3 13h1v1H3zM4 13h1v1H4zM9 13h1v1H9zM10 13h1v1h-1zM11 13h1v1h-1zM3 14h1v1H3zM4 14h1v1H4zM8 14h1v1H8zM9 14h1v1H9zM10 14h1v1h-1zM3 15h1v1H3zM4 15h1v1H4zM7 15h1v1H7zM8 15h1v1H8zM9 15h1v1H9zM3 16h1v1H3zM4 16h1v1H4zM6 16h1v1H6zM7 16h1v1H7zM8 16h1v1H8zM3 17h1v1H3zM4 17h1v1H4zM5 17h1v1H5zM6 17h1v1H6zM7 17h1v1H7zM3 18h1v1H3zM4 18h1v1H4zM5 18h1v1H5zM6 18h1v1H6zM3 19h1v1H3zM4 19h1v1H4zM5 19h1v1H5zM6 19h1v1H6zM7 19h1v1H7zM8 19h1v1H8zM9 19h1v1H9zM10 19h1v1h-1zM11 19h1v1h-1zM12 19h1v1h-1zM13 19h1v1h-1zM14 19h1v1h-1zM15 19h1v1h-1zM16 19h1v1h-1zM17 19h1v1h-1zM18 19h1v1h-1zM19 19h1v1h-1zM20 19h1v1h-1zM3 20h1v1H3zM4 20h1v1H4zM5 20h1v1H5zM6 20h1v1H6zM7 20h1v1H7zM8 20h1v1H8zM9 20h1v1H9zM10 20h1v1h-1zM11 20h1v1h-1zM12 20h1v1h-1zM13 20h1v1h-1zM14 20h1v1h-1zM15 20h1v1h-1zM16 20h1v1h-1zM17 20h1v1h-1zM18 20h1v1h-1zM19 20h1v1h-1zM20 20h1v1h-1z"/></svg>