<svg xmlns="http://www.w3.org/2000/svg" width="24" height="24" shape-rendering="crispEdges"><path d="M2 4h1v1H2zM3 4h1v1H3zM7 4h1v1H7zM8 4h1v1H8zM11 4h1v1h-1zM12 4h1v1h-1zM16 4h1v1h-1zM17 4h1v1h-1zM20 4h1v1h-1zM21 4h1v1h-1zM2 5h1v1H2zM3 5h1v1H3zM7 5h1v1H7zM8 5h1v1H8zM11 5h1v1h-1zM12 5h1v1h-1zM16 5h1v1h-1zM17 5h1v1h-1zM20 5h1v1h-1zM21 5h1v1h-1zM2 6h1v1H2zM3 6h1v1H3zM7 6h1v1H7zM8 6h1v1H8zM11 6h1v1h-1zM12 6h1v1h-1zM16 6h1v1h-1zM17 6h1v1h-1zM20 6h1v1h-1zM21 6h1v1h-1zM2 7h1v1H2zM3 7h1v1H3zM7 7h1v1H7zM8 7h1v1H8zM11 7h1v1h-1zM12 7h1v1h-1zM16 7h1v1h-1zM17 7h1v1h-1zM20 7h1v1h-1zM21 7h1v1h-1zM2 8h1v1H2zM3 8h1v1H3zM7 8h1v1H7zM8 8h1v1H8zM11 8h1v1h-1zM12 8h1v1h-1zM16 8h1v1h-1zM17 8h1v1h-1zM20 8h1v1h-1zM21 8h1v1h-1zM2 9h1v1H2zM3 9h1v1H3zM7 9h1v1H7zM8 9h1v1H8zM11 9h1v1h-1zM12 9h1v1h-1zM16 9h1v1h-1zM17 9h1v1h-1zM20 9h1v1h-1zM21 9h1v1h-1zM2 10h1v1H2zM3 10h1v1H3zM7 10h1v1H7zM8 10h1v1H8zM11 10h1v1h-1zM12 10h1v1h-1zM16 10h1v1h-1zM17 10h1v1h-1zM20 10h1v1h-1zM21 10h1v1h-1zM2 11h1v1H2zM3 11h1v1H3zM7 11h1v1H7zM8 11h1v1H8zM11 11h1v1h-1zM12 11h1v1h-1zM16 11h1v1h-1zM17 11h1v1h-1zM20 11h1v1h-1zM21 11h1v1h-1zM2 12h1v1H2zM3 12h1v1H3zM7 12h1v1H7zM8 12h1v1H8zM11 12h1v1h-1zM12 12h1v1h-1zM16 12h1v1h-1zM17 12h1v1h-1zM20 12h1v1h-1zM21 12h1v1h-1zM2 13h1v1H2zM3 13h1v1H3zM7 13h1v1H7zM8 13h1v1H8zM11 13h1v1h-1zM12 13h1v1h-1zM16 13h1v1h-1zM17 13h1v1h-1zM20 13h1v1h-1zM21 13h1v1h-1zM2 14h1v1H2zM3 14h1v1H3zM7 14h1v1H7zM8 14h1v1H8zM11 14h1v1h-1zM12 14h1v1h-1zM16 14h1v1h-1zM17 14h1v1h-1zM20 14h1v1h-1zM21 14h1v1h-1zM2 15h1v1H2zM3 15h1v1H3zM7 15h1v1H7zM8 15h1v1H8zM11 15h1v1h-1zM12 15h1v1h-1zM16 15h1v1h-1zM17 15h1v1h-1zM20 15h1v1h-1zM21 15h1v1h-1zM2 16h1v1H2zM3 16h1v1H3zM7 16h1v1H7zM8 16h1v1H8zM11 16h1v1h-1zM12 16h1v1h-1zM16 16h1v1h-1zM17 16h1v1h-1zM20 16h1v1h-1zM21 16h1v1h-1zM2 17h1v1H2zM3 17h1v1H3zM7 17h1v1H7zM8 17h1v1H8zM11 17h1v1h-1zM12 17h1v1h-1zM16 17h1v1h-1zM17 17h1v1h-1zM20 17h1v1h-1zM21 17h1v1h-1zM2 18h1v1H2zM3 18h1v1H3zM7 18h1v1H7zM8 18h1v1H8zM11 18h1v1h-1zM12 18h1v1h-1zM16 18h1v1h-1zM17 18h1v1h-1zM20 18h1v1h-1zM21 18h1v1h-1zM2 19h1v1H2zM3 19h1v1H3zM7 19h1v1H7zM8 19h1v1H8zM11 19h1v1h-1zM12 19h1v1h-1zM16 19h1v1h-1zM17 19h1v1h-1zM20 19h1v1h-1zM21 19h1v1h-1z"/></svg>