<svg xmlns="http://www.w3.org/2000/svg" width="24" height="24" shape-rendering="crispEdges"><path d="M10 1h1v1h-1zM11 1h1v1h-1zM12 1h1v1h-1zM13 1h1v1h-1zM14 1h1v1h-1zM8 2h1v1H8zM9 2h1v1H9zM10 2h1v1h-1zM11 2h1v1h-1zM12 2h1v1h-1zM13 2h1v1h-1zM14 2h1v1h-1zM15 2h1v1h-1zM16 2h1v1h-1zM7 3h1v1H7zM8 3h1v1H8zM9 3h1v1H9zM15 3h1v1h-1zM16 3h1v1h-1zM17 3h1v1h-1zM6 4h1v1H6zM7 4h1v1H7zM8 4h1v1H8zM16 4h1v1h-1zM17 4h1v1h-1zM18 4h1v1h-1zM6 5h1v1H6zM7 5h1v1H7zM11 5h1v1h-1zM12 5h1v1h-1zM13 5h1v1h-1zM17 5h1v1h-1zM18 5h1v1h-1zM19 5h1v1h-1zM5 6h1v1H5zM6 6h1v1H6zM10 6h1v1h-1zM11 6h1v1h-1zM12 6h1v1h-1zM13 6h1v1h-1zM14 6h1v1h-1zM17 6h1v1h-1zM18 6h1v1h-1zM19 6h1v1h-1zM5 7h1v1H5zM6 7h1v1H6zM9 7h1v1H9zM10 7h1v1h-1zM14 7h1v1h-1zM15 7h1v1h-1zM18 7h1v1h-1zM19 7h1v1h-1zM5 8h1v1H5zM6 8h1v1H6zM9 8h1v1H9zM10 8h1v1h-1zM14 8h1v1h-1zM15 8h1v1h-1zM18 8h1v1h-1zM19 8h1v1h-1zM20 8h1v1h-1zM4 9h1v1H4zM5 9h1v1H5zM9 9h1v1H9zM10 9h1v1h-1zM14 9h1v1h-1zM15 9h1v1h-1zM18 9h1v1h-1zM19 9h1v1h-1zM20 9h1v1h-1zM4 10h1v1H4zM5 10h1v1H5zM10 10h1v1h-1zM11 10h1v1h-1zM12 10h1v1h-1zM13 10h1v1h-1zM14 10h1v1h-1zM18 10h1v1h-1zM19 10h1v1h-1zM20 10h1v1h-1zM21 10h1v1h-1zM3 11h1v1H3zM4 11h1v1H4zM11 11h1v1h-1zM12 11h1v1h-1zM13 11h1v1h-1zM17 11h1v1h-1zM18 11h1v1h-1zM20 11h1v1h-1zM21 11h1v1h-1zM2 12h1v1H2zM3 12h1v1H3zM4 12h1v1H4zM16 12h1v1h-1zM17 12h1v1h-1zM18 12h1v1h-1zM20 12h1v1h-1zM21 12h1v1h-1zM1 13h1v1H1zM2 13h1v1H2zM3 13h1v1H3zM15 13h1v1h-1zM16 13h1v1h-1zM17 13h1v1h-1zM20 13h1v1h-1zM21 13h1v1h-1zM1 14h1v1H1zM2 14h1v1H2zM13 14h1v1h-1zM14 14h1v1h-1zM15 14h1v1h-1zM16 14h1v1h-1zM20 14h1v1h-1zM21 14h1v1h-1zM1 15h1v1H1zM2 15h1v1H2zM11 15h1v1h-1zM12 15h1v1h-1zM13 15h1v1h-1zM14 15h1v1h-1zM15 15h1v1h-1zM19 15h1v1h-1zM20 15h1v1h-1zM1 16h1v1H1zM2 16h1v1H2zM3 16h1v1H3zM9 16h1v1H9zM10 16h1v1h-1zM11 16h1v1h-1zM12 16h1v1h-1zM13 16h1v1h-1zM18 16h1v1h-1zM19 16h1v1h-1zM20 16h1v1h-1zM2 17h1v1H2zM3 17h1v1H3zM4 17h1v1H4zM5 17h1v1H5zM6 17h1v1H6zM7 17h1v1H7zM8 17h1v1H8zM9 17h1v1H9zM10 17h1v1h-1zM11 17h1v1h-1zM17 17h1v1h-1zM18 17h1v1h-1zM19 17h1v1h-1zM2 18h1v1H2zM3 18h1v1H3zM4 18h1v1H4zM5 18h1v1H5zM6 18h1v1H6zM7 18h1v1H7zM8 18h1v1H8zM15 18h1v1h-1zM16 18h1v1h-1zM17 18h1v1h-1zM18 18h1v1h-1zM3 19h1v1H3zM4 19h1v1H4zM13 19h1v1h-1zM14 19h1v1h-1zM15 19h1v1h-1zM16 19h1v1h-1zM17 19h1v1h-1zM3 20h1v1H3zM4 20h1v1H4zM5 20h1v1H5zM11 20h1v1h-1zM12 20h1v1h-1zM13 20h1v1h-1zM14 20h1v1h-1zM15 20h1v1h-1zM4 21h1v1H4zM5 21h1v1H5zM6 21h1v1H6zM7 21h1v1H7zM8 21h1v1H8zM9 21h1v1H9zM10 21h1v1h-1zM11 21h1v1h-1zM12 21h1v1h-1zM13 21h1v1h-1zM5 22h1v1H5zM6 22h1v1H6zM7 22h1v1H7zM8 22h1v1H8zM9 22h1v1H9zM10 22h1v1h-1z"/></svg>