<svg xmlns="http://www.w3.org/2000/svg" width="24" height="24" shape-rendering="crispEdges"><path d="M6 1h1v1H6zM7 1h1v1H7zM8 1h1v1H8zM9 1h1v1H9zM10 1h1v1h-1zM11 1h1v1h-1zM4 2h1v1H4zM5 2h1v1H5zM6 2h1v1H6zM7 2h1v1H7zM8 2h1v1H8zM9 2h1v1H9zM10 2h1v1h-1zM11 2h1v1h-1zM12 2h1v1h-1zM13 2h1v1h-1zM3 3h1v1H3zM4 3h1v1H4zM5 3h1v1H5zM6 3h1v1H6zM11 3h1v1h-1zM12 3h1v1h-1zM13 3h1v1h-1zM14 3h1v1h-1zM18 3h1v1h-1zM19 3h1v1h-1zM2 4h1v1H2zM3 4h1v1H3zM4 4h1v1H4zM13 4h1v1h-1zM14 4h1v1h-1zM15 4h1v1h-1zM18 4h1v1h-1zM19 4h1v1h-1zM2 5h1v1H2zM3 5h1v1H3zM14 5h1v1h-1zM15 5h1v1h-1zM18 5h1v1h-1zM19 5h1v1h-1zM1 6h1v1H1zM2 6h1v1H2zM3 6h1v1H3zM14 6h1v1h-1zM15 6h1v1h-1zM16 6h1v1h-1zM19 6h1v1h-1zM20 6h1v1h-1zM1 7h1v1H1zM2 7h1v1H2zM15 7h1v1h-1zM16 7h1v1h-1zM19 7h1v1h-1zM20 7h1v1h-1zM1 8h1v1H1zM2 8h1v1H2zM8 8h1v1H8zM9 8h1v1H9zM15 8h1v1h-1zM16 8h1v1h-1zM19 8h1v1h-1zM20 8h1v1h-1zM1 9h1v1H1zM2 9h1v1H2zM8 9h1v1H8zM9 9h1v1H9zM15 9h1v1h-1zM16 9h1v1h-1zM19 9h1v1h-1zM20 9h1v1h-1zM1 10h1v1H1zM2 10h1v1H2zM15 10h1v1h-1zM16 10h1v1h-1zM1 11h1v1H1zM2 11h1v1H2zM3 11h1v1H3zM14 11h1v1h-1zM15 11h1v1h-1zM16 11h1v1h-1zM2 12h1v1H2zM3 12h1v1H3zM14 12h1v1h-1zM15 12h1v1h-1zM2 13h1v1H2zM3 13h1v1H3zM4 13h1v1H4zM13 13h1v1h-1zM14 13h1v1h-1zM15 13h1v1h-1zM18 13h1v1h-1zM19 13h1v1h-1zM20 13h1v1h-1zM21 13h1v1h-1zM3 14h1v1H3zM4 14h1v1H4zM5 14h1v1H5zM6 14h1v1H6zM11 14h1v1h-1zM12 14h1v1h-1zM13 14h1v1h-1zM14 14h1v1h-1zM17 14h1v1h-1zM18 14h1v1h-1zM19 14h1v1h-1zM20 14h1v1h-1zM21 14h1v1h-1zM22 14h1v1h-1zM4 15h1v1H4zM5 15h1v1H5zM6 15h1v1H6zM7 15h1v1H7zM8 15h1v1H8zM9 15h1v1H9zM10 15h1v1h-1zM11 15h1v1h-1zM12 15h1v1h-1zM13 15h1v1h-1zM17 15h1v1h-1zM18 15h1v1h-1zM21 15h1v1h-1zM22 15h1v1h-1zM3 16h1v1H3zM4 16h1v1H4zM5 16h1v1H5zM6 16h1v1H6zM7 16h1v1H7zM8 16h1v1H8zM9 16h1v1H9zM10 16h1v1h-1zM11 16h1v1h-1zM12 16h1v1h-1zM13 16h1v1h-1zM14 16h1v1h-1zM17 16h1v1h-1zM18 16h1v1h-1zM21 16h1v1h-1zM22 16h1v1h-1zM3 17h1v1H3zM4 17h1v1H4zM13 17h1v1h-1zM14 17h1v1h-1zM16 17h1v1h-1zM17 17h1v1h-1zM18 17h1v1h-1zM19 17h1v1h-1zM20 17h1v1h-1zM21 17h1v1h-1zM22 17h1v1h-1zM3 18h1v1H3zM4 18h1v1H4zM13 18h1v1h-1zM14 18h1v1h-1zM15 18h1v1h-1zM16 18h1v1h-1zM17 18h1v1h-1zM18 18h1v1h-1zM19 18h1v1h-1zM20 18h1v1h-1zM21 18h1v1h-1zM3 19h1v1H3zM4 19h1v1H4zM13 19h1v1h-1zM14 19h1v1h-1zM15 19h1v1h-1zM16 19h1v1h-1zM3 20h1v1H3zM4 20h1v1H4zM13 20h1v1h-1zM14 20h1v1h-1zM3 21h1v1H3zM4 21h1v1H4zM5 21h1v1H5zM6 21h1v1H6zM7 21h1v1H7zM8 21h1v1H8zM9 21h1v1H9zM10 21h1v1h-1zM11 21h1v1h-1zM12 21h1v1h-1zM13 21h1v1h-1zM14 21h1v1h-1zM4 22h1v1H4zM5 22h1v1H5zM6 22h1v1H6zM7 22h1v1H7zM8 22h1v1H8zM9 22h1v1H9zM10 22h1v1h-1zM11 22h1v1h-1zM12 22h1v1h-1zM13 22h1v1h-1z"/></svg>