<svg xmlns="http://www.w3.org/2000/svg" width="24" height="24" shape-rendering="crispEdges"><path d="M10 1h1v1h-1zM11 1h1v1h-1zM12 1h1v1h-1zM13 1h1v1h-1zM8 2h1v1H8zM9 2h1v1H9zM10 2h1v1h-1zM11 2h1v1h-1zM12 2h1v1h-1zM13 2h1v1h-1zM14 2h1v1h-1zM15 2h1v1h-1zM7 3h1v1H7zM8 3h1v1H8zM9 3h1v1H9zM14 3h1v1h-1zM6 4h1v1H6zM7 4h1v1H7zM17 4h1v1h-1zM18 4h1v1h-1zM6 5h1v1H6zM7 5h1v1H7zM17 5h1v1h-1zM18 5h1v1h-1zM5 6h1v1H5zM6 6h1v1H6zM17 6h1v1h-1zM18 6h1v1h-1zM5 7h1v1H5zM6 7h1v1H6zM14 7h1v1h-1zM15 7h1v1h-1zM16 7h1v1h-1zM17 7h1v1h-1zM18 7h1v1h-1zM19 7h1v1h-1zM20 7h1v1h-1zM21 7h1v1h-1zM5 8h1v1H5zM6 8h1v1H6zM14 8h1v1h-1zM15 8h1v1h-1zM16 8h1v1h-1zM17 8h1v1h-1zM18 8h1v1h-1zM19 8h1v1h-1zM20 8h1v1h-1zM21 8h1v1h-1zM5 9h1v1H5zM6 9h1v1H6zM17 9h1v1h-1zM18 9h1v1h-1zM5 10h1v1H5zM6 10h1v1H6zM17 10h1v1h-1zM18 10h1v1h-1zM5 11h1v1H5zM6 11h1v1H6zM17 11h1v1h-1zM18 11h1v1h-1zM4 12h1v1H4zM5 12h1v1H5zM4 13h1v1H4zM5 13h1v1H5zM3 14h1v1H3zM4 14h1v1H4zM19 14h1v1h-1zM20 14h1v1h-1zM2 15h1v1H2zM3 15h1v1H3zM20 15h1v1h-1zM21 15h1v1h-1zM2 16h1v1H2zM3 16h1v1H3zM4 16h1v1H4zM5 16h1v1H5zM6 16h1v1H6zM7 16h1v1H7zM8 16h1v1H8zM9 16h1v1H9zM10 16h1v1h-1zM11 16h1v1h-1zM12 16h1v1h-1zM13 16h1v1h-1zM14 16h1v1h-1zM15 16h1v1h-1zM16 16h1v1h-1zM17 16h1v1h-1zM18 16h1v1h-1zM19 16h1v1h-1zM20 16h1v1h-1zM21 16h1v1h-1zM3 17h1v1H3zM4 17h1v1H4zM5 17h1v1H5zM6 17h1v1H6zM7 17h1v1H7zM8 17h1v1H8zM9 17h1v1H9zM10 17h1v1h-1zM11 17h1v1h-1zM12 17h1v1h-1zM13 17h1v1h-1zM14 17h1v1h-1zM15 17h1v1h-1zM16 17h1v1h-1zM17 17h1v1h-1zM18 17h1v1h-1zM19 17h1v1h-1zM20 17h1v1h-1zM10 20h1v1h-1zM13 20h1v1h-1zM9 21h1v1H9zM10 21h1v1h-1zM11 21h1v1h-1zM12 21h1v1h-1zM13 21h1v1h-1zM14 21h1v1h-1zM10 22h1v1h-1zM11 22h1v1h-1zM12 22h1v1h-1zM13 22h1v1h-1z"/></svg>