<svg xmlns="http://www.w3.org/2000/svg" width="24" height="24" shape-rendering="crispEdges"><path d="M14 2h1v1h-1zM15 2h1v1h-1zM16 2h1v1h-1zM17 2h1v1h-1zM13 3h1v1h-1zM14 3h1v1h-1zM15 3h1v1h-1zM16 3h1v1h-1zM17 3h1v1h-1zM18 3h1v1h-1zM12 4h1v1h-1zM13 4h1v1h-1zM18 4h1v1h-1zM19 4h1v1h-1zM11 5h1v1h-1zM12 5h1v1h-1zM19 5h1v1h-1zM20 5h1v1h-1zM10 6h1v1h-1zM11 6h1v1h-1zM12 6h1v1h-1zM15 6h1v1h-1zM16 6h1v1h-1zM19 6h1v1h-1zM20 6h1v1h-1zM21 6h1v1h-1zM9 7h1v1H9zM10 7h1v1h-1zM11 7h1v1h-1zM15 7h1v1h-1zM16 7h1v1h-1zM19 7h1v1h-1zM20 7h1v1h-1zM21 7h1v1h-1zM22 7h1v1h-1zM9 8h1v1H9zM10 8h1v1h-1zM11 8h1v1h-1zM12 8h1v1h-1zM19 8h1v1h-1zM20 8h1v1h-1zM21 8h1v1h-1zM8 9h1v1H8zM9 9h1v1H9zM10 9h1v1h-1zM11 9h1v1h-1zM12 9h1v1h-1zM19 9h1v1h-1zM20 9h1v1h-1zM7 10h1v1H7zM8 10h1v1H8zM9 10h1v1H9zM12 10h1v1h-1zM13 10h1v1h-1zM19 10h1v1h-1zM20 10h1v1h-1zM7 11h1v1H7zM8 11h1v1H8zM12 11h1v1h-1zM13 11h1v1h-1zM19 11h1v1h-1zM20 11h1v1h-1zM6 12h1v1H6zM7 12h1v1H7zM12 12h1v1h-1zM13 12h1v1h-1zM19 12h1v1h-1zM20 12h1v1h-1zM5 13h1v1H5zM6 13h1v1H6zM7 13h1v1H7zM12 13h1v1h-1zM13 13h1v1h-1zM18 13h1v1h-1zM19 13h1v1h-1zM5 14h1v1H5zM6 14h1v1H6zM11 14h1v1h-1zM12 14h1v1h-1zM17 14h1v1h-1zM18 14h1v1h-1zM19 14h1v1h-1zM4 15h1v1H4zM5 15h1v1H5zM10 15h1v1h-1zM11 15h1v1h-1zM12 15h1v1h-1zM16 15h1v1h-1zM17 15h1v1h-1zM18 15h1v1h-1zM3 16h1v1H3zM4 16h1v1H4zM5 16h1v1H5zM9 16h1v1H9zM10 16h1v1h-1zM11 16h1v1h-1zM14 16h1v1h-1zM15 16h1v1h-1zM16 16h1v1h-1zM17 16h1v1h-1zM3 17h1v1H3zM4 17h1v1H4zM5 17h1v1H5zM6 17h1v1H6zM7 17h1v1H7zM8 17h1v1H8zM9 17h1v1H9zM10 17h1v1h-1zM11 17h1v1h-1zM12 17h1v1h-1zM13 17h1v1h-1zM14 17h1v1h-1zM15 17h1v1h-1zM16 17h1v1h-1zM2 18h1v1H2zM3 18h1v1H3zM4 18h1v1H4zM5 18h1v1H5zM6 18h1v1H6zM7 18h1v1H7zM8 18h1v1H8zM9 18h1v1H9zM10 18h1v1h-1zM11 18h1v1h-1zM12 18h1v1h-1zM13 18h1v1h-1zM14 18h1v1h-1zM1 19h1v1H1zM2 19h1v1H2zM3 19h1v1H3zM9 19h1v1H9zM10 19h1v1h-1zM13 19h1v1h-1zM14 19h1v1h-1zM1 20h1v1H1zM2 20h1v1H2zM9 20h1v1H9zM10 20h1v1h-1zM13 20h1v1h-1zM14 20h1v1h-1zM9 21h1v1H9zM10 21h1v1h-1zM13 21h1v1h-1zM14 21h1v1h-1z"/></svg>