<svg xmlns="http://www.w3.org/2000/svg" width="24" height="24" shape-rendering="crispEdges"><path d="M5 2h1v1H5zM6 2h1v1H6zM7 2h1v1H7zM8 2h1v1H8zM9 2h1v1H9zM10 2h1v1h-1zM11 2h1v1h-1zM12 2h1v1h-1zM13 2h1v1h-1zM14 2h1v1h-1zM15 2h1v1h-1zM16 2h1v1h-1zM17 2h1v1h-1zM18 2h1v1h-1zM4 3h1v1H4zM5 3h1v1H5zM6 3h1v1H6zM7 3h1v1H7zM8 3h1v1H8zM9 3h1v1H9zM10 3h1v1h-1zM11 3h1v1h-1zM12 3h1v1h-1zM13 3h1v1h-1zM14 3h1v1h-1zM15 3h1v1h-1zM16 3h1v1h-1zM17 3h1v1h-1zM18 3h1v1h-1zM19 3h1v1h-1zM4 4h1v1H4zM5 4h1v1H5zM18 4h1v1h-1zM19 4h1v1h-1zM4 5h1v1H4zM5 5h1v1H5zM18 5h1v1h-1zM19 5h1v1h-1zM4 6h1v1H4zM5 6h1v1H5zM18 6h1v1h-1zM19 6h1v1h-1zM4 7h1v1H4zM5 7h1v1H5zM18 7h1v1h-1zM19 7h1v1h-1zM4 8h1v1H4zM5 8h1v1H5zM18 8h1v1h-1zM19 8h1v1h-1zM4 9h1v1H4zM5 9h1v1H5zM18 9h1v1h-1zM19 9h1v1h-1zM4 10h1v1H4zM5 10h1v1H5zM18 10h1v1h-1zM19 10h1v1h-1zM4 11h1v1H4zM5 11h1v1H5zM18 11h1v1h-1zM19 11h1v1h-1zM4 12h1v1H4zM5 12h1v1H5zM18 12h1v1h-1zM19 12h1v1h-1zM4 13h1v1H4zM5 13h1v1H5zM18 13h1v1h-1zM19 13h1v1h-1zM4 14h1v1H4zM5 14h1v1H5zM18 14h1v1h-1zM19 14h1v1h-1zM4 15h1v1H4zM5 15h1v1H5zM18 15h1v1h-1zM19 15h1v1h-1zM4 16h1v1H4zM5 16h1v1H5zM11 16h1v1h-1zM12 16h1v1h-1zM18 16h1v1h-1zM19 16h1v1h-1zM4 17h1v1H4zM5 17h1v1H5zM9 17h1v1H9zM10 17h1v1h-1zM11 17h1v1h-1zM12 17h1v1h-1zM13 17h1v1h-1zM14 17h1v1h-1zM18 17h1v1h-1zM19 17h1v1h-1zM4 18h1v1H4zM5 18h1v1H5zM7 18h1v1H7zM8 18h1v1H8zM9 18h1v1H9zM10 18h1v1h-1zM13 18h1v1h-1zM14 18h1v1h-1zM15 18h1v1h-1zM16 18h1v1h-1zM18 18h1v1h-1zM19 18h1v1h-1zM4 19h1v1H4zM5 19h1v1H5zM6 19h1v1H6zM7 19h1v1H7zM8 19h1v1H8zM9 19h1v1H9zM14 19h1v1h-1zM15 19h1v1h-1zM16 19h1v1h-1zM17 19h1v1h-1zM18 19h1v1h-1zM19 19h1v1h-1zM4 20h1v1H4zM5 20h1v1H5zM6 20h1v1H6zM7 20h1v1H7zM16 20h1v1h-1zM17 20h1v1h-1zM18 20h1v1h-1zM19 20h1v1h-1zM4 21h1v1H4zM5 21h1v1H5zM18 21h1v1h-1zM19 21h1v1h-1z"/></svg>