<svg xmlns="http://www.w3.org/2000/svg" width="24" height="24" shape-rendering="crispEdges"><path d="M1 1h1v1H1zM2 1h1v1H2zM1 2h1v1H1zM2 2h1v1H2zM3 2h1v1H3zM2 3h1v1H2zM3 3h1v1H3zM4 3h1v1H4zM9 3h1v1H9zM10 3h1v1h-1zM11 3h1v1h-1zM12 3h1v1h-1zM3 4h1v1H3zM4 4h1v1H4zM5 4h1v1H5zM9 4h1v1H9zM10 4h1v1h-1zM11 4h1v1h-1zM12 4h1v1h-1zM4 5h1v1H4zM5 5h1v1H5zM6 5h1v1H6zM11 5h1v1h-1zM12 5h1v1h-1zM5 6h1v1H5zM6 6h1v1H6zM7 6h1v1H7zM11 6h1v1h-1zM12 6h1v1h-1zM4 7h1v1H4zM5 7h1v1H5zM6 7h1v1H6zM7 7h1v1H7zM8 7h1v1H8zM13 7h1v1h-1zM14 7h1v1h-1zM15 7h1v1h-1zM16 7h1v1h-1zM17 7h1v1h-1zM18 7h1v1h-1zM19 7h1v1h-1zM3 8h1v1H3zM4 8h1v1H4zM5 8h1v1H5zM6 8h1v1H6zM7 8h1v1H7zM8 8h1v1H8zM9 8h1v1H9zM13 8h1v1h-1zM14 8h1v1h-1zM15 8h1v1h-1zM16 8h1v1h-1zM17 8h1v1h-1zM18 8h1v1h-1zM19 8h1v1h-1zM20 8h1v1h-1zM3 9h1v1H3zM4 9h1v1H4zM8 9h1v1H8zM9 9h1v1H9zM10 9h1v1h-1zM19 9h1v1h-1zM20 9h1v1h-1zM3 10h1v1H3zM4 10h1v1H4zM9 10h1v1H9zM10 10h1v1h-1zM11 10h1v1h-1zM19 10h1v1h-1zM20 10h1v1h-1zM3 11h1v1H3zM4 11h1v1H4zM10 11h1v1h-1zM11 11h1v1h-1zM12 11h1v1h-1zM19 11h1v1h-1zM20 11h1v1h-1zM3 12h1v1H3zM4 12h1v1H4zM8 12h1v1H8zM9 12h1v1H9zM11 12h1v1h-1zM12 12h1v1h-1zM13 12h1v1h-1zM19 12h1v1h-1zM20 12h1v1h-1zM1 13h1v1H1zM2 13h1v1H2zM3 13h1v1H3zM4 13h1v1H4zM8 13h1v1H8zM9 13h1v1H9zM12 13h1v1h-1zM13 13h1v1h-1zM14 13h1v1h-1zM19 13h1v1h-1zM20 13h1v1h-1zM21 13h1v1h-1zM22 13h1v1h-1zM1 14h1v1H1zM2 14h1v1H2zM3 14h1v1H3zM4 14h1v1H4zM8 14h1v1H8zM9 14h1v1H9zM13 14h1v1h-1zM14 14h1v1h-1zM15 14h1v1h-1zM19 14h1v1h-1zM20 14h1v1h-1zM21 14h1v1h-1zM22 14h1v1h-1zM3 15h1v1H3zM4 15h1v1H4zM8 15h1v1H8zM9 15h1v1H9zM14 15h1v1h-1zM15 15h1v1h-1zM16 15h1v1h-1zM3 16h1v1H3zM4 16h1v1H4zM15 16h1v1h-1zM16 16h1v1h-1zM17 16h1v1h-1zM3 17h1v1H3zM4 17h1v1H4zM16 17h1v1h-1zM17 17h1v1h-1zM18 17h1v1h-1zM3 18h1v1H3zM4 18h1v1H4zM17 18h1v1h-1zM18 18h1v1h-1zM19 18h1v1h-1zM3 19h1v1H3zM4 19h1v1H4zM5 19h1v1H5zM6 19h1v1H6zM7 19h1v1H7zM8 19h1v1H8zM9 19h1v1H9zM10 19h1v1h-1zM11 19h1v1h-1zM12 19h1v1h-1zM13 19h1v1h-1zM14 19h1v1h-1zM15 19h1v1h-1zM16 19h1v1h-1zM17 19h1v1h-1zM18 19h1v1h-1zM19 19h1v1h-1zM20 19h1v1h-1zM4 20h1v1H4zM5 20h1v1H5zM6 20h1v1H6zM7 20h1v1H7zM8 20h1v1H8zM9 20h1v1H9zM10 20h1v1h-1zM11 20h1v1h-1zM12 20h1v1h-1zM13 20h1v1h-1zM14 20h1v1h-1zM15 20h1v1h-1zM16 20h1v1h-1zM17 20h1v1h-1zM18 20h1v1h-1zM19 20h1v1h-1zM20 20h1v1h-1zM21 20h1v1h-1zM20 21h1v1h-1zM21 21h1v1h-1zM22 21h1v1h-1zM21 22h1v1h-1zM22 22h1v1h-1z"/></svg>