<svg xmlns="http://www.w3.org/2000/svg" width="24" height="24" shape-rendering="crispEdges"><path d="M2 5h1v1H2zM3 5h1v1H3zM4 5h1v1H4zM5 5h1v1H5zM6 5h1v1H6zM7 5h1v1H7zM8 5h1v1H8zM9 5h1v1H9zM10 5h1v1h-1zM11 5h1v1h-1zM12 5h1v1h-1zM13 5h1v1h-1zM14 5h1v1h-1zM15 5h1v1h-1zM16 5h1v1h-1zM17 5h1v1h-1zM18 5h1v1h-1zM19 5h1v1h-1zM1 6h1v1H1zM2 6h1v1H2zM3 6h1v1H3zM4 6h1v1H4zM5 6h1v1H5zM6 6h1v1H6zM7 6h1v1H7zM8 6h1v1H8zM9 6h1v1H9zM10 6h1v1h-1zM11 6h1v1h-1zM12 6h1v1h-1zM13 6h1v1h-1zM14 6h1v1h-1zM15 6h1v1h-1zM16 6h1v1h-1zM17 6h1v1h-1zM18 6h1v1h-1zM19 6h1v1h-1zM20 6h1v1h-1zM1 7h1v1H1zM2 7h1v1H2zM7 7h1v1H7zM8 7h1v1H8zM14 7h1v1h-1zM15 7h1v1h-1zM19 7h1v1h-1zM20 7h1v1h-1zM1 8h1v1H1zM2 8h1v1H2zM7 8h1v1H7zM8 8h1v1H8zM14 8h1v1h-1zM15 8h1v1h-1zM20 8h1v1h-1zM21 8h1v1h-1zM1 9h1v1H1zM2 9h1v1H2zM7 9h1v1H7zM8 9h1v1H8zM14 9h1v1h-1zM15 9h1v1h-1zM20 9h1v1h-1zM21 9h1v1h-1zM1 10h1v1H1zM2 10h1v1H2zM7 10h1v1H7zM8 10h1v1H8zM14 10h1v1h-1zM15 10h1v1h-1zM20 10h1v1h-1zM21 10h1v1h-1zM1 11h1v1H1zM2 11h1v1H2zM3 11h1v1H3zM4 11h1v1H4zM5 11h1v1H5zM6 11h1v1H6zM7 11h1v1H7zM8 11h1v1H8zM9 11h1v1H9zM10 11h1v1h-1zM11 11h1v1h-1zM12 11h1v1h-1zM13 11h1v1h-1zM14 11h1v1h-1zM15 11h1v1h-1zM16 11h1v1h-1zM17 11h1v1h-1zM18 11h1v1h-1zM19 11h1v1h-1zM20 11h1v1h-1zM21 11h1v1h-1zM22 11h1v1h-1zM1 12h1v1H1zM2 12h1v1H2zM3 12h1v1H3zM4 12h1v1H4zM5 12h1v1H5zM6 12h1v1H6zM7 12h1v1H7zM8 12h1v1H8zM9 12h1v1H9zM10 12h1v1h-1zM11 12h1v1h-1zM12 12h1v1h-1zM13 12h1v1h-1zM14 12h1v1h-1zM15 12h1v1h-1zM16 12h1v1h-1zM17 12h1v1h-1zM18 12h1v1h-1zM19 12h1v1h-1zM20 12h1v1h-1zM21 12h1v1h-1zM22 12h1v1h-1zM1 13h1v1H1zM2 13h1v1H2zM21 13h1v1h-1zM22 13h1v1h-1zM1 14h1v1H1zM2 14h1v1H2zM21 14h1v1h-1zM22 14h1v1h-1zM1 15h1v1H1zM2 15h1v1H2zM5 15h1v1H5zM6 15h1v1H6zM7 15h1v1H7zM8 15h1v1H8zM14 15h1v1h-1zM15 15h1v1h-1zM16 15h1v1h-1zM17 15h1v1h-1zM21 15h1v1h-1zM22 15h1v1h-1zM1 16h1v1H1zM2 16h1v1H2zM4 16h1v1H4zM5 16h1v1H5zM6 16h1v1H6zM7 16h1v1H7zM8 16h1v1H8zM9 16h1v1H9zM13 16h1v1h-1zM14 16h1v1h-1zM15 16h1v1h-1zM16 16h1v1h-1zM17 16h1v1h-1zM18 16h1v1h-1zM20 16h1v1h-1zM21 16h1v1h-1zM1 17h1v1H1zM2 17h1v1H2zM3 17h1v1H3zM4 17h1v1H4zM5 17h1v1H5zM8 17h1v1H8zM9 17h1v1H9zM10 17h1v1h-1zM11 17h1v1h-1zM12 17h1v1h-1zM13 17h1v1h-1zM14 17h1v1h-1zM17 17h1v1h-1zM18 17h1v1h-1zM19 17h1v1h-1zM20 17h1v1h-1zM21 17h1v1h-1zM1 18h1v1H1zM2 18h1v1H2zM3 18h1v1H3zM4 18h1v1H4zM5 18h1v1H5zM8 18h1v1H8zM9 18h1v1H9zM10 18h1v1h-1zM11 18h1v1h-1zM12 18h1v1h-1zM13 18h1v1h-1zM14 18h1v1h-1zM17 18h1v1h-1zM18 18h1v1h-1zM19 18h1v1h-1zM20 18h1v1h-1zM21 18h1v1h-1zM4 19h1v1H4zM5 19h1v1H5zM6 19h1v1H6zM7 19h1v1H7zM8 19h1v1H8zM9 19h1v1H9zM13 19h1v1h-1zM14 19h1v1h-1zM15 19h1v1h-1zM16 19h1v1h-1zM17 19h1v1h-1zM18 19h1v1h-1zM5 20h1v1H5zM6 20h1v1H6zM7 20h1v1H7zM8 20h1v1H8zM14 20h1v1h-1zM15 20h1v1h-1zM16 20h1v1h-1zM17 20h1v1h-1z"/></svg>