<svg xmlns="http://www.w3.org/2000/svg" width="24" height="24" shape-rendering="crispEdges"><path d="M13 6h1v1h-1zM14 6h1v1h-1zM13 7h1v1h-1zM14 7h1v1h-1zM5 8h1v1H5zM6 8h1v1H6zM7 8h1v1H7zM8 8h1v1H8zM9 8h1v1H9zM10 8h1v1h-1zM13 8h1v1h-1zM14 8h1v1h-1zM15 8h1v1h-1zM16 8h1v1h-1zM17 8h1v1h-1zM18 8h1v1h-1zM4 9h1v1H4zM5 9h1v1H5zM6 9h1v1H6zM7 9h1v1H7zM8 9h1v1H8zM9 9h1v1H9zM10 9h1v1h-1zM13 9h1v1h-1zM14 9h1v1h-1zM15 9h1v1h-1zM16 9h1v1h-1zM17 9h1v1h-1zM18 9h1v1h-1zM19 9h1v1h-1zM3 10h1v1H3zM4 10h1v1H4zM5 10h1v1H5zM8 10h1v1H8zM9 10h1v1H9zM10 10h1v1h-1zM13 10h1v1h-1zM14 10h1v1h-1zM15 10h1v1h-1zM18 10h1v1h-1zM19 10h1v1h-1zM20 10h1v1h-1zM3 11h1v1H3zM4 11h1v1H4zM9 11h1v1H9zM10 11h1v1h-1zM13 11h1v1h-1zM14 11h1v1h-1zM19 11h1v1h-1zM20 11h1v1h-1zM3 12h1v1H3zM4 12h1v1H4zM9 12h1v1H9zM10 12h1v1h-1zM13 12h1v1h-1zM14 12h1v1h-1zM19 12h1v1h-1zM20 12h1v1h-1zM3 13h1v1H3zM4 13h1v1H4zM5 13h1v1H5zM8 13h1v1H8zM9 13h1v1H9zM10 13h1v1h-1zM13 13h1v1h-1zM14 13h1v1h-1zM15 13h1v1h-1zM18 13h1v1h-1zM19 13h1v1h-1zM20 13h1v1h-1zM4 14h1v1H4zM5 14h1v1H5zM6 14h1v1H6zM7 14h1v1H7zM8 14h1v1H8zM9 14h1v1H9zM10 14h1v1h-1zM13 14h1v1h-1zM14 14h1v1h-1zM15 14h1v1h-1zM16 14h1v1h-1zM17 14h1v1h-1zM18 14h1v1h-1zM19 14h1v1h-1zM5 15h1v1H5zM6 15h1v1H6zM7 15h1v1H7zM8 15h1v1H8zM9 15h1v1H9zM10 15h1v1h-1zM13 15h1v1h-1zM14 15h1v1h-1zM15 15h1v1h-1zM16 15h1v1h-1zM17 15h1v1h-1zM18 15h1v1h-1z"/></svg>