<svg xmlns="http://www.w3.org/2000/svg" width="24" height="24" shape-rendering="crispEdges"><path d="M5 3h1v1H5zM6 3h1v1H6zM7 3h1v1H7zM3 4h1v1H3zM4 4h1v1H4zM5 4h1v1H5zM6 4h1v1H6zM7 4h1v1H7zM8 4h1v1H8zM9 4h1v1H9zM3 5h1v1H3zM4 5h1v1H4zM8 5h1v1H8zM9 5h1v1H9zM10 5h1v1h-1zM11 5h1v1h-1zM2 6h1v1H2zM3 6h1v1H3zM10 6h1v1h-1zM11 6h1v1h-1zM12 6h1v1h-1zM13 6h1v1h-1zM2 7h1v1H2zM3 7h1v1H3zM12 7h1v1h-1zM13 7h1v1h-1zM14 7h1v1h-1zM15 7h1v1h-1zM1 8h1v1H1zM2 8h1v1H2zM6 8h1v1H6zM7 8h1v1H7zM14 8h1v1h-1zM15 8h1v1h-1zM16 8h1v1h-1zM17 8h1v1h-1zM1 9h1v1H1zM2 9h1v1H2zM6 9h1v1H6zM7 9h1v1H7zM16 9h1v1h-1zM17 9h1v1h-1zM18 9h1v1h-1zM1 10h1v1H1zM2 10h1v1H2zM16 10h1v1h-1zM17 10h1v1h-1zM18 10h1v1h-1zM2 11h1v1H2zM3 11h1v1H3zM16 11h1v1h-1zM17 11h1v1h-1zM18 11h1v1h-1zM19 11h1v1h-1zM20 11h1v1h-1zM21 11h1v1h-1zM2 12h1v1H2zM3 12h1v1H3zM4 12h1v1H4zM5 12h1v1H5zM15 12h1v1h-1zM16 12h1v1h-1zM17 12h1v1h-1zM18 12h1v1h-1zM19 12h1v1h-1zM20 12h1v1h-1zM21 12h1v1h-1zM4 13h1v1H4zM5 13h1v1H5zM6 13h1v1H6zM7 13h1v1H7zM15 13h1v1h-1zM16 13h1v1h-1zM20 13h1v1h-1zM21 13h1v1h-1zM6 14h1v1H6zM7 14h1v1H7zM8 14h1v1H8zM9 14h1v1H9zM14 14h1v1h-1zM15 14h1v1h-1zM16 14h1v1h-1zM20 14h1v1h-1zM21 14h1v1h-1zM7 15h1v1H7zM8 15h1v1H8zM9 15h1v1H9zM10 15h1v1h-1zM11 15h1v1h-1zM14 15h1v1h-1zM15 15h1v1h-1zM16 15h1v1h-1zM19 15h1v1h-1zM20 15h1v1h-1zM1 16h1v1H1zM2 16h1v1H2zM7 16h1v1H7zM8 16h1v1H8zM9 16h1v1H9zM10 16h1v1h-1zM11 16h1v1h-1zM12 16h1v1h-1zM13 16h1v1h-1zM14 16h1v1h-1zM15 16h1v1h-1zM16 16h1v1h-1zM17 16h1v1h-1zM19 16h1v1h-1zM20 16h1v1h-1zM1 17h1v1H1zM2 17h1v1H2zM7 17h1v1H7zM8 17h1v1H8zM12 17h1v1h-1zM13 17h1v1h-1zM14 17h1v1h-1zM16 17h1v1h-1zM17 17h1v1h-1zM18 17h1v1h-1zM19 17h1v1h-1zM1 18h1v1H1zM2 18h1v1H2zM3 18h1v1H3zM4 18h1v1H4zM5 18h1v1H5zM6 18h1v1H6zM7 18h1v1H7zM17 18h1v1h-1zM18 18h1v1h-1zM19 18h1v1h-1zM1 19h1v1H1zM2 19h1v1H2zM3 19h1v1H3zM4 19h1v1H4zM5 19h1v1H5zM6 19h1v1H6zM1 20h1v1H1zM2 20h1v1H2zM1 21h1v1H1zM2 21h1v1H2z"/></svg>