<svg xmlns="http://www.w3.org/2000/svg" width="24" height="24" shape-rendering="crispEdges"><path d="M2 2h1v1H2zM3 2h1v1H3zM2 3h1v1H2zM3 3h1v1H3zM2 4h1v1H2zM3 4h1v1H3zM12 4h1v1h-1zM13 4h1v1h-1zM2 5h1v1H2zM3 5h1v1H3zM12 5h1v1h-1zM13 5h1v1h-1zM2 6h1v1H2zM3 6h1v1H3zM12 6h1v1h-1zM13 6h1v1h-1zM2 7h1v1H2zM3 7h1v1H3zM12 7h1v1h-1zM13 7h1v1h-1zM2 8h1v1H2zM3 8h1v1H3zM12 8h1v1h-1zM13 8h1v1h-1zM17 8h1v1h-1zM18 8h1v1h-1zM2 9h1v1H2zM3 9h1v1H3zM12 9h1v1h-1zM13 9h1v1h-1zM17 9h1v1h-1zM18 9h1v1h-1zM2 10h1v1H2zM3 10h1v1H3zM12 10h1v1h-1zM13 10h1v1h-1zM17 10h1v1h-1zM18 10h1v1h-1zM2 11h1v1H2zM3 11h1v1H3zM12 11h1v1h-1zM13 11h1v1h-1zM17 11h1v1h-1zM18 11h1v1h-1zM2 12h1v1H2zM3 12h1v1H3zM12 12h1v1h-1zM13 12h1v1h-1zM17 12h1v1h-1zM18 12h1v1h-1zM2 13h1v1H2zM3 13h1v1H3zM7 13h1v1H7zM8 13h1v1H8zM12 13h1v1h-1zM13 13h1v1h-1zM17 13h1v1h-1zM18 13h1v1h-1zM2 14h1v1H2zM3 14h1v1H3zM7 14h1v1H7zM8 14h1v1H8zM12 14h1v1h-1zM13 14h1v1h-1zM17 14h1v1h-1zM18 14h1v1h-1zM2 15h1v1H2zM3 15h1v1H3zM7 15h1v1H7zM8 15h1v1H8zM12 15h1v1h-1zM13 15h1v1h-1zM17 15h1v1h-1zM18 15h1v1h-1zM2 16h1v1H2zM3 16h1v1H3zM7 16h1v1H7zM8 16h1v1H8zM12 16h1v1h-1zM13 16h1v1h-1zM17 16h1v1h-1zM18 16h1v1h-1zM2 17h1v1H2zM3 17h1v1H3zM7 17h1v1H7zM8 17h1v1H8zM12 17h1v1h-1zM13 17h1v1h-1zM17 17h1v1h-1zM18 17h1v1h-1zM2 18h1v1H2zM3 18h1v1H3zM2 19h1v1H2zM3 19h1v1H3zM2 20h1v1H2zM3 20h1v1H3zM4 20h1v1H4zM5 20h1v1H5zM6 20h1v1H6zM7 20h1v1H7zM8 20h1v1H8zM9 20h1v1H9zM10 20h1v1h-1zM11 20h1v1h-1zM12 20h1v1h-1zM13 20h1v1h-1zM14 20h1v1h-1zM15 20h1v1h-1zM16 20h1v1h-1zM17 20h1v1h-1zM18 20h1v1h-1zM19 20h1v1h-1zM20 20h1v1h-1zM21 20h1v1h-1zM3 21h1v1H3zM4 21h1v1H4zM5 21h1v1H5zM6 21h1v1H6zM7 21h1v1H7zM8 21h1v1H8zM9 21h1v1H9zM10 21h1v1h-1zM11 21h1v1h-1zM12 21h1v1h-1zM13 21h1v1h-1zM14 21h1v1h-1zM15 21h1v1h-1zM16 21h1v1h-1zM17 21h1v1h-1zM18 21h1v1h-1zM19 21h1v1h-1zM20 21h1v1h-1zM21 21h1v1h-1z"/></svg>