<svg xmlns="http://www.w3.org/2000/svg" width="24" height="24" shape-rendering="crispEdges"><path d="M19 5h1v1h-1zM20 5h1v1h-1zM18 6h1v1h-1zM19 6h1v1h-1zM20 6h1v1h-1zM17 7h1v1h-1zM18 7h1v1h-1zM19 7h1v1h-1zM16 8h1v1h-1zM17 8h1v1h-1zM18 8h1v1h-1zM15 9h1v1h-1zM16 9h1v1h-1zM17 9h1v1h-1zM14 10h1v1h-1zM15 10h1v1h-1zM16 10h1v1h-1zM3 11h1v1H3zM4 11h1v1H4zM13 11h1v1h-1zM14 11h1v1h-1zM15 11h1v1h-1zM3 12h1v1H3zM4 12h1v1H4zM5 12h1v1H5zM12 12h1v1h-1zM13 12h1v1h-1zM14 12h1v1h-1zM4 13h1v1H4zM5 13h1v1H5zM6 13h1v1H6zM11 13h1v1h-1zM12 13h1v1h-1zM13 13h1v1h-1zM5 14h1v1H5zM6 14h1v1H6zM7 14h1v1H7zM10 14h1v1h-1zM11 14h1v1h-1zM12 14h1v1h-1zM6 15h1v1H6zM7 15h1v1H7zM8 15h1v1H8zM9 15h1v1H9zM10 15h1v1h-1zM11 15h1v1h-1zM7 16h1v1H7zM8 16h1v1H8zM9 16h1v1H9zM10 16h1v1h-1zM8 17h1v1H8zM9 17h1v1H9z"/></svg>