<svg xmlns="http://www.w3.org/2000/svg" width="24" height="24" shape-rendering="crispEdges"><path d="M6 5h1v1H6zM7 5h1v1H7zM16 5h1v1h-1zM17 5h1v1h-1zM6 6h1v1H6zM7 6h1v1H7zM15 6h1v1h-1zM16 6h1v1h-1zM17 6h1v1h-1zM6 7h1v1H6zM7 7h1v1H7zM14 7h1v1h-1zM15 7h1v1h-1zM16 7h1v1h-1zM6 8h1v1H6zM7 8h1v1H7zM13 8h1v1h-1zM14 8h1v1h-1zM15 8h1v1h-1zM6 9h1v1H6zM7 9h1v1H7zM12 9h1v1h-1zM13 9h1v1h-1zM14 9h1v1h-1zM6 10h1v1H6zM7 10h1v1H7zM11 10h1v1h-1zM12 10h1v1h-1zM13 10h1v1h-1zM6 11h1v1H6zM7 11h1v1H7zM10 11h1v1h-1zM11 11h1v1h-1zM12 11h1v1h-1zM6 12h1v1H6zM7 12h1v1H7zM10 12h1v1h-1zM11 12h1v1h-1zM12 12h1v1h-1zM6 13h1v1H6zM7 13h1v1H7zM11 13h1v1h-1zM12 13h1v1h-1zM13 13h1v1h-1zM6 14h1v1H6zM7 14h1v1H7zM12 14h1v1h-1zM13 14h1v1h-1zM14 14h1v1h-1zM6 15h1v1H6zM7 15h1v1H7zM13 15h1v1h-1zM14 15h1v1h-1zM15 15h1v1h-1zM6 16h1v1H6zM7 16h1v1H7zM14 16h1v1h-1zM15 16h1v1h-1zM16 16h1v1h-1zM6 17h1v1H6zM7 17h1v1H7zM15 17h1v1h-1zM16 17h1v1h-1zM17 17h1v1h-1zM6 18h1v1H6zM7 18h1v1H7zM16 18h1v1h-1zM17 18h1v1h-1z"/></svg>