<svg xmlns="http://www.w3.org/2000/svg" width="24" height="24" shape-rendering="crispEdges"><path d="M10 6h1v1h-1zM11 6h1v1h-1zM17 6h1v1h-1zM18 6h1v1h-1zM9 7h1v1H9zM10 7h1v1h-1zM11 7h1v1h-1zM16 7h1v1h-1zM17 7h1v1h-1zM18 7h1v1h-1zM8 8h1v1H8zM9 8h1v1H9zM10 8h1v1h-1zM15 8h1v1h-1zM16 8h1v1h-1zM17 8h1v1h-1zM7 9h1v1H7zM8 9h1v1H8zM9 9h1v1H9zM14 9h1v1h-1zM15 9h1v1h-1zM16 9h1v1h-1zM6 10h1v1H6zM7 10h1v1H7zM8 10h1v1H8zM13 10h1v1h-1zM14 10h1v1h-1zM15 10h1v1h-1zM5 11h1v1H5zM6 11h1v1H6zM7 11h1v1H7zM12 11h1v1h-1zM13 11h1v1h-1zM14 11h1v1h-1zM5 12h1v1H5zM6 12h1v1H6zM7 12h1v1H7zM12 12h1v1h-1zM13 12h1v1h-1zM14 12h1v1h-1zM6 13h1v1H6zM7 13h1v1H7zM8 13h1v1H8zM13 13h1v1h-1zM14 13h1v1h-1zM15 13h1v1h-1zM7 14h1v1H7zM8 14h1v1H8zM9 14h1v1H9zM14 14h1v1h-1zM15 14h1v1h-1zM16 14h1v1h-1zM8 15h1v1H8zM9 15h1v1H9zM10 15h1v1h-1zM15 15h1v1h-1zM16 15h1v1h-1zM17 15h1v1h-1zM9 16h1v1H9zM10 16h1v1h-1zM11 16h1v1h-1zM16 16h1v1h-1zM17 16h1v1h-1zM18 16h1v1h-1zM10 17h1v1h-1zM11 17h1v1h-1zM17 17h1v1h-1zM18 17h1v1h-1z"/></svg>