<svg xmlns="http://www.w3.org/2000/svg" width="24" height="24" shape-rendering="crispEdges"><path d="M11 3h1v1h-1zM12 3h1v1h-1zM10 4h1v1h-1zM11 4h1v1h-1zM12 4h1v1h-1zM13 4h1v1h-1zM9 5h1v1H9zM10 5h1v1h-1zM11 5h1v1h-1zM12 5h1v1h-1zM13 5h1v1h-1zM14 5h1v1h-1zM8 6h1v1H8zM9 6h1v1H9zM10 6h1v1h-1zM13 6h1v1h-1zM14 6h1v1h-1zM15 6h1v1h-1zM7 7h1v1H7zM8 7h1v1H8zM9 7h1v1H9zM14 7h1v1h-1zM15 7h1v1h-1zM16 7h1v1h-1zM6 8h1v1H6zM7 8h1v1H7zM8 8h1v1H8zM15 8h1v1h-1zM16 8h1v1h-1zM17 8h1v1h-1zM6 9h1v1H6zM7 9h1v1H7zM16 9h1v1h-1zM17 9h1v1h-1zM6 14h1v1H6zM7 14h1v1H7zM16 14h1v1h-1zM17 14h1v1h-1zM6 15h1v1H6zM7 15h1v1H7zM8 15h1v1H8zM15 15h1v1h-1zM16 15h1v1h-1zM17 15h1v1h-1zM7 16h1v1H7zM8 16h1v1H8zM9 16h1v1H9zM14 16h1v1h-1zM15 16h1v1h-1zM16 16h1v1h-1zM8 17h1v1H8zM9 17h1v1H9zM10 17h1v1h-1zM13 17h1v1h-1zM14 17h1v1h-1zM15 17h1v1h-1zM9 18h1v1H9zM10 18h1v1h-1zM11 18h1v1h-1zM12 18h1v1h-1zM13 18h1v1h-1zM14 18h1v1h-1zM10 19h1v1h-1zM11 19h1v1h-1zM12 19h1v1h-1zM13 19h1v1h-1zM11 20h1v1h-1zM12 20h1v1h-1z"/></svg>