<svg xmlns="http://www.w3.org/2000/svg" width="24" height="24" shape-rendering="crispEdges"><path d="M5 6h1v1H5zM6 6h1v1H6zM12 6h1v1h-1zM13 6h1v1h-1zM5 7h1v1H5zM6 7h1v1H6zM7 7h1v1H7zM12 7h1v1h-1zM13 7h1v1h-1zM14 7h1v1h-1zM6 8h1v1H6zM7 8h1v1H7zM8 8h1v1H8zM13 8h1v1h-1zM14 8h1v1h-1zM15 8h1v1h-1zM7 9h1v1H7zM8 9h1v1H8zM9 9h1v1H9zM14 9h1v1h-1zM15 9h1v1h-1zM16 9h1v1h-1zM8 10h1v1H8zM9 10h1v1H9zM10 10h1v1h-1zM15 10h1v1h-1zM16 10h1v1h-1zM17 10h1v1h-1zM9 11h1v1H9zM10 11h1v1h-1zM11 11h1v1h-1zM16 11h1v1h-1zM17 11h1v1h-1zM18 11h1v1h-1zM9 12h1v1H9zM10 12h1v1h-1zM11 12h1v1h-1zM16 12h1v1h-1zM17 12h1v1h-1zM18 12h1v1h-1zM8 13h1v1H8zM9 13h1v1H9zM10 13h1v1h-1zM15 13h1v1h-1zM16 13h1v1h-1zM17 13h1v1h-1zM7 14h1v1H7zM8 14h1v1H8zM9 14h1v1H9zM14 14h1v1h-1zM15 14h1v1h-1zM16 14h1v1h-1zM6 15h1v1H6zM7 15h1v1H7zM8 15h1v1H8zM13 15h1v1h-1zM14 15h1v1h-1zM15 15h1v1h-1zM5 16h1v1H5zM6 16h1v1H6zM7 16h1v1H7zM12 16h1v1h-1zM13 16h1v1h-1zM14 16h1v1h-1zM5 17h1v1H5zM6 17h1v1H6zM12 17h1v1h-1zM13 17h1v1h-1z"/></svg>