<svg xmlns="http://www.w3.org/2000/svg" width="24" height="24" shape-rendering="crispEdges"><path d="M15 2h1v1h-1zM16 2h1v1h-1zM19 2h1v1h-1zM20 2h1v1h-1zM15 3h1v1h-1zM16 3h1v1h-1zM19 3h1v1h-1zM20 3h1v1h-1zM15 4h1v1h-1zM16 4h1v1h-1zM17 4h1v1h-1zM19 4h1v1h-1zM20 4h1v1h-1zM21 4h1v1h-1zM16 5h1v1h-1zM17 5h1v1h-1zM20 5h1v1h-1zM21 5h1v1h-1zM16 6h1v1h-1zM17 6h1v1h-1zM18 6h1v1h-1zM20 6h1v1h-1zM21 6h1v1h-1zM22 6h1v1h-1zM17 7h1v1h-1zM18 7h1v1h-1zM21 7h1v1h-1zM22 7h1v1h-1zM17 8h1v1h-1zM18 8h1v1h-1zM21 8h1v1h-1zM22 8h1v1h-1zM2 11h1v1H2zM3 11h1v1H3zM4 11h1v1H4zM5 11h1v1H5zM6 11h1v1H6zM7 11h1v1H7zM8 11h1v1H8zM9 11h1v1H9zM10 11h1v1h-1zM11 11h1v1h-1zM12 11h1v1h-1zM13 11h1v1h-1zM14 11h1v1h-1zM15 11h1v1h-1zM16 11h1v1h-1zM17 11h1v1h-1zM20 11h1v1h-1zM21 11h1v1h-1zM1 12h1v1H1zM2 12h1v1H2zM3 12h1v1H3zM4 12h1v1H4zM5 12h1v1H5zM6 12h1v1H6zM7 12h1v1H7zM8 12h1v1H8zM9 12h1v1H9zM10 12h1v1h-1zM11 12h1v1h-1zM12 12h1v1h-1zM13 12h1v1h-1zM14 12h1v1h-1zM15 12h1v1h-1zM16 12h1v1h-1zM17 12h1v1h-1zM20 12h1v1h-1zM21 12h1v1h-1zM22 12h1v1h-1zM1 13h1v1H1zM2 13h1v1H2zM6 13h1v1H6zM7 13h1v1H7zM21 13h1v1h-1zM22 13h1v1h-1zM1 14h1v1H1zM2 14h1v1H2zM6 14h1v1H6zM7 14h1v1H7zM21 14h1v1h-1zM22 14h1v1h-1zM1 15h1v1H1zM2 15h1v1H2zM3 15h1v1H3zM4 15h1v1H4zM5 15h1v1H5zM6 15h1v1H6zM7 15h1v1H7zM8 15h1v1H8zM9 15h1v1H9zM10 15h1v1h-1zM11 15h1v1h-1zM12 15h1v1h-1zM13 15h1v1h-1zM14 15h1v1h-1zM15 15h1v1h-1zM16 15h1v1h-1zM17 15h1v1h-1zM20 15h1v1h-1zM21 15h1v1h-1zM22 15h1v1h-1zM2 16h1v1H2zM3 16h1v1H3zM4 16h1v1H4zM5 16h1v1H5zM6 16h1v1H6zM7 16h1v1H7zM8 16h1v1H8zM9 16h1v1H9zM10 16h1v1h-1zM11 16h1v1h-1zM12 16h1v1h-1zM13 16h1v1h-1zM14 16h1v1h-1zM15 16h1v1h-1zM16 16h1v1h-1zM17 16h1v1h-1zM20 16h1v1h-1zM21 16h1v1h-1z"/></svg>