<svg xmlns="http://www.w3.org/2000/svg" width="24" height="24" shape-rendering="crispEdges"><path d="M4 1h1v1H4zM5 1h1v1H5zM6 1h1v1H6zM3 2h1v1H3zM4 2h1v1H4zM5 2h1v1H5zM6 2h1v1H6zM7 2h1v1H7zM3 3h1v1H3zM4 3h1v1H4zM6 3h1v1H6zM7 3h1v1H7zM8 3h1v1H8zM2 4h1v1H2zM3 4h1v1H3zM4 4h1v1H4zM7 4h1v1H7zM8 4h1v1H8zM9 4h1v1H9zM2 5h1v1H2zM3 5h1v1H3zM6 5h1v1H6zM7 5h1v1H7zM8 5h1v1H8zM9 5h1v1H9zM10 5h1v1h-1zM2 6h1v1H2zM3 6h1v1H3zM6 6h1v1H6zM7 6h1v1H7zM9 6h1v1H9zM10 6h1v1h-1zM11 6h1v1h-1zM1 7h1v1H1zM2 7h1v1H2zM5 7h1v1H5zM6 7h1v1H6zM7 7h1v1H7zM10 7h1v1h-1zM11 7h1v1h-1zM12 7h1v1h-1zM1 8h1v1H1zM2 8h1v1H2zM5 8h1v1H5zM6 8h1v1H6zM11 8h1v1h-1zM12 8h1v1h-1zM13 8h1v1h-1zM1 9h1v1H1zM2 9h1v1H2zM5 9h1v1H5zM6 9h1v1H6zM7 9h1v1H7zM8 9h1v1H8zM9 9h1v1H9zM10 9h1v1h-1zM11 9h1v1h-1zM12 9h1v1h-1zM13 9h1v1h-1zM14 9h1v1h-1zM1 10h1v1H1zM2 10h1v1H2zM5 10h1v1H5zM6 10h1v1H6zM7 10h1v1H7zM8 10h1v1H8zM9 10h1v1H9zM10 10h1v1h-1zM11 10h1v1h-1zM12 10h1v1h-1zM13 10h1v1h-1zM14 10h1v1h-1zM15 10h1v1h-1zM1 11h1v1H1zM2 11h1v1H2zM5 11h1v1H5zM6 11h1v1H6zM11 11h1v1h-1zM12 11h1v1h-1zM13 11h1v1h-1zM14 11h1v1h-1zM15 11h1v1h-1zM16 11h1v1h-1zM1 12h1v1H1zM2 12h1v1H2zM6 12h1v1H6zM7 12h1v1H7zM10 12h1v1h-1zM11 12h1v1h-1zM12 12h1v1h-1zM13 12h1v1h-1zM14 12h1v1h-1zM15 12h1v1h-1zM16 12h1v1h-1zM17 12h1v1h-1zM2 13h1v1H2zM3 13h1v1H3zM6 13h1v1H6zM7 13h1v1H7zM9 13h1v1H9zM10 13h1v1h-1zM11 13h1v1h-1zM13 13h1v1h-1zM14 13h1v1h-1zM16 13h1v1h-1zM17 13h1v1h-1zM18 13h1v1h-1zM2 14h1v1H2zM3 14h1v1H3zM6 14h1v1H6zM7 14h1v1H7zM8 14h1v1H8zM9 14h1v1H9zM10 14h1v1h-1zM13 14h1v1h-1zM14 14h1v1h-1zM17 14h1v1h-1zM18 14h1v1h-1zM19 14h1v1h-1zM2 15h1v1H2zM3 15h1v1H3zM4 15h1v1H4zM7 15h1v1H7zM8 15h1v1H8zM9 15h1v1H9zM13 15h1v1h-1zM14 15h1v1h-1zM18 15h1v1h-1zM19 15h1v1h-1zM20 15h1v1h-1zM3 16h1v1H3zM4 16h1v1H4zM8 16h1v1H8zM9 16h1v1H9zM10 16h1v1h-1zM11 16h1v1h-1zM13 16h1v1h-1zM14 16h1v1h-1zM16 16h1v1h-1zM17 16h1v1h-1zM18 16h1v1h-1zM19 16h1v1h-1zM20 16h1v1h-1zM21 16h1v1h-1zM3 17h1v1H3zM4 17h1v1H4zM5 17h1v1H5zM9 17h1v1H9zM10 17h1v1h-1zM11 17h1v1h-1zM12 17h1v1h-1zM13 17h1v1h-1zM14 17h1v1h-1zM15 17h1v1h-1zM16 17h1v1h-1zM17 17h1v1h-1zM18 17h1v1h-1zM20 17h1v1h-1zM21 17h1v1h-1zM22 17h1v1h-1zM4 18h1v1H4zM5 18h1v1H5zM6 18h1v1H6zM12 18h1v1h-1zM13 18h1v1h-1zM14 18h1v1h-1zM15 18h1v1h-1zM21 18h1v1h-1zM22 18h1v1h-1zM5 19h1v1H5zM6 19h1v1H6zM7 19h1v1H7zM8 19h1v1H8zM19 19h1v1h-1zM20 19h1v1h-1zM21 19h1v1h-1zM22 19h1v1h-1zM6 20h1v1H6zM7 20h1v1H7zM8 20h1v1H8zM9 20h1v1H9zM10 20h1v1h-1zM17 20h1v1h-1zM18 20h1v1h-1zM19 20h1v1h-1zM20 20h1v1h-1zM21 20h1v1h-1zM8 21h1v1H8zM9 21h1v1H9zM10 21h1v1h-1zM11 21h1v1h-1zM12 21h1v1h-1zM13 21h1v1h-1zM14 21h1v1h-1zM15 21h1v1h-1zM16 21h1v1h-1zM17 21h1v1h-1zM18 21h1v1h-1zM19 21h1v1h-1zM11 22h1v1h-1zM12 22h1v1h-1zM13 22h1v1h-1zM14 22h1v1h-1zM15 22h1v1h-1zM16 22h1v1h-1z"/></svg>