<svg xmlns="http://www.w3.org/2000/svg" width="24" height="24" shape-rendering="crispEdges"><path d="M5 1h1v1H5zM6 1h1v1H6zM9 1h1v1H9zM10 1h1v1h-1zM13 1h1v1h-1zM14 1h1v1h-1zM5 2h1v1H5zM6 2h1v1H6zM9 2h1v1H9zM10 2h1v1h-1zM13 2h1v1h-1zM14 2h1v1h-1zM5 3h1v1H5zM6 3h1v1H6zM9 3h1v1H9zM10 3h1v1h-1zM13 3h1v1h-1zM14 3h1v1h-1zM5 4h1v1H5zM6 4h1v1H6zM9 4h1v1H9zM10 4h1v1h-1zM13 4h1v1h-1zM14 4h1v1h-1zM3 7h1v1H3zM4 7h1v1H4zM5 7h1v1H5zM6 7h1v1H6zM7 7h1v1H7zM8 7h1v1H8zM9 7h1v1H9zM10 7h1v1h-1zM11 7h1v1h-1zM12 7h1v1h-1zM13 7h1v1h-1zM14 7h1v1h-1zM15 7h1v1h-1zM16 7h1v1h-1zM17 7h1v1h-1zM18 7h1v1h-1zM19 7h1v1h-1zM2 8h1v1H2zM3 8h1v1H3zM4 8h1v1H4zM5 8h1v1H5zM6 8h1v1H6zM7 8h1v1H7zM8 8h1v1H8zM9 8h1v1H9zM10 8h1v1h-1zM11 8h1v1h-1zM12 8h1v1h-1zM13 8h1v1h-1zM14 8h1v1h-1zM15 8h1v1h-1zM16 8h1v1h-1zM17 8h1v1h-1zM18 8h1v1h-1zM19 8h1v1h-1zM20 8h1v1h-1zM21 8h1v1h-1zM2 9h1v1H2zM3 9h1v1H3zM16 9h1v1h-1zM17 9h1v1h-1zM20 9h1v1h-1zM21 9h1v1h-1zM2 10h1v1H2zM3 10h1v1H3zM16 10h1v1h-1zM17 10h1v1h-1zM21 10h1v1h-1zM22 10h1v1h-1zM2 11h1v1H2zM3 11h1v1H3zM16 11h1v1h-1zM17 11h1v1h-1zM21 11h1v1h-1zM22 11h1v1h-1zM2 12h1v1H2zM3 12h1v1H3zM16 12h1v1h-1zM17 12h1v1h-1zM21 12h1v1h-1zM22 12h1v1h-1zM2 13h1v1H2zM3 13h1v1H3zM16 13h1v1h-1zM17 13h1v1h-1zM21 13h1v1h-1zM22 13h1v1h-1zM2 14h1v1H2zM3 14h1v1H3zM16 14h1v1h-1zM17 14h1v1h-1zM20 14h1v1h-1zM21 14h1v1h-1zM2 15h1v1H2zM3 15h1v1H3zM16 15h1v1h-1zM17 15h1v1h-1zM18 15h1v1h-1zM19 15h1v1h-1zM20 15h1v1h-1zM2 16h1v1H2zM3 16h1v1H3zM16 16h1v1h-1zM17 16h1v1h-1zM18 16h1v1h-1zM19 16h1v1h-1zM2 17h1v1H2zM3 17h1v1H3zM16 17h1v1h-1zM17 17h1v1h-1zM2 18h1v1H2zM3 18h1v1H3zM16 18h1v1h-1zM17 18h1v1h-1zM3 19h1v1H3zM4 19h1v1H4zM15 19h1v1h-1zM16 19h1v1h-1zM3 20h1v1H3zM4 20h1v1H4zM5 20h1v1H5zM6 20h1v1H6zM7 20h1v1H7zM8 20h1v1H8zM9 20h1v1H9zM10 20h1v1h-1zM11 20h1v1h-1zM12 20h1v1h-1zM13 20h1v1h-1zM14 20h1v1h-1zM15 20h1v1h-1zM5 21h1v1H5zM6 21h1v1H6zM7 21h1v1H7zM8 21h1v1H8zM9 21h1v1H9zM10 21h1v1h-1zM11 21h1v1h-1zM12 21h1v1h-1zM13 21h1v1h-1zM14 21h1v1h-1z"/></svg>