<svg xmlns="http://www.w3.org/2000/svg" width="24" height="24" shape-rendering="crispEdges"><path d="M5 1h1v1H5zM6 1h1v1H6zM7 1h1v1H7zM8 1h1v1H8zM9 1h1v1H9zM10 1h1v1h-1zM4 2h1v1H4zM5 2h1v1H5zM6 2h1v1H6zM7 2h1v1H7zM8 2h1v1H8zM9 2h1v1H9zM10 2h1v1h-1zM11 2h1v1h-1zM3 3h1v1H3zM4 3h1v1H4zM5 3h1v1H5zM10 3h1v1h-1zM11 3h1v1h-1zM12 3h1v1h-1zM2 4h1v1H2zM3 4h1v1H3zM12 4h1v1h-1zM13 4h1v1h-1zM1 5h1v1H1zM2 5h1v1H2zM3 5h1v1H3zM6 5h1v1H6zM7 5h1v1H7zM8 5h1v1H8zM12 5h1v1h-1zM13 5h1v1h-1zM14 5h1v1h-1zM1 6h1v1H1zM2 6h1v1H2zM6 6h1v1H6zM7 6h1v1H7zM8 6h1v1H8zM13 6h1v1h-1zM14 6h1v1h-1zM1 7h1v1H1zM2 7h1v1H2zM7 7h1v1H7zM8 7h1v1H8zM13 7h1v1h-1zM14 7h1v1h-1zM1 8h1v1H1zM2 8h1v1H2zM7 8h1v1H7zM8 8h1v1H8zM13 8h1v1h-1zM14 8h1v1h-1zM1 9h1v1H1zM2 9h1v1H2zM7 9h1v1H7zM8 9h1v1H8zM13 9h1v1h-1zM14 9h1v1h-1zM18 9h1v1h-1zM1 10h1v1H1zM2 10h1v1H2zM3 10h1v1H3zM7 10h1v1H7zM8 10h1v1H8zM12 10h1v1h-1zM13 10h1v1h-1zM14 10h1v1h-1zM17 10h1v1h-1zM18 10h1v1h-1zM19 10h1v1h-1zM2 11h1v1H2zM3 11h1v1H3zM12 11h1v1h-1zM13 11h1v1h-1zM18 11h1v1h-1zM19 11h1v1h-1zM20 11h1v1h-1zM3 12h1v1H3zM4 12h1v1H4zM5 12h1v1H5zM10 12h1v1h-1zM11 12h1v1h-1zM12 12h1v1h-1zM20 12h1v1h-1zM21 12h1v1h-1zM4 13h1v1H4zM5 13h1v1H5zM6 13h1v1H6zM7 13h1v1H7zM8 13h1v1H8zM9 13h1v1H9zM10 13h1v1h-1zM11 13h1v1h-1zM16 13h1v1h-1zM17 13h1v1h-1zM20 13h1v1h-1zM21 13h1v1h-1zM22 13h1v1h-1zM5 14h1v1H5zM6 14h1v1H6zM7 14h1v1H7zM8 14h1v1H8zM9 14h1v1H9zM10 14h1v1h-1zM16 14h1v1h-1zM17 14h1v1h-1zM21 14h1v1h-1zM22 14h1v1h-1zM15 15h1v1h-1zM16 15h1v1h-1zM17 15h1v1h-1zM21 15h1v1h-1zM22 15h1v1h-1zM14 16h1v1h-1zM15 16h1v1h-1zM16 16h1v1h-1zM21 16h1v1h-1zM22 16h1v1h-1zM10 17h1v1h-1zM14 17h1v1h-1zM15 17h1v1h-1zM21 17h1v1h-1zM22 17h1v1h-1zM9 18h1v1H9zM10 18h1v1h-1zM11 18h1v1h-1zM20 18h1v1h-1zM21 18h1v1h-1zM10 19h1v1h-1zM11 19h1v1h-1zM20 19h1v1h-1zM21 19h1v1h-1zM11 20h1v1h-1zM12 20h1v1h-1zM13 20h1v1h-1zM18 20h1v1h-1zM19 20h1v1h-1zM20 20h1v1h-1zM12 21h1v1h-1zM13 21h1v1h-1zM14 21h1v1h-1zM15 21h1v1h-1zM16 21h1v1h-1zM17 21h1v1h-1zM18 21h1v1h-1zM19 21h1v1h-1zM13 22h1v1h-1zM14 22h1v1h-1zM15 22h1v1h-1zM16 22h1v1h-1zM17 22h1v1h-1z"/></svg>