<svg xmlns="http://www.w3.org/2000/svg" width="24" height="24" shape-rendering="crispEdges"><path d="M2 1h1v1H2zM3 1h1v1H3zM4 1h1v1H4zM5 1h1v1H5zM6 1h1v1H6zM7 1h1v1H7zM8 1h1v1H8zM9 1h1v1H9zM13 1h1v1h-1zM14 1h1v1h-1zM15 1h1v1h-1zM19 1h1v1h-1zM20 1h1v1h-1zM21 1h1v1h-1zM1 2h1v1H1zM2 2h1v1H2zM3 2h1v1H3zM4 2h1v1H4zM5 2h1v1H5zM6 2h1v1H6zM7 2h1v1H7zM8 2h1v1H8zM9 2h1v1H9zM10 2h1v1h-1zM13 2h1v1h-1zM14 2h1v1h-1zM15 2h1v1h-1zM16 2h1v1h-1zM19 2h1v1h-1zM20 2h1v1h-1zM21 2h1v1h-1zM22 2h1v1h-1zM1 3h1v1H1zM2 3h1v1H2zM9 3h1v1H9zM10 3h1v1h-1zM15 3h1v1h-1zM16 3h1v1h-1zM21 3h1v1h-1zM22 3h1v1h-1zM1 4h1v1H1zM2 4h1v1H2zM9 4h1v1H9zM10 4h1v1h-1zM15 4h1v1h-1zM16 4h1v1h-1zM21 4h1v1h-1zM22 4h1v1h-1zM1 5h1v1H1zM2 5h1v1H2zM9 5h1v1H9zM10 5h1v1h-1zM15 5h1v1h-1zM16 5h1v1h-1zM21 5h1v1h-1zM22 5h1v1h-1zM1 6h1v1H1zM2 6h1v1H2zM9 6h1v1H9zM10 6h1v1h-1zM15 6h1v1h-1zM16 6h1v1h-1zM21 6h1v1h-1zM22 6h1v1h-1zM1 7h1v1H1zM2 7h1v1H2zM9 7h1v1H9zM10 7h1v1h-1zM15 7h1v1h-1zM16 7h1v1h-1zM21 7h1v1h-1zM22 7h1v1h-1zM1 8h1v1H1zM2 8h1v1H2zM9 8h1v1H9zM10 8h1v1h-1zM15 8h1v1h-1zM16 8h1v1h-1zM21 8h1v1h-1zM22 8h1v1h-1zM1 9h1v1H1zM2 9h1v1H2zM3 9h1v1H3zM4 9h1v1H4zM5 9h1v1H5zM6 9h1v1H6zM7 9h1v1H7zM8 9h1v1H8zM9 9h1v1H9zM10 9h1v1h-1zM13 9h1v1h-1zM14 9h1v1h-1zM15 9h1v1h-1zM16 9h1v1h-1zM19 9h1v1h-1zM20 9h1v1h-1zM21 9h1v1h-1zM22 9h1v1h-1zM2 10h1v1H2zM3 10h1v1H3zM4 10h1v1H4zM5 10h1v1H5zM6 10h1v1H6zM7 10h1v1H7zM8 10h1v1H8zM9 10h1v1H9zM13 10h1v1h-1zM14 10h1v1h-1zM15 10h1v1h-1zM19 10h1v1h-1zM20 10h1v1h-1zM21 10h1v1h-1zM1 13h1v1H1zM2 13h1v1H2zM14 13h1v1h-1zM15 13h1v1h-1zM16 13h1v1h-1zM17 13h1v1h-1zM18 13h1v1h-1zM19 13h1v1h-1zM20 13h1v1h-1zM21 13h1v1h-1zM1 14h1v1H1zM2 14h1v1H2zM6 14h1v1H6zM7 14h1v1H7zM13 14h1v1h-1zM14 14h1v1h-1zM15 14h1v1h-1zM16 14h1v1h-1zM17 14h1v1h-1zM18 14h1v1h-1zM19 14h1v1h-1zM20 14h1v1h-1zM21 14h1v1h-1zM22 14h1v1h-1zM1 15h1v1H1zM2 15h1v1H2zM6 15h1v1H6zM7 15h1v1H7zM8 15h1v1H8zM13 15h1v1h-1zM14 15h1v1h-1zM21 15h1v1h-1zM22 15h1v1h-1zM1 16h1v1H1zM2 16h1v1H2zM3 16h1v1H3zM7 16h1v1H7zM8 16h1v1H8zM9 16h1v1H9zM13 16h1v1h-1zM14 16h1v1h-1zM21 16h1v1h-1zM22 16h1v1h-1zM2 17h1v1H2zM3 17h1v1H3zM4 17h1v1H4zM5 17h1v1H5zM6 17h1v1H6zM7 17h1v1H7zM8 17h1v1H8zM9 17h1v1H9zM10 17h1v1h-1zM13 17h1v1h-1zM14 17h1v1h-1zM21 17h1v1h-1zM22 17h1v1h-1zM3 18h1v1H3zM4 18h1v1H4zM5 18h1v1H5zM6 18h1v1H6zM7 18h1v1H7zM8 18h1v1H8zM9 18h1v1H9zM10 18h1v1h-1zM13 18h1v1h-1zM14 18h1v1h-1zM21 18h1v1h-1zM22 18h1v1h-1zM7 19h1v1H7zM8 19h1v1H8zM9 19h1v1H9zM13 19h1v1h-1zM14 19h1v1h-1zM21 19h1v1h-1zM22 19h1v1h-1zM6 20h1v1H6zM7 20h1v1H7zM8 20h1v1H8zM13 20h1v1h-1zM14 20h1v1h-1zM21 20h1v1h-1zM22 20h1v1h-1zM6 21h1v1H6zM7 21h1v1H7zM13 21h1v1h-1zM14 21h1v1h-1zM15 21h1v1h-1zM16 21h1v1h-1zM17 21h1v1h-1zM18 21h1v1h-1zM19 21h1v1h-1zM20 21h1v1h-1zM21 21h1v1h-1zM22 21h1v1h-1zM14 22h1v1h-1zM15 22h1v1h-1zM16 22h1v1h-1zM17 22h1v1h-1zM18 22h1v1h-1zM19 22h1v1h-1zM20 22h1v1h-1zM21 22h1v1h-1z"/></svg>