<svg xmlns="http://www.w3.org/2000/svg" width="24" height="24" shape-rendering="crispEdges"><path d="M11 1h1v1h-1zM12 1h1v1h-1zM10 2h1v1h-1zM11 2h1v1h-1zM12 2h1v1h-1zM13 2h1v1h-1zM9 3h1v1H9zM10 3h1v1h-1zM11 3h1v1h-1zM12 3h1v1h-1zM13 3h1v1h-1zM14 3h1v1h-1zM8 4h1v1H8zM9 4h1v1H9zM10 4h1v1h-1zM13 4h1v1h-1zM14 4h1v1h-1zM15 4h1v1h-1zM8 5h1v1H8zM9 5h1v1H9zM14 5h1v1h-1zM15 5h1v1h-1zM8 6h1v1H8zM9 6h1v1H9zM10 6h1v1h-1zM13 6h1v1h-1zM14 6h1v1h-1zM15 6h1v1h-1zM9 7h1v1H9zM10 7h1v1h-1zM11 7h1v1h-1zM12 7h1v1h-1zM13 7h1v1h-1zM14 7h1v1h-1zM4 8h1v1H4zM5 8h1v1H5zM6 8h1v1H6zM10 8h1v1h-1zM11 8h1v1h-1zM12 8h1v1h-1zM13 8h1v1h-1zM17 8h1v1h-1zM18 8h1v1h-1zM19 8h1v1h-1zM3 9h1v1H3zM4 9h1v1H4zM5 9h1v1H5zM6 9h1v1H6zM7 9h1v1H7zM11 9h1v1h-1zM12 9h1v1h-1zM16 9h1v1h-1zM17 9h1v1h-1zM18 9h1v1h-1zM19 9h1v1h-1zM20 9h1v1h-1zM2 10h1v1H2zM3 10h1v1H3zM4 10h1v1H4zM6 10h1v1H6zM7 10h1v1H7zM8 10h1v1H8zM15 10h1v1h-1zM16 10h1v1h-1zM17 10h1v1h-1zM19 10h1v1h-1zM20 10h1v1h-1zM21 10h1v1h-1zM1 11h1v1H1zM2 11h1v1H2zM3 11h1v1H3zM7 11h1v1H7zM8 11h1v1H8zM9 11h1v1H9zM14 11h1v1h-1zM15 11h1v1h-1zM16 11h1v1h-1zM20 11h1v1h-1zM21 11h1v1h-1zM22 11h1v1h-1zM1 12h1v1H1zM2 12h1v1H2zM3 12h1v1H3zM7 12h1v1H7zM8 12h1v1H8zM9 12h1v1H9zM14 12h1v1h-1zM15 12h1v1h-1zM16 12h1v1h-1zM20 12h1v1h-1zM21 12h1v1h-1zM22 12h1v1h-1zM2 13h1v1H2zM3 13h1v1H3zM4 13h1v1H4zM6 13h1v1H6zM7 13h1v1H7zM8 13h1v1H8zM15 13h1v1h-1zM16 13h1v1h-1zM17 13h1v1h-1zM19 13h1v1h-1zM20 13h1v1h-1zM21 13h1v1h-1zM3 14h1v1H3zM4 14h1v1H4zM5 14h1v1H5zM6 14h1v1H6zM7 14h1v1H7zM11 14h1v1h-1zM12 14h1v1h-1zM16 14h1v1h-1zM17 14h1v1h-1zM18 14h1v1h-1zM19 14h1v1h-1zM20 14h1v1h-1zM4 15h1v1H4zM5 15h1v1H5zM6 15h1v1H6zM10 15h1v1h-1zM11 15h1v1h-1zM12 15h1v1h-1zM13 15h1v1h-1zM17 15h1v1h-1zM18 15h1v1h-1zM19 15h1v1h-1zM9 16h1v1H9zM10 16h1v1h-1zM11 16h1v1h-1zM12 16h1v1h-1zM13 16h1v1h-1zM14 16h1v1h-1zM8 17h1v1H8zM9 17h1v1H9zM10 17h1v1h-1zM13 17h1v1h-1zM14 17h1v1h-1zM15 17h1v1h-1zM8 18h1v1H8zM9 18h1v1H9zM14 18h1v1h-1zM15 18h1v1h-1zM8 19h1v1H8zM9 19h1v1H9zM10 19h1v1h-1zM13 19h1v1h-1zM14 19h1v1h-1zM15 19h1v1h-1zM9 20h1v1H9zM10 20h1v1h-1zM11 20h1v1h-1zM12 20h1v1h-1zM13 20h1v1h-1zM14 20h1v1h-1zM10 21h1v1h-1zM11 21h1v1h-1zM12 21h1v1h-1zM13 21h1v1h-1zM11 22h1v1h-1zM12 22h1v1h-1z"/></svg>