<svg xmlns="http://www.w3.org/2000/svg" width="24" height="24" shape-rendering="crispEdges"><path d="M19 3h1v1h-1zM20 3h1v1h-1zM19 4h1v1h-1zM20 4h1v1h-1zM19 5h1v1h-1zM20 5h1v1h-1zM19 6h1v1h-1zM20 6h1v1h-1zM19 7h1v1h-1zM20 7h1v1h-1zM19 8h1v1h-1zM20 8h1v1h-1zM8 9h1v1H8zM9 9h1v1H9zM19 9h1v1h-1zM20 9h1v1h-1zM7 10h1v1H7zM8 10h1v1H8zM9 10h1v1H9zM19 10h1v1h-1zM20 10h1v1h-1zM6 11h1v1H6zM7 11h1v1H7zM8 11h1v1H8zM19 11h1v1h-1zM20 11h1v1h-1zM5 12h1v1H5zM6 12h1v1H6zM7 12h1v1H7zM19 12h1v1h-1zM20 12h1v1h-1zM4 13h1v1H4zM5 13h1v1H5zM6 13h1v1H6zM18 13h1v1h-1zM19 13h1v1h-1zM3 14h1v1H3zM4 14h1v1H4zM5 14h1v1H5zM6 14h1v1H6zM7 14h1v1H7zM8 14h1v1H8zM9 14h1v1H9zM10 14h1v1h-1zM11 14h1v1h-1zM12 14h1v1h-1zM13 14h1v1h-1zM14 14h1v1h-1zM15 14h1v1h-1zM16 14h1v1h-1zM17 14h1v1h-1zM18 14h1v1h-1zM3 15h1v1H3zM4 15h1v1H4zM5 15h1v1H5zM6 15h1v1H6zM7 15h1v1H7zM8 15h1v1H8zM9 15h1v1H9zM10 15h1v1h-1zM11 15h1v1h-1zM12 15h1v1h-1zM13 15h1v1h-1zM14 15h1v1h-1zM15 15h1v1h-1zM16 15h1v1h-1zM17 15h1v1h-1zM4 16h1v1H4zM5 16h1v1H5zM6 16h1v1H6zM5 17h1v1H5zM6 17h1v1H6zM7 17h1v1H7zM6 18h1v1H6zM7 18h1v1H7zM8 18h1v1H8zM7 19h1v1H7zM8 19h1v1H8zM9 19h1v1H9zM8 20h1v1H8zM9 20h1v1H9z"/></svg>