<svg xmlns="http://www.w3.org/2000/svg" width="24" height="24" shape-rendering="crispEdges"><path d="M11 3h1v1h-1zM12 3h1v1h-1zM13 3h1v1h-1zM14 3h1v1h-1zM15 3h1v1h-1zM16 3h1v1h-1zM17 3h1v1h-1zM18 3h1v1h-1zM19 3h1v1h-1zM20 3h1v1h-1zM10 4h1v1h-1zM11 4h1v1h-1zM12 4h1v1h-1zM13 4h1v1h-1zM14 4h1v1h-1zM15 4h1v1h-1zM16 4h1v1h-1zM17 4h1v1h-1zM18 4h1v1h-1zM19 4h1v1h-1zM20 4h1v1h-1zM9 5h1v1H9zM10 5h1v1h-1zM8 6h1v1H8zM9 6h1v1H9zM8 7h1v1H8zM9 7h1v1H9zM8 8h1v1H8zM9 8h1v1H9zM8 9h1v1H8zM9 9h1v1H9zM8 10h1v1H8zM9 10h1v1H9zM8 11h1v1H8zM9 11h1v1H9zM8 12h1v1H8zM9 12h1v1H9zM8 13h1v1H8zM9 13h1v1H9zM3 14h1v1H3zM4 14h1v1H4zM8 14h1v1H8zM9 14h1v1H9zM13 14h1v1h-1zM14 14h1v1h-1zM3 15h1v1H3zM4 15h1v1H4zM5 15h1v1H5zM8 15h1v1H8zM9 15h1v1H9zM12 15h1v1h-1zM13 15h1v1h-1zM14 15h1v1h-1zM4 16h1v1H4zM5 16h1v1H5zM6 16h1v1H6zM8 16h1v1H8zM9 16h1v1H9zM11 16h1v1h-1zM12 16h1v1h-1zM13 16h1v1h-1zM5 17h1v1H5zM6 17h1v1H6zM7 17h1v1H7zM8 17h1v1H8zM9 17h1v1H9zM10 17h1v1h-1zM11 17h1v1h-1zM12 17h1v1h-1zM6 18h1v1H6zM7 18h1v1H7zM8 18h1v1H8zM9 18h1v1H9zM10 18h1v1h-1zM11 18h1v1h-1zM7 19h1v1H7zM8 19h1v1H8zM9 19h1v1H9zM10 19h1v1h-1zM8 20h1v1H8zM9 20h1v1H9z"/></svg>