<svg xmlns="http://www.w3.org/2000/svg" width="24" height="24" shape-rendering="crispEdges"><path d="M3 3h1v1H3zM4 3h1v1H4zM5 3h1v1H5zM6 3h1v1H6zM7 3h1v1H7zM8 3h1v1H8zM9 3h1v1H9zM10 3h1v1h-1zM11 3h1v1h-1zM12 3h1v1h-1zM3 4h1v1H3zM4 4h1v1H4zM5 4h1v1H5zM6 4h1v1H6zM7 4h1v1H7zM8 4h1v1H8zM9 4h1v1H9zM10 4h1v1h-1zM11 4h1v1h-1zM12 4h1v1h-1zM13 4h1v1h-1zM14 4h1v1h-1zM13 5h1v1h-1zM14 5h1v1h-1zM14 6h1v1h-1zM15 6h1v1h-1zM14 7h1v1h-1zM15 7h1v1h-1zM14 8h1v1h-1zM15 8h1v1h-1zM14 9h1v1h-1zM15 9h1v1h-1zM14 10h1v1h-1zM15 10h1v1h-1zM14 11h1v1h-1zM15 11h1v1h-1zM14 12h1v1h-1zM15 12h1v1h-1zM14 13h1v1h-1zM15 13h1v1h-1zM9 14h1v1H9zM10 14h1v1h-1zM14 14h1v1h-1zM15 14h1v1h-1zM19 14h1v1h-1zM20 14h1v1h-1zM9 15h1v1H9zM10 15h1v1h-1zM11 15h1v1h-1zM14 15h1v1h-1zM15 15h1v1h-1zM18 15h1v1h-1zM19 15h1v1h-1zM20 15h1v1h-1zM10 16h1v1h-1zM11 16h1v1h-1zM12 16h1v1h-1zM14 16h1v1h-1zM15 16h1v1h-1zM17 16h1v1h-1zM18 16h1v1h-1zM19 16h1v1h-1zM11 17h1v1h-1zM12 17h1v1h-1zM13 17h1v1h-1zM14 17h1v1h-1zM15 17h1v1h-1zM16 17h1v1h-1zM17 17h1v1h-1zM18 17h1v1h-1zM12 18h1v1h-1zM13 18h1v1h-1zM14 18h1v1h-1zM15 18h1v1h-1zM16 18h1v1h-1zM17 18h1v1h-1zM13 19h1v1h-1zM14 19h1v1h-1zM15 19h1v1h-1zM16 19h1v1h-1zM14 20h1v1h-1zM15 20h1v1h-1z"/></svg>