<svg xmlns="http://www.w3.org/2000/svg" width="24" height="24" shape-rendering="crispEdges"><path d="M14 3h1v1h-1zM15 3h1v1h-1zM14 4h1v1h-1zM15 4h1v1h-1zM16 4h1v1h-1zM15 5h1v1h-1zM16 5h1v1h-1zM17 5h1v1h-1zM16 6h1v1h-1zM17 6h1v1h-1zM18 6h1v1h-1zM17 7h1v1h-1zM18 7h1v1h-1zM19 7h1v1h-1zM6 8h1v1H6zM7 8h1v1H7zM8 8h1v1H8zM9 8h1v1H9zM10 8h1v1h-1zM11 8h1v1h-1zM12 8h1v1h-1zM13 8h1v1h-1zM14 8h1v1h-1zM15 8h1v1h-1zM16 8h1v1h-1zM17 8h1v1h-1zM18 8h1v1h-1zM19 8h1v1h-1zM20 8h1v1h-1zM5 9h1v1H5zM6 9h1v1H6zM7 9h1v1H7zM8 9h1v1H8zM9 9h1v1H9zM10 9h1v1h-1zM11 9h1v1h-1zM12 9h1v1h-1zM13 9h1v1h-1zM14 9h1v1h-1zM15 9h1v1h-1zM16 9h1v1h-1zM17 9h1v1h-1zM18 9h1v1h-1zM19 9h1v1h-1zM20 9h1v1h-1zM4 10h1v1H4zM5 10h1v1H5zM17 10h1v1h-1zM18 10h1v1h-1zM19 10h1v1h-1zM3 11h1v1H3zM4 11h1v1H4zM16 11h1v1h-1zM17 11h1v1h-1zM18 11h1v1h-1zM3 12h1v1H3zM4 12h1v1H4zM15 12h1v1h-1zM16 12h1v1h-1zM17 12h1v1h-1zM3 13h1v1H3zM4 13h1v1H4zM14 13h1v1h-1zM15 13h1v1h-1zM16 13h1v1h-1zM3 14h1v1H3zM4 14h1v1H4zM14 14h1v1h-1zM15 14h1v1h-1zM3 15h1v1H3zM4 15h1v1H4zM3 16h1v1H3zM4 16h1v1H4zM3 17h1v1H3zM4 17h1v1H4zM3 18h1v1H3zM4 18h1v1H4zM3 19h1v1H3zM4 19h1v1H4zM3 20h1v1H3zM4 20h1v1H4z"/></svg>