<svg xmlns="http://www.w3.org/2000/svg" width="24" height="24" shape-rendering="crispEdges"><path d="M3 3h1v1H3zM4 3h1v1H4zM3 4h1v1H3zM4 4h1v1H4zM3 5h1v1H3zM4 5h1v1H4zM3 6h1v1H3zM4 6h1v1H4zM3 7h1v1H3zM4 7h1v1H4zM3 8h1v1H3zM4 8h1v1H4zM3 9h1v1H3zM4 9h1v1H4zM14 9h1v1h-1zM15 9h1v1h-1zM3 10h1v1H3zM4 10h1v1H4zM14 10h1v1h-1zM15 10h1v1h-1zM16 10h1v1h-1zM3 11h1v1H3zM4 11h1v1H4zM15 11h1v1h-1zM16 11h1v1h-1zM17 11h1v1h-1zM3 12h1v1H3zM4 12h1v1H4zM16 12h1v1h-1zM17 12h1v1h-1zM18 12h1v1h-1zM4 13h1v1H4zM5 13h1v1H5zM17 13h1v1h-1zM18 13h1v1h-1zM19 13h1v1h-1zM4 14h1v1H4zM5 14h1v1H5zM6 14h1v1H6zM7 14h1v1H7zM8 14h1v1H8zM9 14h1v1H9zM10 14h1v1h-1zM11 14h1v1h-1zM12 14h1v1h-1zM13 14h1v1h-1zM14 14h1v1h-1zM15 14h1v1h-1zM16 14h1v1h-1zM17 14h1v1h-1zM18 14h1v1h-1zM19 14h1v1h-1zM20 14h1v1h-1zM6 15h1v1H6zM7 15h1v1H7zM8 15h1v1H8zM9 15h1v1H9zM10 15h1v1h-1zM11 15h1v1h-1zM12 15h1v1h-1zM13 15h1v1h-1zM14 15h1v1h-1zM15 15h1v1h-1zM16 15h1v1h-1zM17 15h1v1h-1zM18 15h1v1h-1zM19 15h1v1h-1zM20 15h1v1h-1zM17 16h1v1h-1zM18 16h1v1h-1zM19 16h1v1h-1zM16 17h1v1h-1zM17 17h1v1h-1zM18 17h1v1h-1zM15 18h1v1h-1zM16 18h1v1h-1zM17 18h1v1h-1zM14 19h1v1h-1zM15 19h1v1h-1zM16 19h1v1h-1zM14 20h1v1h-1zM15 20h1v1h-1z"/></svg>