<svg xmlns="http://www.w3.org/2000/svg" width="24" height="24" shape-rendering="crispEdges"><path d="M14 1h1v1h-1zM15 1h1v1h-1zM13 2h1v1h-1zM14 2h1v1h-1zM15 2h1v1h-1zM13 3h1v1h-1zM14 3h1v1h-1zM15 3h1v1h-1zM12 4h1v1h-1zM13 4h1v1h-1zM14 4h1v1h-1zM15 4h1v1h-1zM16 4h1v1h-1zM12 5h1v1h-1zM13 5h1v1h-1zM15 5h1v1h-1zM16 5h1v1h-1zM17 5h1v1h-1zM11 6h1v1h-1zM12 6h1v1h-1zM13 6h1v1h-1zM16 6h1v1h-1zM17 6h1v1h-1zM11 7h1v1h-1zM12 7h1v1h-1zM13 7h1v1h-1zM14 7h1v1h-1zM11 8h1v1h-1zM12 8h1v1h-1zM13 8h1v1h-1zM14 8h1v1h-1zM19 8h1v1h-1zM20 8h1v1h-1zM21 8h1v1h-1zM22 8h1v1h-1zM19 9h1v1h-1zM20 9h1v1h-1zM21 9h1v1h-1zM22 9h1v1h-1zM15 10h1v1h-1zM16 10h1v1h-1zM17 10h1v1h-1zM18 10h1v1h-1zM19 10h1v1h-1zM20 10h1v1h-1zM21 10h1v1h-1zM6 11h1v1H6zM7 11h1v1H7zM8 11h1v1H8zM9 11h1v1H9zM10 11h1v1h-1zM11 11h1v1h-1zM12 11h1v1h-1zM13 11h1v1h-1zM14 11h1v1h-1zM15 11h1v1h-1zM16 11h1v1h-1zM17 11h1v1h-1zM18 11h1v1h-1zM19 11h1v1h-1zM4 12h1v1H4zM5 12h1v1H5zM6 12h1v1H6zM7 12h1v1H7zM8 12h1v1H8zM9 12h1v1H9zM10 12h1v1h-1zM11 12h1v1h-1zM12 12h1v1h-1zM13 12h1v1h-1zM14 12h1v1h-1zM15 12h1v1h-1zM16 12h1v1h-1zM17 12h1v1h-1zM2 13h1v1H2zM3 13h1v1H3zM4 13h1v1H4zM5 13h1v1H5zM6 13h1v1H6zM7 13h1v1H7zM8 13h1v1H8zM1 14h1v1H1zM2 14h1v1H2zM3 14h1v1H3zM4 14h1v1H4zM1 15h1v1H1zM2 15h1v1H2zM3 15h1v1H3zM4 15h1v1H4zM9 15h1v1H9zM10 15h1v1h-1zM11 15h1v1h-1zM12 15h1v1h-1zM9 16h1v1H9zM10 16h1v1h-1zM11 16h1v1h-1zM12 16h1v1h-1zM6 17h1v1H6zM7 17h1v1H7zM10 17h1v1h-1zM11 17h1v1h-1zM12 17h1v1h-1zM6 18h1v1H6zM7 18h1v1H7zM8 18h1v1H8zM10 18h1v1h-1zM11 18h1v1h-1zM7 19h1v1H7zM8 19h1v1H8zM9 19h1v1H9zM10 19h1v1h-1zM11 19h1v1h-1zM8 20h1v1H8zM9 20h1v1H9zM10 20h1v1h-1zM8 21h1v1H8zM9 21h1v1H9zM10 21h1v1h-1zM8 22h1v1H8zM9 22h1v1H9z"/></svg>