<svg xmlns="http://www.w3.org/2000/svg" width="24" height="24" shape-rendering="crispEdges"><path d="M11 1h1v1h-1zM12 1h1v1h-1zM11 2h1v1h-1zM12 2h1v1h-1zM11 3h1v1h-1zM12 3h1v1h-1zM8 4h1v1H8zM9 4h1v1H9zM10 4h1v1h-1zM11 4h1v1h-1zM12 4h1v1h-1zM13 4h1v1h-1zM14 4h1v1h-1zM15 4h1v1h-1zM16 4h1v1h-1zM17 4h1v1h-1zM6 5h1v1H6zM7 5h1v1H7zM8 5h1v1H8zM9 5h1v1H9zM10 5h1v1h-1zM11 5h1v1h-1zM12 5h1v1h-1zM13 5h1v1h-1zM14 5h1v1h-1zM15 5h1v1h-1zM16 5h1v1h-1zM17 5h1v1h-1zM6 6h1v1H6zM7 6h1v1H7zM11 6h1v1h-1zM12 6h1v1h-1zM5 7h1v1H5zM6 7h1v1H6zM11 7h1v1h-1zM12 7h1v1h-1zM5 8h1v1H5zM6 8h1v1H6zM11 8h1v1h-1zM12 8h1v1h-1zM5 9h1v1H5zM6 9h1v1H6zM11 9h1v1h-1zM12 9h1v1h-1zM6 10h1v1H6zM7 10h1v1H7zM11 10h1v1h-1zM12 10h1v1h-1zM6 11h1v1H6zM7 11h1v1H7zM8 11h1v1H8zM9 11h1v1H9zM10 11h1v1h-1zM11 11h1v1h-1zM12 11h1v1h-1zM13 11h1v1h-1zM14 11h1v1h-1zM15 11h1v1h-1zM8 12h1v1H8zM9 12h1v1H9zM10 12h1v1h-1zM11 12h1v1h-1zM12 12h1v1h-1zM13 12h1v1h-1zM14 12h1v1h-1zM15 12h1v1h-1zM16 12h1v1h-1zM17 12h1v1h-1zM11 13h1v1h-1zM12 13h1v1h-1zM16 13h1v1h-1zM17 13h1v1h-1zM11 14h1v1h-1zM12 14h1v1h-1zM17 14h1v1h-1zM18 14h1v1h-1zM11 15h1v1h-1zM12 15h1v1h-1zM17 15h1v1h-1zM18 15h1v1h-1zM11 16h1v1h-1zM12 16h1v1h-1zM17 16h1v1h-1zM18 16h1v1h-1zM11 17h1v1h-1zM12 17h1v1h-1zM16 17h1v1h-1zM17 17h1v1h-1zM5 18h1v1H5zM6 18h1v1H6zM7 18h1v1H7zM8 18h1v1H8zM9 18h1v1H9zM10 18h1v1h-1zM11 18h1v1h-1zM12 18h1v1h-1zM13 18h1v1h-1zM14 18h1v1h-1zM15 18h1v1h-1zM16 18h1v1h-1zM17 18h1v1h-1zM5 19h1v1H5zM6 19h1v1H6zM7 19h1v1H7zM8 19h1v1H8zM9 19h1v1H9zM10 19h1v1h-1zM11 19h1v1h-1zM12 19h1v1h-1zM13 19h1v1h-1zM14 19h1v1h-1zM15 19h1v1h-1zM11 20h1v1h-1zM12 20h1v1h-1zM11 21h1v1h-1zM12 21h1v1h-1zM11 22h1v1h-1zM12 22h1v1h-1z"/></svg>