<svg xmlns="http://www.w3.org/2000/svg" width="24" height="24" shape-rendering="crispEdges"><path d="M7 2h1v1H7zM8 2h1v1H8zM9 2h1v1H9zM10 2h1v1h-1zM11 2h1v1h-1zM12 2h1v1h-1zM5 3h1v1H5zM6 3h1v1H6zM7 3h1v1H7zM8 3h1v1H8zM9 3h1v1H9zM10 3h1v1h-1zM11 3h1v1h-1zM12 3h1v1h-1zM13 3h1v1h-1zM14 3h1v1h-1zM15 3h1v1h-1zM16 3h1v1h-1zM17 3h1v1h-1zM4 4h1v1H4zM5 4h1v1H5zM6 4h1v1H6zM12 4h1v1h-1zM13 4h1v1h-1zM14 4h1v1h-1zM15 4h1v1h-1zM16 4h1v1h-1zM17 4h1v1h-1zM18 4h1v1h-1zM4 5h1v1H4zM5 5h1v1H5zM12 5h1v1h-1zM13 5h1v1h-1zM17 5h1v1h-1zM18 5h1v1h-1zM4 6h1v1H4zM5 6h1v1H5zM12 6h1v1h-1zM13 6h1v1h-1zM17 6h1v1h-1zM18 6h1v1h-1zM4 7h1v1H4zM5 7h1v1H5zM12 7h1v1h-1zM13 7h1v1h-1zM17 7h1v1h-1zM18 7h1v1h-1zM4 8h1v1H4zM5 8h1v1H5zM12 8h1v1h-1zM13 8h1v1h-1zM17 8h1v1h-1zM18 8h1v1h-1zM4 9h1v1H4zM5 9h1v1H5zM12 9h1v1h-1zM13 9h1v1h-1zM17 9h1v1h-1zM18 9h1v1h-1zM4 10h1v1H4zM5 10h1v1H5zM12 10h1v1h-1zM13 10h1v1h-1zM17 10h1v1h-1zM18 10h1v1h-1zM4 11h1v1H4zM5 11h1v1H5zM9 11h1v1H9zM10 11h1v1h-1zM12 11h1v1h-1zM13 11h1v1h-1zM17 11h1v1h-1zM18 11h1v1h-1zM4 12h1v1H4zM5 12h1v1H5zM9 12h1v1H9zM10 12h1v1h-1zM12 12h1v1h-1zM13 12h1v1h-1zM17 12h1v1h-1zM18 12h1v1h-1zM4 13h1v1H4zM5 13h1v1H5zM12 13h1v1h-1zM13 13h1v1h-1zM17 13h1v1h-1zM18 13h1v1h-1zM4 14h1v1H4zM5 14h1v1H5zM12 14h1v1h-1zM13 14h1v1h-1zM17 14h1v1h-1zM18 14h1v1h-1zM4 15h1v1H4zM5 15h1v1H5zM12 15h1v1h-1zM13 15h1v1h-1zM17 15h1v1h-1zM18 15h1v1h-1zM4 16h1v1H4zM5 16h1v1H5zM12 16h1v1h-1zM13 16h1v1h-1zM17 16h1v1h-1zM18 16h1v1h-1zM4 17h1v1H4zM5 17h1v1H5zM12 17h1v1h-1zM13 17h1v1h-1zM17 17h1v1h-1zM18 17h1v1h-1zM4 18h1v1H4zM5 18h1v1H5zM12 18h1v1h-1zM13 18h1v1h-1zM17 18h1v1h-1zM18 18h1v1h-1zM1 19h1v1H1zM2 19h1v1H2zM3 19h1v1H3zM4 19h1v1H4zM5 19h1v1H5zM6 19h1v1H6zM12 19h1v1h-1zM13 19h1v1h-1zM14 19h1v1h-1zM15 19h1v1h-1zM16 19h1v1h-1zM17 19h1v1h-1zM18 19h1v1h-1zM19 19h1v1h-1zM20 19h1v1h-1zM21 19h1v1h-1zM22 19h1v1h-1zM1 20h1v1H1zM2 20h1v1H2zM3 20h1v1H3zM4 20h1v1H4zM5 20h1v1H5zM6 20h1v1H6zM7 20h1v1H7zM8 20h1v1H8zM9 20h1v1H9zM10 20h1v1h-1zM12 20h1v1h-1zM13 20h1v1h-1zM14 20h1v1h-1zM15 20h1v1h-1zM16 20h1v1h-1zM17 20h1v1h-1zM18 20h1v1h-1zM19 20h1v1h-1zM20 20h1v1h-1zM21 20h1v1h-1zM22 20h1v1h-1zM7 21h1v1H7zM8 21h1v1H8zM9 21h1v1H9zM10 21h1v1h-1zM11 21h1v1h-1zM12 21h1v1h-1zM13 21h1v1h-1zM11 22h1v1h-1zM12 22h1v1h-1z"/></svg>