<svg xmlns="http://www.w3.org/2000/svg" width="24" height="24" shape-rendering="crispEdges"><path d="M10 2h1v1h-1zM11 2h1v1h-1zM12 2h1v1h-1zM13 2h1v1h-1zM9 3h1v1H9zM10 3h1v1h-1zM11 3h1v1h-1zM12 3h1v1h-1zM13 3h1v1h-1zM14 3h1v1h-1zM9 4h1v1H9zM10 4h1v1h-1zM13 4h1v1h-1zM14 4h1v1h-1zM9 5h1v1H9zM10 5h1v1h-1zM13 5h1v1h-1zM14 5h1v1h-1zM9 6h1v1H9zM10 6h1v1h-1zM11 6h1v1h-1zM12 6h1v1h-1zM13 6h1v1h-1zM14 6h1v1h-1zM9 7h1v1H9zM10 7h1v1h-1zM11 7h1v1h-1zM12 7h1v1h-1zM13 7h1v1h-1zM14 7h1v1h-1zM9 8h1v1H9zM10 8h1v1h-1zM13 8h1v1h-1zM14 8h1v1h-1zM8 9h1v1H8zM9 9h1v1H9zM10 9h1v1h-1zM13 9h1v1h-1zM14 9h1v1h-1zM15 9h1v1h-1zM8 10h1v1H8zM9 10h1v1H9zM14 10h1v1h-1zM15 10h1v1h-1zM4 11h1v1H4zM5 11h1v1H5zM7 11h1v1H7zM8 11h1v1H8zM18 11h1v1h-1zM19 11h1v1h-1zM4 12h1v1H4zM5 12h1v1H5zM6 12h1v1H6zM7 12h1v1H7zM8 12h1v1H8zM17 12h1v1h-1zM18 12h1v1h-1zM19 12h1v1h-1zM5 13h1v1H5zM6 13h1v1H6zM7 13h1v1H7zM8 13h1v1H8zM15 13h1v1h-1zM16 13h1v1h-1zM17 13h1v1h-1zM18 13h1v1h-1zM5 14h1v1H5zM6 14h1v1H6zM7 14h1v1H7zM8 14h1v1H8zM9 14h1v1H9zM10 14h1v1h-1zM11 14h1v1h-1zM12 14h1v1h-1zM13 14h1v1h-1zM14 14h1v1h-1zM15 14h1v1h-1zM16 14h1v1h-1zM5 15h1v1H5zM6 15h1v1H6zM9 15h1v1H9zM10 15h1v1h-1zM11 15h1v1h-1zM12 15h1v1h-1zM13 15h1v1h-1zM14 15h1v1h-1zM4 16h1v1H4zM5 16h1v1H5zM6 16h1v1H6zM18 16h1v1h-1zM4 17h1v1H4zM5 17h1v1H5zM18 17h1v1h-1zM19 17h1v1h-1zM3 18h1v1H3zM4 18h1v1H4zM5 18h1v1H5zM18 18h1v1h-1zM19 18h1v1h-1zM20 18h1v1h-1zM3 19h1v1H3zM4 19h1v1H4zM19 19h1v1h-1zM20 19h1v1h-1zM2 20h1v1H2zM3 20h1v1H3zM20 20h1v1h-1zM21 20h1v1h-1zM2 21h1v1H2zM3 21h1v1H3zM20 21h1v1h-1zM21 21h1v1h-1z"/></svg>