<svg xmlns="http://www.w3.org/2000/svg" width="24" height="24" shape-rendering="crispEdges"><path d="M12 1h1v1h-1zM13 1h1v1h-1zM14 1h1v1h-1zM15 1h1v1h-1zM16 1h1v1h-1zM17 1h1v1h-1zM18 1h1v1h-1zM19 1h1v1h-1zM10 2h1v1h-1zM11 2h1v1h-1zM12 2h1v1h-1zM13 2h1v1h-1zM14 2h1v1h-1zM15 2h1v1h-1zM16 2h1v1h-1zM17 2h1v1h-1zM18 2h1v1h-1zM19 2h1v1h-1zM20 2h1v1h-1zM21 2h1v1h-1zM9 3h1v1H9zM10 3h1v1h-1zM11 3h1v1h-1zM20 3h1v1h-1zM21 3h1v1h-1zM22 3h1v1h-1zM9 4h1v1H9zM10 4h1v1h-1zM21 4h1v1h-1zM22 4h1v1h-1zM9 5h1v1H9zM10 5h1v1h-1zM13 5h1v1h-1zM14 5h1v1h-1zM17 5h1v1h-1zM18 5h1v1h-1zM21 5h1v1h-1zM22 5h1v1h-1zM8 6h1v1H8zM9 6h1v1H9zM10 6h1v1h-1zM13 6h1v1h-1zM14 6h1v1h-1zM17 6h1v1h-1zM18 6h1v1h-1zM21 6h1v1h-1zM22 6h1v1h-1zM6 7h1v1H6zM7 7h1v1H7zM8 7h1v1H8zM9 7h1v1H9zM10 7h1v1h-1zM21 7h1v1h-1zM22 7h1v1h-1zM4 8h1v1H4zM5 8h1v1H5zM6 8h1v1H6zM7 8h1v1H7zM8 8h1v1H8zM9 8h1v1H9zM10 8h1v1h-1zM21 8h1v1h-1zM22 8h1v1h-1zM3 9h1v1H3zM4 9h1v1H4zM5 9h1v1H5zM9 9h1v1H9zM10 9h1v1h-1zM14 9h1v1h-1zM15 9h1v1h-1zM16 9h1v1h-1zM17 9h1v1h-1zM21 9h1v1h-1zM22 9h1v1h-1zM2 10h1v1H2zM3 10h1v1H3zM4 10h1v1H4zM9 10h1v1H9zM10 10h1v1h-1zM11 10h1v1h-1zM14 10h1v1h-1zM15 10h1v1h-1zM16 10h1v1h-1zM17 10h1v1h-1zM20 10h1v1h-1zM21 10h1v1h-1zM1 11h1v1H1zM2 11h1v1H2zM3 11h1v1H3zM9 11h1v1H9zM10 11h1v1h-1zM11 11h1v1h-1zM20 11h1v1h-1zM21 11h1v1h-1zM1 12h1v1H1zM2 12h1v1H2zM6 12h1v1H6zM10 12h1v1h-1zM11 12h1v1h-1zM20 12h1v1h-1zM21 12h1v1h-1zM1 13h1v1H1zM2 13h1v1H2zM6 13h1v1H6zM11 13h1v1h-1zM12 13h1v1h-1zM19 13h1v1h-1zM20 13h1v1h-1zM1 14h1v1H1zM2 14h1v1H2zM3 14h1v1H3zM9 14h1v1H9zM10 14h1v1h-1zM11 14h1v1h-1zM12 14h1v1h-1zM13 14h1v1h-1zM18 14h1v1h-1zM19 14h1v1h-1zM20 14h1v1h-1zM2 15h1v1H2zM3 15h1v1H3zM9 15h1v1H9zM10 15h1v1h-1zM11 15h1v1h-1zM12 15h1v1h-1zM13 15h1v1h-1zM14 15h1v1h-1zM17 15h1v1h-1zM18 15h1v1h-1zM19 15h1v1h-1zM3 16h1v1H3zM4 16h1v1H4zM8 16h1v1H8zM9 16h1v1H9zM13 16h1v1h-1zM14 16h1v1h-1zM15 16h1v1h-1zM16 16h1v1h-1zM17 16h1v1h-1zM18 16h1v1h-1zM3 17h1v1H3zM4 17h1v1H4zM5 17h1v1H5zM14 17h1v1h-1zM15 17h1v1h-1zM16 17h1v1h-1zM17 17h1v1h-1zM4 18h1v1H4zM5 18h1v1H5zM6 18h1v1H6zM14 18h1v1h-1zM15 18h1v1h-1zM5 19h1v1H5zM6 19h1v1H6zM7 19h1v1H7zM14 19h1v1h-1zM15 19h1v1h-1zM6 20h1v1H6zM7 20h1v1H7zM8 20h1v1H8zM9 20h1v1H9zM13 20h1v1h-1zM14 20h1v1h-1zM15 20h1v1h-1zM8 21h1v1H8zM9 21h1v1H9zM10 21h1v1h-1zM11 21h1v1h-1zM12 21h1v1h-1zM13 21h1v1h-1zM14 21h1v1h-1zM10 22h1v1h-1zM11 22h1v1h-1zM12 22h1v1h-1zM13 22h1v1h-1z"/></svg>