<svg xmlns="http://www.w3.org/2000/svg" width="24" height="24" shape-rendering="crispEdges"><path d="M13 2h1v1h-1zM14 2h1v1h-1zM13 3h1v1h-1zM14 3h1v1h-1zM12 4h1v1h-1zM13 4h1v1h-1zM14 4h1v1h-1zM15 4h1v1h-1zM6 5h1v1H6zM7 5h1v1H7zM12 5h1v1h-1zM13 5h1v1h-1zM14 5h1v1h-1zM15 5h1v1h-1zM5 6h1v1H5zM6 6h1v1H6zM7 6h1v1H7zM8 6h1v1H8zM12 6h1v1h-1zM13 6h1v1h-1zM14 6h1v1h-1zM15 6h1v1h-1zM16 6h1v1h-1zM5 7h1v1H5zM6 7h1v1H6zM7 7h1v1H7zM8 7h1v1H8zM12 7h1v1h-1zM15 7h1v1h-1zM16 7h1v1h-1zM4 8h1v1H4zM5 8h1v1H5zM6 8h1v1H6zM7 8h1v1H7zM8 8h1v1H8zM9 8h1v1H9zM16 8h1v1h-1zM17 8h1v1h-1zM3 9h1v1H3zM4 9h1v1H4zM5 9h1v1H5zM8 9h1v1H8zM9 9h1v1H9zM10 9h1v1h-1zM17 9h1v1h-1zM18 9h1v1h-1zM2 10h1v1H2zM3 10h1v1H3zM4 10h1v1H4zM9 10h1v1H9zM10 10h1v1h-1zM11 10h1v1h-1zM18 10h1v1h-1zM19 10h1v1h-1zM2 11h1v1H2zM3 11h1v1H3zM10 11h1v1h-1zM11 11h1v1h-1zM19 11h1v1h-1zM20 11h1v1h-1zM2 12h1v1H2zM3 12h1v1H3zM10 12h1v1h-1zM11 12h1v1h-1zM19 12h1v1h-1zM20 12h1v1h-1zM2 13h1v1H2zM3 13h1v1H3zM10 13h1v1h-1zM11 13h1v1h-1zM20 13h1v1h-1zM21 13h1v1h-1zM3 14h1v1H3zM4 14h1v1H4zM9 14h1v1H9zM10 14h1v1h-1zM20 14h1v1h-1zM21 14h1v1h-1zM3 15h1v1H3zM4 15h1v1H4zM5 15h1v1H5zM6 15h1v1H6zM7 15h1v1H7zM8 15h1v1H8zM9 15h1v1H9zM10 15h1v1h-1zM20 15h1v1h-1zM21 15h1v1h-1zM4 16h1v1H4zM5 16h1v1H5zM6 16h1v1H6zM7 16h1v1H7zM8 16h1v1H8zM9 16h1v1H9zM20 16h1v1h-1zM21 16h1v1h-1zM19 17h1v1h-1zM20 17h1v1h-1zM21 17h1v1h-1zM19 18h1v1h-1zM20 18h1v1h-1zM8 19h1v1H8zM9 19h1v1H9zM18 19h1v1h-1zM19 19h1v1h-1zM20 19h1v1h-1zM8 20h1v1H8zM9 20h1v1H9zM10 20h1v1h-1zM11 20h1v1h-1zM16 20h1v1h-1zM17 20h1v1h-1zM18 20h1v1h-1zM19 20h1v1h-1zM9 21h1v1H9zM10 21h1v1h-1zM11 21h1v1h-1zM12 21h1v1h-1zM13 21h1v1h-1zM14 21h1v1h-1zM15 21h1v1h-1zM16 21h1v1h-1zM17 21h1v1h-1zM18 21h1v1h-1zM11 22h1v1h-1zM12 22h1v1h-1zM13 22h1v1h-1zM14 22h1v1h-1zM15 22h1v1h-1zM16 22h1v1h-1z"/></svg>