<svg xmlns="http://www.w3.org/2000/svg" width="24" height="24" shape-rendering="crispEdges"><path d="M12 2h1v1h-1zM13 2h1v1h-1zM14 2h1v1h-1zM15 2h1v1h-1zM11 3h1v1h-1zM12 3h1v1h-1zM13 3h1v1h-1zM14 3h1v1h-1zM15 3h1v1h-1zM16 3h1v1h-1zM10 4h1v1h-1zM11 4h1v1h-1zM12 4h1v1h-1zM15 4h1v1h-1zM16 4h1v1h-1zM17 4h1v1h-1zM9 5h1v1H9zM10 5h1v1h-1zM11 5h1v1h-1zM16 5h1v1h-1zM17 5h1v1h-1zM18 5h1v1h-1zM8 6h1v1H8zM9 6h1v1H9zM10 6h1v1h-1zM17 6h1v1h-1zM18 6h1v1h-1zM19 6h1v1h-1zM7 7h1v1H7zM8 7h1v1H8zM9 7h1v1H9zM18 7h1v1h-1zM19 7h1v1h-1zM20 7h1v1h-1zM6 8h1v1H6zM7 8h1v1H7zM8 8h1v1H8zM19 8h1v1h-1zM20 8h1v1h-1zM21 8h1v1h-1zM5 9h1v1H5zM6 9h1v1H6zM7 9h1v1H7zM20 9h1v1h-1zM21 9h1v1h-1zM22 9h1v1h-1zM4 10h1v1H4zM5 10h1v1H5zM6 10h1v1H6zM21 10h1v1h-1zM22 10h1v1h-1zM3 11h1v1H3zM4 11h1v1H4zM5 11h1v1H5zM6 11h1v1H6zM21 11h1v1h-1zM22 11h1v1h-1zM2 12h1v1H2zM3 12h1v1H3zM4 12h1v1H4zM5 12h1v1H5zM6 12h1v1H6zM7 12h1v1H7zM20 12h1v1h-1zM21 12h1v1h-1zM22 12h1v1h-1zM1 13h1v1H1zM2 13h1v1H2zM3 13h1v1H3zM6 13h1v1H6zM7 13h1v1H7zM8 13h1v1H8zM19 13h1v1h-1zM20 13h1v1h-1zM21 13h1v1h-1zM1 14h1v1H1zM2 14h1v1H2zM7 14h1v1H7zM8 14h1v1H8zM9 14h1v1H9zM18 14h1v1h-1zM19 14h1v1h-1zM20 14h1v1h-1zM1 15h1v1H1zM2 15h1v1H2zM8 15h1v1H8zM9 15h1v1H9zM10 15h1v1h-1zM17 15h1v1h-1zM18 15h1v1h-1zM19 15h1v1h-1zM1 16h1v1H1zM2 16h1v1H2zM3 16h1v1H3zM9 16h1v1H9zM10 16h1v1h-1zM11 16h1v1h-1zM16 16h1v1h-1zM17 16h1v1h-1zM18 16h1v1h-1zM2 17h1v1H2zM3 17h1v1H3zM4 17h1v1H4zM10 17h1v1h-1zM11 17h1v1h-1zM12 17h1v1h-1zM15 17h1v1h-1zM16 17h1v1h-1zM17 17h1v1h-1zM3 18h1v1H3zM4 18h1v1H4zM5 18h1v1H5zM11 18h1v1h-1zM12 18h1v1h-1zM13 18h1v1h-1zM14 18h1v1h-1zM15 18h1v1h-1zM16 18h1v1h-1zM4 19h1v1H4zM5 19h1v1H5zM6 19h1v1H6zM12 19h1v1h-1zM13 19h1v1h-1zM14 19h1v1h-1zM15 19h1v1h-1zM5 20h1v1H5zM6 20h1v1H6zM7 20h1v1H7zM8 20h1v1H8zM9 20h1v1H9zM10 20h1v1h-1zM11 20h1v1h-1zM12 20h1v1h-1zM13 20h1v1h-1zM14 20h1v1h-1zM15 20h1v1h-1zM16 20h1v1h-1zM17 20h1v1h-1zM18 20h1v1h-1zM19 20h1v1h-1zM20 20h1v1h-1zM21 20h1v1h-1zM22 20h1v1h-1zM6 21h1v1H6zM7 21h1v1H7zM8 21h1v1H8zM9 21h1v1H9zM10 21h1v1h-1zM11 21h1v1h-1zM12 21h1v1h-1zM13 21h1v1h-1zM14 21h1v1h-1zM15 21h1v1h-1zM16 21h1v1h-1zM17 21h1v1h-1zM18 21h1v1h-1zM19 21h1v1h-1zM20 21h1v1h-1zM21 21h1v1h-1zM22 21h1v1h-1z"/></svg>