<svg xmlns="http://www.w3.org/2000/svg" width="24" height="24" shape-rendering="crispEdges"><path d="M2 3h1v1H2zM3 3h1v1H3zM4 3h1v1H4zM5 3h1v1H5zM6 3h1v1H6zM7 3h1v1H7zM8 3h1v1H8zM9 3h1v1H9zM10 3h1v1h-1zM11 3h1v1h-1zM12 3h1v1h-1zM13 3h1v1h-1zM14 3h1v1h-1zM15 3h1v1h-1zM16 3h1v1h-1zM17 3h1v1h-1zM18 3h1v1h-1zM19 3h1v1h-1zM20 3h1v1h-1zM21 3h1v1h-1zM1 4h1v1H1zM2 4h1v1H2zM3 4h1v1H3zM4 4h1v1H4zM5 4h1v1H5zM6 4h1v1H6zM7 4h1v1H7zM8 4h1v1H8zM9 4h1v1H9zM10 4h1v1h-1zM11 4h1v1h-1zM12 4h1v1h-1zM13 4h1v1h-1zM14 4h1v1h-1zM15 4h1v1h-1zM16 4h1v1h-1zM17 4h1v1h-1zM18 4h1v1h-1zM19 4h1v1h-1zM20 4h1v1h-1zM21 4h1v1h-1zM22 4h1v1h-1zM1 5h1v1H1zM2 5h1v1H2zM21 5h1v1h-1zM22 5h1v1h-1zM1 6h1v1H1zM2 6h1v1H2zM21 6h1v1h-1zM22 6h1v1h-1zM1 7h1v1H1zM2 7h1v1H2zM5 7h1v1H5zM6 7h1v1H6zM9 7h1v1H9zM10 7h1v1h-1zM13 7h1v1h-1zM14 7h1v1h-1zM17 7h1v1h-1zM18 7h1v1h-1zM21 7h1v1h-1zM22 7h1v1h-1zM1 8h1v1H1zM2 8h1v1H2zM5 8h1v1H5zM6 8h1v1H6zM9 8h1v1H9zM10 8h1v1h-1zM13 8h1v1h-1zM14 8h1v1h-1zM17 8h1v1h-1zM18 8h1v1h-1zM21 8h1v1h-1zM22 8h1v1h-1zM1 9h1v1H1zM2 9h1v1H2zM5 9h1v1H5zM6 9h1v1H6zM9 9h1v1H9zM10 9h1v1h-1zM13 9h1v1h-1zM14 9h1v1h-1zM17 9h1v1h-1zM18 9h1v1h-1zM21 9h1v1h-1zM22 9h1v1h-1zM1 10h1v1H1zM2 10h1v1H2zM21 10h1v1h-1zM22 10h1v1h-1zM1 11h1v1H1zM2 11h1v1H2zM21 11h1v1h-1zM22 11h1v1h-1zM1 12h1v1H1zM2 12h1v1H2zM21 12h1v1h-1zM22 12h1v1h-1zM1 13h1v1H1zM2 13h1v1H2zM21 13h1v1h-1zM22 13h1v1h-1zM1 14h1v1H1zM2 14h1v1H2zM21 14h1v1h-1zM22 14h1v1h-1zM1 15h1v1H1zM2 15h1v1H2zM21 15h1v1h-1zM22 15h1v1h-1zM1 16h1v1H1zM2 16h1v1H2zM3 16h1v1H3zM4 16h1v1H4zM5 16h1v1H5zM6 16h1v1H6zM17 16h1v1h-1zM18 16h1v1h-1zM19 16h1v1h-1zM20 16h1v1h-1zM21 16h1v1h-1zM22 16h1v1h-1zM2 17h1v1H2zM3 17h1v1H3zM4 17h1v1H4zM5 17h1v1H5zM6 17h1v1H6zM7 17h1v1H7zM16 17h1v1h-1zM17 17h1v1h-1zM18 17h1v1h-1zM19 17h1v1h-1zM20 17h1v1h-1zM21 17h1v1h-1zM6 18h1v1H6zM7 18h1v1H7zM8 18h1v1H8zM15 18h1v1h-1zM16 18h1v1h-1zM17 18h1v1h-1zM7 19h1v1H7zM8 19h1v1H8zM9 19h1v1H9zM10 19h1v1h-1zM11 19h1v1h-1zM12 19h1v1h-1zM13 19h1v1h-1zM14 19h1v1h-1zM15 19h1v1h-1zM16 19h1v1h-1zM8 20h1v1H8zM9 20h1v1H9zM10 20h1v1h-1zM11 20h1v1h-1zM12 20h1v1h-1zM13 20h1v1h-1zM14 20h1v1h-1zM15 20h1v1h-1z"/></svg>