<svg xmlns="http://www.w3.org/2000/svg" width="24" height="24" shape-rendering="crispEdges"><path d="M13 1h1v1h-1zM14 1h1v1h-1zM15 1h1v1h-1zM16 1h1v1h-1zM17 1h1v1h-1zM18 1h1v1h-1zM12 2h1v1h-1zM13 2h1v1h-1zM14 2h1v1h-1zM15 2h1v1h-1zM16 2h1v1h-1zM17 2h1v1h-1zM18 2h1v1h-1zM19 2h1v1h-1zM11 3h1v1h-1zM12 3h1v1h-1zM13 3h1v1h-1zM18 3h1v1h-1zM19 3h1v1h-1zM20 3h1v1h-1zM10 4h1v1h-1zM11 4h1v1h-1zM20 4h1v1h-1zM21 4h1v1h-1zM9 5h1v1H9zM10 5h1v1h-1zM20 5h1v1h-1zM21 5h1v1h-1zM22 5h1v1h-1zM8 6h1v1H8zM9 6h1v1H9zM21 6h1v1h-1zM22 6h1v1h-1zM7 7h1v1H7zM8 7h1v1H8zM15 7h1v1h-1zM16 7h1v1h-1zM21 7h1v1h-1zM22 7h1v1h-1zM6 8h1v1H6zM7 8h1v1H7zM14 8h1v1h-1zM15 8h1v1h-1zM16 8h1v1h-1zM21 8h1v1h-1zM22 8h1v1h-1zM5 9h1v1H5zM6 9h1v1H6zM13 9h1v1h-1zM14 9h1v1h-1zM15 9h1v1h-1zM21 9h1v1h-1zM22 9h1v1h-1zM4 10h1v1H4zM5 10h1v1H5zM12 10h1v1h-1zM13 10h1v1h-1zM14 10h1v1h-1zM20 10h1v1h-1zM21 10h1v1h-1zM22 10h1v1h-1zM4 11h1v1H4zM5 11h1v1H5zM11 11h1v1h-1zM12 11h1v1h-1zM13 11h1v1h-1zM20 11h1v1h-1zM21 11h1v1h-1zM4 12h1v1H4zM5 12h1v1H5zM10 12h1v1h-1zM11 12h1v1h-1zM12 12h1v1h-1zM19 12h1v1h-1zM20 12h1v1h-1zM4 13h1v1H4zM5 13h1v1H5zM9 13h1v1H9zM10 13h1v1h-1zM11 13h1v1h-1zM18 13h1v1h-1zM19 13h1v1h-1zM4 14h1v1H4zM5 14h1v1H5zM8 14h1v1H8zM9 14h1v1H9zM10 14h1v1h-1zM11 14h1v1h-1zM12 14h1v1h-1zM13 14h1v1h-1zM14 14h1v1h-1zM15 14h1v1h-1zM16 14h1v1h-1zM17 14h1v1h-1zM18 14h1v1h-1zM4 15h1v1H4zM5 15h1v1H5zM7 15h1v1H7zM8 15h1v1H8zM9 15h1v1H9zM10 15h1v1h-1zM11 15h1v1h-1zM12 15h1v1h-1zM13 15h1v1h-1zM14 15h1v1h-1zM15 15h1v1h-1zM16 15h1v1h-1zM17 15h1v1h-1zM18 15h1v1h-1zM4 16h1v1H4zM5 16h1v1H5zM6 16h1v1H6zM7 16h1v1H7zM8 16h1v1H8zM15 16h1v1h-1zM16 16h1v1h-1zM4 17h1v1H4zM5 17h1v1H5zM6 17h1v1H6zM7 17h1v1H7zM14 17h1v1h-1zM15 17h1v1h-1zM4 18h1v1H4zM5 18h1v1H5zM6 18h1v1H6zM7 18h1v1H7zM8 18h1v1H8zM9 18h1v1H9zM10 18h1v1h-1zM11 18h1v1h-1zM12 18h1v1h-1zM13 18h1v1h-1zM14 18h1v1h-1zM3 19h1v1H3zM4 19h1v1H4zM5 19h1v1H5zM6 19h1v1H6zM7 19h1v1H7zM8 19h1v1H8zM9 19h1v1H9zM10 19h1v1h-1zM11 19h1v1h-1zM12 19h1v1h-1zM13 19h1v1h-1zM2 20h1v1H2zM3 20h1v1H3zM4 20h1v1H4zM1 21h1v1H1zM2 21h1v1H2zM3 21h1v1H3zM1 22h1v1H1zM2 22h1v1H2z"/></svg>