<svg xmlns="http://www.w3.org/2000/svg" width="24" height="24" shape-rendering="crispEdges"><path d="M7 1h1v1H7zM8 1h1v1H8zM9 1h1v1H9zM10 1h1v1h-1zM11 1h1v1h-1zM12 1h1v1h-1zM13 1h1v1h-1zM14 1h1v1h-1zM15 1h1v1h-1zM16 1h1v1h-1zM5 2h1v1H5zM6 2h1v1H6zM7 2h1v1H7zM8 2h1v1H8zM9 2h1v1H9zM10 2h1v1h-1zM11 2h1v1h-1zM12 2h1v1h-1zM13 2h1v1h-1zM14 2h1v1h-1zM15 2h1v1h-1zM16 2h1v1h-1zM17 2h1v1h-1zM18 2h1v1h-1zM5 3h1v1H5zM6 3h1v1H6zM11 3h1v1h-1zM12 3h1v1h-1zM17 3h1v1h-1zM18 3h1v1h-1zM4 4h1v1H4zM5 4h1v1H5zM11 4h1v1h-1zM12 4h1v1h-1zM18 4h1v1h-1zM19 4h1v1h-1zM4 5h1v1H4zM5 5h1v1H5zM11 5h1v1h-1zM12 5h1v1h-1zM18 5h1v1h-1zM19 5h1v1h-1zM4 6h1v1H4zM5 6h1v1H5zM11 6h1v1h-1zM12 6h1v1h-1zM18 6h1v1h-1zM19 6h1v1h-1zM5 7h1v1H5zM6 7h1v1H6zM11 7h1v1h-1zM12 7h1v1h-1zM17 7h1v1h-1zM18 7h1v1h-1zM5 8h1v1H5zM6 8h1v1H6zM7 8h1v1H7zM8 8h1v1H8zM9 8h1v1H9zM10 8h1v1h-1zM11 8h1v1h-1zM12 8h1v1h-1zM13 8h1v1h-1zM14 8h1v1h-1zM15 8h1v1h-1zM16 8h1v1h-1zM17 8h1v1h-1zM18 8h1v1h-1zM5 9h1v1H5zM6 9h1v1H6zM7 9h1v1H7zM8 9h1v1H8zM9 9h1v1H9zM10 9h1v1h-1zM11 9h1v1h-1zM12 9h1v1h-1zM13 9h1v1h-1zM14 9h1v1h-1zM15 9h1v1h-1zM16 9h1v1h-1zM17 9h1v1h-1zM18 9h1v1h-1zM5 10h1v1H5zM6 10h1v1H6zM11 10h1v1h-1zM12 10h1v1h-1zM13 10h1v1h-1zM17 10h1v1h-1zM18 10h1v1h-1zM4 11h1v1H4zM5 11h1v1H5zM11 11h1v1h-1zM12 11h1v1h-1zM18 11h1v1h-1zM19 11h1v1h-1zM4 12h1v1H4zM5 12h1v1H5zM11 12h1v1h-1zM12 12h1v1h-1zM18 12h1v1h-1zM19 12h1v1h-1zM4 13h1v1H4zM5 13h1v1H5zM11 13h1v1h-1zM12 13h1v1h-1zM18 13h1v1h-1zM19 13h1v1h-1zM5 14h1v1H5zM6 14h1v1H6zM11 14h1v1h-1zM12 14h1v1h-1zM13 14h1v1h-1zM17 14h1v1h-1zM18 14h1v1h-1zM5 15h1v1H5zM6 15h1v1H6zM7 15h1v1H7zM8 15h1v1H8zM9 15h1v1H9zM10 15h1v1h-1zM11 15h1v1h-1zM12 15h1v1h-1zM13 15h1v1h-1zM14 15h1v1h-1zM15 15h1v1h-1zM16 15h1v1h-1zM17 15h1v1h-1zM18 15h1v1h-1zM5 16h1v1H5zM6 16h1v1H6zM7 16h1v1H7zM8 16h1v1H8zM9 16h1v1H9zM10 16h1v1h-1zM11 16h1v1h-1zM12 16h1v1h-1zM14 16h1v1h-1zM15 16h1v1h-1zM16 16h1v1h-1zM5 17h1v1H5zM6 17h1v1H6zM11 17h1v1h-1zM12 17h1v1h-1zM4 18h1v1H4zM5 18h1v1H5zM11 18h1v1h-1zM12 18h1v1h-1zM4 19h1v1H4zM5 19h1v1H5zM11 19h1v1h-1zM12 19h1v1h-1zM4 20h1v1H4zM5 20h1v1H5zM11 20h1v1h-1zM12 20h1v1h-1zM5 21h1v1H5zM6 21h1v1H6zM10 21h1v1h-1zM11 21h1v1h-1zM5 22h1v1H5zM6 22h1v1H6zM7 22h1v1H7zM8 22h1v1H8zM9 22h1v1H9zM10 22h1v1h-1zM11 22h1v1h-1zM7 23h1v1H7zM8 23h1v1H8zM9 23h1v1H9z"/></svg>