<svg xmlns="http://www.w3.org/2000/svg" width="24" height="24" shape-rendering="crispEdges"><path d="M11 1h1v1h-1zM12 1h1v1h-1zM13 1h1v1h-1zM14 1h1v1h-1zM8 2h1v1H8zM9 2h1v1H9zM10 2h1v1h-1zM11 2h1v1h-1zM12 2h1v1h-1zM13 2h1v1h-1zM14 2h1v1h-1zM15 2h1v1h-1zM16 2h1v1h-1zM17 2h1v1h-1zM18 2h1v1h-1zM7 3h1v1H7zM8 3h1v1H8zM9 3h1v1H9zM10 3h1v1h-1zM11 3h1v1h-1zM14 3h1v1h-1zM15 3h1v1h-1zM16 3h1v1h-1zM17 3h1v1h-1zM18 3h1v1h-1zM6 4h1v1H6zM7 4h1v1H7zM8 4h1v1H8zM10 4h1v1h-1zM11 4h1v1h-1zM14 4h1v1h-1zM15 4h1v1h-1zM5 5h1v1H5zM6 5h1v1H6zM10 5h1v1h-1zM11 5h1v1h-1zM12 5h1v1h-1zM13 5h1v1h-1zM14 5h1v1h-1zM15 5h1v1h-1zM4 6h1v1H4zM5 6h1v1H5zM6 6h1v1H6zM10 6h1v1h-1zM11 6h1v1h-1zM12 6h1v1h-1zM13 6h1v1h-1zM14 6h1v1h-1zM15 6h1v1h-1zM16 6h1v1h-1zM4 7h1v1H4zM5 7h1v1H5zM9 7h1v1H9zM10 7h1v1h-1zM11 7h1v1h-1zM14 7h1v1h-1zM15 7h1v1h-1zM16 7h1v1h-1zM4 8h1v1H4zM5 8h1v1H5zM8 8h1v1H8zM9 8h1v1H9zM16 8h1v1h-1zM17 8h1v1h-1zM4 9h1v1H4zM5 9h1v1H5zM8 9h1v1H8zM9 9h1v1H9zM16 9h1v1h-1zM17 9h1v1h-1zM4 10h1v1H4zM5 10h1v1H5zM8 10h1v1H8zM9 10h1v1H9zM16 10h1v1h-1zM17 10h1v1h-1zM4 11h1v1H4zM5 11h1v1H5zM8 11h1v1H8zM9 11h1v1H9zM16 11h1v1h-1zM17 11h1v1h-1zM4 12h1v1H4zM5 12h1v1H5zM6 12h1v1H6zM7 12h1v1H7zM8 12h1v1H8zM9 12h1v1H9zM16 12h1v1h-1zM17 12h1v1h-1zM4 13h1v1H4zM5 13h1v1H5zM6 13h1v1H6zM7 13h1v1H7zM8 13h1v1H8zM9 13h1v1H9zM16 13h1v1h-1zM17 13h1v1h-1zM4 14h1v1H4zM5 14h1v1H5zM8 14h1v1H8zM9 14h1v1H9zM16 14h1v1h-1zM17 14h1v1h-1zM4 15h1v1H4zM5 15h1v1H5zM8 15h1v1H8zM9 15h1v1H9zM16 15h1v1h-1zM17 15h1v1h-1zM4 16h1v1H4zM5 16h1v1H5zM8 16h1v1H8zM9 16h1v1H9zM16 16h1v1h-1zM17 16h1v1h-1zM4 17h1v1H4zM5 17h1v1H5zM8 17h1v1H8zM9 17h1v1H9zM10 17h1v1h-1zM11 17h1v1h-1zM12 17h1v1h-1zM13 17h1v1h-1zM14 17h1v1h-1zM15 17h1v1h-1zM16 17h1v1h-1zM17 17h1v1h-1zM4 18h1v1H4zM5 18h1v1H5zM8 18h1v1H8zM9 18h1v1H9zM10 18h1v1h-1zM11 18h1v1h-1zM12 18h1v1h-1zM13 18h1v1h-1zM14 18h1v1h-1zM15 18h1v1h-1zM16 18h1v1h-1zM17 18h1v1h-1zM4 19h1v1H4zM5 19h1v1H5zM8 19h1v1H8zM9 19h1v1H9zM16 19h1v1h-1zM17 19h1v1h-1zM4 20h1v1H4zM5 20h1v1H5zM8 20h1v1H8zM9 20h1v1H9zM16 20h1v1h-1zM17 20h1v1h-1zM8 21h1v1H8zM9 21h1v1H9zM10 21h1v1h-1zM11 21h1v1h-1zM12 21h1v1h-1zM13 21h1v1h-1zM14 21h1v1h-1zM15 21h1v1h-1zM16 21h1v1h-1zM17 21h1v1h-1zM9 22h1v1H9zM10 22h1v1h-1zM11 22h1v1h-1zM12 22h1v1h-1zM13 22h1v1h-1zM14 22h1v1h-1zM15 22h1v1h-1zM16 22h1v1h-1z"/></svg>