<svg xmlns="http://www.w3.org/2000/svg" width="24" height="24" shape-rendering="crispEdges"><path d="M7 2h1v1H7zM8 2h1v1H8zM9 2h1v1H9zM10 2h1v1h-1zM11 2h1v1h-1zM12 2h1v1h-1zM13 2h1v1h-1zM14 2h1v1h-1zM7 3h1v1H7zM8 3h1v1H8zM9 3h1v1H9zM10 3h1v1h-1zM11 3h1v1h-1zM12 3h1v1h-1zM13 3h1v1h-1zM14 3h1v1h-1zM15 3h1v1h-1zM8 4h1v1H8zM9 4h1v1H9zM15 4h1v1h-1zM16 4h1v1h-1zM2 5h1v1H2zM3 5h1v1H3zM4 5h1v1H4zM9 5h1v1H9zM10 5h1v1h-1zM12 5h1v1h-1zM13 5h1v1h-1zM14 5h1v1h-1zM15 5h1v1h-1zM16 5h1v1h-1zM17 5h1v1h-1zM1 6h1v1H1zM2 6h1v1H2zM3 6h1v1H3zM4 6h1v1H4zM5 6h1v1H5zM6 6h1v1H6zM9 6h1v1H9zM10 6h1v1h-1zM11 6h1v1h-1zM12 6h1v1h-1zM13 6h1v1h-1zM14 6h1v1h-1zM15 6h1v1h-1zM16 6h1v1h-1zM17 6h1v1h-1zM18 6h1v1h-1zM19 6h1v1h-1zM1 7h1v1H1zM2 7h1v1H2zM5 7h1v1H5zM6 7h1v1H6zM8 7h1v1H8zM9 7h1v1H9zM10 7h1v1h-1zM11 7h1v1h-1zM14 7h1v1h-1zM15 7h1v1h-1zM17 7h1v1h-1zM18 7h1v1h-1zM19 7h1v1h-1zM20 7h1v1h-1zM1 8h1v1H1zM2 8h1v1H2zM6 8h1v1H6zM7 8h1v1H7zM8 8h1v1H8zM9 8h1v1H9zM10 8h1v1h-1zM14 8h1v1h-1zM15 8h1v1h-1zM19 8h1v1h-1zM20 8h1v1h-1zM1 9h1v1H1zM2 9h1v1H2zM6 9h1v1H6zM7 9h1v1H7zM8 9h1v1H8zM13 9h1v1h-1zM14 9h1v1h-1zM20 9h1v1h-1zM21 9h1v1h-1zM1 10h1v1H1zM2 10h1v1H2zM6 10h1v1H6zM7 10h1v1H7zM13 10h1v1h-1zM14 10h1v1h-1zM20 10h1v1h-1zM21 10h1v1h-1zM22 10h1v1h-1zM2 11h1v1H2zM3 11h1v1H3zM6 11h1v1H6zM7 11h1v1H7zM13 11h1v1h-1zM14 11h1v1h-1zM17 11h1v1h-1zM18 11h1v1h-1zM21 11h1v1h-1zM22 11h1v1h-1zM2 12h1v1H2zM3 12h1v1H3zM6 12h1v1H6zM7 12h1v1H7zM13 12h1v1h-1zM14 12h1v1h-1zM17 12h1v1h-1zM18 12h1v1h-1zM21 12h1v1h-1zM22 12h1v1h-1zM1 13h1v1H1zM2 13h1v1H2zM6 13h1v1H6zM7 13h1v1H7zM13 13h1v1h-1zM14 13h1v1h-1zM20 13h1v1h-1zM21 13h1v1h-1zM22 13h1v1h-1zM1 14h1v1H1zM2 14h1v1H2zM6 14h1v1H6zM7 14h1v1H7zM8 14h1v1H8zM13 14h1v1h-1zM14 14h1v1h-1zM20 14h1v1h-1zM21 14h1v1h-1zM1 15h1v1H1zM2 15h1v1H2zM6 15h1v1H6zM7 15h1v1H7zM8 15h1v1H8zM9 15h1v1H9zM14 15h1v1h-1zM15 15h1v1h-1zM19 15h1v1h-1zM20 15h1v1h-1zM1 16h1v1H1zM2 16h1v1H2zM5 16h1v1H5zM6 16h1v1H6zM8 16h1v1H8zM9 16h1v1H9zM10 16h1v1h-1zM11 16h1v1h-1zM14 16h1v1h-1zM15 16h1v1h-1zM17 16h1v1h-1zM18 16h1v1h-1zM19 16h1v1h-1zM20 16h1v1h-1zM1 17h1v1H1zM2 17h1v1H2zM3 17h1v1H3zM4 17h1v1H4zM5 17h1v1H5zM6 17h1v1H6zM10 17h1v1h-1zM11 17h1v1h-1zM12 17h1v1h-1zM13 17h1v1h-1zM14 17h1v1h-1zM15 17h1v1h-1zM16 17h1v1h-1zM17 17h1v1h-1zM18 17h1v1h-1zM19 17h1v1h-1zM2 18h1v1H2zM3 18h1v1H3zM4 18h1v1H4zM10 18h1v1h-1zM11 18h1v1h-1zM12 18h1v1h-1zM13 18h1v1h-1zM14 18h1v1h-1zM15 18h1v1h-1zM16 18h1v1h-1zM17 18h1v1h-1zM9 19h1v1H9zM10 19h1v1h-1zM11 19h1v1h-1zM15 19h1v1h-1zM16 19h1v1h-1zM9 20h1v1H9zM10 20h1v1h-1zM11 20h1v1h-1zM12 20h1v1h-1zM13 20h1v1h-1zM14 20h1v1h-1zM15 20h1v1h-1zM9 21h1v1H9zM10 21h1v1h-1zM11 21h1v1h-1zM12 21h1v1h-1zM13 21h1v1h-1zM14 21h1v1h-1z"/></svg>