<svg xmlns="http://www.w3.org/2000/svg" width="24" height="24" shape-rendering="crispEdges"><path d="M16 1h1v1h-1zM17 1h1v1h-1zM14 2h1v1h-1zM15 2h1v1h-1zM16 2h1v1h-1zM17 2h1v1h-1zM12 3h1v1h-1zM13 3h1v1h-1zM14 3h1v1h-1zM15 3h1v1h-1zM16 3h1v1h-1zM17 3h1v1h-1zM10 4h1v1h-1zM11 4h1v1h-1zM12 4h1v1h-1zM13 4h1v1h-1zM16 4h1v1h-1zM17 4h1v1h-1zM8 5h1v1H8zM9 5h1v1H9zM10 5h1v1h-1zM11 5h1v1h-1zM16 5h1v1h-1zM17 5h1v1h-1zM6 6h1v1H6zM7 6h1v1H7zM8 6h1v1H8zM9 6h1v1H9zM16 6h1v1h-1zM17 6h1v1h-1zM6 7h1v1H6zM7 7h1v1H7zM8 7h1v1H8zM9 7h1v1H9zM16 7h1v1h-1zM17 7h1v1h-1zM8 8h1v1H8zM9 8h1v1H9zM10 8h1v1h-1zM11 8h1v1h-1zM16 8h1v1h-1zM17 8h1v1h-1zM10 9h1v1h-1zM11 9h1v1h-1zM12 9h1v1h-1zM13 9h1v1h-1zM16 9h1v1h-1zM17 9h1v1h-1zM12 10h1v1h-1zM13 10h1v1h-1zM14 10h1v1h-1zM15 10h1v1h-1zM16 10h1v1h-1zM17 10h1v1h-1zM14 11h1v1h-1zM15 11h1v1h-1zM16 11h1v1h-1zM17 11h1v1h-1zM16 12h1v1h-1zM17 12h1v1h-1zM16 13h1v1h-1zM17 13h1v1h-1zM16 14h1v1h-1zM17 14h1v1h-1zM16 15h1v1h-1zM17 15h1v1h-1zM16 16h1v1h-1zM17 16h1v1h-1zM16 17h1v1h-1zM17 17h1v1h-1zM16 18h1v1h-1zM17 18h1v1h-1zM16 19h1v1h-1zM17 19h1v1h-1zM16 20h1v1h-1zM17 20h1v1h-1zM16 21h1v1h-1zM17 21h1v1h-1zM16 22h1v1h-1zM17 22h1v1h-1z"/></svg>