<svg xmlns="http://www.w3.org/2000/svg" width="24" height="24" shape-rendering="crispEdges"><path d="M6 1h1v1H6zM7 1h1v1H7zM6 2h1v1H6zM7 2h1v1H7zM8 2h1v1H8zM9 2h1v1H9zM6 3h1v1H6zM7 3h1v1H7zM8 3h1v1H8zM9 3h1v1H9zM10 3h1v1h-1zM11 3h1v1h-1zM6 4h1v1H6zM7 4h1v1H7zM10 4h1v1h-1zM11 4h1v1h-1zM12 4h1v1h-1zM13 4h1v1h-1zM6 5h1v1H6zM7 5h1v1H7zM12 5h1v1h-1zM13 5h1v1h-1zM14 5h1v1h-1zM15 5h1v1h-1zM6 6h1v1H6zM7 6h1v1H7zM14 6h1v1h-1zM15 6h1v1h-1zM16 6h1v1h-1zM17 6h1v1h-1zM6 7h1v1H6zM7 7h1v1H7zM14 7h1v1h-1zM15 7h1v1h-1zM16 7h1v1h-1zM17 7h1v1h-1zM6 8h1v1H6zM7 8h1v1H7zM12 8h1v1h-1zM13 8h1v1h-1zM14 8h1v1h-1zM15 8h1v1h-1zM6 9h1v1H6zM7 9h1v1H7zM10 9h1v1h-1zM11 9h1v1h-1zM12 9h1v1h-1zM13 9h1v1h-1zM6 10h1v1H6zM7 10h1v1H7zM8 10h1v1H8zM9 10h1v1H9zM10 10h1v1h-1zM11 10h1v1h-1zM6 11h1v1H6zM7 11h1v1H7zM8 11h1v1H8zM9 11h1v1H9zM6 12h1v1H6zM7 12h1v1H7zM6 13h1v1H6zM7 13h1v1H7zM6 14h1v1H6zM7 14h1v1H7zM6 15h1v1H6zM7 15h1v1H7zM6 16h1v1H6zM7 16h1v1H7zM6 17h1v1H6zM7 17h1v1H7zM6 18h1v1H6zM7 18h1v1H7zM6 19h1v1H6zM7 19h1v1H7zM6 20h1v1H6zM7 20h1v1H7zM6 21h1v1H6zM7 21h1v1H7zM6 22h1v1H6zM7 22h1v1H7z"/></svg>