<svg xmlns="http://www.w3.org/2000/svg" width="24" height="24" shape-rendering="crispEdges"><path d="M1 1h1v1H1zM2 1h1v1H2zM8 1h1v1H8zM9 1h1v1H9zM10 1h1v1h-1zM11 1h1v1h-1zM12 1h1v1h-1zM13 1h1v1h-1zM14 1h1v1h-1zM15 1h1v1h-1zM1 2h1v1H1zM2 2h1v1H2zM3 2h1v1H3zM8 2h1v1H8zM9 2h1v1H9zM10 2h1v1h-1zM11 2h1v1h-1zM12 2h1v1h-1zM13 2h1v1h-1zM14 2h1v1h-1zM15 2h1v1h-1zM2 3h1v1H2zM3 3h1v1H3zM4 3h1v1H4zM9 3h1v1H9zM10 3h1v1h-1zM13 3h1v1h-1zM14 3h1v1h-1zM3 4h1v1H3zM4 4h1v1H4zM5 4h1v1H5zM9 4h1v1H9zM10 4h1v1h-1zM13 4h1v1h-1zM14 4h1v1h-1zM4 5h1v1H4zM5 5h1v1H5zM6 5h1v1H6zM13 5h1v1h-1zM14 5h1v1h-1zM5 6h1v1H5zM6 6h1v1H6zM7 6h1v1H7zM13 6h1v1h-1zM14 6h1v1h-1zM6 7h1v1H6zM7 7h1v1H7zM8 7h1v1H8zM13 7h1v1h-1zM14 7h1v1h-1zM7 8h1v1H7zM8 8h1v1H8zM9 8h1v1H9zM13 8h1v1h-1zM14 8h1v1h-1zM8 9h1v1H8zM9 9h1v1H9zM10 9h1v1h-1zM8 10h1v1H8zM9 10h1v1H9zM10 10h1v1h-1zM11 10h1v1h-1zM7 11h1v1H7zM8 11h1v1H8zM9 11h1v1H9zM10 11h1v1h-1zM11 11h1v1h-1zM12 11h1v1h-1zM7 12h1v1H7zM8 12h1v1H8zM11 12h1v1h-1zM12 12h1v1h-1zM13 12h1v1h-1zM6 13h1v1H6zM7 13h1v1H7zM12 13h1v1h-1zM13 13h1v1h-1zM14 13h1v1h-1zM5 14h1v1H5zM6 14h1v1H6zM7 14h1v1H7zM8 14h1v1H8zM9 14h1v1H9zM10 14h1v1h-1zM11 14h1v1h-1zM12 14h1v1h-1zM13 14h1v1h-1zM14 14h1v1h-1zM15 14h1v1h-1zM5 15h1v1H5zM6 15h1v1H6zM7 15h1v1H7zM8 15h1v1H8zM9 15h1v1H9zM10 15h1v1h-1zM11 15h1v1h-1zM12 15h1v1h-1zM13 15h1v1h-1zM14 15h1v1h-1zM15 15h1v1h-1zM16 15h1v1h-1zM4 16h1v1H4zM5 16h1v1H5zM6 16h1v1H6zM15 16h1v1h-1zM16 16h1v1h-1zM17 16h1v1h-1zM4 17h1v1H4zM5 17h1v1H5zM16 17h1v1h-1zM17 17h1v1h-1zM18 17h1v1h-1zM3 18h1v1H3zM4 18h1v1H4zM5 18h1v1H5zM17 18h1v1h-1zM18 18h1v1h-1zM19 18h1v1h-1zM3 19h1v1H3zM4 19h1v1H4zM18 19h1v1h-1zM19 19h1v1h-1zM20 19h1v1h-1zM3 20h1v1H3zM4 20h1v1H4zM19 20h1v1h-1zM20 20h1v1h-1zM21 20h1v1h-1zM3 21h1v1H3zM4 21h1v1H4zM5 21h1v1H5zM6 21h1v1H6zM7 21h1v1H7zM8 21h1v1H8zM9 21h1v1H9zM10 21h1v1h-1zM11 21h1v1h-1zM12 21h1v1h-1zM13 21h1v1h-1zM14 21h1v1h-1zM15 21h1v1h-1zM16 21h1v1h-1zM17 21h1v1h-1zM18 21h1v1h-1zM19 21h1v1h-1zM20 21h1v1h-1zM21 21h1v1h-1zM22 21h1v1h-1zM4 22h1v1H4zM5 22h1v1H5zM6 22h1v1H6zM7 22h1v1H7zM8 22h1v1H8zM9 22h1v1H9zM10 22h1v1h-1zM11 22h1v1h-1zM12 22h1v1h-1zM13 22h1v1h-1zM14 22h1v1h-1zM15 22h1v1h-1zM16 22h1v1h-1zM17 22h1v1h-1zM18 22h1v1h-1zM19 22h1v1h-1zM21 22h1v1h-1zM22 22h1v1h-1z"/></svg>