<svg xmlns="http://www.w3.org/2000/svg" width="24" height="24" shape-rendering="crispEdges"><path d="M14 6h1v1h-1zM15 6h1v1h-1zM14 7h1v1h-1zM15 7h1v1h-1zM16 7h1v1h-1zM15 8h1v1h-1zM16 8h1v1h-1zM17 8h1v1h-1zM16 9h1v1h-1zM17 9h1v1h-1zM18 9h1v1h-1zM17 10h1v1h-1zM18 10h1v1h-1zM19 10h1v1h-1zM6 11h1v1H6zM7 11h1v1H7zM8 11h1v1H8zM9 11h1v1H9zM10 11h1v1h-1zM11 11h1v1h-1zM12 11h1v1h-1zM13 11h1v1h-1zM14 11h1v1h-1zM15 11h1v1h-1zM16 11h1v1h-1zM17 11h1v1h-1zM18 11h1v1h-1zM19 11h1v1h-1zM20 11h1v1h-1zM5 12h1v1H5zM6 12h1v1H6zM7 12h1v1H7zM8 12h1v1H8zM9 12h1v1H9zM10 12h1v1h-1zM11 12h1v1h-1zM12 12h1v1h-1zM13 12h1v1h-1zM14 12h1v1h-1zM15 12h1v1h-1zM16 12h1v1h-1zM17 12h1v1h-1zM18 12h1v1h-1zM19 12h1v1h-1zM20 12h1v1h-1zM4 13h1v1H4zM5 13h1v1H5zM17 13h1v1h-1zM18 13h1v1h-1zM19 13h1v1h-1zM3 14h1v1H3zM4 14h1v1H4zM16 14h1v1h-1zM17 14h1v1h-1zM18 14h1v1h-1zM3 15h1v1H3zM4 15h1v1H4zM15 15h1v1h-1zM16 15h1v1h-1zM17 15h1v1h-1zM3 16h1v1H3zM4 16h1v1H4zM14 16h1v1h-1zM15 16h1v1h-1zM16 16h1v1h-1zM3 17h1v1H3zM4 17h1v1H4zM14 17h1v1h-1zM15 17h1v1h-1zM3 18h1v1H3zM4 18h1v1H4z"/></svg>