<svg xmlns="http://www.w3.org/2000/svg" width="24" height="24" shape-rendering="crispEdges"><path d="M5 1h1v1H5zM6 1h1v1H6zM17 1h1v1h-1zM18 1h1v1h-1zM5 2h1v1H5zM6 2h1v1H6zM17 2h1v1h-1zM18 2h1v1h-1zM5 3h1v1H5zM6 3h1v1H6zM17 3h1v1h-1zM18 3h1v1h-1zM5 4h1v1H5zM6 4h1v1H6zM17 4h1v1h-1zM18 4h1v1h-1zM1 5h1v1H1zM2 5h1v1H2zM3 5h1v1H3zM4 5h1v1H4zM5 5h1v1H5zM6 5h1v1H6zM7 5h1v1H7zM8 5h1v1H8zM9 5h1v1H9zM10 5h1v1h-1zM11 5h1v1h-1zM12 5h1v1h-1zM13 5h1v1h-1zM14 5h1v1h-1zM15 5h1v1h-1zM16 5h1v1h-1zM17 5h1v1h-1zM18 5h1v1h-1zM19 5h1v1h-1zM20 5h1v1h-1zM21 5h1v1h-1zM22 5h1v1h-1zM1 6h1v1H1zM2 6h1v1H2zM3 6h1v1H3zM4 6h1v1H4zM5 6h1v1H5zM6 6h1v1H6zM7 6h1v1H7zM8 6h1v1H8zM9 6h1v1H9zM10 6h1v1h-1zM11 6h1v1h-1zM12 6h1v1h-1zM13 6h1v1h-1zM14 6h1v1h-1zM15 6h1v1h-1zM16 6h1v1h-1zM17 6h1v1h-1zM18 6h1v1h-1zM19 6h1v1h-1zM20 6h1v1h-1zM21 6h1v1h-1zM22 6h1v1h-1zM5 7h1v1H5zM6 7h1v1H6zM17 7h1v1h-1zM18 7h1v1h-1zM5 8h1v1H5zM6 8h1v1H6zM17 8h1v1h-1zM18 8h1v1h-1zM5 9h1v1H5zM6 9h1v1H6zM17 9h1v1h-1zM18 9h1v1h-1zM5 10h1v1H5zM6 10h1v1H6zM17 10h1v1h-1zM18 10h1v1h-1zM5 11h1v1H5zM6 11h1v1H6zM17 11h1v1h-1zM18 11h1v1h-1zM5 12h1v1H5zM6 12h1v1H6zM17 12h1v1h-1zM18 12h1v1h-1zM5 13h1v1H5zM6 13h1v1H6zM17 13h1v1h-1zM18 13h1v1h-1zM5 14h1v1H5zM6 14h1v1H6zM17 14h1v1h-1zM18 14h1v1h-1zM5 15h1v1H5zM6 15h1v1H6zM17 15h1v1h-1zM18 15h1v1h-1zM5 16h1v1H5zM6 16h1v1H6zM17 16h1v1h-1zM18 16h1v1h-1zM1 17h1v1H1zM2 17h1v1H2zM3 17h1v1H3zM4 17h1v1H4zM5 17h1v1H5zM6 17h1v1H6zM7 17h1v1H7zM8 17h1v1H8zM9 17h1v1H9zM10 17h1v1h-1zM11 17h1v1h-1zM12 17h1v1h-1zM13 17h1v1h-1zM14 17h1v1h-1zM15 17h1v1h-1zM16 17h1v1h-1zM17 17h1v1h-1zM18 17h1v1h-1zM19 17h1v1h-1zM20 17h1v1h-1zM21 17h1v1h-1zM22 17h1v1h-1zM1 18h1v1H1zM2 18h1v1H2zM3 18h1v1H3zM4 18h1v1H4zM5 18h1v1H5zM6 18h1v1H6zM7 18h1v1H7zM8 18h1v1H8zM9 18h1v1H9zM10 18h1v1h-1zM11 18h1v1h-1zM12 18h1v1h-1zM13 18h1v1h-1zM14 18h1v1h-1zM15 18h1v1h-1zM16 18h1v1h-1zM17 18h1v1h-1zM18 18h1v1h-1zM19 18h1v1h-1zM20 18h1v1h-1zM21 18h1v1h-1zM22 18h1v1h-1zM5 19h1v1H5zM6 19h1v1H6zM17 19h1v1h-1zM18 19h1v1h-1zM5 20h1v1H5zM6 20h1v1H6zM17 20h1v1h-1zM18 20h1v1h-1zM5 21h1v1H5zM6 21h1v1H6zM17 21h1v1h-1zM18 21h1v1h-1zM5 22h1v1H5zM6 22h1v1H6zM17 22h1v1h-1zM18 22h1v1h-1z"/></svg>