<svg xmlns="http://www.w3.org/2000/svg" width="24" height="24" shape-rendering="crispEdges"><path d="M4 1h1v1H4zM5 1h1v1H5zM6 1h1v1H6zM7 1h1v1H7zM8 1h1v1H8zM9 1h1v1H9zM10 1h1v1h-1zM11 1h1v1h-1zM12 1h1v1h-1zM13 1h1v1h-1zM3 2h1v1H3zM4 2h1v1H4zM5 2h1v1H5zM6 2h1v1H6zM7 2h1v1H7zM8 2h1v1H8zM9 2h1v1H9zM10 2h1v1h-1zM11 2h1v1h-1zM12 2h1v1h-1zM13 2h1v1h-1zM14 2h1v1h-1zM3 3h1v1H3zM4 3h1v1H4zM13 3h1v1h-1zM14 3h1v1h-1zM3 4h1v1H3zM4 4h1v1H4zM13 4h1v1h-1zM14 4h1v1h-1zM17 4h1v1h-1zM18 4h1v1h-1zM3 5h1v1H3zM4 5h1v1H4zM13 5h1v1h-1zM14 5h1v1h-1zM17 5h1v1h-1zM18 5h1v1h-1zM19 5h1v1h-1zM3 6h1v1H3zM4 6h1v1H4zM13 6h1v1h-1zM14 6h1v1h-1zM18 6h1v1h-1zM19 6h1v1h-1zM20 6h1v1h-1zM3 7h1v1H3zM4 7h1v1H4zM13 7h1v1h-1zM14 7h1v1h-1zM19 7h1v1h-1zM20 7h1v1h-1zM21 7h1v1h-1zM3 8h1v1H3zM4 8h1v1H4zM5 8h1v1H5zM6 8h1v1H6zM7 8h1v1H7zM8 8h1v1H8zM9 8h1v1H9zM10 8h1v1h-1zM11 8h1v1h-1zM12 8h1v1h-1zM13 8h1v1h-1zM14 8h1v1h-1zM20 8h1v1h-1zM21 8h1v1h-1zM22 8h1v1h-1zM3 9h1v1H3zM4 9h1v1H4zM5 9h1v1H5zM6 9h1v1H6zM7 9h1v1H7zM8 9h1v1H8zM9 9h1v1H9zM10 9h1v1h-1zM11 9h1v1h-1zM12 9h1v1h-1zM13 9h1v1h-1zM14 9h1v1h-1zM21 9h1v1h-1zM22 9h1v1h-1zM3 10h1v1H3zM4 10h1v1H4zM13 10h1v1h-1zM14 10h1v1h-1zM21 10h1v1h-1zM22 10h1v1h-1zM3 11h1v1H3zM4 11h1v1H4zM13 11h1v1h-1zM14 11h1v1h-1zM21 11h1v1h-1zM22 11h1v1h-1zM3 12h1v1H3zM4 12h1v1H4zM13 12h1v1h-1zM14 12h1v1h-1zM15 12h1v1h-1zM16 12h1v1h-1zM17 12h1v1h-1zM21 12h1v1h-1zM22 12h1v1h-1zM3 13h1v1H3zM4 13h1v1H4zM13 13h1v1h-1zM14 13h1v1h-1zM15 13h1v1h-1zM16 13h1v1h-1zM17 13h1v1h-1zM18 13h1v1h-1zM21 13h1v1h-1zM22 13h1v1h-1zM3 14h1v1H3zM4 14h1v1H4zM13 14h1v1h-1zM14 14h1v1h-1zM17 14h1v1h-1zM18 14h1v1h-1zM21 14h1v1h-1zM22 14h1v1h-1zM3 15h1v1H3zM4 15h1v1H4zM13 15h1v1h-1zM14 15h1v1h-1zM17 15h1v1h-1zM18 15h1v1h-1zM21 15h1v1h-1zM22 15h1v1h-1zM3 16h1v1H3zM4 16h1v1H4zM13 16h1v1h-1zM14 16h1v1h-1zM17 16h1v1h-1zM18 16h1v1h-1zM21 16h1v1h-1zM22 16h1v1h-1zM3 17h1v1H3zM4 17h1v1H4zM13 17h1v1h-1zM14 17h1v1h-1zM17 17h1v1h-1zM18 17h1v1h-1zM21 17h1v1h-1zM22 17h1v1h-1zM3 18h1v1H3zM4 18h1v1H4zM13 18h1v1h-1zM14 18h1v1h-1zM17 18h1v1h-1zM18 18h1v1h-1zM19 18h1v1h-1zM20 18h1v1h-1zM21 18h1v1h-1zM22 18h1v1h-1zM3 19h1v1H3zM4 19h1v1H4zM13 19h1v1h-1zM14 19h1v1h-1zM18 19h1v1h-1zM19 19h1v1h-1zM20 19h1v1h-1zM21 19h1v1h-1zM3 20h1v1H3zM4 20h1v1H4zM13 20h1v1h-1zM14 20h1v1h-1zM2 21h1v1H2zM3 21h1v1H3zM4 21h1v1H4zM5 21h1v1H5zM6 21h1v1H6zM7 21h1v1H7zM8 21h1v1H8zM9 21h1v1H9zM10 21h1v1h-1zM11 21h1v1h-1zM12 21h1v1h-1zM13 21h1v1h-1zM14 21h1v1h-1zM15 21h1v1h-1zM2 22h1v1H2zM3 22h1v1H3zM4 22h1v1H4zM5 22h1v1H5zM6 22h1v1H6zM7 22h1v1H7zM8 22h1v1H8zM9 22h1v1H9zM10 22h1v1h-1zM11 22h1v1h-1zM12 22h1v1h-1zM13 22h1v1h-1zM14 22h1v1h-1zM15 22h1v1h-1z"/></svg>