<svg xmlns="http://www.w3.org/2000/svg" width="24" height="24" shape-rendering="crispEdges"><path d="M2 2h1v1H2zM3 2h1v1H3zM4 2h1v1H4zM5 2h1v1H5zM6 2h1v1H6zM7 2h1v1H7zM8 2h1v1H8zM9 2h1v1H9zM10 2h1v1h-1zM11 2h1v1h-1zM12 2h1v1h-1zM13 2h1v1h-1zM14 2h1v1h-1zM15 2h1v1h-1zM16 2h1v1h-1zM17 2h1v1h-1zM18 2h1v1h-1zM19 2h1v1h-1zM20 2h1v1h-1zM21 2h1v1h-1zM1 3h1v1H1zM2 3h1v1H2zM3 3h1v1H3zM4 3h1v1H4zM5 3h1v1H5zM6 3h1v1H6zM7 3h1v1H7zM8 3h1v1H8zM9 3h1v1H9zM10 3h1v1h-1zM11 3h1v1h-1zM12 3h1v1h-1zM13 3h1v1h-1zM14 3h1v1h-1zM15 3h1v1h-1zM16 3h1v1h-1zM17 3h1v1h-1zM18 3h1v1h-1zM19 3h1v1h-1zM20 3h1v1h-1zM21 3h1v1h-1zM22 3h1v1h-1zM1 4h1v1H1zM2 4h1v1H2zM21 4h1v1h-1zM22 4h1v1h-1zM2 5h1v1H2zM3 5h1v1H3zM20 5h1v1h-1zM21 5h1v1h-1zM3 6h1v1H3zM4 6h1v1H4zM19 6h1v1h-1zM20 6h1v1h-1zM3 7h1v1H3zM4 7h1v1H4zM5 7h1v1H5zM18 7h1v1h-1zM19 7h1v1h-1zM20 7h1v1h-1zM4 8h1v1H4zM5 8h1v1H5zM6 8h1v1H6zM17 8h1v1h-1zM18 8h1v1h-1zM19 8h1v1h-1zM5 9h1v1H5zM6 9h1v1H6zM7 9h1v1H7zM16 9h1v1h-1zM17 9h1v1h-1zM18 9h1v1h-1zM6 10h1v1H6zM7 10h1v1H7zM8 10h1v1H8zM15 10h1v1h-1zM16 10h1v1h-1zM17 10h1v1h-1zM7 11h1v1H7zM8 11h1v1H8zM9 11h1v1H9zM14 11h1v1h-1zM15 11h1v1h-1zM16 11h1v1h-1zM8 12h1v1H8zM9 12h1v1H9zM10 12h1v1h-1zM13 12h1v1h-1zM14 12h1v1h-1zM15 12h1v1h-1zM9 13h1v1H9zM10 13h1v1h-1zM13 13h1v1h-1zM14 13h1v1h-1zM9 14h1v1H9zM10 14h1v1h-1zM13 14h1v1h-1zM14 14h1v1h-1zM9 15h1v1H9zM10 15h1v1h-1zM13 15h1v1h-1zM14 15h1v1h-1zM9 16h1v1H9zM10 16h1v1h-1zM13 16h1v1h-1zM14 16h1v1h-1zM9 17h1v1H9zM10 17h1v1h-1zM13 17h1v1h-1zM14 17h1v1h-1zM9 18h1v1H9zM10 18h1v1h-1zM13 18h1v1h-1zM14 18h1v1h-1zM9 19h1v1H9zM10 19h1v1h-1zM13 19h1v1h-1zM14 19h1v1h-1zM9 20h1v1H9zM10 20h1v1h-1zM11 20h1v1h-1zM13 20h1v1h-1zM14 20h1v1h-1zM10 21h1v1h-1zM11 21h1v1h-1zM12 21h1v1h-1zM13 21h1v1h-1zM14 21h1v1h-1zM12 22h1v1h-1zM13 22h1v1h-1z"/></svg>