<svg xmlns="http://www.w3.org/2000/svg" width="24" height="24" shape-rendering="crispEdges"><path d="M9 3h1v1H9zM10 3h1v1h-1zM11 3h1v1h-1zM12 3h1v1h-1zM13 3h1v1h-1zM14 3h1v1h-1zM6 4h1v1H6zM7 4h1v1H7zM8 4h1v1H8zM9 4h1v1H9zM10 4h1v1h-1zM11 4h1v1h-1zM12 4h1v1h-1zM13 4h1v1h-1zM14 4h1v1h-1zM15 4h1v1h-1zM16 4h1v1h-1zM5 5h1v1H5zM6 5h1v1H6zM7 5h1v1H7zM8 5h1v1H8zM15 5h1v1h-1zM16 5h1v1h-1zM17 5h1v1h-1zM18 5h1v1h-1zM4 6h1v1H4zM5 6h1v1H5zM6 6h1v1H6zM17 6h1v1h-1zM18 6h1v1h-1zM19 6h1v1h-1zM3 7h1v1H3zM4 7h1v1H4zM5 7h1v1H5zM18 7h1v1h-1zM19 7h1v1h-1zM20 7h1v1h-1zM2 8h1v1H2zM3 8h1v1H3zM4 8h1v1H4zM19 8h1v1h-1zM20 8h1v1h-1zM2 9h1v1H2zM3 9h1v1H3zM15 9h1v1h-1zM16 9h1v1h-1zM20 9h1v1h-1zM21 9h1v1h-1zM2 10h1v1H2zM3 10h1v1H3zM14 10h1v1h-1zM15 10h1v1h-1zM16 10h1v1h-1zM20 10h1v1h-1zM21 10h1v1h-1zM1 11h1v1H1zM2 11h1v1H2zM13 11h1v1h-1zM14 11h1v1h-1zM15 11h1v1h-1zM21 11h1v1h-1zM22 11h1v1h-1zM1 12h1v1H1zM2 12h1v1H2zM12 12h1v1h-1zM13 12h1v1h-1zM14 12h1v1h-1zM21 12h1v1h-1zM22 12h1v1h-1zM1 13h1v1H1zM2 13h1v1H2zM11 13h1v1h-1zM12 13h1v1h-1zM13 13h1v1h-1zM21 13h1v1h-1zM22 13h1v1h-1zM1 14h1v1H1zM2 14h1v1H2zM11 14h1v1h-1zM12 14h1v1h-1zM21 14h1v1h-1zM22 14h1v1h-1zM1 15h1v1H1zM2 15h1v1H2zM21 15h1v1h-1zM22 15h1v1h-1zM1 16h1v1H1zM2 16h1v1H2zM21 16h1v1h-1zM22 16h1v1h-1zM2 17h1v1H2zM3 17h1v1H3zM20 17h1v1h-1zM21 17h1v1h-1zM2 18h1v1H2zM3 18h1v1H3zM20 18h1v1h-1zM21 18h1v1h-1zM3 19h1v1H3zM20 19h1v1h-1z"/></svg>