<svg xmlns="http://www.w3.org/2000/svg" width="24" height="24" shape-rendering="crispEdges"><path d="M4 2h1v1H4zM5 2h1v1H5zM6 2h1v1H6zM7 2h1v1H7zM3 3h1v1H3zM4 3h1v1H4zM5 3h1v1H5zM6 3h1v1H6zM7 3h1v1H7zM8 3h1v1H8zM2 4h1v1H2zM3 4h1v1H3zM4 4h1v1H4zM7 4h1v1H7zM8 4h1v1H8zM9 4h1v1H9zM2 5h1v1H2zM3 5h1v1H3zM8 5h1v1H8zM9 5h1v1H9zM12 5h1v1h-1zM13 5h1v1h-1zM14 5h1v1h-1zM15 5h1v1h-1zM16 5h1v1h-1zM17 5h1v1h-1zM2 6h1v1H2zM3 6h1v1H3zM8 6h1v1H8zM9 6h1v1H9zM12 6h1v1h-1zM13 6h1v1h-1zM14 6h1v1h-1zM15 6h1v1h-1zM16 6h1v1h-1zM17 6h1v1h-1zM18 6h1v1h-1zM2 7h1v1H2zM3 7h1v1H3zM4 7h1v1H4zM7 7h1v1H7zM8 7h1v1H8zM9 7h1v1H9zM17 7h1v1h-1zM18 7h1v1h-1zM3 8h1v1H3zM4 8h1v1H4zM5 8h1v1H5zM6 8h1v1H6zM7 8h1v1H7zM8 8h1v1H8zM17 8h1v1h-1zM18 8h1v1h-1zM4 9h1v1H4zM5 9h1v1H5zM6 9h1v1H6zM7 9h1v1H7zM17 9h1v1h-1zM18 9h1v1h-1zM5 10h1v1H5zM6 10h1v1H6zM17 10h1v1h-1zM18 10h1v1h-1zM5 11h1v1H5zM6 11h1v1H6zM17 11h1v1h-1zM18 11h1v1h-1zM5 12h1v1H5zM6 12h1v1H6zM17 12h1v1h-1zM18 12h1v1h-1zM5 13h1v1H5zM6 13h1v1H6zM17 13h1v1h-1zM18 13h1v1h-1zM5 14h1v1H5zM6 14h1v1H6zM16 14h1v1h-1zM17 14h1v1h-1zM18 14h1v1h-1zM19 14h1v1h-1zM5 15h1v1H5zM6 15h1v1H6zM15 15h1v1h-1zM16 15h1v1h-1zM17 15h1v1h-1zM18 15h1v1h-1zM19 15h1v1h-1zM20 15h1v1h-1zM5 16h1v1H5zM6 16h1v1H6zM14 16h1v1h-1zM15 16h1v1h-1zM16 16h1v1h-1zM19 16h1v1h-1zM20 16h1v1h-1zM21 16h1v1h-1zM5 17h1v1H5zM6 17h1v1H6zM7 17h1v1H7zM8 17h1v1H8zM9 17h1v1H9zM10 17h1v1h-1zM11 17h1v1h-1zM14 17h1v1h-1zM15 17h1v1h-1zM20 17h1v1h-1zM21 17h1v1h-1zM6 18h1v1H6zM7 18h1v1H7zM8 18h1v1H8zM9 18h1v1H9zM10 18h1v1h-1zM11 18h1v1h-1zM14 18h1v1h-1zM15 18h1v1h-1zM20 18h1v1h-1zM21 18h1v1h-1zM14 19h1v1h-1zM15 19h1v1h-1zM16 19h1v1h-1zM19 19h1v1h-1zM20 19h1v1h-1zM21 19h1v1h-1zM15 20h1v1h-1zM16 20h1v1h-1zM17 20h1v1h-1zM18 20h1v1h-1zM19 20h1v1h-1zM20 20h1v1h-1zM16 21h1v1h-1zM17 21h1v1h-1zM18 21h1v1h-1zM19 21h1v1h-1z"/></svg>