<svg xmlns="http://www.w3.org/2000/svg" width="24" height="24" shape-rendering="crispEdges"><path d="M5 2h1v1H5zM6 2h1v1H6zM16 2h1v1h-1zM17 2h1v1h-1zM18 2h1v1h-1zM19 2h1v1h-1zM5 3h1v1H5zM6 3h1v1H6zM15 3h1v1h-1zM16 3h1v1h-1zM17 3h1v1h-1zM18 3h1v1h-1zM19 3h1v1h-1zM20 3h1v1h-1zM5 4h1v1H5zM6 4h1v1H6zM14 4h1v1h-1zM15 4h1v1h-1zM16 4h1v1h-1zM19 4h1v1h-1zM20 4h1v1h-1zM21 4h1v1h-1zM5 5h1v1H5zM6 5h1v1H6zM14 5h1v1h-1zM15 5h1v1h-1zM20 5h1v1h-1zM21 5h1v1h-1zM5 6h1v1H5zM6 6h1v1H6zM14 6h1v1h-1zM15 6h1v1h-1zM20 6h1v1h-1zM21 6h1v1h-1zM5 7h1v1H5zM6 7h1v1H6zM14 7h1v1h-1zM15 7h1v1h-1zM16 7h1v1h-1zM19 7h1v1h-1zM20 7h1v1h-1zM21 7h1v1h-1zM5 8h1v1H5zM6 8h1v1H6zM15 8h1v1h-1zM16 8h1v1h-1zM17 8h1v1h-1zM18 8h1v1h-1zM19 8h1v1h-1zM20 8h1v1h-1zM5 9h1v1H5zM6 9h1v1H6zM16 9h1v1h-1zM17 9h1v1h-1zM18 9h1v1h-1zM19 9h1v1h-1zM5 10h1v1H5zM6 10h1v1H6zM17 10h1v1h-1zM18 10h1v1h-1zM5 11h1v1H5zM6 11h1v1H6zM17 11h1v1h-1zM18 11h1v1h-1zM5 12h1v1H5zM6 12h1v1H6zM16 12h1v1h-1zM17 12h1v1h-1zM5 13h1v1H5zM6 13h1v1H6zM16 13h1v1h-1zM17 13h1v1h-1zM4 14h1v1H4zM5 14h1v1H5zM6 14h1v1H6zM7 14h1v1H7zM15 14h1v1h-1zM16 14h1v1h-1zM3 15h1v1H3zM4 15h1v1H4zM5 15h1v1H5zM6 15h1v1H6zM7 15h1v1H7zM8 15h1v1H8zM14 15h1v1h-1zM15 15h1v1h-1zM16 15h1v1h-1zM2 16h1v1H2zM3 16h1v1H3zM4 16h1v1H4zM7 16h1v1H7zM8 16h1v1H8zM9 16h1v1H9zM12 16h1v1h-1zM13 16h1v1h-1zM14 16h1v1h-1zM15 16h1v1h-1zM2 17h1v1H2zM3 17h1v1H3zM8 17h1v1H8zM9 17h1v1H9zM10 17h1v1h-1zM11 17h1v1h-1zM12 17h1v1h-1zM13 17h1v1h-1zM2 18h1v1H2zM3 18h1v1H3zM8 18h1v1H8zM9 18h1v1H9zM10 18h1v1h-1zM11 18h1v1h-1zM2 19h1v1H2zM3 19h1v1H3zM4 19h1v1H4zM7 19h1v1H7zM8 19h1v1H8zM9 19h1v1H9zM3 20h1v1H3zM4 20h1v1H4zM5 20h1v1H5zM6 20h1v1H6zM7 20h1v1H7zM8 20h1v1H8zM4 21h1v1H4zM5 21h1v1H5zM6 21h1v1H6zM7 21h1v1H7z"/></svg>