<svg xmlns="http://www.w3.org/2000/svg" width="24" height="24" shape-rendering="crispEdges"><path d="M5 2h1v1H5zM6 2h1v1H6zM17 2h1v1h-1zM18 2h1v1h-1zM4 3h1v1H4zM5 3h1v1H5zM6 3h1v1H6zM17 3h1v1h-1zM18 3h1v1h-1zM19 3h1v1h-1zM4 4h1v1H4zM5 4h1v1H5zM6 4h1v1H6zM7 4h1v1H7zM16 4h1v1h-1zM17 4h1v1h-1zM18 4h1v1h-1zM19 4h1v1h-1zM4 5h1v1H4zM5 5h1v1H5zM6 5h1v1H6zM7 5h1v1H7zM16 5h1v1h-1zM17 5h1v1h-1zM18 5h1v1h-1zM19 5h1v1h-1zM3 6h1v1H3zM4 6h1v1H4zM6 6h1v1H6zM7 6h1v1H7zM16 6h1v1h-1zM17 6h1v1h-1zM19 6h1v1h-1zM20 6h1v1h-1zM3 7h1v1H3zM4 7h1v1H4zM6 7h1v1H6zM7 7h1v1H7zM8 7h1v1H8zM15 7h1v1h-1zM16 7h1v1h-1zM17 7h1v1h-1zM19 7h1v1h-1zM20 7h1v1h-1zM3 8h1v1H3zM4 8h1v1H4zM7 8h1v1H7zM8 8h1v1H8zM15 8h1v1h-1zM16 8h1v1h-1zM19 8h1v1h-1zM20 8h1v1h-1zM2 9h1v1H2zM3 9h1v1H3zM7 9h1v1H7zM8 9h1v1H8zM9 9h1v1H9zM10 9h1v1h-1zM11 9h1v1h-1zM12 9h1v1h-1zM13 9h1v1h-1zM14 9h1v1h-1zM15 9h1v1h-1zM16 9h1v1h-1zM20 9h1v1h-1zM21 9h1v1h-1zM2 10h1v1H2zM3 10h1v1H3zM8 10h1v1H8zM9 10h1v1H9zM10 10h1v1h-1zM11 10h1v1h-1zM12 10h1v1h-1zM13 10h1v1h-1zM14 10h1v1h-1zM15 10h1v1h-1zM20 10h1v1h-1zM21 10h1v1h-1zM2 11h1v1H2zM3 11h1v1H3zM20 11h1v1h-1zM21 11h1v1h-1zM1 12h1v1H1zM2 12h1v1H2zM21 12h1v1h-1zM22 12h1v1h-1zM1 13h1v1H1zM2 13h1v1H2zM21 13h1v1h-1zM22 13h1v1h-1zM1 14h1v1H1zM2 14h1v1H2zM3 14h1v1H3zM4 14h1v1H4zM19 14h1v1h-1zM20 14h1v1h-1zM21 14h1v1h-1zM22 14h1v1h-1zM3 15h1v1H3zM4 15h1v1H4zM5 15h1v1H5zM18 15h1v1h-1zM19 15h1v1h-1zM20 15h1v1h-1zM21 15h1v1h-1zM4 16h1v1H4zM5 16h1v1H5zM6 16h1v1H6zM17 16h1v1h-1zM18 16h1v1h-1zM19 16h1v1h-1zM5 17h1v1H5zM6 17h1v1H6zM7 17h1v1H7zM8 17h1v1H8zM15 17h1v1h-1zM16 17h1v1h-1zM17 17h1v1h-1zM18 17h1v1h-1zM7 18h1v1H7zM8 18h1v1H8zM9 18h1v1H9zM14 18h1v1h-1zM15 18h1v1h-1zM16 18h1v1h-1zM8 19h1v1H8zM9 19h1v1H9zM10 19h1v1h-1zM11 19h1v1h-1zM12 19h1v1h-1zM13 19h1v1h-1zM14 19h1v1h-1zM15 19h1v1h-1zM10 20h1v1h-1zM11 20h1v1h-1zM12 20h1v1h-1zM13 20h1v1h-1zM11 21h1v1h-1zM12 21h1v1h-1z"/></svg>