<svg xmlns="http://www.w3.org/2000/svg" width="24" height="24" shape-rendering="crispEdges"><path d="M5 3h1v1H5zM6 3h1v1H6zM17 3h1v1h-1zM18 3h1v1h-1zM5 4h1v1H5zM6 4h1v1H6zM17 4h1v1h-1zM18 4h1v1h-1zM5 5h1v1H5zM6 5h1v1H6zM17 5h1v1h-1zM18 5h1v1h-1zM5 6h1v1H5zM6 6h1v1H6zM17 6h1v1h-1zM18 6h1v1h-1zM5 7h1v1H5zM6 7h1v1H6zM17 7h1v1h-1zM18 7h1v1h-1zM5 8h1v1H5zM6 8h1v1H6zM17 8h1v1h-1zM18 8h1v1h-1zM5 9h1v1H5zM6 9h1v1H6zM17 9h1v1h-1zM18 9h1v1h-1zM5 10h1v1H5zM6 10h1v1H6zM17 10h1v1h-1zM18 10h1v1h-1zM5 11h1v1H5zM6 11h1v1H6zM7 11h1v1H7zM8 11h1v1H8zM9 11h1v1H9zM10 11h1v1h-1zM11 11h1v1h-1zM12 11h1v1h-1zM13 11h1v1h-1zM14 11h1v1h-1zM15 11h1v1h-1zM16 11h1v1h-1zM17 11h1v1h-1zM18 11h1v1h-1zM5 12h1v1H5zM6 12h1v1H6zM7 12h1v1H7zM8 12h1v1H8zM9 12h1v1H9zM10 12h1v1h-1zM11 12h1v1h-1zM12 12h1v1h-1zM13 12h1v1h-1zM14 12h1v1h-1zM15 12h1v1h-1zM16 12h1v1h-1zM17 12h1v1h-1zM18 12h1v1h-1zM5 13h1v1H5zM6 13h1v1H6zM17 13h1v1h-1zM18 13h1v1h-1zM5 14h1v1H5zM6 14h1v1H6zM17 14h1v1h-1zM18 14h1v1h-1zM5 15h1v1H5zM6 15h1v1H6zM17 15h1v1h-1zM18 15h1v1h-1zM5 16h1v1H5zM6 16h1v1H6zM17 16h1v1h-1zM18 16h1v1h-1zM5 17h1v1H5zM6 17h1v1H6zM17 17h1v1h-1zM18 17h1v1h-1zM5 18h1v1H5zM6 18h1v1H6zM17 18h1v1h-1zM18 18h1v1h-1zM5 19h1v1H5zM6 19h1v1H6zM17 19h1v1h-1zM18 19h1v1h-1zM5 20h1v1H5zM6 20h1v1H6zM17 20h1v1h-1zM18 20h1v1h-1z"/></svg>