<svg xmlns="http://www.w3.org/2000/svg" width="24" height="24" shape-rendering="crispEdges"><path d="M5 2h1v1H5zM6 2h1v1H6zM17 2h1v1h-1zM18 2h1v1h-1zM5 3h1v1H5zM6 3h1v1H6zM7 3h1v1H7zM16 3h1v1h-1zM17 3h1v1h-1zM18 3h1v1h-1zM6 4h1v1H6zM7 4h1v1H7zM8 4h1v1H8zM15 4h1v1h-1zM16 4h1v1h-1zM17 4h1v1h-1zM7 5h1v1H7zM8 5h1v1H8zM9 5h1v1H9zM14 5h1v1h-1zM15 5h1v1h-1zM16 5h1v1h-1zM8 6h1v1H8zM9 6h1v1H9zM10 6h1v1h-1zM13 6h1v1h-1zM14 6h1v1h-1zM15 6h1v1h-1zM9 7h1v1H9zM10 7h1v1h-1zM11 7h1v1h-1zM12 7h1v1h-1zM13 7h1v1h-1zM14 7h1v1h-1zM10 8h1v1h-1zM11 8h1v1h-1zM12 8h1v1h-1zM13 8h1v1h-1zM11 9h1v1h-1zM12 9h1v1h-1zM5 10h1v1H5zM6 10h1v1H6zM7 10h1v1H7zM8 10h1v1H8zM9 10h1v1H9zM10 10h1v1h-1zM11 10h1v1h-1zM12 10h1v1h-1zM13 10h1v1h-1zM14 10h1v1h-1zM15 10h1v1h-1zM16 10h1v1h-1zM17 10h1v1h-1zM18 10h1v1h-1zM5 11h1v1H5zM6 11h1v1H6zM7 11h1v1H7zM8 11h1v1H8zM9 11h1v1H9zM10 11h1v1h-1zM11 11h1v1h-1zM12 11h1v1h-1zM13 11h1v1h-1zM14 11h1v1h-1zM15 11h1v1h-1zM16 11h1v1h-1zM17 11h1v1h-1zM18 11h1v1h-1zM11 12h1v1h-1zM12 12h1v1h-1zM11 13h1v1h-1zM12 13h1v1h-1zM5 14h1v1H5zM6 14h1v1H6zM7 14h1v1H7zM8 14h1v1H8zM9 14h1v1H9zM10 14h1v1h-1zM11 14h1v1h-1zM12 14h1v1h-1zM13 14h1v1h-1zM14 14h1v1h-1zM15 14h1v1h-1zM16 14h1v1h-1zM17 14h1v1h-1zM18 14h1v1h-1zM5 15h1v1H5zM6 15h1v1H6zM7 15h1v1H7zM8 15h1v1H8zM9 15h1v1H9zM10 15h1v1h-1zM11 15h1v1h-1zM12 15h1v1h-1zM13 15h1v1h-1zM14 15h1v1h-1zM15 15h1v1h-1zM16 15h1v1h-1zM17 15h1v1h-1zM18 15h1v1h-1zM11 16h1v1h-1zM12 16h1v1h-1zM11 17h1v1h-1zM12 17h1v1h-1zM11 18h1v1h-1zM12 18h1v1h-1zM11 19h1v1h-1zM12 19h1v1h-1zM11 20h1v1h-1zM12 20h1v1h-1zM11 21h1v1h-1zM12 21h1v1h-1z"/></svg>