<svg xmlns="http://www.w3.org/2000/svg" width="24" height="24" shape-rendering="crispEdges"><path d="M13 1h1v1h-1zM14 1h1v1h-1zM15 1h1v1h-1zM16 1h1v1h-1zM17 1h1v1h-1zM11 2h1v1h-1zM12 2h1v1h-1zM13 2h1v1h-1zM14 2h1v1h-1zM15 2h1v1h-1zM16 2h1v1h-1zM17 2h1v1h-1zM18 2h1v1h-1zM19 2h1v1h-1zM10 3h1v1h-1zM11 3h1v1h-1zM12 3h1v1h-1zM18 3h1v1h-1zM19 3h1v1h-1zM20 3h1v1h-1zM9 4h1v1H9zM10 4h1v1h-1zM11 4h1v1h-1zM19 4h1v1h-1zM20 4h1v1h-1zM21 4h1v1h-1zM9 5h1v1H9zM10 5h1v1h-1zM20 5h1v1h-1zM21 5h1v1h-1zM8 6h1v1H8zM9 6h1v1H9zM16 6h1v1h-1zM21 6h1v1h-1zM22 6h1v1h-1zM8 7h1v1H8zM9 7h1v1H9zM15 7h1v1h-1zM16 7h1v1h-1zM17 7h1v1h-1zM21 7h1v1h-1zM22 7h1v1h-1zM8 8h1v1H8zM9 8h1v1H9zM16 8h1v1h-1zM21 8h1v1h-1zM22 8h1v1h-1zM8 9h1v1H8zM9 9h1v1H9zM21 9h1v1h-1zM22 9h1v1h-1zM8 10h1v1H8zM9 10h1v1H9zM21 10h1v1h-1zM22 10h1v1h-1zM7 11h1v1H7zM8 11h1v1H8zM9 11h1v1H9zM20 11h1v1h-1zM21 11h1v1h-1zM6 12h1v1H6zM7 12h1v1H7zM8 12h1v1H8zM19 12h1v1h-1zM20 12h1v1h-1zM21 12h1v1h-1zM5 13h1v1H5zM6 13h1v1H6zM7 13h1v1H7zM18 13h1v1h-1zM19 13h1v1h-1zM20 13h1v1h-1zM4 14h1v1H4zM5 14h1v1H5zM6 14h1v1H6zM12 14h1v1h-1zM13 14h1v1h-1zM14 14h1v1h-1zM15 14h1v1h-1zM16 14h1v1h-1zM17 14h1v1h-1zM18 14h1v1h-1zM19 14h1v1h-1zM3 15h1v1H3zM4 15h1v1H4zM5 15h1v1H5zM10 15h1v1h-1zM11 15h1v1h-1zM12 15h1v1h-1zM13 15h1v1h-1zM14 15h1v1h-1zM15 15h1v1h-1zM16 15h1v1h-1zM17 15h1v1h-1zM2 16h1v1H2zM3 16h1v1H3zM4 16h1v1H4zM9 16h1v1H9zM10 16h1v1h-1zM11 16h1v1h-1zM12 16h1v1h-1zM1 17h1v1H1zM2 17h1v1H2zM3 17h1v1H3zM9 17h1v1H9zM10 17h1v1h-1zM1 18h1v1H1zM2 18h1v1H2zM7 18h1v1H7zM8 18h1v1H8zM9 18h1v1H9zM10 18h1v1h-1zM1 19h1v1H1zM2 19h1v1H2zM6 19h1v1H6zM7 19h1v1H7zM8 19h1v1H8zM9 19h1v1H9zM1 20h1v1H1zM2 20h1v1H2zM6 20h1v1H6zM7 20h1v1H7zM1 21h1v1H1zM2 21h1v1H2zM3 21h1v1H3zM4 21h1v1H4zM5 21h1v1H5zM6 21h1v1H6zM7 21h1v1H7zM2 22h1v1H2zM3 22h1v1H3zM4 22h1v1H4zM5 22h1v1H5zM6 22h1v1H6z"/></svg>