<svg xmlns="http://www.w3.org/2000/svg" width="24" height="24" shape-rendering="crispEdges"><path d="M3 2h1v1H3zM4 2h1v1H4zM5 2h1v1H5zM6 2h1v1H6zM7 2h1v1H7zM3 3h1v1H3zM4 3h1v1H4zM5 3h1v1H5zM6 3h1v1H6zM7 3h1v1H7zM8 3h1v1H8zM3 4h1v1H3zM4 4h1v1H4zM7 4h1v1H7zM8 4h1v1H8zM3 5h1v1H3zM4 5h1v1H4zM7 5h1v1H7zM8 5h1v1H8zM9 5h1v1H9zM10 5h1v1h-1zM11 5h1v1h-1zM12 5h1v1h-1zM13 5h1v1h-1zM3 6h1v1H3zM4 6h1v1H4zM7 6h1v1H7zM8 6h1v1H8zM9 6h1v1H9zM10 6h1v1h-1zM11 6h1v1h-1zM12 6h1v1h-1zM13 6h1v1h-1zM14 6h1v1h-1zM3 7h1v1H3zM4 7h1v1H4zM7 7h1v1H7zM8 7h1v1H8zM13 7h1v1h-1zM14 7h1v1h-1zM3 8h1v1H3zM4 8h1v1H4zM5 8h1v1H5zM6 8h1v1H6zM7 8h1v1H7zM8 8h1v1H8zM13 8h1v1h-1zM14 8h1v1h-1zM3 9h1v1H3zM4 9h1v1H4zM5 9h1v1H5zM6 9h1v1H6zM7 9h1v1H7zM13 9h1v1h-1zM14 9h1v1h-1zM13 10h1v1h-1zM14 10h1v1h-1zM13 11h1v1h-1zM14 11h1v1h-1zM10 12h1v1h-1zM11 12h1v1h-1zM12 12h1v1h-1zM13 12h1v1h-1zM14 12h1v1h-1zM15 12h1v1h-1zM16 12h1v1h-1zM17 12h1v1h-1zM10 13h1v1h-1zM11 13h1v1h-1zM12 13h1v1h-1zM13 13h1v1h-1zM14 13h1v1h-1zM15 13h1v1h-1zM16 13h1v1h-1zM17 13h1v1h-1zM9 14h1v1H9zM10 14h1v1h-1zM17 14h1v1h-1zM18 14h1v1h-1zM9 15h1v1H9zM10 15h1v1h-1zM17 15h1v1h-1zM18 15h1v1h-1zM8 16h1v1H8zM9 16h1v1H9zM10 16h1v1h-1zM17 16h1v1h-1zM18 16h1v1h-1zM19 16h1v1h-1zM8 17h1v1H8zM9 17h1v1H9zM18 17h1v1h-1zM19 17h1v1h-1zM8 18h1v1H8zM9 18h1v1H9zM18 18h1v1h-1zM19 18h1v1h-1zM7 19h1v1H7zM8 19h1v1H8zM9 19h1v1H9zM10 19h1v1h-1zM11 19h1v1h-1zM12 19h1v1h-1zM13 19h1v1h-1zM14 19h1v1h-1zM15 19h1v1h-1zM16 19h1v1h-1zM17 19h1v1h-1zM18 19h1v1h-1zM19 19h1v1h-1zM20 19h1v1h-1zM7 20h1v1H7zM8 20h1v1H8zM9 20h1v1H9zM10 20h1v1h-1zM11 20h1v1h-1zM12 20h1v1h-1zM13 20h1v1h-1zM14 20h1v1h-1zM15 20h1v1h-1zM16 20h1v1h-1zM17 20h1v1h-1zM18 20h1v1h-1zM19 20h1v1h-1zM20 20h1v1h-1z"/></svg>