<svg xmlns="http://www.w3.org/2000/svg" width="24" height="24" shape-rendering="crispEdges"><path d="M18 1h1v1h-1zM19 1h1v1h-1zM17 2h1v1h-1zM18 2h1v1h-1zM19 2h1v1h-1zM16 3h1v1h-1zM17 3h1v1h-1zM18 3h1v1h-1zM19 3h1v1h-1zM20 3h1v1h-1zM13 4h1v1h-1zM14 4h1v1h-1zM15 4h1v1h-1zM16 4h1v1h-1zM17 4h1v1h-1zM19 4h1v1h-1zM20 4h1v1h-1zM8 5h1v1H8zM9 5h1v1H9zM10 5h1v1h-1zM11 5h1v1h-1zM12 5h1v1h-1zM13 5h1v1h-1zM14 5h1v1h-1zM15 5h1v1h-1zM19 5h1v1h-1zM20 5h1v1h-1zM6 6h1v1H6zM7 6h1v1H7zM8 6h1v1H8zM9 6h1v1H9zM10 6h1v1h-1zM11 6h1v1h-1zM12 6h1v1h-1zM20 6h1v1h-1zM21 6h1v1h-1zM5 7h1v1H5zM6 7h1v1H6zM7 7h1v1H7zM8 7h1v1H8zM20 7h1v1h-1zM21 7h1v1h-1zM4 8h1v1H4zM5 8h1v1H5zM6 8h1v1H6zM20 8h1v1h-1zM21 8h1v1h-1zM4 9h1v1H4zM5 9h1v1H5zM20 9h1v1h-1zM21 9h1v1h-1zM3 10h1v1H3zM4 10h1v1H4zM5 10h1v1H5zM20 10h1v1h-1zM21 10h1v1h-1zM3 11h1v1H3zM4 11h1v1H4zM12 11h1v1h-1zM13 11h1v1h-1zM20 11h1v1h-1zM21 11h1v1h-1zM3 12h1v1H3zM4 12h1v1H4zM11 12h1v1h-1zM12 12h1v1h-1zM13 12h1v1h-1zM20 12h1v1h-1zM21 12h1v1h-1zM3 13h1v1H3zM4 13h1v1H4zM9 13h1v1H9zM10 13h1v1h-1zM11 13h1v1h-1zM12 13h1v1h-1zM19 13h1v1h-1zM20 13h1v1h-1zM3 14h1v1H3zM4 14h1v1H4zM5 14h1v1H5zM6 14h1v1H6zM7 14h1v1H7zM8 14h1v1H8zM9 14h1v1H9zM10 14h1v1h-1zM19 14h1v1h-1zM20 14h1v1h-1zM3 15h1v1H3zM4 15h1v1H4zM5 15h1v1H5zM6 15h1v1H6zM7 15h1v1H7zM8 15h1v1H8zM18 15h1v1h-1zM19 15h1v1h-1zM3 16h1v1H3zM4 16h1v1H4zM5 16h1v1H5zM17 16h1v1h-1zM18 16h1v1h-1zM19 16h1v1h-1zM2 17h1v1H2zM3 17h1v1H3zM4 17h1v1H4zM5 17h1v1H5zM6 17h1v1H6zM16 17h1v1h-1zM17 17h1v1h-1zM18 17h1v1h-1zM1 18h1v1H1zM2 18h1v1H2zM3 18h1v1H3zM5 18h1v1H5zM6 18h1v1H6zM7 18h1v1H7zM8 18h1v1H8zM14 18h1v1h-1zM15 18h1v1h-1zM16 18h1v1h-1zM17 18h1v1h-1zM1 19h1v1H1zM2 19h1v1H2zM6 19h1v1H6zM7 19h1v1H7zM8 19h1v1H8zM9 19h1v1H9zM10 19h1v1h-1zM11 19h1v1h-1zM12 19h1v1h-1zM13 19h1v1h-1zM14 19h1v1h-1zM15 19h1v1h-1zM1 20h1v1H1zM2 20h1v1H2zM8 20h1v1H8zM9 20h1v1H9zM10 20h1v1h-1zM11 20h1v1h-1zM12 20h1v1h-1zM13 20h1v1h-1zM1 21h1v1H1zM2 21h1v1H2z"/></svg>