<svg xmlns="http://www.w3.org/2000/svg" width="24" height="24" shape-rendering="crispEdges"><path d="M12 1h1v1h-1zM13 1h1v1h-1zM14 1h1v1h-1zM17 1h1v1h-1zM18 1h1v1h-1zM19 1h1v1h-1zM10 2h1v1h-1zM11 2h1v1h-1zM12 2h1v1h-1zM13 2h1v1h-1zM14 2h1v1h-1zM15 2h1v1h-1zM16 2h1v1h-1zM17 2h1v1h-1zM18 2h1v1h-1zM19 2h1v1h-1zM20 2h1v1h-1zM21 2h1v1h-1zM7 3h1v1H7zM8 3h1v1H8zM9 3h1v1H9zM10 3h1v1h-1zM11 3h1v1h-1zM15 3h1v1h-1zM16 3h1v1h-1zM20 3h1v1h-1zM21 3h1v1h-1zM5 4h1v1H5zM6 4h1v1H6zM7 4h1v1H7zM8 4h1v1H8zM9 4h1v1H9zM10 4h1v1h-1zM21 4h1v1h-1zM22 4h1v1h-1zM5 5h1v1H5zM6 5h1v1H6zM21 5h1v1h-1zM22 5h1v1h-1zM4 6h1v1H4zM5 6h1v1H5zM16 6h1v1h-1zM17 6h1v1h-1zM21 6h1v1h-1zM22 6h1v1h-1zM4 7h1v1H4zM5 7h1v1H5zM15 7h1v1h-1zM16 7h1v1h-1zM17 7h1v1h-1zM20 7h1v1h-1zM21 7h1v1h-1zM2 8h1v1H2zM3 8h1v1H3zM4 8h1v1H4zM5 8h1v1H5zM14 8h1v1h-1zM15 8h1v1h-1zM16 8h1v1h-1zM20 8h1v1h-1zM21 8h1v1h-1zM2 9h1v1H2zM3 9h1v1H3zM13 9h1v1h-1zM14 9h1v1h-1zM15 9h1v1h-1zM21 9h1v1h-1zM22 9h1v1h-1zM1 10h1v1H1zM2 10h1v1H2zM12 10h1v1h-1zM13 10h1v1h-1zM14 10h1v1h-1zM21 10h1v1h-1zM22 10h1v1h-1zM1 11h1v1H1zM2 11h1v1H2zM11 11h1v1h-1zM12 11h1v1h-1zM13 11h1v1h-1zM21 11h1v1h-1zM22 11h1v1h-1zM1 12h1v1H1zM2 12h1v1H2zM10 12h1v1h-1zM11 12h1v1h-1zM12 12h1v1h-1zM20 12h1v1h-1zM21 12h1v1h-1zM1 13h1v1H1zM2 13h1v1H2zM9 13h1v1H9zM10 13h1v1h-1zM11 13h1v1h-1zM19 13h1v1h-1zM20 13h1v1h-1zM21 13h1v1h-1zM2 14h1v1H2zM3 14h1v1H3zM8 14h1v1H8zM9 14h1v1H9zM10 14h1v1h-1zM19 14h1v1h-1zM20 14h1v1h-1zM2 15h1v1H2zM3 15h1v1H3zM4 15h1v1H4zM7 15h1v1H7zM8 15h1v1H8zM9 15h1v1H9zM19 15h1v1h-1zM20 15h1v1h-1zM3 16h1v1H3zM4 16h1v1H4zM6 16h1v1H6zM7 16h1v1H7zM8 16h1v1H8zM19 16h1v1h-1zM20 16h1v1h-1zM3 17h1v1H3zM4 17h1v1H4zM5 17h1v1H5zM6 17h1v1H6zM7 17h1v1H7zM18 17h1v1h-1zM19 17h1v1h-1zM3 18h1v1H3zM4 18h1v1H4zM5 18h1v1H5zM6 18h1v1H6zM15 18h1v1h-1zM16 18h1v1h-1zM17 18h1v1h-1zM18 18h1v1h-1zM19 18h1v1h-1zM3 19h1v1H3zM4 19h1v1H4zM5 19h1v1H5zM6 19h1v1H6zM7 19h1v1H7zM8 19h1v1H8zM15 19h1v1h-1zM16 19h1v1h-1zM17 19h1v1h-1zM2 20h1v1H2zM3 20h1v1H3zM4 20h1v1H4zM5 20h1v1H5zM6 20h1v1H6zM7 20h1v1H7zM8 20h1v1H8zM9 20h1v1H9zM14 20h1v1h-1zM15 20h1v1h-1zM1 21h1v1H1zM2 21h1v1H2zM3 21h1v1H3zM8 21h1v1H8zM9 21h1v1H9zM10 21h1v1h-1zM11 21h1v1h-1zM12 21h1v1h-1zM13 21h1v1h-1zM14 21h1v1h-1zM15 21h1v1h-1zM1 22h1v1H1zM2 22h1v1H2zM10 22h1v1h-1zM11 22h1v1h-1zM12 22h1v1h-1zM13 22h1v1h-1z"/></svg>