<svg xmlns="http://www.w3.org/2000/svg" width="24" height="24" shape-rendering="crispEdges"><path d="M3 2h1v1H3zM4 2h1v1H4zM5 2h1v1H5zM6 2h1v1H6zM7 2h1v1H7zM8 2h1v1H8zM9 2h1v1H9zM10 2h1v1h-1zM12 2h1v1h-1zM13 2h1v1h-1zM14 2h1v1h-1zM2 3h1v1H2zM3 3h1v1H3zM4 3h1v1H4zM5 3h1v1H5zM6 3h1v1H6zM7 3h1v1H7zM8 3h1v1H8zM9 3h1v1H9zM10 3h1v1h-1zM11 3h1v1h-1zM12 3h1v1h-1zM13 3h1v1h-1zM14 3h1v1h-1zM15 3h1v1h-1zM2 4h1v1H2zM3 4h1v1H3zM6 4h1v1H6zM7 4h1v1H7zM10 4h1v1h-1zM11 4h1v1h-1zM12 4h1v1h-1zM14 4h1v1h-1zM15 4h1v1h-1zM2 5h1v1H2zM3 5h1v1H3zM6 5h1v1H6zM7 5h1v1H7zM10 5h1v1h-1zM11 5h1v1h-1zM14 5h1v1h-1zM15 5h1v1h-1zM16 5h1v1h-1zM2 6h1v1H2zM3 6h1v1H3zM6 6h1v1H6zM7 6h1v1H7zM10 6h1v1h-1zM11 6h1v1h-1zM12 6h1v1h-1zM15 6h1v1h-1zM16 6h1v1h-1zM2 7h1v1H2zM3 7h1v1H3zM6 7h1v1H6zM7 7h1v1H7zM10 7h1v1h-1zM11 7h1v1h-1zM12 7h1v1h-1zM15 7h1v1h-1zM16 7h1v1h-1zM2 8h1v1H2zM3 8h1v1H3zM6 8h1v1H6zM7 8h1v1H7zM10 8h1v1h-1zM11 8h1v1h-1zM12 8h1v1h-1zM16 8h1v1h-1zM17 8h1v1h-1zM2 9h1v1H2zM3 9h1v1H3zM6 9h1v1H6zM7 9h1v1H7zM10 9h1v1h-1zM11 9h1v1h-1zM12 9h1v1h-1zM13 9h1v1h-1zM16 9h1v1h-1zM17 9h1v1h-1zM2 10h1v1H2zM3 10h1v1H3zM6 10h1v1H6zM7 10h1v1H7zM10 10h1v1h-1zM11 10h1v1h-1zM12 10h1v1h-1zM13 10h1v1h-1zM16 10h1v1h-1zM17 10h1v1h-1zM2 11h1v1H2zM3 11h1v1H3zM6 11h1v1H6zM7 11h1v1H7zM10 11h1v1h-1zM11 11h1v1h-1zM12 11h1v1h-1zM13 11h1v1h-1zM17 11h1v1h-1zM18 11h1v1h-1zM2 12h1v1H2zM3 12h1v1H3zM6 12h1v1H6zM7 12h1v1H7zM10 12h1v1h-1zM11 12h1v1h-1zM13 12h1v1h-1zM14 12h1v1h-1zM17 12h1v1h-1zM18 12h1v1h-1zM2 13h1v1H2zM3 13h1v1H3zM6 13h1v1H6zM7 13h1v1H7zM10 13h1v1h-1zM11 13h1v1h-1zM13 13h1v1h-1zM14 13h1v1h-1zM17 13h1v1h-1zM18 13h1v1h-1zM19 13h1v1h-1zM2 14h1v1H2zM3 14h1v1H3zM6 14h1v1H6zM7 14h1v1H7zM10 14h1v1h-1zM11 14h1v1h-1zM13 14h1v1h-1zM14 14h1v1h-1zM15 14h1v1h-1zM18 14h1v1h-1zM19 14h1v1h-1zM2 15h1v1H2zM3 15h1v1H3zM6 15h1v1H6zM7 15h1v1H7zM10 15h1v1h-1zM11 15h1v1h-1zM14 15h1v1h-1zM15 15h1v1h-1zM18 15h1v1h-1zM19 15h1v1h-1zM2 16h1v1H2zM3 16h1v1H3zM6 16h1v1H6zM7 16h1v1H7zM10 16h1v1h-1zM11 16h1v1h-1zM14 16h1v1h-1zM15 16h1v1h-1zM18 16h1v1h-1zM19 16h1v1h-1zM20 16h1v1h-1zM2 17h1v1H2zM3 17h1v1H3zM6 17h1v1H6zM7 17h1v1H7zM10 17h1v1h-1zM11 17h1v1h-1zM15 17h1v1h-1zM16 17h1v1h-1zM19 17h1v1h-1zM20 17h1v1h-1zM2 18h1v1H2zM3 18h1v1H3zM6 18h1v1H6zM7 18h1v1H7zM10 18h1v1h-1zM11 18h1v1h-1zM15 18h1v1h-1zM16 18h1v1h-1zM19 18h1v1h-1zM20 18h1v1h-1zM2 19h1v1H2zM3 19h1v1H3zM6 19h1v1H6zM7 19h1v1H7zM10 19h1v1h-1zM11 19h1v1h-1zM15 19h1v1h-1zM16 19h1v1h-1zM19 19h1v1h-1zM20 19h1v1h-1zM2 20h1v1H2zM3 20h1v1H3zM4 20h1v1H4zM5 20h1v1H5zM6 20h1v1H6zM7 20h1v1H7zM8 20h1v1H8zM9 20h1v1H9zM10 20h1v1h-1zM11 20h1v1h-1zM16 20h1v1h-1zM17 20h1v1h-1zM18 20h1v1h-1zM19 20h1v1h-1zM20 20h1v1h-1zM3 21h1v1H3zM4 21h1v1H4zM5 21h1v1H5zM6 21h1v1H6zM7 21h1v1H7zM8 21h1v1H8zM9 21h1v1H9zM10 21h1v1h-1zM16 21h1v1h-1zM17 21h1v1h-1zM18 21h1v1h-1z"/></svg>