<svg xmlns="http://www.w3.org/2000/svg" width="24" height="24" shape-rendering="crispEdges"><path d="M10 3h1v1h-1zM11 3h1v1h-1zM12 3h1v1h-1zM13 3h1v1h-1zM9 4h1v1H9zM10 4h1v1h-1zM11 4h1v1h-1zM12 4h1v1h-1zM13 4h1v1h-1zM14 4h1v1h-1zM15 4h1v1h-1zM8 5h1v1H8zM9 5h1v1H9zM14 5h1v1h-1zM15 5h1v1h-1zM7 6h1v1H7zM8 6h1v1H8zM15 6h1v1h-1zM7 7h1v1H7zM8 7h1v1H8zM7 8h1v1H7zM8 8h1v1H8zM7 9h1v1H7zM8 9h1v1H8zM7 10h1v1H7zM8 10h1v1H8zM5 11h1v1H5zM6 11h1v1H6zM7 11h1v1H7zM8 11h1v1H8zM9 11h1v1H9zM10 11h1v1h-1zM13 11h1v1h-1zM14 11h1v1h-1zM15 11h1v1h-1zM16 11h1v1h-1zM5 12h1v1H5zM6 12h1v1H6zM7 12h1v1H7zM8 12h1v1H8zM9 12h1v1H9zM10 12h1v1h-1zM13 12h1v1h-1zM14 12h1v1h-1zM15 12h1v1h-1zM16 12h1v1h-1zM7 13h1v1H7zM8 13h1v1H8zM15 13h1v1h-1zM16 13h1v1h-1zM7 14h1v1H7zM8 14h1v1H8zM15 14h1v1h-1zM16 14h1v1h-1zM7 15h1v1H7zM8 15h1v1H8zM15 15h1v1h-1zM16 15h1v1h-1zM7 16h1v1H7zM8 16h1v1H8zM15 16h1v1h-1zM16 16h1v1h-1zM7 17h1v1H7zM8 17h1v1H8zM15 17h1v1h-1zM16 17h1v1h-1zM7 18h1v1H7zM8 18h1v1H8zM15 18h1v1h-1zM16 18h1v1h-1zM5 19h1v1H5zM6 19h1v1H6zM7 19h1v1H7zM8 19h1v1H8zM9 19h1v1H9zM10 19h1v1h-1zM13 19h1v1h-1zM14 19h1v1h-1zM15 19h1v1h-1zM16 19h1v1h-1zM17 19h1v1h-1zM18 19h1v1h-1zM5 20h1v1H5zM6 20h1v1H6zM7 20h1v1H7zM8 20h1v1H8zM9 20h1v1H9zM10 20h1v1h-1zM13 20h1v1h-1zM14 20h1v1h-1zM15 20h1v1h-1zM16 20h1v1h-1zM17 20h1v1h-1zM18 20h1v1h-1z"/></svg>