<svg xmlns="http://www.w3.org/2000/svg" width="24" height="24" shape-rendering="crispEdges"><path d="M8 4h1v1H8zM9 4h1v1H9zM7 5h1v1H7zM8 5h1v1H8zM9 5h1v1H9zM12 5h1v1h-1zM13 5h1v1h-1zM14 5h1v1h-1zM15 5h1v1h-1zM16 5h1v1h-1zM17 5h1v1h-1zM18 5h1v1h-1zM19 5h1v1h-1zM20 5h1v1h-1zM21 5h1v1h-1zM2 6h1v1H2zM3 6h1v1H3zM6 6h1v1H6zM7 6h1v1H7zM8 6h1v1H8zM12 6h1v1h-1zM13 6h1v1h-1zM14 6h1v1h-1zM15 6h1v1h-1zM16 6h1v1h-1zM17 6h1v1h-1zM18 6h1v1h-1zM19 6h1v1h-1zM20 6h1v1h-1zM21 6h1v1h-1zM2 7h1v1H2zM3 7h1v1H3zM4 7h1v1H4zM5 7h1v1H5zM6 7h1v1H6zM7 7h1v1H7zM3 8h1v1H3zM4 8h1v1H4zM5 8h1v1H5zM6 8h1v1H6zM4 9h1v1H4zM5 9h1v1H5zM12 11h1v1h-1zM13 11h1v1h-1zM14 11h1v1h-1zM15 11h1v1h-1zM16 11h1v1h-1zM17 11h1v1h-1zM18 11h1v1h-1zM19 11h1v1h-1zM20 11h1v1h-1zM21 11h1v1h-1zM12 12h1v1h-1zM13 12h1v1h-1zM14 12h1v1h-1zM15 12h1v1h-1zM16 12h1v1h-1zM17 12h1v1h-1zM18 12h1v1h-1zM19 12h1v1h-1zM20 12h1v1h-1zM21 12h1v1h-1zM8 14h1v1H8zM9 14h1v1H9zM7 15h1v1H7zM8 15h1v1H8zM9 15h1v1H9zM2 16h1v1H2zM3 16h1v1H3zM6 16h1v1H6zM7 16h1v1H7zM8 16h1v1H8zM2 17h1v1H2zM3 17h1v1H3zM4 17h1v1H4zM5 17h1v1H5zM6 17h1v1H6zM7 17h1v1H7zM12 17h1v1h-1zM13 17h1v1h-1zM14 17h1v1h-1zM15 17h1v1h-1zM16 17h1v1h-1zM17 17h1v1h-1zM18 17h1v1h-1zM19 17h1v1h-1zM20 17h1v1h-1zM21 17h1v1h-1zM3 18h1v1H3zM4 18h1v1H4zM5 18h1v1H5zM6 18h1v1H6zM12 18h1v1h-1zM13 18h1v1h-1zM14 18h1v1h-1zM15 18h1v1h-1zM16 18h1v1h-1zM17 18h1v1h-1zM18 18h1v1h-1zM19 18h1v1h-1zM20 18h1v1h-1zM21 18h1v1h-1zM4 19h1v1H4zM5 19h1v1H5z"/></svg>