<svg xmlns="http://www.w3.org/2000/svg" width="24" height="24" shape-rendering="crispEdges"><path d="M2 5h1v1H2zM3 5h1v1H3zM4 5h1v1H4zM5 5h1v1H5zM6 5h1v1H6zM7 5h1v1H7zM8 5h1v1H8zM9 5h1v1H9zM10 5h1v1h-1zM11 5h1v1h-1zM12 5h1v1h-1zM13 5h1v1h-1zM14 5h1v1h-1zM15 5h1v1h-1zM16 5h1v1h-1zM17 5h1v1h-1zM18 5h1v1h-1zM19 5h1v1h-1zM20 5h1v1h-1zM21 5h1v1h-1zM2 6h1v1H2zM3 6h1v1H3zM4 6h1v1H4zM5 6h1v1H5zM6 6h1v1H6zM7 6h1v1H7zM8 6h1v1H8zM9 6h1v1H9zM10 6h1v1h-1zM11 6h1v1h-1zM12 6h1v1h-1zM13 6h1v1h-1zM14 6h1v1h-1zM15 6h1v1h-1zM16 6h1v1h-1zM17 6h1v1h-1zM18 6h1v1h-1zM19 6h1v1h-1zM20 6h1v1h-1zM21 6h1v1h-1zM10 9h1v1h-1zM11 9h1v1h-1zM10 10h1v1h-1zM11 10h1v1h-1zM13 10h1v1h-1zM14 10h1v1h-1zM15 10h1v1h-1zM16 10h1v1h-1zM17 10h1v1h-1zM18 10h1v1h-1zM19 10h1v1h-1zM2 11h1v1H2zM3 11h1v1H3zM4 11h1v1H4zM5 11h1v1H5zM6 11h1v1H6zM7 11h1v1H7zM10 11h1v1h-1zM11 11h1v1h-1zM12 11h1v1h-1zM13 11h1v1h-1zM14 11h1v1h-1zM15 11h1v1h-1zM16 11h1v1h-1zM17 11h1v1h-1zM18 11h1v1h-1zM19 11h1v1h-1zM20 11h1v1h-1zM2 12h1v1H2zM3 12h1v1H3zM4 12h1v1H4zM5 12h1v1H5zM6 12h1v1H6zM7 12h1v1H7zM10 12h1v1h-1zM11 12h1v1h-1zM12 12h1v1h-1zM13 12h1v1h-1zM19 12h1v1h-1zM20 12h1v1h-1zM10 13h1v1h-1zM11 13h1v1h-1zM12 13h1v1h-1zM13 13h1v1h-1zM14 13h1v1h-1zM15 13h1v1h-1zM20 13h1v1h-1zM21 13h1v1h-1zM10 14h1v1h-1zM11 14h1v1h-1zM12 14h1v1h-1zM13 14h1v1h-1zM14 14h1v1h-1zM15 14h1v1h-1zM20 14h1v1h-1zM21 14h1v1h-1zM20 15h1v1h-1zM21 15h1v1h-1zM20 16h1v1h-1zM21 16h1v1h-1zM2 17h1v1H2zM3 17h1v1H3zM4 17h1v1H4zM5 17h1v1H5zM6 17h1v1H6zM7 17h1v1H7zM11 17h1v1h-1zM12 17h1v1h-1zM19 17h1v1h-1zM20 17h1v1h-1zM2 18h1v1H2zM3 18h1v1H3zM4 18h1v1H4zM5 18h1v1H5zM6 18h1v1H6zM7 18h1v1H7zM11 18h1v1h-1zM12 18h1v1h-1zM13 18h1v1h-1zM18 18h1v1h-1zM19 18h1v1h-1zM20 18h1v1h-1zM12 19h1v1h-1zM13 19h1v1h-1zM14 19h1v1h-1zM15 19h1v1h-1zM16 19h1v1h-1zM17 19h1v1h-1zM18 19h1v1h-1zM19 19h1v1h-1zM14 20h1v1h-1zM15 20h1v1h-1zM16 20h1v1h-1zM17 20h1v1h-1z"/></svg>