<svg xmlns="http://www.w3.org/2000/svg" width="24" height="24" shape-rendering="crispEdges"><path d="M3 2h1v1H3zM4 2h1v1H4zM5 2h1v1H5zM6 2h1v1H6zM7 2h1v1H7zM8 2h1v1H8zM9 2h1v1H9zM2 3h1v1H2zM3 3h1v1H3zM4 3h1v1H4zM5 3h1v1H5zM6 3h1v1H6zM7 3h1v1H7zM8 3h1v1H8zM9 3h1v1H9zM2 4h1v1H2zM3 4h1v1H3zM2 5h1v1H2zM3 5h1v1H3zM2 6h1v1H2zM3 6h1v1H3zM15 6h1v1h-1zM16 6h1v1h-1zM2 7h1v1H2zM3 7h1v1H3zM15 7h1v1h-1zM16 7h1v1h-1zM17 7h1v1h-1zM2 8h1v1H2zM3 8h1v1H3zM16 8h1v1h-1zM17 8h1v1h-1zM18 8h1v1h-1zM2 9h1v1H2zM3 9h1v1H3zM17 9h1v1h-1zM18 9h1v1h-1zM19 9h1v1h-1zM2 10h1v1H2zM3 10h1v1H3zM18 10h1v1h-1zM19 10h1v1h-1zM20 10h1v1h-1zM2 11h1v1H2zM3 11h1v1H3zM8 11h1v1H8zM9 11h1v1H9zM10 11h1v1h-1zM11 11h1v1h-1zM12 11h1v1h-1zM13 11h1v1h-1zM14 11h1v1h-1zM15 11h1v1h-1zM16 11h1v1h-1zM17 11h1v1h-1zM18 11h1v1h-1zM19 11h1v1h-1zM20 11h1v1h-1zM21 11h1v1h-1zM2 12h1v1H2zM3 12h1v1H3zM8 12h1v1H8zM9 12h1v1H9zM10 12h1v1h-1zM11 12h1v1h-1zM12 12h1v1h-1zM13 12h1v1h-1zM14 12h1v1h-1zM15 12h1v1h-1zM16 12h1v1h-1zM17 12h1v1h-1zM18 12h1v1h-1zM19 12h1v1h-1zM20 12h1v1h-1zM21 12h1v1h-1zM2 13h1v1H2zM3 13h1v1H3zM18 13h1v1h-1zM19 13h1v1h-1zM20 13h1v1h-1zM2 14h1v1H2zM3 14h1v1H3zM17 14h1v1h-1zM18 14h1v1h-1zM19 14h1v1h-1zM2 15h1v1H2zM3 15h1v1H3zM16 15h1v1h-1zM17 15h1v1h-1zM18 15h1v1h-1zM2 16h1v1H2zM3 16h1v1H3zM15 16h1v1h-1zM16 16h1v1h-1zM17 16h1v1h-1zM2 17h1v1H2zM3 17h1v1H3zM15 17h1v1h-1zM16 17h1v1h-1zM2 18h1v1H2zM3 18h1v1H3zM2 19h1v1H2zM3 19h1v1H3zM2 20h1v1H2zM3 20h1v1H3zM4 20h1v1H4zM5 20h1v1H5zM6 20h1v1H6zM7 20h1v1H7zM8 20h1v1H8zM9 20h1v1H9zM3 21h1v1H3zM4 21h1v1H4zM5 21h1v1H5zM6 21h1v1H6zM7 21h1v1H7zM8 21h1v1H8zM9 21h1v1H9z"/></svg>