<svg xmlns="http://www.w3.org/2000/svg" width="24" height="24" shape-rendering="crispEdges"><path d="M7 1h1v1H7zM8 1h1v1H8zM9 1h1v1H9zM10 1h1v1h-1zM11 1h1v1h-1zM12 1h1v1h-1zM5 2h1v1H5zM6 2h1v1H6zM7 2h1v1H7zM8 2h1v1H8zM9 2h1v1H9zM10 2h1v1h-1zM11 2h1v1h-1zM12 2h1v1h-1zM13 2h1v1h-1zM14 2h1v1h-1zM4 3h1v1H4zM5 3h1v1H5zM6 3h1v1H6zM13 3h1v1h-1zM14 3h1v1h-1zM15 3h1v1h-1zM3 4h1v1H3zM4 4h1v1H4zM5 4h1v1H5zM14 4h1v1h-1zM15 4h1v1h-1zM16 4h1v1h-1zM2 5h1v1H2zM3 5h1v1H3zM4 5h1v1H4zM15 5h1v1h-1zM16 5h1v1h-1zM17 5h1v1h-1zM2 6h1v1H2zM3 6h1v1H3zM8 6h1v1H8zM9 6h1v1H9zM10 6h1v1h-1zM11 6h1v1h-1zM16 6h1v1h-1zM17 6h1v1h-1zM1 7h1v1H1zM2 7h1v1H2zM7 7h1v1H7zM8 7h1v1H8zM9 7h1v1H9zM10 7h1v1h-1zM11 7h1v1h-1zM12 7h1v1h-1zM17 7h1v1h-1zM18 7h1v1h-1zM1 8h1v1H1zM2 8h1v1H2zM6 8h1v1H6zM7 8h1v1H7zM8 8h1v1H8zM11 8h1v1h-1zM12 8h1v1h-1zM13 8h1v1h-1zM17 8h1v1h-1zM18 8h1v1h-1zM1 9h1v1H1zM2 9h1v1H2zM6 9h1v1H6zM7 9h1v1H7zM12 9h1v1h-1zM13 9h1v1h-1zM17 9h1v1h-1zM18 9h1v1h-1zM1 10h1v1H1zM2 10h1v1H2zM6 10h1v1H6zM7 10h1v1H7zM12 10h1v1h-1zM13 10h1v1h-1zM17 10h1v1h-1zM18 10h1v1h-1zM1 11h1v1H1zM2 11h1v1H2zM6 11h1v1H6zM7 11h1v1H7zM8 11h1v1H8zM11 11h1v1h-1zM12 11h1v1h-1zM13 11h1v1h-1zM1 12h1v1H1zM2 12h1v1H2zM3 12h1v1H3zM7 12h1v1H7zM8 12h1v1H8zM9 12h1v1H9zM10 12h1v1h-1zM11 12h1v1h-1zM12 12h1v1h-1zM2 13h1v1H2zM3 13h1v1H3zM8 13h1v1H8zM9 13h1v1H9zM10 13h1v1h-1zM11 13h1v1h-1zM17 13h1v1h-1zM18 13h1v1h-1zM2 14h1v1H2zM3 14h1v1H3zM15 14h1v1h-1zM16 14h1v1h-1zM17 14h1v1h-1zM18 14h1v1h-1zM19 14h1v1h-1zM20 14h1v1h-1zM3 15h1v1H3zM4 15h1v1H4zM14 15h1v1h-1zM15 15h1v1h-1zM16 15h1v1h-1zM19 15h1v1h-1zM20 15h1v1h-1zM21 15h1v1h-1zM3 16h1v1H3zM4 16h1v1H4zM5 16h1v1H5zM13 16h1v1h-1zM14 16h1v1h-1zM15 16h1v1h-1zM20 16h1v1h-1zM21 16h1v1h-1zM22 16h1v1h-1zM4 17h1v1H4zM5 17h1v1H5zM6 17h1v1H6zM13 17h1v1h-1zM14 17h1v1h-1zM21 17h1v1h-1zM22 17h1v1h-1zM5 18h1v1H5zM6 18h1v1H6zM13 18h1v1h-1zM14 18h1v1h-1zM17 18h1v1h-1zM18 18h1v1h-1zM21 18h1v1h-1zM22 18h1v1h-1zM6 19h1v1H6zM7 19h1v1H7zM13 19h1v1h-1zM14 19h1v1h-1zM17 19h1v1h-1zM18 19h1v1h-1zM21 19h1v1h-1zM22 19h1v1h-1zM7 20h1v1H7zM8 20h1v1H8zM13 20h1v1h-1zM14 20h1v1h-1zM17 20h1v1h-1zM18 20h1v1h-1zM21 20h1v1h-1zM22 20h1v1h-1zM8 21h1v1H8zM9 21h1v1H9zM10 21h1v1h-1zM13 21h1v1h-1zM14 21h1v1h-1zM15 21h1v1h-1zM16 21h1v1h-1zM17 21h1v1h-1zM18 21h1v1h-1zM19 21h1v1h-1zM20 21h1v1h-1zM21 21h1v1h-1zM22 21h1v1h-1zM9 22h1v1H9zM10 22h1v1h-1zM14 22h1v1h-1zM15 22h1v1h-1zM16 22h1v1h-1zM17 22h1v1h-1zM18 22h1v1h-1zM19 22h1v1h-1zM20 22h1v1h-1zM21 22h1v1h-1z"/></svg>