<svg xmlns="http://www.w3.org/2000/svg" width="24" height="24" shape-rendering="crispEdges"><path d="M15 2h1v1h-1zM16 2h1v1h-1zM17 2h1v1h-1zM18 2h1v1h-1zM19 2h1v1h-1zM20 2h1v1h-1zM21 2h1v1h-1zM15 3h1v1h-1zM16 3h1v1h-1zM17 3h1v1h-1zM18 3h1v1h-1zM19 3h1v1h-1zM20 3h1v1h-1zM21 3h1v1h-1zM18 4h1v1h-1zM19 4h1v1h-1zM20 4h1v1h-1zM21 4h1v1h-1zM17 5h1v1h-1zM18 5h1v1h-1zM19 5h1v1h-1zM20 5h1v1h-1zM21 5h1v1h-1zM16 6h1v1h-1zM17 6h1v1h-1zM18 6h1v1h-1zM20 6h1v1h-1zM21 6h1v1h-1zM7 7h1v1H7zM8 7h1v1H8zM9 7h1v1H9zM10 7h1v1h-1zM11 7h1v1h-1zM12 7h1v1h-1zM15 7h1v1h-1zM16 7h1v1h-1zM17 7h1v1h-1zM20 7h1v1h-1zM21 7h1v1h-1zM6 8h1v1H6zM7 8h1v1H7zM8 8h1v1H8zM9 8h1v1H9zM10 8h1v1h-1zM11 8h1v1h-1zM12 8h1v1h-1zM13 8h1v1h-1zM14 8h1v1h-1zM15 8h1v1h-1zM16 8h1v1h-1zM20 8h1v1h-1zM21 8h1v1h-1zM5 9h1v1H5zM6 9h1v1H6zM7 9h1v1H7zM12 9h1v1h-1zM13 9h1v1h-1zM14 9h1v1h-1zM15 9h1v1h-1zM4 10h1v1H4zM5 10h1v1H5zM13 10h1v1h-1zM14 10h1v1h-1zM15 10h1v1h-1zM3 11h1v1H3zM4 11h1v1H4zM5 11h1v1H5zM14 11h1v1h-1zM15 11h1v1h-1zM16 11h1v1h-1zM3 12h1v1H3zM4 12h1v1H4zM15 12h1v1h-1zM16 12h1v1h-1zM3 13h1v1H3zM4 13h1v1H4zM15 13h1v1h-1zM16 13h1v1h-1zM3 14h1v1H3zM4 14h1v1H4zM15 14h1v1h-1zM16 14h1v1h-1zM3 15h1v1H3zM4 15h1v1H4zM15 15h1v1h-1zM16 15h1v1h-1zM3 16h1v1H3zM4 16h1v1H4zM5 16h1v1H5zM14 16h1v1h-1zM15 16h1v1h-1zM16 16h1v1h-1zM4 17h1v1H4zM5 17h1v1H5zM14 17h1v1h-1zM15 17h1v1h-1zM5 18h1v1H5zM6 18h1v1H6zM7 18h1v1H7zM12 18h1v1h-1zM13 18h1v1h-1zM14 18h1v1h-1zM6 19h1v1H6zM7 19h1v1H7zM8 19h1v1H8zM9 19h1v1H9zM10 19h1v1h-1zM11 19h1v1h-1zM12 19h1v1h-1zM13 19h1v1h-1zM7 20h1v1H7zM8 20h1v1H8zM9 20h1v1H9zM10 20h1v1h-1zM11 20h1v1h-1zM12 20h1v1h-1z"/></svg>