<svg xmlns="http://www.w3.org/2000/svg" width="24" height="24" shape-rendering="crispEdges"><path d="M16 2h1v1h-1zM17 2h1v1h-1zM18 2h1v1h-1zM19 2h1v1h-1zM20 2h1v1h-1zM21 2h1v1h-1zM16 3h1v1h-1zM17 3h1v1h-1zM18 3h1v1h-1zM19 3h1v1h-1zM20 3h1v1h-1zM21 3h1v1h-1zM18 4h1v1h-1zM19 4h1v1h-1zM20 4h1v1h-1zM21 4h1v1h-1zM13 5h1v1h-1zM14 5h1v1h-1zM17 5h1v1h-1zM18 5h1v1h-1zM19 5h1v1h-1zM20 5h1v1h-1zM21 5h1v1h-1zM13 6h1v1h-1zM14 6h1v1h-1zM15 6h1v1h-1zM16 6h1v1h-1zM17 6h1v1h-1zM18 6h1v1h-1zM20 6h1v1h-1zM21 6h1v1h-1zM14 7h1v1h-1zM15 7h1v1h-1zM16 7h1v1h-1zM17 7h1v1h-1zM20 7h1v1h-1zM21 7h1v1h-1zM6 8h1v1H6zM7 8h1v1H7zM8 8h1v1H8zM9 8h1v1H9zM10 8h1v1h-1zM11 8h1v1h-1zM14 8h1v1h-1zM15 8h1v1h-1zM16 8h1v1h-1zM17 8h1v1h-1zM5 9h1v1H5zM6 9h1v1H6zM7 9h1v1H7zM8 9h1v1H8zM9 9h1v1H9zM10 9h1v1h-1zM11 9h1v1h-1zM12 9h1v1h-1zM13 9h1v1h-1zM14 9h1v1h-1zM15 9h1v1h-1zM16 9h1v1h-1zM17 9h1v1h-1zM18 9h1v1h-1zM4 10h1v1H4zM5 10h1v1H5zM6 10h1v1H6zM11 10h1v1h-1zM12 10h1v1h-1zM13 10h1v1h-1zM14 10h1v1h-1zM17 10h1v1h-1zM18 10h1v1h-1zM3 11h1v1H3zM4 11h1v1H4zM12 11h1v1h-1zM13 11h1v1h-1zM14 11h1v1h-1zM2 12h1v1H2zM3 12h1v1H3zM4 12h1v1H4zM13 12h1v1h-1zM14 12h1v1h-1zM15 12h1v1h-1zM2 13h1v1H2zM3 13h1v1H3zM14 13h1v1h-1zM15 13h1v1h-1zM2 14h1v1H2zM3 14h1v1H3zM14 14h1v1h-1zM15 14h1v1h-1zM2 15h1v1H2zM3 15h1v1H3zM14 15h1v1h-1zM15 15h1v1h-1zM2 16h1v1H2zM3 16h1v1H3zM14 16h1v1h-1zM15 16h1v1h-1zM2 17h1v1H2zM3 17h1v1H3zM4 17h1v1H4zM13 17h1v1h-1zM14 17h1v1h-1zM15 17h1v1h-1zM3 18h1v1H3zM4 18h1v1H4zM13 18h1v1h-1zM14 18h1v1h-1zM4 19h1v1H4zM5 19h1v1H5zM6 19h1v1H6zM11 19h1v1h-1zM12 19h1v1h-1zM13 19h1v1h-1zM5 20h1v1H5zM6 20h1v1H6zM7 20h1v1H7zM8 20h1v1H8zM9 20h1v1H9zM10 20h1v1h-1zM11 20h1v1h-1zM12 20h1v1h-1zM6 21h1v1H6zM7 21h1v1H7zM8 21h1v1H8zM9 21h1v1H9zM10 21h1v1h-1zM11 21h1v1h-1z"/></svg>