<svg xmlns="http://www.w3.org/2000/svg" width="24" height="24" shape-rendering="crispEdges"><path d="M14 1h1v1h-1zM15 1h1v1h-1zM16 1h1v1h-1zM17 1h1v1h-1zM12 2h1v1h-1zM13 2h1v1h-1zM14 2h1v1h-1zM15 2h1v1h-1zM16 2h1v1h-1zM17 2h1v1h-1zM18 2h1v1h-1zM19 2h1v1h-1zM11 3h1v1h-1zM12 3h1v1h-1zM13 3h1v1h-1zM18 3h1v1h-1zM19 3h1v1h-1zM20 3h1v1h-1zM11 4h1v1h-1zM12 4h1v1h-1zM19 4h1v1h-1zM20 4h1v1h-1zM10 5h1v1h-1zM11 5h1v1h-1zM20 5h1v1h-1zM21 5h1v1h-1zM10 6h1v1h-1zM11 6h1v1h-1zM20 6h1v1h-1zM21 6h1v1h-1zM10 7h1v1h-1zM11 7h1v1h-1zM20 7h1v1h-1zM21 7h1v1h-1zM9 8h1v1H9zM10 8h1v1h-1zM11 8h1v1h-1zM20 8h1v1h-1zM21 8h1v1h-1zM8 9h1v1H8zM9 9h1v1H9zM10 9h1v1h-1zM11 9h1v1h-1zM12 9h1v1h-1zM19 9h1v1h-1zM20 9h1v1h-1zM8 10h1v1H8zM9 10h1v1H9zM11 10h1v1h-1zM12 10h1v1h-1zM13 10h1v1h-1zM18 10h1v1h-1zM19 10h1v1h-1zM20 10h1v1h-1zM7 11h1v1H7zM8 11h1v1H8zM12 11h1v1h-1zM13 11h1v1h-1zM14 11h1v1h-1zM15 11h1v1h-1zM16 11h1v1h-1zM17 11h1v1h-1zM18 11h1v1h-1zM19 11h1v1h-1zM6 12h1v1H6zM7 12h1v1H7zM8 12h1v1H8zM13 12h1v1h-1zM14 12h1v1h-1zM15 12h1v1h-1zM16 12h1v1h-1zM17 12h1v1h-1zM5 13h1v1H5zM6 13h1v1H6zM7 13h1v1H7zM11 13h1v1h-1zM12 13h1v1h-1zM13 13h1v1h-1zM14 13h1v1h-1zM5 14h1v1H5zM6 14h1v1H6zM10 14h1v1h-1zM11 14h1v1h-1zM12 14h1v1h-1zM13 14h1v1h-1zM4 15h1v1H4zM5 15h1v1H5zM9 15h1v1H9zM10 15h1v1h-1zM11 15h1v1h-1zM4 16h1v1H4zM5 16h1v1H5zM8 16h1v1H8zM9 16h1v1H9zM10 16h1v1h-1zM4 17h1v1H4zM5 17h1v1H5zM6 17h1v1H6zM7 17h1v1H7zM8 17h1v1H8zM9 17h1v1H9zM4 18h1v1H4zM5 18h1v1H5zM6 18h1v1H6zM7 18h1v1H7zM4 19h1v1H4zM5 19h1v1H5zM11 19h1v1h-1zM12 19h1v1h-1zM13 19h1v1h-1zM14 19h1v1h-1zM4 20h1v1H4zM5 20h1v1H5zM9 20h1v1H9zM10 20h1v1h-1zM11 20h1v1h-1zM12 20h1v1h-1zM13 20h1v1h-1zM14 20h1v1h-1zM15 20h1v1h-1zM16 20h1v1h-1zM5 21h1v1H5zM6 21h1v1H6zM7 21h1v1H7zM8 21h1v1H8zM9 21h1v1H9zM10 21h1v1h-1zM15 21h1v1h-1zM16 21h1v1h-1zM6 22h1v1H6zM7 22h1v1H7zM8 22h1v1H8z"/></svg>