<svg xmlns="http://www.w3.org/2000/svg" width="24" height="24" shape-rendering="crispEdges"><path d="M8 1h1v1H8zM9 1h1v1H9zM10 1h1v1h-1zM11 1h1v1h-1zM7 2h1v1H7zM8 2h1v1H8zM9 2h1v1H9zM10 2h1v1h-1zM11 2h1v1h-1zM12 2h1v1h-1zM7 3h1v1H7zM8 3h1v1H8zM11 3h1v1h-1zM12 3h1v1h-1zM7 4h1v1H7zM8 4h1v1H8zM11 4h1v1h-1zM12 4h1v1h-1zM6 5h1v1H6zM7 5h1v1H7zM8 5h1v1H8zM9 5h1v1H9zM10 5h1v1h-1zM11 5h1v1h-1zM12 5h1v1h-1zM13 5h1v1h-1zM6 6h1v1H6zM7 6h1v1H7zM8 6h1v1H8zM9 6h1v1H9zM10 6h1v1h-1zM11 6h1v1h-1zM12 6h1v1h-1zM13 6h1v1h-1zM6 7h1v1H6zM7 7h1v1H7zM12 7h1v1h-1zM13 7h1v1h-1zM14 7h1v1h-1zM15 7h1v1h-1zM16 7h1v1h-1zM6 8h1v1H6zM7 8h1v1H7zM12 8h1v1h-1zM13 8h1v1h-1zM14 8h1v1h-1zM15 8h1v1h-1zM16 8h1v1h-1zM17 8h1v1h-1zM18 8h1v1h-1zM6 9h1v1H6zM7 9h1v1H7zM12 9h1v1h-1zM13 9h1v1h-1zM16 9h1v1h-1zM17 9h1v1h-1zM18 9h1v1h-1zM19 9h1v1h-1zM6 10h1v1H6zM7 10h1v1H7zM12 10h1v1h-1zM13 10h1v1h-1zM18 10h1v1h-1zM19 10h1v1h-1zM20 10h1v1h-1zM6 11h1v1H6zM7 11h1v1H7zM8 11h1v1H8zM9 11h1v1H9zM10 11h1v1h-1zM11 11h1v1h-1zM12 11h1v1h-1zM13 11h1v1h-1zM19 11h1v1h-1zM20 11h1v1h-1zM7 12h1v1H7zM8 12h1v1H8zM9 12h1v1H9zM10 12h1v1h-1zM11 12h1v1h-1zM12 12h1v1h-1zM19 12h1v1h-1zM20 12h1v1h-1zM21 12h1v1h-1zM8 13h1v1H8zM9 13h1v1H9zM10 13h1v1h-1zM11 13h1v1h-1zM20 13h1v1h-1zM21 13h1v1h-1zM8 14h1v1H8zM9 14h1v1H9zM10 14h1v1h-1zM11 14h1v1h-1zM20 14h1v1h-1zM21 14h1v1h-1zM20 15h1v1h-1zM21 15h1v1h-1zM20 16h1v1h-1zM21 16h1v1h-1zM5 17h1v1H5zM6 17h1v1H6zM7 17h1v1H7zM8 17h1v1H8zM9 17h1v1H9zM10 17h1v1h-1zM11 17h1v1h-1zM12 17h1v1h-1zM13 17h1v1h-1zM14 17h1v1h-1zM19 17h1v1h-1zM20 17h1v1h-1zM21 17h1v1h-1zM5 18h1v1H5zM6 18h1v1H6zM7 18h1v1H7zM8 18h1v1H8zM9 18h1v1H9zM10 18h1v1h-1zM11 18h1v1h-1zM12 18h1v1h-1zM13 18h1v1h-1zM14 18h1v1h-1zM19 18h1v1h-1zM20 18h1v1h-1zM18 19h1v1h-1zM19 19h1v1h-1zM20 19h1v1h-1zM16 20h1v1h-1zM17 20h1v1h-1zM18 20h1v1h-1zM19 20h1v1h-1zM2 21h1v1H2zM3 21h1v1H3zM4 21h1v1H4zM5 21h1v1H5zM6 21h1v1H6zM7 21h1v1H7zM8 21h1v1H8zM9 21h1v1H9zM10 21h1v1h-1zM11 21h1v1h-1zM12 21h1v1h-1zM13 21h1v1h-1zM14 21h1v1h-1zM15 21h1v1h-1zM16 21h1v1h-1zM17 21h1v1h-1zM18 21h1v1h-1zM19 21h1v1h-1zM20 21h1v1h-1zM21 21h1v1h-1zM2 22h1v1H2zM3 22h1v1H3zM4 22h1v1H4zM5 22h1v1H5zM6 22h1v1H6zM7 22h1v1H7zM8 22h1v1H8zM9 22h1v1H9zM10 22h1v1h-1zM11 22h1v1h-1zM12 22h1v1h-1zM13 22h1v1h-1zM14 22h1v1h-1zM15 22h1v1h-1zM16 22h1v1h-1zM17 22h1v1h-1zM18 22h1v1h-1zM19 22h1v1h-1zM20 22h1v1h-1zM21 22h1v1h-1z"/></svg>