<svg xmlns="http://www.w3.org/2000/svg" width="24" height="24" shape-rendering="crispEdges"><path d="M2 2h1v1H2zM3 2h1v1H3zM4 2h1v1H4zM5 2h1v1H5zM6 2h1v1H6zM7 2h1v1H7zM8 2h1v1H8zM9 2h1v1H9zM10 2h1v1h-1zM11 2h1v1h-1zM12 2h1v1h-1zM13 2h1v1h-1zM14 2h1v1h-1zM15 2h1v1h-1zM16 2h1v1h-1zM17 2h1v1h-1zM18 2h1v1h-1zM19 2h1v1h-1zM20 2h1v1h-1zM21 2h1v1h-1zM1 3h1v1H1zM2 3h1v1H2zM3 3h1v1H3zM4 3h1v1H4zM5 3h1v1H5zM6 3h1v1H6zM7 3h1v1H7zM8 3h1v1H8zM9 3h1v1H9zM10 3h1v1h-1zM11 3h1v1h-1zM12 3h1v1h-1zM13 3h1v1h-1zM14 3h1v1h-1zM15 3h1v1h-1zM16 3h1v1h-1zM17 3h1v1h-1zM18 3h1v1h-1zM19 3h1v1h-1zM20 3h1v1h-1zM21 3h1v1h-1zM22 3h1v1h-1zM1 4h1v1H1zM2 4h1v1H2zM21 4h1v1h-1zM22 4h1v1h-1zM1 5h1v1H1zM2 5h1v1H2zM21 5h1v1h-1zM22 5h1v1h-1zM1 6h1v1H1zM2 6h1v1H2zM9 6h1v1H9zM10 6h1v1h-1zM13 6h1v1h-1zM14 6h1v1h-1zM21 6h1v1h-1zM22 6h1v1h-1zM1 7h1v1H1zM2 7h1v1H2zM9 7h1v1H9zM10 7h1v1h-1zM13 7h1v1h-1zM14 7h1v1h-1zM21 7h1v1h-1zM22 7h1v1h-1zM1 8h1v1H1zM2 8h1v1H2zM9 8h1v1H9zM10 8h1v1h-1zM13 8h1v1h-1zM14 8h1v1h-1zM21 8h1v1h-1zM22 8h1v1h-1zM1 9h1v1H1zM2 9h1v1H2zM9 9h1v1H9zM10 9h1v1h-1zM13 9h1v1h-1zM14 9h1v1h-1zM21 9h1v1h-1zM22 9h1v1h-1zM1 10h1v1H1zM2 10h1v1H2zM9 10h1v1H9zM10 10h1v1h-1zM13 10h1v1h-1zM14 10h1v1h-1zM21 10h1v1h-1zM22 10h1v1h-1zM1 11h1v1H1zM2 11h1v1H2zM9 11h1v1H9zM10 11h1v1h-1zM13 11h1v1h-1zM14 11h1v1h-1zM21 11h1v1h-1zM22 11h1v1h-1zM1 12h1v1H1zM2 12h1v1H2zM9 12h1v1H9zM10 12h1v1h-1zM13 12h1v1h-1zM14 12h1v1h-1zM21 12h1v1h-1zM22 12h1v1h-1zM1 13h1v1H1zM2 13h1v1H2zM9 13h1v1H9zM10 13h1v1h-1zM13 13h1v1h-1zM14 13h1v1h-1zM21 13h1v1h-1zM22 13h1v1h-1zM1 14h1v1H1zM2 14h1v1H2zM21 14h1v1h-1zM22 14h1v1h-1zM1 15h1v1H1zM2 15h1v1H2zM21 15h1v1h-1zM22 15h1v1h-1zM1 16h1v1H1zM2 16h1v1H2zM3 16h1v1H3zM4 16h1v1H4zM5 16h1v1H5zM6 16h1v1H6zM7 16h1v1H7zM8 16h1v1H8zM9 16h1v1H9zM10 16h1v1h-1zM11 16h1v1h-1zM12 16h1v1h-1zM13 16h1v1h-1zM14 16h1v1h-1zM15 16h1v1h-1zM16 16h1v1h-1zM17 16h1v1h-1zM18 16h1v1h-1zM19 16h1v1h-1zM20 16h1v1h-1zM21 16h1v1h-1zM22 16h1v1h-1zM2 17h1v1H2zM3 17h1v1H3zM4 17h1v1H4zM5 17h1v1H5zM6 17h1v1H6zM7 17h1v1H7zM8 17h1v1H8zM9 17h1v1H9zM10 17h1v1h-1zM11 17h1v1h-1zM12 17h1v1h-1zM13 17h1v1h-1zM14 17h1v1h-1zM15 17h1v1h-1zM16 17h1v1h-1zM17 17h1v1h-1zM18 17h1v1h-1zM19 17h1v1h-1zM20 17h1v1h-1zM21 17h1v1h-1zM11 18h1v1h-1zM12 18h1v1h-1zM11 19h1v1h-1zM12 19h1v1h-1zM7 20h1v1H7zM8 20h1v1H8zM9 20h1v1H9zM10 20h1v1h-1zM11 20h1v1h-1zM12 20h1v1h-1zM13 20h1v1h-1zM14 20h1v1h-1zM15 20h1v1h-1zM16 20h1v1h-1zM7 21h1v1H7zM8 21h1v1H8zM9 21h1v1H9zM10 21h1v1h-1zM11 21h1v1h-1zM12 21h1v1h-1zM13 21h1v1h-1zM14 21h1v1h-1zM15 21h1v1h-1zM16 21h1v1h-1z"/></svg>