<svg xmlns="http://www.w3.org/2000/svg" width="24" height="24" shape-rendering="crispEdges"><path d="M2 3h1v1H2zM3 3h1v1H3zM4 3h1v1H4zM5 3h1v1H5zM6 3h1v1H6zM7 3h1v1H7zM8 3h1v1H8zM9 3h1v1H9zM10 3h1v1h-1zM11 3h1v1h-1zM12 3h1v1h-1zM13 3h1v1h-1zM14 3h1v1h-1zM15 3h1v1h-1zM16 3h1v1h-1zM17 3h1v1h-1zM1 4h1v1H1zM2 4h1v1H2zM3 4h1v1H3zM4 4h1v1H4zM5 4h1v1H5zM6 4h1v1H6zM7 4h1v1H7zM8 4h1v1H8zM9 4h1v1H9zM10 4h1v1h-1zM11 4h1v1h-1zM12 4h1v1h-1zM13 4h1v1h-1zM14 4h1v1h-1zM15 4h1v1h-1zM16 4h1v1h-1zM17 4h1v1h-1zM18 4h1v1h-1zM1 5h1v1H1zM2 5h1v1H2zM17 5h1v1h-1zM18 5h1v1h-1zM1 6h1v1H1zM2 6h1v1H2zM17 6h1v1h-1zM18 6h1v1h-1zM1 7h1v1H1zM2 7h1v1H2zM17 7h1v1h-1zM18 7h1v1h-1zM1 8h1v1H1zM2 8h1v1H2zM17 8h1v1h-1zM18 8h1v1h-1zM1 9h1v1H1zM2 9h1v1H2zM1 10h1v1H1zM2 10h1v1H2zM1 11h1v1H1zM2 11h1v1H2zM16 11h1v1h-1zM17 11h1v1h-1zM18 11h1v1h-1zM19 11h1v1h-1zM20 11h1v1h-1zM21 11h1v1h-1zM1 12h1v1H1zM2 12h1v1H2zM15 12h1v1h-1zM16 12h1v1h-1zM17 12h1v1h-1zM18 12h1v1h-1zM19 12h1v1h-1zM20 12h1v1h-1zM21 12h1v1h-1zM22 12h1v1h-1zM1 13h1v1H1zM2 13h1v1H2zM15 13h1v1h-1zM16 13h1v1h-1zM21 13h1v1h-1zM22 13h1v1h-1zM1 14h1v1H1zM2 14h1v1H2zM3 14h1v1H3zM4 14h1v1H4zM5 14h1v1H5zM6 14h1v1H6zM7 14h1v1H7zM8 14h1v1H8zM9 14h1v1H9zM10 14h1v1h-1zM11 14h1v1h-1zM12 14h1v1h-1zM15 14h1v1h-1zM16 14h1v1h-1zM21 14h1v1h-1zM22 14h1v1h-1zM2 15h1v1H2zM3 15h1v1H3zM4 15h1v1H4zM5 15h1v1H5zM6 15h1v1H6zM7 15h1v1H7zM8 15h1v1H8zM9 15h1v1H9zM10 15h1v1h-1zM11 15h1v1h-1zM12 15h1v1h-1zM15 15h1v1h-1zM16 15h1v1h-1zM21 15h1v1h-1zM22 15h1v1h-1zM9 16h1v1H9zM10 16h1v1h-1zM15 16h1v1h-1zM16 16h1v1h-1zM21 16h1v1h-1zM22 16h1v1h-1zM9 17h1v1H9zM10 17h1v1h-1zM15 17h1v1h-1zM16 17h1v1h-1zM21 17h1v1h-1zM22 17h1v1h-1zM6 18h1v1H6zM7 18h1v1H7zM8 18h1v1H8zM9 18h1v1H9zM10 18h1v1h-1zM11 18h1v1h-1zM12 18h1v1h-1zM15 18h1v1h-1zM16 18h1v1h-1zM21 18h1v1h-1zM22 18h1v1h-1zM6 19h1v1H6zM7 19h1v1H7zM8 19h1v1H8zM9 19h1v1H9zM10 19h1v1h-1zM11 19h1v1h-1zM12 19h1v1h-1zM15 19h1v1h-1zM16 19h1v1h-1zM21 19h1v1h-1zM22 19h1v1h-1zM15 20h1v1h-1zM16 20h1v1h-1zM21 20h1v1h-1zM22 20h1v1h-1zM15 21h1v1h-1zM16 21h1v1h-1zM17 21h1v1h-1zM18 21h1v1h-1zM19 21h1v1h-1zM20 21h1v1h-1zM21 21h1v1h-1zM22 21h1v1h-1zM16 22h1v1h-1zM17 22h1v1h-1zM18 22h1v1h-1zM19 22h1v1h-1zM20 22h1v1h-1zM21 22h1v1h-1z"/></svg>