<svg xmlns="http://www.w3.org/2000/svg" width="24" height="24" shape-rendering="crispEdges"><path d="M7 1h1v1H7zM6 2h1v1H6zM7 2h1v1H7zM7 3h1v1H7zM8 3h1v1H8zM13 3h1v1h-1zM14 3h1v1h-1zM7 4h1v1H7zM8 4h1v1H8zM12 4h1v1h-1zM13 4h1v1h-1zM14 4h1v1h-1zM7 5h1v1H7zM8 5h1v1H8zM11 5h1v1h-1zM12 5h1v1h-1zM13 5h1v1h-1zM2 6h1v1H2zM11 6h1v1h-1zM12 6h1v1h-1zM1 7h1v1H1zM2 7h1v1H2zM3 7h1v1H3zM4 7h1v1H4zM5 7h1v1H5zM3 8h1v1H3zM4 8h1v1H4zM5 8h1v1H5zM9 8h1v1H9zM10 8h1v1h-1zM8 9h1v1H8zM9 9h1v1H9zM10 9h1v1h-1zM11 9h1v1h-1zM12 9h1v1h-1zM8 10h1v1H8zM9 10h1v1H9zM10 10h1v1h-1zM11 10h1v1h-1zM12 10h1v1h-1zM13 10h1v1h-1zM14 10h1v1h-1zM15 10h1v1h-1zM5 11h1v1H5zM6 11h1v1H6zM9 11h1v1H9zM10 11h1v1h-1zM13 11h1v1h-1zM14 11h1v1h-1zM15 11h1v1h-1zM16 11h1v1h-1zM17 11h1v1h-1zM4 12h1v1H4zM5 12h1v1H5zM6 12h1v1H6zM9 12h1v1H9zM10 12h1v1h-1zM16 12h1v1h-1zM17 12h1v1h-1zM18 12h1v1h-1zM19 12h1v1h-1zM20 12h1v1h-1zM3 13h1v1H3zM4 13h1v1H4zM5 13h1v1H5zM10 13h1v1h-1zM11 13h1v1h-1zM18 13h1v1h-1zM19 13h1v1h-1zM20 13h1v1h-1zM21 13h1v1h-1zM3 14h1v1H3zM4 14h1v1H4zM10 14h1v1h-1zM11 14h1v1h-1zM16 14h1v1h-1zM17 14h1v1h-1zM18 14h1v1h-1zM19 14h1v1h-1zM20 14h1v1h-1zM21 14h1v1h-1zM10 15h1v1h-1zM11 15h1v1h-1zM15 15h1v1h-1zM16 15h1v1h-1zM17 15h1v1h-1zM18 15h1v1h-1zM19 15h1v1h-1zM20 15h1v1h-1zM11 16h1v1h-1zM12 16h1v1h-1zM14 16h1v1h-1zM15 16h1v1h-1zM16 16h1v1h-1zM11 17h1v1h-1zM12 17h1v1h-1zM14 17h1v1h-1zM15 17h1v1h-1zM12 18h1v1h-1zM13 18h1v1h-1zM14 18h1v1h-1zM15 18h1v1h-1zM12 19h1v1h-1zM13 19h1v1h-1zM14 19h1v1h-1zM15 19h1v1h-1zM12 20h1v1h-1zM13 20h1v1h-1zM14 20h1v1h-1zM15 20h1v1h-1zM13 21h1v1h-1zM14 21h1v1h-1z"/></svg>