<svg xmlns="http://www.w3.org/2000/svg" width="24" height="24" shape-rendering="crispEdges"><path d="M4 3h1v1H4zM5 3h1v1H5zM3 4h1v1H3zM4 4h1v1H4zM5 4h1v1H5zM6 4h1v1H6zM7 4h1v1H7zM3 5h1v1H3zM4 5h1v1H4zM5 5h1v1H5zM6 5h1v1H6zM7 5h1v1H7zM8 5h1v1H8zM9 5h1v1H9zM10 5h1v1h-1zM4 6h1v1H4zM5 6h1v1H5zM8 6h1v1H8zM9 6h1v1H9zM10 6h1v1h-1zM11 6h1v1h-1zM12 6h1v1h-1zM4 7h1v1H4zM5 7h1v1H5zM11 7h1v1h-1zM12 7h1v1h-1zM13 7h1v1h-1zM14 7h1v1h-1zM15 7h1v1h-1zM5 8h1v1H5zM6 8h1v1H6zM13 8h1v1h-1zM14 8h1v1h-1zM15 8h1v1h-1zM16 8h1v1h-1zM17 8h1v1h-1zM5 9h1v1H5zM6 9h1v1H6zM15 9h1v1h-1zM16 9h1v1h-1zM17 9h1v1h-1zM18 9h1v1h-1zM19 9h1v1h-1zM20 9h1v1h-1zM5 10h1v1H5zM6 10h1v1H6zM18 10h1v1h-1zM19 10h1v1h-1zM20 10h1v1h-1zM21 10h1v1h-1zM6 11h1v1H6zM7 11h1v1H7zM17 11h1v1h-1zM18 11h1v1h-1zM19 11h1v1h-1zM20 11h1v1h-1zM21 11h1v1h-1zM6 12h1v1H6zM7 12h1v1H7zM14 12h1v1h-1zM15 12h1v1h-1zM16 12h1v1h-1zM17 12h1v1h-1zM18 12h1v1h-1zM19 12h1v1h-1zM20 12h1v1h-1zM7 13h1v1H7zM8 13h1v1H8zM13 13h1v1h-1zM14 13h1v1h-1zM15 13h1v1h-1zM16 13h1v1h-1zM7 14h1v1H7zM8 14h1v1H8zM12 14h1v1h-1zM13 14h1v1h-1zM7 15h1v1H7zM8 15h1v1H8zM9 15h1v1H9zM12 15h1v1h-1zM13 15h1v1h-1zM8 16h1v1H8zM9 16h1v1H9zM12 16h1v1h-1zM13 16h1v1h-1zM8 17h1v1H8zM9 17h1v1H9zM11 17h1v1h-1zM12 17h1v1h-1zM9 18h1v1H9zM10 18h1v1h-1zM11 18h1v1h-1zM12 18h1v1h-1zM9 19h1v1H9zM10 19h1v1h-1zM11 19h1v1h-1zM12 19h1v1h-1zM9 20h1v1H9zM10 20h1v1h-1zM11 20h1v1h-1zM12 20h1v1h-1zM10 21h1v1h-1zM11 21h1v1h-1z"/></svg>