<svg xmlns="http://www.w3.org/2000/svg" width="24" height="24" shape-rendering="crispEdges"><path d="M4 2h1v1H4zM5 2h1v1H5zM3 3h1v1H3zM4 3h1v1H4zM5 3h1v1H5zM6 3h1v1H6zM2 4h1v1H2zM3 4h1v1H3zM4 4h1v1H4zM5 4h1v1H5zM6 4h1v1H6zM7 4h1v1H7zM1 5h1v1H1zM2 5h1v1H2zM3 5h1v1H3zM4 5h1v1H4zM5 5h1v1H5zM6 5h1v1H6zM7 5h1v1H7zM8 5h1v1H8zM1 6h1v1H1zM2 6h1v1H2zM4 6h1v1H4zM5 6h1v1H5zM7 6h1v1H7zM8 6h1v1H8zM4 7h1v1H4zM5 7h1v1H5zM4 8h1v1H4zM5 8h1v1H5zM4 9h1v1H4zM5 9h1v1H5zM4 10h1v1H4zM5 10h1v1H5zM4 11h1v1H4zM5 11h1v1H5zM4 12h1v1H4zM5 12h1v1H5zM10 12h1v1h-1zM11 12h1v1h-1zM4 13h1v1H4zM5 13h1v1H5zM9 13h1v1H9zM10 13h1v1h-1zM11 13h1v1h-1zM4 14h1v1H4zM5 14h1v1H5zM8 14h1v1H8zM9 14h1v1H9zM10 14h1v1h-1zM4 15h1v1H4zM5 15h1v1H5zM7 15h1v1H7zM8 15h1v1H8zM9 15h1v1H9zM17 15h1v1h-1zM18 15h1v1h-1zM4 16h1v1H4zM5 16h1v1H5zM6 16h1v1H6zM7 16h1v1H7zM8 16h1v1H8zM17 16h1v1h-1zM18 16h1v1h-1zM19 16h1v1h-1zM4 17h1v1H4zM5 17h1v1H5zM6 17h1v1H6zM7 17h1v1H7zM18 17h1v1h-1zM19 17h1v1h-1zM20 17h1v1h-1zM4 18h1v1H4zM5 18h1v1H5zM6 18h1v1H6zM7 18h1v1H7zM8 18h1v1H8zM9 18h1v1H9zM10 18h1v1h-1zM11 18h1v1h-1zM12 18h1v1h-1zM13 18h1v1h-1zM14 18h1v1h-1zM15 18h1v1h-1zM16 18h1v1h-1zM17 18h1v1h-1zM18 18h1v1h-1zM19 18h1v1h-1zM20 18h1v1h-1zM21 18h1v1h-1zM4 19h1v1H4zM5 19h1v1H5zM6 19h1v1H6zM7 19h1v1H7zM8 19h1v1H8zM9 19h1v1H9zM10 19h1v1h-1zM11 19h1v1h-1zM12 19h1v1h-1zM13 19h1v1h-1zM14 19h1v1h-1zM15 19h1v1h-1zM16 19h1v1h-1zM17 19h1v1h-1zM18 19h1v1h-1zM19 19h1v1h-1zM20 19h1v1h-1zM21 19h1v1h-1zM18 20h1v1h-1zM19 20h1v1h-1zM20 20h1v1h-1zM17 21h1v1h-1zM18 21h1v1h-1zM19 21h1v1h-1zM17 22h1v1h-1zM18 22h1v1h-1z"/></svg>