<svg xmlns="http://www.w3.org/2000/svg" width="24" height="24" shape-rendering="crispEdges"><path d="M18 2h1v1h-1zM19 2h1v1h-1zM20 2h1v1h-1zM21 2h1v1h-1zM12 3h1v1h-1zM13 3h1v1h-1zM14 3h1v1h-1zM15 3h1v1h-1zM16 3h1v1h-1zM17 3h1v1h-1zM18 3h1v1h-1zM19 3h1v1h-1zM20 3h1v1h-1zM21 3h1v1h-1zM8 4h1v1H8zM9 4h1v1H9zM10 4h1v1h-1zM11 4h1v1h-1zM12 4h1v1h-1zM13 4h1v1h-1zM14 4h1v1h-1zM15 4h1v1h-1zM16 4h1v1h-1zM17 4h1v1h-1zM20 4h1v1h-1zM21 4h1v1h-1zM8 5h1v1H8zM9 5h1v1H9zM10 5h1v1h-1zM11 5h1v1h-1zM20 5h1v1h-1zM21 5h1v1h-1zM8 6h1v1H8zM9 6h1v1H9zM20 6h1v1h-1zM21 6h1v1h-1zM8 7h1v1H8zM9 7h1v1H9zM20 7h1v1h-1zM21 7h1v1h-1zM8 8h1v1H8zM9 8h1v1H9zM20 8h1v1h-1zM21 8h1v1h-1zM8 9h1v1H8zM9 9h1v1H9zM20 9h1v1h-1zM21 9h1v1h-1zM8 10h1v1H8zM9 10h1v1H9zM20 10h1v1h-1zM21 10h1v1h-1zM8 11h1v1H8zM9 11h1v1H9zM20 11h1v1h-1zM21 11h1v1h-1zM8 12h1v1H8zM9 12h1v1H9zM16 12h1v1h-1zM17 12h1v1h-1zM18 12h1v1h-1zM19 12h1v1h-1zM20 12h1v1h-1zM21 12h1v1h-1zM8 13h1v1H8zM9 13h1v1H9zM15 13h1v1h-1zM16 13h1v1h-1zM17 13h1v1h-1zM18 13h1v1h-1zM19 13h1v1h-1zM20 13h1v1h-1zM21 13h1v1h-1zM4 14h1v1H4zM5 14h1v1H5zM6 14h1v1H6zM7 14h1v1H7zM8 14h1v1H8zM9 14h1v1H9zM14 14h1v1h-1zM15 14h1v1h-1zM16 14h1v1h-1zM19 14h1v1h-1zM20 14h1v1h-1zM21 14h1v1h-1zM3 15h1v1H3zM4 15h1v1H4zM5 15h1v1H5zM6 15h1v1H6zM7 15h1v1H7zM8 15h1v1H8zM9 15h1v1H9zM14 15h1v1h-1zM15 15h1v1h-1zM20 15h1v1h-1zM21 15h1v1h-1zM2 16h1v1H2zM3 16h1v1H3zM4 16h1v1H4zM7 16h1v1H7zM8 16h1v1H8zM9 16h1v1H9zM14 16h1v1h-1zM15 16h1v1h-1zM20 16h1v1h-1zM21 16h1v1h-1zM2 17h1v1H2zM3 17h1v1H3zM8 17h1v1H8zM9 17h1v1H9zM14 17h1v1h-1zM15 17h1v1h-1zM16 17h1v1h-1zM19 17h1v1h-1zM20 17h1v1h-1zM21 17h1v1h-1zM2 18h1v1H2zM3 18h1v1H3zM8 18h1v1H8zM9 18h1v1H9zM15 18h1v1h-1zM16 18h1v1h-1zM17 18h1v1h-1zM18 18h1v1h-1zM19 18h1v1h-1zM20 18h1v1h-1zM2 19h1v1H2zM3 19h1v1H3zM4 19h1v1H4zM7 19h1v1H7zM8 19h1v1H8zM9 19h1v1H9zM16 19h1v1h-1zM17 19h1v1h-1zM18 19h1v1h-1zM19 19h1v1h-1zM3 20h1v1H3zM4 20h1v1H4zM5 20h1v1H5zM6 20h1v1H6zM7 20h1v1H7zM8 20h1v1H8zM4 21h1v1H4zM5 21h1v1H5zM6 21h1v1H6zM7 21h1v1H7z"/></svg>