<svg xmlns="http://www.w3.org/2000/svg" width="24" height="24" shape-rendering="crispEdges"><path d="M15 1h1v1h-1zM16 1h1v1h-1zM15 2h1v1h-1zM16 2h1v1h-1zM15 3h1v1h-1zM16 3h1v1h-1zM15 4h1v1h-1zM16 4h1v1h-1zM15 5h1v1h-1zM16 5h1v1h-1zM15 6h1v1h-1zM16 6h1v1h-1zM15 7h1v1h-1zM16 7h1v1h-1zM15 8h1v1h-1zM16 8h1v1h-1zM15 9h1v1h-1zM16 9h1v1h-1zM15 10h1v1h-1zM16 10h1v1h-1zM15 11h1v1h-1zM16 11h1v1h-1zM15 12h1v1h-1zM16 12h1v1h-1zM10 13h1v1h-1zM11 13h1v1h-1zM12 13h1v1h-1zM13 13h1v1h-1zM15 13h1v1h-1zM16 13h1v1h-1zM9 14h1v1H9zM10 14h1v1h-1zM11 14h1v1h-1zM12 14h1v1h-1zM13 14h1v1h-1zM14 14h1v1h-1zM15 14h1v1h-1zM16 14h1v1h-1zM8 15h1v1H8zM9 15h1v1H9zM14 15h1v1h-1zM15 15h1v1h-1zM16 15h1v1h-1zM7 16h1v1H7zM8 16h1v1H8zM15 16h1v1h-1zM16 16h1v1h-1zM7 17h1v1H7zM8 17h1v1H8zM15 17h1v1h-1zM16 17h1v1h-1zM7 18h1v1H7zM8 18h1v1H8zM15 18h1v1h-1zM16 18h1v1h-1zM7 19h1v1H7zM8 19h1v1H8zM15 19h1v1h-1zM16 19h1v1h-1zM8 20h1v1H8zM9 20h1v1H9zM14 20h1v1h-1zM15 20h1v1h-1zM8 21h1v1H8zM9 21h1v1H9zM10 21h1v1h-1zM11 21h1v1h-1zM12 21h1v1h-1zM13 21h1v1h-1zM14 21h1v1h-1zM10 22h1v1h-1zM11 22h1v1h-1zM12 22h1v1h-1zM13 22h1v1h-1z"/></svg>