<svg xmlns="http://www.w3.org/2000/svg" width="24" height="24" shape-rendering="crispEdges"><path d="M16 1h1v1h-1zM16 2h1v1h-1zM17 2h1v1h-1zM12 3h1v1h-1zM13 3h1v1h-1zM16 3h1v1h-1zM17 3h1v1h-1zM12 4h1v1h-1zM13 4h1v1h-1zM16 4h1v1h-1zM17 4h1v1h-1zM18 4h1v1h-1zM9 5h1v1H9zM12 5h1v1h-1zM13 5h1v1h-1zM14 5h1v1h-1zM17 5h1v1h-1zM18 5h1v1h-1zM9 6h1v1H9zM10 6h1v1h-1zM13 6h1v1h-1zM14 6h1v1h-1zM17 6h1v1h-1zM18 6h1v1h-1zM9 7h1v1H9zM10 7h1v1h-1zM13 7h1v1h-1zM14 7h1v1h-1zM17 7h1v1h-1zM18 7h1v1h-1zM19 7h1v1h-1zM5 8h1v1H5zM6 8h1v1H6zM9 8h1v1H9zM10 8h1v1h-1zM14 8h1v1h-1zM15 8h1v1h-1zM18 8h1v1h-1zM19 8h1v1h-1zM5 9h1v1H5zM6 9h1v1H6zM7 9h1v1H7zM10 9h1v1h-1zM11 9h1v1h-1zM14 9h1v1h-1zM15 9h1v1h-1zM18 9h1v1h-1zM19 9h1v1h-1zM6 10h1v1H6zM7 10h1v1H7zM10 10h1v1h-1zM11 10h1v1h-1zM14 10h1v1h-1zM15 10h1v1h-1zM18 10h1v1h-1zM19 10h1v1h-1zM6 11h1v1H6zM7 11h1v1H7zM10 11h1v1h-1zM11 11h1v1h-1zM14 11h1v1h-1zM15 11h1v1h-1zM18 11h1v1h-1zM19 11h1v1h-1zM6 12h1v1H6zM7 12h1v1H7zM10 12h1v1h-1zM11 12h1v1h-1zM14 12h1v1h-1zM15 12h1v1h-1zM18 12h1v1h-1zM19 12h1v1h-1zM6 13h1v1H6zM7 13h1v1H7zM10 13h1v1h-1zM11 13h1v1h-1zM14 13h1v1h-1zM15 13h1v1h-1zM18 13h1v1h-1zM19 13h1v1h-1zM5 14h1v1H5zM6 14h1v1H6zM7 14h1v1H7zM10 14h1v1h-1zM11 14h1v1h-1zM14 14h1v1h-1zM15 14h1v1h-1zM18 14h1v1h-1zM19 14h1v1h-1zM5 15h1v1H5zM6 15h1v1H6zM9 15h1v1H9zM10 15h1v1h-1zM14 15h1v1h-1zM15 15h1v1h-1zM18 15h1v1h-1zM19 15h1v1h-1zM9 16h1v1H9zM10 16h1v1h-1zM13 16h1v1h-1zM14 16h1v1h-1zM17 16h1v1h-1zM18 16h1v1h-1zM9 17h1v1H9zM10 17h1v1h-1zM13 17h1v1h-1zM14 17h1v1h-1zM17 17h1v1h-1zM18 17h1v1h-1zM9 18h1v1H9zM12 18h1v1h-1zM13 18h1v1h-1zM14 18h1v1h-1zM17 18h1v1h-1zM18 18h1v1h-1zM12 19h1v1h-1zM13 19h1v1h-1zM16 19h1v1h-1zM17 19h1v1h-1zM18 19h1v1h-1zM12 20h1v1h-1zM13 20h1v1h-1zM16 20h1v1h-1zM17 20h1v1h-1zM16 21h1v1h-1zM17 21h1v1h-1zM16 22h1v1h-1z"/></svg>