<svg xmlns="http://www.w3.org/2000/svg" width="24" height="24" shape-rendering="crispEdges"><path d="M11 1h1v1h-1zM12 1h1v1h-1zM11 2h1v1h-1zM12 2h1v1h-1zM8 3h1v1H8zM9 3h1v1H9zM11 3h1v1h-1zM12 3h1v1h-1zM14 3h1v1h-1zM15 3h1v1h-1zM8 4h1v1H8zM9 4h1v1H9zM10 4h1v1h-1zM11 4h1v1h-1zM12 4h1v1h-1zM13 4h1v1h-1zM14 4h1v1h-1zM15 4h1v1h-1zM9 5h1v1H9zM10 5h1v1h-1zM11 5h1v1h-1zM12 5h1v1h-1zM13 5h1v1h-1zM14 5h1v1h-1zM9 6h1v1H9zM10 6h1v1h-1zM11 6h1v1h-1zM12 6h1v1h-1zM13 6h1v1h-1zM14 6h1v1h-1zM8 7h1v1H8zM9 7h1v1H9zM10 7h1v1h-1zM11 7h1v1h-1zM12 7h1v1h-1zM13 7h1v1h-1zM14 7h1v1h-1zM15 7h1v1h-1zM8 8h1v1H8zM9 8h1v1H9zM11 8h1v1h-1zM12 8h1v1h-1zM14 8h1v1h-1zM15 8h1v1h-1zM11 9h1v1h-1zM12 9h1v1h-1zM11 10h1v1h-1zM12 10h1v1h-1zM10 11h1v1h-1zM11 11h1v1h-1zM12 11h1v1h-1zM13 11h1v1h-1zM8 12h1v1H8zM9 12h1v1H9zM10 12h1v1h-1zM11 12h1v1h-1zM12 12h1v1h-1zM13 12h1v1h-1zM14 12h1v1h-1zM15 12h1v1h-1zM7 13h1v1H7zM8 13h1v1H8zM9 13h1v1H9zM14 13h1v1h-1zM15 13h1v1h-1zM16 13h1v1h-1zM7 14h1v1H7zM8 14h1v1H8zM15 14h1v1h-1zM16 14h1v1h-1zM6 15h1v1H6zM7 15h1v1H7zM16 15h1v1h-1zM17 15h1v1h-1zM6 16h1v1H6zM7 16h1v1H7zM16 16h1v1h-1zM17 16h1v1h-1zM6 17h1v1H6zM7 17h1v1H7zM16 17h1v1h-1zM17 17h1v1h-1zM6 18h1v1H6zM7 18h1v1H7zM16 18h1v1h-1zM17 18h1v1h-1zM7 19h1v1H7zM8 19h1v1H8zM15 19h1v1h-1zM16 19h1v1h-1zM7 20h1v1H7zM8 20h1v1H8zM9 20h1v1H9zM14 20h1v1h-1zM15 20h1v1h-1zM16 20h1v1h-1zM8 21h1v1H8zM9 21h1v1H9zM10 21h1v1h-1zM11 21h1v1h-1zM12 21h1v1h-1zM13 21h1v1h-1zM14 21h1v1h-1zM15 21h1v1h-1zM10 22h1v1h-1zM11 22h1v1h-1zM12 22h1v1h-1zM13 22h1v1h-1z"/></svg>