<svg xmlns="http://www.w3.org/2000/svg" width="24" height="24" shape-rendering="crispEdges"><path d="M4 1h1v1H4zM5 1h1v1H5zM4 2h1v1H4zM5 2h1v1H5zM6 2h1v1H6zM10 2h1v1h-1zM11 2h1v1h-1zM5 3h1v1H5zM6 3h1v1H6zM7 3h1v1H7zM9 3h1v1H9zM10 3h1v1h-1zM11 3h1v1h-1zM12 3h1v1h-1zM6 4h1v1H6zM7 4h1v1H7zM8 4h1v1H8zM9 4h1v1H9zM10 4h1v1h-1zM11 4h1v1h-1zM12 4h1v1h-1zM13 4h1v1h-1zM7 5h1v1H7zM8 5h1v1H8zM9 5h1v1H9zM12 5h1v1h-1zM13 5h1v1h-1zM14 5h1v1h-1zM6 6h1v1H6zM7 6h1v1H7zM8 6h1v1H8zM9 6h1v1H9zM10 6h1v1h-1zM13 6h1v1h-1zM14 6h1v1h-1zM15 6h1v1h-1zM5 7h1v1H5zM6 7h1v1H6zM7 7h1v1H7zM9 7h1v1H9zM10 7h1v1h-1zM14 7h1v1h-1zM15 7h1v1h-1zM16 7h1v1h-1zM4 8h1v1H4zM5 8h1v1H5zM6 8h1v1H6zM15 8h1v1h-1zM16 8h1v1h-1zM17 8h1v1h-1zM3 9h1v1H3zM4 9h1v1H4zM5 9h1v1H5zM16 9h1v1h-1zM17 9h1v1h-1zM18 9h1v1h-1zM2 10h1v1H2zM3 10h1v1H3zM4 10h1v1H4zM17 10h1v1h-1zM18 10h1v1h-1zM19 10h1v1h-1zM1 11h1v1H1zM2 11h1v1H2zM3 11h1v1H3zM17 11h1v1h-1zM18 11h1v1h-1zM19 11h1v1h-1zM1 12h1v1H1zM2 12h1v1H2zM3 12h1v1H3zM4 12h1v1H4zM5 12h1v1H5zM6 12h1v1H6zM7 12h1v1H7zM8 12h1v1H8zM9 12h1v1H9zM10 12h1v1h-1zM11 12h1v1h-1zM12 12h1v1h-1zM13 12h1v1h-1zM14 12h1v1h-1zM15 12h1v1h-1zM16 12h1v1h-1zM17 12h1v1h-1zM18 12h1v1h-1zM1 13h1v1H1zM2 13h1v1H2zM3 13h1v1H3zM4 13h1v1H4zM5 13h1v1H5zM6 13h1v1H6zM7 13h1v1H7zM8 13h1v1H8zM9 13h1v1H9zM10 13h1v1h-1zM11 13h1v1h-1zM12 13h1v1h-1zM13 13h1v1h-1zM14 13h1v1h-1zM15 13h1v1h-1zM16 13h1v1h-1zM17 13h1v1h-1zM1 14h1v1H1zM2 14h1v1H2zM3 14h1v1H3zM14 14h1v1h-1zM15 14h1v1h-1zM16 14h1v1h-1zM2 15h1v1H2zM3 15h1v1H3zM4 15h1v1H4zM13 15h1v1h-1zM14 15h1v1h-1zM15 15h1v1h-1zM19 15h1v1h-1zM20 15h1v1h-1zM3 16h1v1H3zM4 16h1v1H4zM5 16h1v1H5zM12 16h1v1h-1zM13 16h1v1h-1zM14 16h1v1h-1zM19 16h1v1h-1zM20 16h1v1h-1zM4 17h1v1H4zM5 17h1v1H5zM6 17h1v1H6zM11 17h1v1h-1zM12 17h1v1h-1zM13 17h1v1h-1zM18 17h1v1h-1zM19 17h1v1h-1zM20 17h1v1h-1zM21 17h1v1h-1zM5 18h1v1H5zM6 18h1v1H6zM7 18h1v1H7zM10 18h1v1h-1zM11 18h1v1h-1zM12 18h1v1h-1zM17 18h1v1h-1zM18 18h1v1h-1zM19 18h1v1h-1zM20 18h1v1h-1zM21 18h1v1h-1zM22 18h1v1h-1zM6 19h1v1H6zM7 19h1v1H7zM8 19h1v1H8zM9 19h1v1H9zM10 19h1v1h-1zM11 19h1v1h-1zM17 19h1v1h-1zM18 19h1v1h-1zM21 19h1v1h-1zM22 19h1v1h-1zM7 20h1v1H7zM8 20h1v1H8zM9 20h1v1H9zM10 20h1v1h-1zM17 20h1v1h-1zM18 20h1v1h-1zM21 20h1v1h-1zM22 20h1v1h-1zM17 21h1v1h-1zM18 21h1v1h-1zM19 21h1v1h-1zM20 21h1v1h-1zM21 21h1v1h-1zM22 21h1v1h-1zM18 22h1v1h-1zM19 22h1v1h-1zM20 22h1v1h-1zM21 22h1v1h-1z"/></svg>