<svg xmlns="http://www.w3.org/2000/svg" width="24" height="24" shape-rendering="crispEdges"><path d="M18 1h1v1h-1zM19 1h1v1h-1zM20 1h1v1h-1zM17 2h1v1h-1zM18 2h1v1h-1zM19 2h1v1h-1zM20 2h1v1h-1zM21 2h1v1h-1zM16 3h1v1h-1zM17 3h1v1h-1zM18 3h1v1h-1zM21 3h1v1h-1zM22 3h1v1h-1zM9 4h1v1H9zM10 4h1v1h-1zM11 4h1v1h-1zM12 4h1v1h-1zM15 4h1v1h-1zM16 4h1v1h-1zM17 4h1v1h-1zM21 4h1v1h-1zM22 4h1v1h-1zM8 5h1v1H8zM9 5h1v1H9zM10 5h1v1h-1zM11 5h1v1h-1zM12 5h1v1h-1zM13 5h1v1h-1zM14 5h1v1h-1zM15 5h1v1h-1zM16 5h1v1h-1zM20 5h1v1h-1zM21 5h1v1h-1zM22 5h1v1h-1zM7 6h1v1H7zM8 6h1v1H8zM9 6h1v1H9zM12 6h1v1h-1zM13 6h1v1h-1zM14 6h1v1h-1zM15 6h1v1h-1zM19 6h1v1h-1zM20 6h1v1h-1zM21 6h1v1h-1zM7 7h1v1H7zM8 7h1v1H8zM9 7h1v1H9zM13 7h1v1h-1zM14 7h1v1h-1zM18 7h1v1h-1zM19 7h1v1h-1zM20 7h1v1h-1zM7 8h1v1H7zM8 8h1v1H8zM9 8h1v1H9zM10 8h1v1h-1zM17 8h1v1h-1zM18 8h1v1h-1zM19 8h1v1h-1zM6 9h1v1H6zM7 9h1v1H7zM8 9h1v1H8zM9 9h1v1H9zM10 9h1v1h-1zM11 9h1v1h-1zM16 9h1v1h-1zM17 9h1v1h-1zM18 9h1v1h-1zM4 10h1v1H4zM5 10h1v1H5zM6 10h1v1H6zM7 10h1v1H7zM10 10h1v1h-1zM11 10h1v1h-1zM12 10h1v1h-1zM16 10h1v1h-1zM17 10h1v1h-1zM18 10h1v1h-1zM2 11h1v1H2zM3 11h1v1H3zM4 11h1v1H4zM5 11h1v1H5zM6 11h1v1H6zM11 11h1v1h-1zM12 11h1v1h-1zM13 11h1v1h-1zM17 11h1v1h-1zM18 11h1v1h-1zM19 11h1v1h-1zM1 12h1v1H1zM2 12h1v1H2zM3 12h1v1H3zM12 12h1v1h-1zM13 12h1v1h-1zM14 12h1v1h-1zM18 12h1v1h-1zM19 12h1v1h-1zM2 13h1v1H2zM3 13h1v1H3zM13 13h1v1h-1zM14 13h1v1h-1zM15 13h1v1h-1zM18 13h1v1h-1zM19 13h1v1h-1zM2 14h1v1H2zM3 14h1v1H3zM4 14h1v1H4zM5 14h1v1H5zM14 14h1v1h-1zM15 14h1v1h-1zM16 14h1v1h-1zM17 14h1v1h-1zM18 14h1v1h-1zM19 14h1v1h-1zM3 15h1v1H3zM4 15h1v1H4zM5 15h1v1H5zM6 15h1v1H6zM7 15h1v1H7zM8 15h1v1H8zM9 15h1v1H9zM15 15h1v1h-1zM16 15h1v1h-1zM17 15h1v1h-1zM18 15h1v1h-1zM4 16h1v1H4zM5 16h1v1H5zM6 16h1v1H6zM7 16h1v1H7zM8 16h1v1H8zM9 16h1v1H9zM10 16h1v1h-1zM11 16h1v1h-1zM12 16h1v1h-1zM14 16h1v1h-1zM15 16h1v1h-1zM16 16h1v1h-1zM17 16h1v1h-1zM5 17h1v1H5zM6 17h1v1H6zM9 17h1v1H9zM10 17h1v1h-1zM11 17h1v1h-1zM12 17h1v1h-1zM13 17h1v1h-1zM14 17h1v1h-1zM15 17h1v1h-1zM6 18h1v1H6zM7 18h1v1H7zM12 18h1v1h-1zM13 18h1v1h-1zM14 18h1v1h-1zM15 18h1v1h-1zM6 19h1v1H6zM7 19h1v1H7zM8 19h1v1H8zM12 19h1v1h-1zM13 19h1v1h-1zM14 19h1v1h-1zM7 20h1v1H7zM8 20h1v1H8zM9 20h1v1H9zM11 20h1v1h-1zM12 20h1v1h-1zM13 20h1v1h-1zM8 21h1v1H8zM9 21h1v1H9zM10 21h1v1h-1zM11 21h1v1h-1zM12 21h1v1h-1zM9 22h1v1H9zM10 22h1v1h-1z"/></svg>