<svg xmlns="http://www.w3.org/2000/svg" width="24" height="24" shape-rendering="crispEdges"><path d="M3 2h1v1H3zM4 2h1v1H4zM5 2h1v1H5zM6 2h1v1H6zM7 2h1v1H7zM8 2h1v1H8zM9 2h1v1H9zM10 2h1v1h-1zM11 2h1v1h-1zM12 2h1v1h-1zM13 2h1v1h-1zM14 2h1v1h-1zM15 2h1v1h-1zM16 2h1v1h-1zM17 2h1v1h-1zM18 2h1v1h-1zM19 2h1v1h-1zM20 2h1v1h-1zM2 3h1v1H2zM3 3h1v1H3zM4 3h1v1H4zM5 3h1v1H5zM6 3h1v1H6zM7 3h1v1H7zM8 3h1v1H8zM9 3h1v1H9zM10 3h1v1h-1zM11 3h1v1h-1zM12 3h1v1h-1zM13 3h1v1h-1zM14 3h1v1h-1zM15 3h1v1h-1zM16 3h1v1h-1zM17 3h1v1h-1zM18 3h1v1h-1zM19 3h1v1h-1zM20 3h1v1h-1zM21 3h1v1h-1zM2 4h1v1H2zM3 4h1v1H3zM8 4h1v1H8zM9 4h1v1H9zM20 4h1v1h-1zM21 4h1v1h-1zM2 5h1v1H2zM3 5h1v1H3zM8 5h1v1H8zM9 5h1v1H9zM20 5h1v1h-1zM21 5h1v1h-1zM2 6h1v1H2zM3 6h1v1H3zM8 6h1v1H8zM9 6h1v1H9zM20 6h1v1h-1zM21 6h1v1h-1zM2 7h1v1H2zM3 7h1v1H3zM8 7h1v1H8zM9 7h1v1H9zM20 7h1v1h-1zM21 7h1v1h-1zM2 8h1v1H2zM3 8h1v1H3zM8 8h1v1H8zM9 8h1v1H9zM20 8h1v1h-1zM21 8h1v1h-1zM2 9h1v1H2zM3 9h1v1H3zM8 9h1v1H8zM9 9h1v1H9zM20 9h1v1h-1zM21 9h1v1h-1zM2 10h1v1H2zM3 10h1v1H3zM8 10h1v1H8zM9 10h1v1H9zM20 10h1v1h-1zM21 10h1v1h-1zM2 11h1v1H2zM3 11h1v1H3zM8 11h1v1H8zM9 11h1v1H9zM20 11h1v1h-1zM21 11h1v1h-1zM2 12h1v1H2zM3 12h1v1H3zM8 12h1v1H8zM9 12h1v1H9zM20 12h1v1h-1zM21 12h1v1h-1zM2 13h1v1H2zM3 13h1v1H3zM8 13h1v1H8zM9 13h1v1H9zM20 13h1v1h-1zM21 13h1v1h-1zM2 14h1v1H2zM3 14h1v1H3zM8 14h1v1H8zM9 14h1v1H9zM20 14h1v1h-1zM21 14h1v1h-1zM2 15h1v1H2zM3 15h1v1H3zM8 15h1v1H8zM9 15h1v1H9zM20 15h1v1h-1zM21 15h1v1h-1zM2 16h1v1H2zM3 16h1v1H3zM8 16h1v1H8zM9 16h1v1H9zM20 16h1v1h-1zM21 16h1v1h-1zM2 17h1v1H2zM3 17h1v1H3zM8 17h1v1H8zM9 17h1v1H9zM20 17h1v1h-1zM21 17h1v1h-1zM2 18h1v1H2zM3 18h1v1H3zM8 18h1v1H8zM9 18h1v1H9zM20 18h1v1h-1zM21 18h1v1h-1zM2 19h1v1H2zM3 19h1v1H3zM8 19h1v1H8zM9 19h1v1H9zM20 19h1v1h-1zM21 19h1v1h-1zM2 20h1v1H2zM3 20h1v1H3zM4 20h1v1H4zM5 20h1v1H5zM6 20h1v1H6zM7 20h1v1H7zM8 20h1v1H8zM9 20h1v1H9zM10 20h1v1h-1zM11 20h1v1h-1zM12 20h1v1h-1zM13 20h1v1h-1zM14 20h1v1h-1zM15 20h1v1h-1zM16 20h1v1h-1zM17 20h1v1h-1zM18 20h1v1h-1zM19 20h1v1h-1zM20 20h1v1h-1zM21 20h1v1h-1zM3 21h1v1H3zM4 21h1v1H4zM5 21h1v1H5zM6 21h1v1H6zM7 21h1v1H7zM8 21h1v1H8zM9 21h1v1H9zM10 21h1v1h-1zM11 21h1v1h-1zM12 21h1v1h-1zM13 21h1v1h-1zM14 21h1v1h-1zM15 21h1v1h-1zM16 21h1v1h-1zM17 21h1v1h-1zM18 21h1v1h-1zM19 21h1v1h-1zM20 21h1v1h-1z"/></svg>