<svg xmlns="http://www.w3.org/2000/svg" width="24" height="24" shape-rendering="crispEdges"><path d="M10 1h1v1h-1zM11 1h1v1h-1zM14 1h1v1h-1zM15 1h1v1h-1zM20 1h1v1h-1zM21 1h1v1h-1zM22 1h1v1h-1zM3 2h1v1H3zM4 2h1v1H4zM10 2h1v1h-1zM11 2h1v1h-1zM14 2h1v1h-1zM15 2h1v1h-1zM18 2h1v1h-1zM19 2h1v1h-1zM20 2h1v1h-1zM21 2h1v1h-1zM22 2h1v1h-1zM3 3h1v1H3zM4 3h1v1H4zM10 3h1v1h-1zM11 3h1v1h-1zM17 3h1v1h-1zM18 3h1v1h-1zM19 3h1v1h-1zM20 3h1v1h-1zM9 4h1v1H9zM10 4h1v1h-1zM11 4h1v1h-1zM17 4h1v1h-1zM18 4h1v1h-1zM8 5h1v1H8zM9 5h1v1H9zM10 5h1v1h-1zM17 5h1v1h-1zM18 5h1v1h-1zM8 6h1v1H8zM9 6h1v1H9zM16 6h1v1h-1zM17 6h1v1h-1zM18 6h1v1h-1zM8 7h1v1H8zM9 7h1v1H9zM14 7h1v1h-1zM15 7h1v1h-1zM16 7h1v1h-1zM17 7h1v1h-1zM21 7h1v1h-1zM22 7h1v1h-1zM13 8h1v1h-1zM14 8h1v1h-1zM15 8h1v1h-1zM21 8h1v1h-1zM22 8h1v1h-1zM13 9h1v1h-1zM14 9h1v1h-1zM5 10h1v1H5zM6 10h1v1H6zM7 10h1v1H7zM8 10h1v1H8zM13 10h1v1h-1zM14 10h1v1h-1zM5 11h1v1H5zM6 11h1v1H6zM7 11h1v1H7zM8 11h1v1H8zM9 11h1v1H9zM10 11h1v1h-1zM4 12h1v1H4zM5 12h1v1H5zM6 12h1v1H6zM9 12h1v1H9zM10 12h1v1h-1zM11 12h1v1h-1zM19 12h1v1h-1zM20 12h1v1h-1zM21 12h1v1h-1zM22 12h1v1h-1zM4 13h1v1H4zM5 13h1v1H5zM6 13h1v1H6zM10 13h1v1h-1zM11 13h1v1h-1zM12 13h1v1h-1zM18 13h1v1h-1zM19 13h1v1h-1zM20 13h1v1h-1zM21 13h1v1h-1zM22 13h1v1h-1zM4 14h1v1H4zM5 14h1v1H5zM6 14h1v1H6zM7 14h1v1H7zM11 14h1v1h-1zM12 14h1v1h-1zM16 14h1v1h-1zM17 14h1v1h-1zM18 14h1v1h-1zM19 14h1v1h-1zM3 15h1v1H3zM4 15h1v1H4zM6 15h1v1H6zM7 15h1v1H7zM8 15h1v1H8zM12 15h1v1h-1zM13 15h1v1h-1zM16 15h1v1h-1zM17 15h1v1h-1zM18 15h1v1h-1zM3 16h1v1H3zM4 16h1v1H4zM7 16h1v1H7zM8 16h1v1H8zM9 16h1v1H9zM12 16h1v1h-1zM13 16h1v1h-1zM3 17h1v1H3zM4 17h1v1H4zM8 17h1v1H8zM9 17h1v1H9zM10 17h1v1h-1zM11 17h1v1h-1zM12 17h1v1h-1zM13 17h1v1h-1zM2 18h1v1H2zM3 18h1v1H3zM9 18h1v1H9zM10 18h1v1h-1zM11 18h1v1h-1zM12 18h1v1h-1zM13 18h1v1h-1zM2 19h1v1H2zM3 19h1v1H3zM6 19h1v1H6zM7 19h1v1H7zM8 19h1v1H8zM9 19h1v1H9zM10 19h1v1h-1zM11 19h1v1h-1zM21 19h1v1h-1zM22 19h1v1h-1zM1 20h1v1H1zM2 20h1v1H2zM3 20h1v1H3zM4 20h1v1H4zM5 20h1v1H5zM6 20h1v1H6zM7 20h1v1H7zM8 20h1v1H8zM21 20h1v1h-1zM22 20h1v1h-1zM1 21h1v1H1zM2 21h1v1H2zM3 21h1v1H3zM4 21h1v1H4zM5 21h1v1H5zM1 22h1v1H1zM2 22h1v1H2zM3 22h1v1H3z"/></svg>