<svg xmlns="http://www.w3.org/2000/svg" width="24" height="24" shape-rendering="crispEdges"><path d="M5 1h1v1H5zM6 1h1v1H6zM7 1h1v1H7zM8 1h1v1H8zM9 1h1v1H9zM10 1h1v1h-1zM11 1h1v1h-1zM12 1h1v1h-1zM13 1h1v1h-1zM14 1h1v1h-1zM15 1h1v1h-1zM16 1h1v1h-1zM17 1h1v1h-1zM18 1h1v1h-1zM4 2h1v1H4zM5 2h1v1H5zM6 2h1v1H6zM7 2h1v1H7zM8 2h1v1H8zM9 2h1v1H9zM10 2h1v1h-1zM11 2h1v1h-1zM12 2h1v1h-1zM13 2h1v1h-1zM14 2h1v1h-1zM15 2h1v1h-1zM16 2h1v1h-1zM17 2h1v1h-1zM18 2h1v1h-1zM19 2h1v1h-1zM4 3h1v1H4zM5 3h1v1H5zM18 3h1v1h-1zM19 3h1v1h-1zM4 4h1v1H4zM5 4h1v1H5zM18 4h1v1h-1zM19 4h1v1h-1zM4 5h1v1H4zM5 5h1v1H5zM8 5h1v1H8zM9 5h1v1H9zM10 5h1v1h-1zM11 5h1v1h-1zM12 5h1v1h-1zM13 5h1v1h-1zM14 5h1v1h-1zM15 5h1v1h-1zM18 5h1v1h-1zM19 5h1v1h-1zM4 6h1v1H4zM5 6h1v1H5zM8 6h1v1H8zM9 6h1v1H9zM10 6h1v1h-1zM11 6h1v1h-1zM12 6h1v1h-1zM13 6h1v1h-1zM14 6h1v1h-1zM15 6h1v1h-1zM18 6h1v1h-1zM19 6h1v1h-1zM4 7h1v1H4zM5 7h1v1H5zM18 7h1v1h-1zM19 7h1v1h-1zM4 8h1v1H4zM5 8h1v1H5zM18 8h1v1h-1zM19 8h1v1h-1zM4 9h1v1H4zM5 9h1v1H5zM8 9h1v1H8zM9 9h1v1H9zM10 9h1v1h-1zM11 9h1v1h-1zM12 9h1v1h-1zM13 9h1v1h-1zM14 9h1v1h-1zM15 9h1v1h-1zM18 9h1v1h-1zM19 9h1v1h-1zM4 10h1v1H4zM5 10h1v1H5zM8 10h1v1H8zM9 10h1v1H9zM10 10h1v1h-1zM11 10h1v1h-1zM12 10h1v1h-1zM13 10h1v1h-1zM14 10h1v1h-1zM15 10h1v1h-1zM18 10h1v1h-1zM19 10h1v1h-1zM4 11h1v1H4zM5 11h1v1H5zM18 11h1v1h-1zM19 11h1v1h-1zM4 12h1v1H4zM5 12h1v1H5zM18 12h1v1h-1zM19 12h1v1h-1zM4 13h1v1H4zM5 13h1v1H5zM14 13h1v1h-1zM15 13h1v1h-1zM18 13h1v1h-1zM19 13h1v1h-1zM4 14h1v1H4zM5 14h1v1H5zM14 14h1v1h-1zM15 14h1v1h-1zM18 14h1v1h-1zM19 14h1v1h-1zM4 15h1v1H4zM5 15h1v1H5zM18 15h1v1h-1zM19 15h1v1h-1zM4 16h1v1H4zM5 16h1v1H5zM18 16h1v1h-1zM19 16h1v1h-1zM4 17h1v1H4zM5 17h1v1H5zM18 17h1v1h-1zM19 17h1v1h-1zM4 18h1v1H4zM5 18h1v1H5zM18 18h1v1h-1zM19 18h1v1h-1zM4 19h1v1H4zM5 19h1v1H5zM18 19h1v1h-1zM19 19h1v1h-1zM4 20h1v1H4zM5 20h1v1H5zM18 20h1v1h-1zM19 20h1v1h-1zM4 21h1v1H4zM5 21h1v1H5zM6 21h1v1H6zM7 21h1v1H7zM8 21h1v1H8zM9 21h1v1H9zM10 21h1v1h-1zM11 21h1v1h-1zM12 21h1v1h-1zM13 21h1v1h-1zM14 21h1v1h-1zM15 21h1v1h-1zM16 21h1v1h-1zM17 21h1v1h-1zM18 21h1v1h-1zM19 21h1v1h-1zM5 22h1v1H5zM6 22h1v1H6zM7 22h1v1H7zM8 22h1v1H8zM9 22h1v1H9zM10 22h1v1h-1zM11 22h1v1h-1zM12 22h1v1h-1zM13 22h1v1h-1zM14 22h1v1h-1zM15 22h1v1h-1zM16 22h1v1h-1zM17 22h1v1h-1zM18 22h1v1h-1z"/></svg>