<svg xmlns="http://www.w3.org/2000/svg" width="24" height="24" shape-rendering="crispEdges"><path d="M17 1h1v1h-1zM18 1h1v1h-1zM19 1h1v1h-1zM20 1h1v1h-1zM16 2h1v1h-1zM17 2h1v1h-1zM18 2h1v1h-1zM19 2h1v1h-1zM20 2h1v1h-1zM21 2h1v1h-1zM15 3h1v1h-1zM16 3h1v1h-1zM17 3h1v1h-1zM20 3h1v1h-1zM21 3h1v1h-1zM22 3h1v1h-1zM14 4h1v1h-1zM15 4h1v1h-1zM16 4h1v1h-1zM21 4h1v1h-1zM22 4h1v1h-1zM13 5h1v1h-1zM14 5h1v1h-1zM15 5h1v1h-1zM16 5h1v1h-1zM21 5h1v1h-1zM22 5h1v1h-1zM12 6h1v1h-1zM13 6h1v1h-1zM14 6h1v1h-1zM15 6h1v1h-1zM16 6h1v1h-1zM17 6h1v1h-1zM20 6h1v1h-1zM21 6h1v1h-1zM22 6h1v1h-1zM11 7h1v1h-1zM12 7h1v1h-1zM13 7h1v1h-1zM16 7h1v1h-1zM17 7h1v1h-1zM18 7h1v1h-1zM19 7h1v1h-1zM20 7h1v1h-1zM21 7h1v1h-1zM10 8h1v1h-1zM11 8h1v1h-1zM12 8h1v1h-1zM17 8h1v1h-1zM18 8h1v1h-1zM19 8h1v1h-1zM20 8h1v1h-1zM9 9h1v1H9zM10 9h1v1h-1zM11 9h1v1h-1zM17 9h1v1h-1zM18 9h1v1h-1zM19 9h1v1h-1zM8 10h1v1H8zM9 10h1v1H9zM10 10h1v1h-1zM16 10h1v1h-1zM17 10h1v1h-1zM18 10h1v1h-1zM7 11h1v1H7zM8 11h1v1H8zM9 11h1v1H9zM15 11h1v1h-1zM16 11h1v1h-1zM17 11h1v1h-1zM6 12h1v1H6zM7 12h1v1H7zM8 12h1v1H8zM14 12h1v1h-1zM15 12h1v1h-1zM16 12h1v1h-1zM5 13h1v1H5zM6 13h1v1H6zM7 13h1v1H7zM13 13h1v1h-1zM14 13h1v1h-1zM15 13h1v1h-1zM4 14h1v1H4zM5 14h1v1H5zM6 14h1v1H6zM12 14h1v1h-1zM13 14h1v1h-1zM14 14h1v1h-1zM3 15h1v1H3zM4 15h1v1H4zM5 15h1v1H5zM11 15h1v1h-1zM12 15h1v1h-1zM13 15h1v1h-1zM3 16h1v1H3zM4 16h1v1H4zM10 16h1v1h-1zM11 16h1v1h-1zM12 16h1v1h-1zM2 17h1v1H2zM3 17h1v1H3zM9 17h1v1H9zM10 17h1v1h-1zM11 17h1v1h-1zM2 18h1v1H2zM3 18h1v1H3zM8 18h1v1H8zM9 18h1v1H9zM10 18h1v1h-1zM2 19h1v1H2zM3 19h1v1H3zM7 19h1v1H7zM8 19h1v1H8zM9 19h1v1H9zM1 20h1v1H1zM2 20h1v1H2zM3 20h1v1H3zM4 20h1v1H4zM5 20h1v1H5zM6 20h1v1H6zM7 20h1v1H7zM8 20h1v1H8zM1 21h1v1H1zM2 21h1v1H2zM3 21h1v1H3zM4 21h1v1H4zM5 21h1v1H5zM6 21h1v1H6zM2 22h1v1H2zM3 22h1v1H3z"/></svg>