<svg xmlns="http://www.w3.org/2000/svg" width="24" height="24" shape-rendering="crispEdges"><path d="M9 2h1v1H9zM10 2h1v1h-1zM11 2h1v1h-1zM12 2h1v1h-1zM13 2h1v1h-1zM14 2h1v1h-1zM15 2h1v1h-1zM16 2h1v1h-1zM17 2h1v1h-1zM18 2h1v1h-1zM19 2h1v1h-1zM20 2h1v1h-1zM8 3h1v1H8zM9 3h1v1H9zM10 3h1v1h-1zM11 3h1v1h-1zM12 3h1v1h-1zM13 3h1v1h-1zM14 3h1v1h-1zM15 3h1v1h-1zM16 3h1v1h-1zM17 3h1v1h-1zM18 3h1v1h-1zM19 3h1v1h-1zM20 3h1v1h-1zM7 4h1v1H7zM8 4h1v1H8zM9 4h1v1H9zM13 4h1v1h-1zM14 4h1v1h-1zM17 4h1v1h-1zM18 4h1v1h-1zM7 5h1v1H7zM8 5h1v1H8zM13 5h1v1h-1zM14 5h1v1h-1zM17 5h1v1h-1zM18 5h1v1h-1zM7 6h1v1H7zM8 6h1v1H8zM13 6h1v1h-1zM14 6h1v1h-1zM17 6h1v1h-1zM18 6h1v1h-1zM7 7h1v1H7zM8 7h1v1H8zM9 7h1v1H9zM13 7h1v1h-1zM14 7h1v1h-1zM17 7h1v1h-1zM18 7h1v1h-1zM8 8h1v1H8zM9 8h1v1H9zM10 8h1v1h-1zM11 8h1v1h-1zM12 8h1v1h-1zM13 8h1v1h-1zM14 8h1v1h-1zM17 8h1v1h-1zM18 8h1v1h-1zM9 9h1v1H9zM10 9h1v1h-1zM11 9h1v1h-1zM12 9h1v1h-1zM13 9h1v1h-1zM14 9h1v1h-1zM17 9h1v1h-1zM18 9h1v1h-1zM13 10h1v1h-1zM14 10h1v1h-1zM17 10h1v1h-1zM18 10h1v1h-1zM13 11h1v1h-1zM14 11h1v1h-1zM17 11h1v1h-1zM18 11h1v1h-1zM13 12h1v1h-1zM14 12h1v1h-1zM17 12h1v1h-1zM18 12h1v1h-1zM5 13h1v1H5zM6 13h1v1H6zM13 13h1v1h-1zM14 13h1v1h-1zM17 13h1v1h-1zM18 13h1v1h-1zM4 14h1v1H4zM5 14h1v1H5zM6 14h1v1H6zM13 14h1v1h-1zM14 14h1v1h-1zM17 14h1v1h-1zM18 14h1v1h-1zM3 15h1v1H3zM4 15h1v1H4zM5 15h1v1H5zM2 16h1v1H2zM3 16h1v1H3zM4 16h1v1H4zM1 17h1v1H1zM2 17h1v1H2zM3 17h1v1H3zM4 17h1v1H4zM5 17h1v1H5zM6 17h1v1H6zM7 17h1v1H7zM8 17h1v1H8zM9 17h1v1H9zM10 17h1v1h-1zM11 17h1v1h-1zM12 17h1v1h-1zM13 17h1v1h-1zM14 17h1v1h-1zM15 17h1v1h-1zM16 17h1v1h-1zM17 17h1v1h-1zM18 17h1v1h-1zM19 17h1v1h-1zM20 17h1v1h-1zM21 17h1v1h-1zM22 17h1v1h-1zM1 18h1v1H1zM2 18h1v1H2zM3 18h1v1H3zM4 18h1v1H4zM5 18h1v1H5zM6 18h1v1H6zM7 18h1v1H7zM8 18h1v1H8zM9 18h1v1H9zM10 18h1v1h-1zM11 18h1v1h-1zM12 18h1v1h-1zM13 18h1v1h-1zM14 18h1v1h-1zM15 18h1v1h-1zM16 18h1v1h-1zM17 18h1v1h-1zM18 18h1v1h-1zM19 18h1v1h-1zM20 18h1v1h-1zM21 18h1v1h-1zM22 18h1v1h-1zM2 19h1v1H2zM3 19h1v1H3zM4 19h1v1H4zM3 20h1v1H3zM4 20h1v1H4zM5 20h1v1H5zM4 21h1v1H4zM5 21h1v1H5zM6 21h1v1H6zM5 22h1v1H5zM6 22h1v1H6z"/></svg>