<svg xmlns="http://www.w3.org/2000/svg" width="24" height="24" shape-rendering="crispEdges"><path d="M7 3h1v1H7zM8 3h1v1H8zM9 3h1v1H9zM10 3h1v1h-1zM11 3h1v1h-1zM12 3h1v1h-1zM13 3h1v1h-1zM14 3h1v1h-1zM15 3h1v1h-1zM16 3h1v1h-1zM17 3h1v1h-1zM18 3h1v1h-1zM19 3h1v1h-1zM6 4h1v1H6zM7 4h1v1H7zM8 4h1v1H8zM9 4h1v1H9zM10 4h1v1h-1zM11 4h1v1h-1zM12 4h1v1h-1zM13 4h1v1h-1zM14 4h1v1h-1zM15 4h1v1h-1zM16 4h1v1h-1zM17 4h1v1h-1zM18 4h1v1h-1zM19 4h1v1h-1zM5 5h1v1H5zM6 5h1v1H6zM7 5h1v1H7zM12 5h1v1h-1zM13 5h1v1h-1zM16 5h1v1h-1zM17 5h1v1h-1zM4 6h1v1H4zM5 6h1v1H5zM6 6h1v1H6zM12 6h1v1h-1zM13 6h1v1h-1zM16 6h1v1h-1zM17 6h1v1h-1zM4 7h1v1H4zM5 7h1v1H5zM12 7h1v1h-1zM13 7h1v1h-1zM16 7h1v1h-1zM17 7h1v1h-1zM4 8h1v1H4zM5 8h1v1H5zM12 8h1v1h-1zM13 8h1v1h-1zM16 8h1v1h-1zM17 8h1v1h-1zM4 9h1v1H4zM5 9h1v1H5zM12 9h1v1h-1zM13 9h1v1h-1zM16 9h1v1h-1zM17 9h1v1h-1zM4 10h1v1H4zM5 10h1v1H5zM6 10h1v1H6zM12 10h1v1h-1zM13 10h1v1h-1zM16 10h1v1h-1zM17 10h1v1h-1zM5 11h1v1H5zM6 11h1v1H6zM7 11h1v1H7zM12 11h1v1h-1zM13 11h1v1h-1zM16 11h1v1h-1zM17 11h1v1h-1zM6 12h1v1H6zM7 12h1v1H7zM8 12h1v1H8zM9 12h1v1H9zM10 12h1v1h-1zM11 12h1v1h-1zM12 12h1v1h-1zM13 12h1v1h-1zM16 12h1v1h-1zM17 12h1v1h-1zM7 13h1v1H7zM8 13h1v1H8zM9 13h1v1H9zM10 13h1v1h-1zM11 13h1v1h-1zM12 13h1v1h-1zM13 13h1v1h-1zM16 13h1v1h-1zM17 13h1v1h-1zM12 14h1v1h-1zM13 14h1v1h-1zM16 14h1v1h-1zM17 14h1v1h-1zM12 15h1v1h-1zM13 15h1v1h-1zM16 15h1v1h-1zM17 15h1v1h-1zM12 16h1v1h-1zM13 16h1v1h-1zM16 16h1v1h-1zM17 16h1v1h-1zM12 17h1v1h-1zM13 17h1v1h-1zM16 17h1v1h-1zM17 17h1v1h-1zM12 18h1v1h-1zM13 18h1v1h-1zM16 18h1v1h-1zM17 18h1v1h-1zM12 19h1v1h-1zM13 19h1v1h-1zM16 19h1v1h-1zM17 19h1v1h-1zM12 20h1v1h-1zM13 20h1v1h-1zM16 20h1v1h-1zM17 20h1v1h-1z"/></svg>