<svg xmlns="http://www.w3.org/2000/svg" width="24" height="24" shape-rendering="crispEdges"><path d="M15 1h1v1h-1zM16 1h1v1h-1zM17 1h1v1h-1zM18 1h1v1h-1zM13 2h1v1h-1zM14 2h1v1h-1zM15 2h1v1h-1zM16 2h1v1h-1zM17 2h1v1h-1zM18 2h1v1h-1zM19 2h1v1h-1zM20 2h1v1h-1zM12 3h1v1h-1zM13 3h1v1h-1zM14 3h1v1h-1zM19 3h1v1h-1zM20 3h1v1h-1zM21 3h1v1h-1zM11 4h1v1h-1zM12 4h1v1h-1zM13 4h1v1h-1zM20 4h1v1h-1zM21 4h1v1h-1zM10 5h1v1h-1zM11 5h1v1h-1zM12 5h1v1h-1zM21 5h1v1h-1zM22 5h1v1h-1zM9 6h1v1H9zM10 6h1v1h-1zM11 6h1v1h-1zM21 6h1v1h-1zM22 6h1v1h-1zM8 7h1v1H8zM9 7h1v1H9zM10 7h1v1h-1zM21 7h1v1h-1zM22 7h1v1h-1zM7 8h1v1H7zM8 8h1v1H8zM9 8h1v1H9zM21 8h1v1h-1zM22 8h1v1h-1zM6 9h1v1H6zM7 9h1v1H7zM8 9h1v1H8zM9 9h1v1H9zM10 9h1v1h-1zM20 9h1v1h-1zM21 9h1v1h-1zM5 10h1v1H5zM6 10h1v1H6zM7 10h1v1H7zM9 10h1v1H9zM10 10h1v1h-1zM11 10h1v1h-1zM19 10h1v1h-1zM20 10h1v1h-1zM21 10h1v1h-1zM4 11h1v1H4zM5 11h1v1H5zM6 11h1v1H6zM10 11h1v1h-1zM11 11h1v1h-1zM12 11h1v1h-1zM18 11h1v1h-1zM19 11h1v1h-1zM20 11h1v1h-1zM3 12h1v1H3zM4 12h1v1H4zM5 12h1v1H5zM11 12h1v1h-1zM12 12h1v1h-1zM13 12h1v1h-1zM17 12h1v1h-1zM18 12h1v1h-1zM19 12h1v1h-1zM2 13h1v1H2zM3 13h1v1H3zM4 13h1v1H4zM12 13h1v1h-1zM13 13h1v1h-1zM14 13h1v1h-1zM16 13h1v1h-1zM17 13h1v1h-1zM18 13h1v1h-1zM2 14h1v1H2zM3 14h1v1H3zM13 14h1v1h-1zM14 14h1v1h-1zM15 14h1v1h-1zM16 14h1v1h-1zM17 14h1v1h-1zM1 15h1v1H1zM2 15h1v1H2zM14 15h1v1h-1zM15 15h1v1h-1zM16 15h1v1h-1zM1 16h1v1H1zM2 16h1v1H2zM13 16h1v1h-1zM14 16h1v1h-1zM15 16h1v1h-1zM1 17h1v1H1zM2 17h1v1H2zM12 17h1v1h-1zM13 17h1v1h-1zM14 17h1v1h-1zM1 18h1v1H1zM2 18h1v1H2zM11 18h1v1h-1zM12 18h1v1h-1zM13 18h1v1h-1zM2 19h1v1H2zM3 19h1v1H3zM10 19h1v1h-1zM11 19h1v1h-1zM12 19h1v1h-1zM2 20h1v1H2zM3 20h1v1H3zM4 20h1v1H4zM9 20h1v1H9zM10 20h1v1h-1zM11 20h1v1h-1zM3 21h1v1H3zM4 21h1v1H4zM5 21h1v1H5zM6 21h1v1H6zM7 21h1v1H7zM8 21h1v1H8zM9 21h1v1H9zM10 21h1v1h-1zM5 22h1v1H5zM6 22h1v1H6zM7 22h1v1H7zM8 22h1v1H8z"/></svg>