<svg xmlns="http://www.w3.org/2000/svg" width="24" height="24" shape-rendering="crispEdges"><path d="M6 1h1v1H6zM7 1h1v1H7zM8 1h1v1H8zM9 1h1v1H9zM10 1h1v1h-1zM11 1h1v1h-1zM12 1h1v1h-1zM13 1h1v1h-1zM14 1h1v1h-1zM15 1h1v1h-1zM16 1h1v1h-1zM17 1h1v1h-1zM5 2h1v1H5zM6 2h1v1H6zM7 2h1v1H7zM8 2h1v1H8zM9 2h1v1H9zM10 2h1v1h-1zM11 2h1v1h-1zM12 2h1v1h-1zM13 2h1v1h-1zM14 2h1v1h-1zM15 2h1v1h-1zM16 2h1v1h-1zM17 2h1v1h-1zM18 2h1v1h-1zM5 3h1v1H5zM6 3h1v1H6zM17 3h1v1h-1zM18 3h1v1h-1zM5 4h1v1H5zM6 4h1v1H6zM17 4h1v1h-1zM18 4h1v1h-1zM5 5h1v1H5zM6 5h1v1H6zM7 5h1v1H7zM8 5h1v1H8zM15 5h1v1h-1zM16 5h1v1h-1zM17 5h1v1h-1zM18 5h1v1h-1zM6 6h1v1H6zM7 6h1v1H7zM8 6h1v1H8zM9 6h1v1H9zM14 6h1v1h-1zM15 6h1v1h-1zM16 6h1v1h-1zM17 6h1v1h-1zM8 7h1v1H8zM9 7h1v1H9zM14 7h1v1h-1zM15 7h1v1h-1zM8 8h1v1H8zM9 8h1v1H9zM14 8h1v1h-1zM15 8h1v1h-1zM8 9h1v1H8zM9 9h1v1H9zM14 9h1v1h-1zM15 9h1v1h-1zM8 10h1v1H8zM9 10h1v1H9zM14 10h1v1h-1zM15 10h1v1h-1zM8 11h1v1H8zM9 11h1v1H9zM14 11h1v1h-1zM15 11h1v1h-1zM6 12h1v1H6zM7 12h1v1H7zM8 12h1v1H8zM15 12h1v1h-1zM16 12h1v1h-1zM17 12h1v1h-1zM5 13h1v1H5zM6 13h1v1H6zM7 13h1v1H7zM16 13h1v1h-1zM17 13h1v1h-1zM18 13h1v1h-1zM4 14h1v1H4zM5 14h1v1H5zM18 14h1v1h-1zM19 14h1v1h-1zM4 15h1v1H4zM5 15h1v1H5zM18 15h1v1h-1zM19 15h1v1h-1zM4 16h1v1H4zM5 16h1v1H5zM6 16h1v1H6zM7 16h1v1H7zM8 16h1v1H8zM9 16h1v1H9zM10 16h1v1h-1zM11 16h1v1h-1zM12 16h1v1h-1zM13 16h1v1h-1zM14 16h1v1h-1zM15 16h1v1h-1zM16 16h1v1h-1zM17 16h1v1h-1zM18 16h1v1h-1zM19 16h1v1h-1zM5 17h1v1H5zM6 17h1v1H6zM7 17h1v1H7zM8 17h1v1H8zM9 17h1v1H9zM10 17h1v1h-1zM11 17h1v1h-1zM12 17h1v1h-1zM13 17h1v1h-1zM14 17h1v1h-1zM15 17h1v1h-1zM16 17h1v1h-1zM17 17h1v1h-1zM18 17h1v1h-1zM11 18h1v1h-1zM12 18h1v1h-1zM11 19h1v1h-1zM12 19h1v1h-1zM11 20h1v1h-1zM12 20h1v1h-1zM11 21h1v1h-1zM12 21h1v1h-1zM11 22h1v1h-1zM12 22h1v1h-1z"/></svg>