<svg xmlns="http://www.w3.org/2000/svg" width="24" height="24" shape-rendering="crispEdges"><path d="M10 2h1v1h-1zM11 2h1v1h-1zM12 2h1v1h-1zM9 3h1v1H9zM10 3h1v1h-1zM11 3h1v1h-1zM12 3h1v1h-1zM13 3h1v1h-1zM3 4h1v1H3zM4 4h1v1H4zM5 4h1v1H5zM9 4h1v1H9zM10 4h1v1h-1zM12 4h1v1h-1zM13 4h1v1h-1zM2 5h1v1H2zM3 5h1v1H3zM4 5h1v1H4zM5 5h1v1H5zM6 5h1v1H6zM8 5h1v1H8zM9 5h1v1H9zM10 5h1v1h-1zM12 5h1v1h-1zM13 5h1v1h-1zM2 6h1v1H2zM3 6h1v1H3zM5 6h1v1H5zM6 6h1v1H6zM8 6h1v1H8zM9 6h1v1H9zM12 6h1v1h-1zM13 6h1v1h-1zM2 7h1v1H2zM3 7h1v1H3zM5 7h1v1H5zM6 7h1v1H6zM7 7h1v1H7zM8 7h1v1H8zM9 7h1v1H9zM13 7h1v1h-1zM14 7h1v1h-1zM1 8h1v1H1zM2 8h1v1H2zM6 8h1v1H6zM7 8h1v1H7zM8 8h1v1H8zM13 8h1v1h-1zM14 8h1v1h-1zM1 9h1v1H1zM2 9h1v1H2zM3 9h1v1H3zM13 9h1v1h-1zM14 9h1v1h-1zM2 10h1v1H2zM3 10h1v1H3zM4 10h1v1H4zM13 10h1v1h-1zM14 10h1v1h-1zM3 11h1v1H3zM4 11h1v1H4zM5 11h1v1H5zM6 11h1v1H6zM14 11h1v1h-1zM15 11h1v1h-1zM16 11h1v1h-1zM5 12h1v1H5zM6 12h1v1H6zM7 12h1v1H7zM8 12h1v1H8zM15 12h1v1h-1zM16 12h1v1h-1zM17 12h1v1h-1zM18 12h1v1h-1zM7 13h1v1H7zM8 13h1v1H8zM9 13h1v1H9zM10 13h1v1h-1zM17 13h1v1h-1zM18 13h1v1h-1zM19 13h1v1h-1zM20 13h1v1h-1zM9 14h1v1H9zM10 14h1v1h-1zM11 14h1v1h-1zM12 14h1v1h-1zM19 14h1v1h-1zM20 14h1v1h-1zM11 15h1v1h-1zM12 15h1v1h-1zM13 15h1v1h-1zM14 15h1v1h-1zM20 15h1v1h-1zM21 15h1v1h-1zM13 16h1v1h-1zM14 16h1v1h-1zM15 16h1v1h-1zM16 16h1v1h-1zM20 16h1v1h-1zM21 16h1v1h-1zM15 17h1v1h-1zM16 17h1v1h-1zM17 17h1v1h-1zM18 17h1v1h-1zM19 17h1v1h-1zM20 17h1v1h-1zM21 17h1v1h-1zM17 18h1v1h-1zM18 18h1v1h-1zM19 18h1v1h-1zM20 18h1v1h-1zM1 21h1v1H1zM2 21h1v1H2zM3 21h1v1H3zM4 21h1v1H4zM5 21h1v1H5zM6 21h1v1H6zM7 21h1v1H7zM8 21h1v1H8zM9 21h1v1H9zM10 21h1v1h-1zM11 21h1v1h-1zM12 21h1v1h-1zM13 21h1v1h-1zM14 21h1v1h-1zM15 21h1v1h-1zM16 21h1v1h-1zM17 21h1v1h-1zM18 21h1v1h-1zM19 21h1v1h-1zM20 21h1v1h-1zM21 21h1v1h-1zM22 21h1v1h-1zM1 22h1v1H1zM2 22h1v1H2zM3 22h1v1H3zM4 22h1v1H4zM5 22h1v1H5zM6 22h1v1H6zM7 22h1v1H7zM8 22h1v1H8zM9 22h1v1H9zM10 22h1v1h-1zM11 22h1v1h-1zM12 22h1v1h-1zM13 22h1v1h-1zM14 22h1v1h-1zM15 22h1v1h-1zM16 22h1v1h-1zM17 22h1v1h-1zM18 22h1v1h-1zM19 22h1v1h-1zM20 22h1v1h-1zM21 22h1v1h-1zM22 22h1v1h-1z"/></svg>