<svg xmlns="http://www.w3.org/2000/svg" width="24" height="24" shape-rendering="crispEdges"><path d="M1 1h1v1H1zM2 1h1v1H2zM7 1h1v1H7zM8 1h1v1H8zM9 1h1v1H9zM1 2h1v1H1zM2 2h1v1H2zM3 2h1v1H3zM7 2h1v1H7zM8 2h1v1H8zM9 2h1v1H9zM10 2h1v1h-1zM2 3h1v1H2zM3 3h1v1H3zM4 3h1v1H4zM9 3h1v1H9zM10 3h1v1h-1zM3 4h1v1H3zM4 4h1v1H4zM5 4h1v1H5zM9 4h1v1H9zM10 4h1v1h-1zM4 5h1v1H4zM5 5h1v1H5zM6 5h1v1H6zM5 6h1v1H5zM6 6h1v1H6zM7 6h1v1H7zM12 6h1v1h-1zM13 6h1v1h-1zM5 7h1v1H5zM6 7h1v1H6zM7 7h1v1H7zM8 7h1v1H8zM12 7h1v1h-1zM13 7h1v1h-1zM14 7h1v1h-1zM15 7h1v1h-1zM16 7h1v1h-1zM17 7h1v1h-1zM5 8h1v1H5zM6 8h1v1H6zM7 8h1v1H7zM8 8h1v1H8zM9 8h1v1H9zM13 8h1v1h-1zM14 8h1v1h-1zM15 8h1v1h-1zM16 8h1v1h-1zM17 8h1v1h-1zM18 8h1v1h-1zM19 8h1v1h-1zM20 8h1v1h-1zM21 8h1v1h-1zM5 9h1v1H5zM6 9h1v1H6zM8 9h1v1H8zM9 9h1v1H9zM10 9h1v1h-1zM14 9h1v1h-1zM17 9h1v1h-1zM18 9h1v1h-1zM19 9h1v1h-1zM20 9h1v1h-1zM21 9h1v1h-1zM22 9h1v1h-1zM5 10h1v1H5zM6 10h1v1H6zM9 10h1v1H9zM10 10h1v1h-1zM11 10h1v1h-1zM17 10h1v1h-1zM18 10h1v1h-1zM21 10h1v1h-1zM22 10h1v1h-1zM5 11h1v1H5zM6 11h1v1H6zM10 11h1v1h-1zM11 11h1v1h-1zM12 11h1v1h-1zM17 11h1v1h-1zM18 11h1v1h-1zM21 11h1v1h-1zM22 11h1v1h-1zM2 12h1v1H2zM3 12h1v1H3zM4 12h1v1H4zM5 12h1v1H5zM6 12h1v1H6zM11 12h1v1h-1zM12 12h1v1h-1zM13 12h1v1h-1zM21 12h1v1h-1zM22 12h1v1h-1zM1 13h1v1H1zM2 13h1v1H2zM3 13h1v1H3zM4 13h1v1H4zM5 13h1v1H5zM6 13h1v1H6zM12 13h1v1h-1zM13 13h1v1h-1zM14 13h1v1h-1zM21 13h1v1h-1zM22 13h1v1h-1zM1 14h1v1H1zM2 14h1v1H2zM5 14h1v1H5zM6 14h1v1H6zM7 14h1v1H7zM13 14h1v1h-1zM14 14h1v1h-1zM15 14h1v1h-1zM21 14h1v1h-1zM22 14h1v1h-1zM1 15h1v1H1zM2 15h1v1H2zM6 15h1v1H6zM7 15h1v1H7zM14 15h1v1h-1zM15 15h1v1h-1zM16 15h1v1h-1zM21 15h1v1h-1zM22 15h1v1h-1zM2 16h1v1H2zM3 16h1v1H3zM15 16h1v1h-1zM16 16h1v1h-1zM17 16h1v1h-1zM21 16h1v1h-1zM22 16h1v1h-1zM2 17h1v1H2zM3 17h1v1H3zM4 17h1v1H4zM16 17h1v1h-1zM17 17h1v1h-1zM18 17h1v1h-1zM3 18h1v1H3zM4 18h1v1H4zM5 18h1v1H5zM17 18h1v1h-1zM18 18h1v1h-1zM19 18h1v1h-1zM4 19h1v1H4zM5 19h1v1H5zM6 19h1v1H6zM18 19h1v1h-1zM19 19h1v1h-1zM20 19h1v1h-1zM5 20h1v1H5zM6 20h1v1H6zM7 20h1v1H7zM8 20h1v1H8zM17 20h1v1h-1zM18 20h1v1h-1zM19 20h1v1h-1zM20 20h1v1h-1zM21 20h1v1h-1zM7 21h1v1H7zM8 21h1v1H8zM9 21h1v1H9zM10 21h1v1h-1zM11 21h1v1h-1zM12 21h1v1h-1zM13 21h1v1h-1zM14 21h1v1h-1zM15 21h1v1h-1zM16 21h1v1h-1zM17 21h1v1h-1zM18 21h1v1h-1zM20 21h1v1h-1zM21 21h1v1h-1zM22 21h1v1h-1zM9 22h1v1H9zM10 22h1v1h-1zM11 22h1v1h-1zM12 22h1v1h-1zM13 22h1v1h-1zM14 22h1v1h-1zM15 22h1v1h-1zM16 22h1v1h-1zM21 22h1v1h-1zM22 22h1v1h-1z"/></svg>