<svg xmlns="http://www.w3.org/2000/svg" width="24" height="24" shape-rendering="crispEdges"><path d="M6 1h1v1H6zM7 1h1v1H7zM8 1h1v1H8zM9 1h1v1H9zM10 1h1v1h-1zM11 1h1v1h-1zM12 1h1v1h-1zM13 1h1v1h-1zM14 1h1v1h-1zM15 1h1v1h-1zM16 1h1v1h-1zM17 1h1v1h-1zM5 2h1v1H5zM6 2h1v1H6zM7 2h1v1H7zM8 2h1v1H8zM9 2h1v1H9zM10 2h1v1h-1zM11 2h1v1h-1zM12 2h1v1h-1zM13 2h1v1h-1zM14 2h1v1h-1zM15 2h1v1h-1zM16 2h1v1h-1zM17 2h1v1h-1zM18 2h1v1h-1zM4 3h1v1H4zM5 3h1v1H5zM6 3h1v1H6zM9 3h1v1H9zM10 3h1v1h-1zM13 3h1v1h-1zM14 3h1v1h-1zM17 3h1v1h-1zM18 3h1v1h-1zM19 3h1v1h-1zM3 4h1v1H3zM4 4h1v1H4zM5 4h1v1H5zM6 4h1v1H6zM9 4h1v1H9zM10 4h1v1h-1zM13 4h1v1h-1zM14 4h1v1h-1zM17 4h1v1h-1zM18 4h1v1h-1zM19 4h1v1h-1zM20 4h1v1h-1zM3 5h1v1H3zM4 5h1v1H4zM19 5h1v1h-1zM20 5h1v1h-1zM3 6h1v1H3zM4 6h1v1H4zM19 6h1v1h-1zM20 6h1v1h-1zM3 7h1v1H3zM4 7h1v1H4zM5 7h1v1H5zM6 7h1v1H6zM7 7h1v1H7zM8 7h1v1H8zM9 7h1v1H9zM10 7h1v1h-1zM11 7h1v1h-1zM12 7h1v1h-1zM13 7h1v1h-1zM14 7h1v1h-1zM15 7h1v1h-1zM16 7h1v1h-1zM17 7h1v1h-1zM18 7h1v1h-1zM19 7h1v1h-1zM20 7h1v1h-1zM2 8h1v1H2zM3 8h1v1H3zM4 8h1v1H4zM5 8h1v1H5zM6 8h1v1H6zM7 8h1v1H7zM8 8h1v1H8zM9 8h1v1H9zM10 8h1v1h-1zM11 8h1v1h-1zM12 8h1v1h-1zM13 8h1v1h-1zM14 8h1v1h-1zM15 8h1v1h-1zM16 8h1v1h-1zM17 8h1v1h-1zM18 8h1v1h-1zM19 8h1v1h-1zM20 8h1v1h-1zM21 8h1v1h-1zM2 9h1v1H2zM3 9h1v1H3zM8 9h1v1H8zM9 9h1v1H9zM14 9h1v1h-1zM15 9h1v1h-1zM20 9h1v1h-1zM21 9h1v1h-1zM3 10h1v1H3zM4 10h1v1H4zM8 10h1v1H8zM9 10h1v1H9zM14 10h1v1h-1zM15 10h1v1h-1zM19 10h1v1h-1zM20 10h1v1h-1zM3 11h1v1H3zM4 11h1v1H4zM8 11h1v1H8zM9 11h1v1H9zM14 11h1v1h-1zM15 11h1v1h-1zM19 11h1v1h-1zM20 11h1v1h-1zM3 12h1v1H3zM4 12h1v1H4zM8 12h1v1H8zM9 12h1v1H9zM14 12h1v1h-1zM15 12h1v1h-1zM19 12h1v1h-1zM20 12h1v1h-1zM3 13h1v1H3zM4 13h1v1H4zM8 13h1v1H8zM9 13h1v1H9zM14 13h1v1h-1zM15 13h1v1h-1zM19 13h1v1h-1zM20 13h1v1h-1zM3 14h1v1H3zM4 14h1v1H4zM8 14h1v1H8zM9 14h1v1H9zM14 14h1v1h-1zM15 14h1v1h-1zM19 14h1v1h-1zM20 14h1v1h-1zM4 15h1v1H4zM5 15h1v1H5zM9 15h1v1H9zM10 15h1v1h-1zM13 15h1v1h-1zM14 15h1v1h-1zM18 15h1v1h-1zM19 15h1v1h-1zM4 16h1v1H4zM5 16h1v1H5zM9 16h1v1H9zM10 16h1v1h-1zM13 16h1v1h-1zM14 16h1v1h-1zM18 16h1v1h-1zM19 16h1v1h-1zM4 17h1v1H4zM5 17h1v1H5zM9 17h1v1H9zM10 17h1v1h-1zM13 17h1v1h-1zM14 17h1v1h-1zM18 17h1v1h-1zM19 17h1v1h-1zM4 18h1v1H4zM5 18h1v1H5zM9 18h1v1H9zM10 18h1v1h-1zM13 18h1v1h-1zM14 18h1v1h-1zM18 18h1v1h-1zM19 18h1v1h-1zM4 19h1v1H4zM5 19h1v1H5zM9 19h1v1H9zM10 19h1v1h-1zM13 19h1v1h-1zM14 19h1v1h-1zM17 19h1v1h-1zM18 19h1v1h-1zM19 19h1v1h-1zM5 20h1v1H5zM6 20h1v1H6zM9 20h1v1H9zM10 20h1v1h-1zM13 20h1v1h-1zM14 20h1v1h-1zM17 20h1v1h-1zM18 20h1v1h-1zM5 21h1v1H5zM6 21h1v1H6zM7 21h1v1H7zM8 21h1v1H8zM9 21h1v1H9zM10 21h1v1h-1zM11 21h1v1h-1zM12 21h1v1h-1zM13 21h1v1h-1zM14 21h1v1h-1zM15 21h1v1h-1zM16 21h1v1h-1zM17 21h1v1h-1zM18 21h1v1h-1zM6 22h1v1H6zM7 22h1v1H7zM8 22h1v1H8zM9 22h1v1H9zM10 22h1v1h-1zM11 22h1v1h-1zM12 22h1v1h-1zM13 22h1v1h-1zM14 22h1v1h-1zM15 22h1v1h-1zM16 22h1v1h-1zM17 22h1v1h-1z"/></svg>