<svg xmlns="http://www.w3.org/2000/svg" width="24" height="24" shape-rendering="crispEdges"><path d="M5 1h1v1H5zM6 1h1v1H6zM7 1h1v1H7zM8 1h1v1H8zM3 2h1v1H3zM4 2h1v1H4zM5 2h1v1H5zM6 2h1v1H6zM7 2h1v1H7zM8 2h1v1H8zM9 2h1v1H9zM10 2h1v1h-1zM2 3h1v1H2zM3 3h1v1H3zM4 3h1v1H4zM9 3h1v1H9zM10 3h1v1h-1zM11 3h1v1h-1zM2 4h1v1H2zM3 4h1v1H3zM10 4h1v1h-1zM11 4h1v1h-1zM12 4h1v1h-1zM1 5h1v1H1zM2 5h1v1H2zM11 5h1v1h-1zM12 5h1v1h-1zM13 5h1v1h-1zM1 6h1v1H1zM2 6h1v1H2zM12 6h1v1h-1zM13 6h1v1h-1zM14 6h1v1h-1zM1 7h1v1H1zM2 7h1v1H2zM13 7h1v1h-1zM14 7h1v1h-1zM15 7h1v1h-1zM1 8h1v1H1zM2 8h1v1H2zM14 8h1v1h-1zM15 8h1v1h-1zM16 8h1v1h-1zM1 9h1v1H1zM2 9h1v1H2zM3 9h1v1H3zM15 9h1v1h-1zM16 9h1v1h-1zM17 9h1v1h-1zM2 10h1v1H2zM3 10h1v1H3zM4 10h1v1H4zM16 10h1v1h-1zM17 10h1v1h-1zM18 10h1v1h-1zM3 11h1v1H3zM4 11h1v1H4zM5 11h1v1H5zM17 11h1v1h-1zM18 11h1v1h-1zM19 11h1v1h-1zM4 12h1v1H4zM5 12h1v1H5zM6 12h1v1H6zM18 12h1v1h-1zM19 12h1v1h-1zM5 13h1v1H5zM6 13h1v1H6zM7 13h1v1H7zM18 13h1v1h-1zM19 13h1v1h-1zM6 14h1v1H6zM7 14h1v1H7zM8 14h1v1H8zM17 14h1v1h-1zM18 14h1v1h-1zM19 14h1v1h-1zM7 15h1v1H7zM8 15h1v1H8zM9 15h1v1H9zM16 15h1v1h-1zM17 15h1v1h-1zM18 15h1v1h-1zM8 16h1v1H8zM9 16h1v1H9zM10 16h1v1h-1zM15 16h1v1h-1zM16 16h1v1h-1zM17 16h1v1h-1zM9 17h1v1H9zM10 17h1v1h-1zM11 17h1v1h-1zM14 17h1v1h-1zM15 17h1v1h-1zM16 17h1v1h-1zM17 17h1v1h-1zM18 17h1v1h-1zM10 18h1v1h-1zM11 18h1v1h-1zM12 18h1v1h-1zM13 18h1v1h-1zM14 18h1v1h-1zM15 18h1v1h-1zM17 18h1v1h-1zM18 18h1v1h-1zM19 18h1v1h-1zM11 19h1v1h-1zM12 19h1v1h-1zM13 19h1v1h-1zM14 19h1v1h-1zM18 19h1v1h-1zM19 19h1v1h-1zM20 19h1v1h-1zM19 20h1v1h-1zM20 20h1v1h-1zM21 20h1v1h-1zM20 21h1v1h-1zM21 21h1v1h-1zM22 21h1v1h-1zM21 22h1v1h-1zM22 22h1v1h-1z"/></svg>