<svg xmlns="http://www.w3.org/2000/svg" width="24" height="24" shape-rendering="crispEdges"><path d="M12 2h1v1h-1zM13 2h1v1h-1zM14 2h1v1h-1zM15 2h1v1h-1zM10 3h1v1h-1zM11 3h1v1h-1zM12 3h1v1h-1zM13 3h1v1h-1zM14 3h1v1h-1zM15 3h1v1h-1zM16 3h1v1h-1zM17 3h1v1h-1zM10 4h1v1h-1zM11 4h1v1h-1zM16 4h1v1h-1zM17 4h1v1h-1zM9 5h1v1H9zM10 5h1v1h-1zM17 5h1v1h-1zM18 5h1v1h-1zM9 6h1v1H9zM10 6h1v1h-1zM17 6h1v1h-1zM18 6h1v1h-1zM9 7h1v1H9zM10 7h1v1h-1zM17 7h1v1h-1zM18 7h1v1h-1zM9 8h1v1H9zM10 8h1v1h-1zM9 9h1v1H9zM10 9h1v1h-1zM9 10h1v1H9zM10 10h1v1h-1zM9 11h1v1H9zM10 11h1v1h-1zM5 12h1v1H5zM6 12h1v1H6zM7 12h1v1H7zM8 12h1v1H8zM9 12h1v1H9zM10 12h1v1h-1zM11 12h1v1h-1zM12 12h1v1h-1zM13 12h1v1h-1zM14 12h1v1h-1zM15 12h1v1h-1zM16 12h1v1h-1zM5 13h1v1H5zM6 13h1v1H6zM7 13h1v1H7zM8 13h1v1H8zM9 13h1v1H9zM10 13h1v1h-1zM11 13h1v1h-1zM12 13h1v1h-1zM13 13h1v1h-1zM14 13h1v1h-1zM15 13h1v1h-1zM16 13h1v1h-1zM9 14h1v1H9zM10 14h1v1h-1zM9 15h1v1H9zM10 15h1v1h-1zM9 16h1v1H9zM10 16h1v1h-1zM9 17h1v1H9zM10 17h1v1h-1zM9 18h1v1H9zM10 18h1v1h-1zM9 19h1v1H9zM10 19h1v1h-1zM5 20h1v1H5zM6 20h1v1H6zM7 20h1v1H7zM8 20h1v1H8zM9 20h1v1H9zM10 20h1v1h-1zM11 20h1v1h-1zM12 20h1v1h-1zM13 20h1v1h-1zM14 20h1v1h-1zM15 20h1v1h-1zM16 20h1v1h-1zM17 20h1v1h-1zM18 20h1v1h-1zM5 21h1v1H5zM6 21h1v1H6zM7 21h1v1H7zM8 21h1v1H8zM9 21h1v1H9zM10 21h1v1h-1zM11 21h1v1h-1zM12 21h1v1h-1zM13 21h1v1h-1zM14 21h1v1h-1zM15 21h1v1h-1zM16 21h1v1h-1zM17 21h1v1h-1zM18 21h1v1h-1z"/></svg>