<svg xmlns="http://www.w3.org/2000/svg" width="24" height="24" shape-rendering="crispEdges"><path d="M11 1h1v1h-1zM12 1h1v1h-1zM11 2h1v1h-1zM12 2h1v1h-1zM11 3h1v1h-1zM12 3h1v1h-1zM11 4h1v1h-1zM12 4h1v1h-1zM11 5h1v1h-1zM12 5h1v1h-1zM4 6h1v1H4zM5 6h1v1H5zM6 6h1v1H6zM11 6h1v1h-1zM12 6h1v1h-1zM17 6h1v1h-1zM18 6h1v1h-1zM19 6h1v1h-1zM4 7h1v1H4zM5 7h1v1H5zM11 7h1v1h-1zM12 7h1v1h-1zM18 7h1v1h-1zM19 7h1v1h-1zM3 8h1v1H3zM4 8h1v1H4zM11 8h1v1h-1zM12 8h1v1h-1zM19 8h1v1h-1zM20 8h1v1h-1zM3 9h1v1H3zM4 9h1v1H4zM11 9h1v1h-1zM12 9h1v1h-1zM19 9h1v1h-1zM20 9h1v1h-1zM2 10h1v1H2zM3 10h1v1H3zM11 10h1v1h-1zM12 10h1v1h-1zM20 10h1v1h-1zM21 10h1v1h-1zM2 11h1v1H2zM3 11h1v1H3zM11 11h1v1h-1zM12 11h1v1h-1zM20 11h1v1h-1zM21 11h1v1h-1zM2 12h1v1H2zM3 12h1v1H3zM11 12h1v1h-1zM12 12h1v1h-1zM20 12h1v1h-1zM21 12h1v1h-1zM2 13h1v1H2zM3 13h1v1H3zM20 13h1v1h-1zM21 13h1v1h-1zM2 14h1v1H2zM3 14h1v1H3zM20 14h1v1h-1zM21 14h1v1h-1zM2 15h1v1H2zM3 15h1v1H3zM20 15h1v1h-1zM21 15h1v1h-1zM3 16h1v1H3zM4 16h1v1H4zM19 16h1v1h-1zM20 16h1v1h-1zM3 17h1v1H3zM4 17h1v1H4zM19 17h1v1h-1zM20 17h1v1h-1zM4 18h1v1H4zM5 18h1v1H5zM18 18h1v1h-1zM19 18h1v1h-1zM5 19h1v1H5zM6 19h1v1H6zM17 19h1v1h-1zM18 19h1v1h-1zM19 19h1v1h-1zM6 20h1v1H6zM7 20h1v1H7zM8 20h1v1H8zM15 20h1v1h-1zM16 20h1v1h-1zM17 20h1v1h-1zM18 20h1v1h-1zM7 21h1v1H7zM8 21h1v1H8zM9 21h1v1H9zM10 21h1v1h-1zM11 21h1v1h-1zM12 21h1v1h-1zM13 21h1v1h-1zM14 21h1v1h-1zM15 21h1v1h-1zM16 21h1v1h-1zM9 22h1v1H9zM10 22h1v1h-1zM11 22h1v1h-1zM12 22h1v1h-1zM13 22h1v1h-1zM14 22h1v1h-1z"/></svg>