<svg xmlns="http://www.w3.org/2000/svg" width="24" height="24" shape-rendering="crispEdges"><path d="M10 1h1v1h-1zM11 1h1v1h-1zM12 1h1v1h-1zM13 1h1v1h-1zM18 1h1v1h-1zM19 1h1v1h-1zM20 1h1v1h-1zM9 2h1v1H9zM10 2h1v1h-1zM11 2h1v1h-1zM12 2h1v1h-1zM13 2h1v1h-1zM14 2h1v1h-1zM17 2h1v1h-1zM18 2h1v1h-1zM19 2h1v1h-1zM20 2h1v1h-1zM21 2h1v1h-1zM8 3h1v1H8zM9 3h1v1H9zM10 3h1v1h-1zM13 3h1v1h-1zM14 3h1v1h-1zM15 3h1v1h-1zM16 3h1v1h-1zM17 3h1v1h-1zM21 3h1v1h-1zM22 3h1v1h-1zM7 4h1v1H7zM8 4h1v1H8zM9 4h1v1H9zM14 4h1v1h-1zM15 4h1v1h-1zM16 4h1v1h-1zM17 4h1v1h-1zM21 4h1v1h-1zM22 4h1v1h-1zM7 5h1v1H7zM8 5h1v1H8zM9 5h1v1H9zM15 5h1v1h-1zM16 5h1v1h-1zM21 5h1v1h-1zM22 5h1v1h-1zM8 6h1v1H8zM9 6h1v1H9zM10 6h1v1h-1zM19 6h1v1h-1zM20 6h1v1h-1zM21 6h1v1h-1zM4 7h1v1H4zM5 7h1v1H5zM10 7h1v1h-1zM11 7h1v1h-1zM18 7h1v1h-1zM19 7h1v1h-1zM20 7h1v1h-1zM3 8h1v1H3zM4 8h1v1H4zM5 8h1v1H5zM6 8h1v1H6zM10 8h1v1h-1zM11 8h1v1h-1zM18 8h1v1h-1zM19 8h1v1h-1zM20 8h1v1h-1zM2 9h1v1H2zM3 9h1v1H3zM4 9h1v1H4zM5 9h1v1H5zM6 9h1v1H6zM10 9h1v1h-1zM11 9h1v1h-1zM19 9h1v1h-1zM20 9h1v1h-1zM21 9h1v1h-1zM1 10h1v1H1zM2 10h1v1H2zM3 10h1v1H3zM6 10h1v1H6zM7 10h1v1H7zM8 10h1v1H8zM9 10h1v1H9zM10 10h1v1h-1zM20 10h1v1h-1zM21 10h1v1h-1zM22 10h1v1h-1zM1 11h1v1H1zM2 11h1v1H2zM7 11h1v1H7zM8 11h1v1H8zM9 11h1v1H9zM21 11h1v1h-1zM22 11h1v1h-1zM1 12h1v1H1zM2 12h1v1H2zM14 12h1v1h-1zM15 12h1v1h-1zM16 12h1v1h-1zM21 12h1v1h-1zM22 12h1v1h-1zM1 13h1v1H1zM2 13h1v1H2zM3 13h1v1H3zM13 13h1v1h-1zM14 13h1v1h-1zM15 13h1v1h-1zM16 13h1v1h-1zM17 13h1v1h-1zM20 13h1v1h-1zM21 13h1v1h-1zM22 13h1v1h-1zM2 14h1v1H2zM3 14h1v1H3zM4 14h1v1H4zM12 14h1v1h-1zM13 14h1v1h-1zM17 14h1v1h-1zM18 14h1v1h-1zM19 14h1v1h-1zM20 14h1v1h-1zM21 14h1v1h-1zM3 15h1v1H3zM4 15h1v1H4zM5 15h1v1H5zM12 15h1v1h-1zM13 15h1v1h-1zM17 15h1v1h-1zM18 15h1v1h-1zM19 15h1v1h-1zM20 15h1v1h-1zM3 16h1v1H3zM4 16h1v1H4zM5 16h1v1H5zM12 16h1v1h-1zM13 16h1v1h-1zM18 16h1v1h-1zM19 16h1v1h-1zM2 17h1v1H2zM3 17h1v1H3zM4 17h1v1H4zM13 17h1v1h-1zM14 17h1v1h-1zM15 17h1v1h-1zM1 18h1v1H1zM2 18h1v1H2zM7 18h1v1H7zM8 18h1v1H8zM14 18h1v1h-1zM15 18h1v1h-1zM16 18h1v1h-1zM1 19h1v1H1zM2 19h1v1H2zM6 19h1v1H6zM7 19h1v1H7zM8 19h1v1H8zM9 19h1v1H9zM14 19h1v1h-1zM15 19h1v1h-1zM16 19h1v1h-1zM1 20h1v1H1zM2 20h1v1H2zM6 20h1v1H6zM7 20h1v1H7zM8 20h1v1H8zM9 20h1v1H9zM10 20h1v1h-1zM13 20h1v1h-1zM14 20h1v1h-1zM15 20h1v1h-1zM2 21h1v1H2zM3 21h1v1H3zM4 21h1v1H4zM5 21h1v1H5zM6 21h1v1H6zM9 21h1v1H9zM10 21h1v1h-1zM11 21h1v1h-1zM12 21h1v1h-1zM13 21h1v1h-1zM14 21h1v1h-1zM3 22h1v1H3zM4 22h1v1H4zM5 22h1v1H5zM10 22h1v1h-1zM11 22h1v1h-1zM12 22h1v1h-1zM13 22h1v1h-1z"/></svg>