<svg xmlns="http://www.w3.org/2000/svg" width="24" height="24" shape-rendering="crispEdges"><path d="M14 3h1v1h-1zM15 3h1v1h-1zM16 3h1v1h-1zM17 3h1v1h-1zM18 3h1v1h-1zM19 3h1v1h-1zM20 3h1v1h-1zM21 3h1v1h-1zM13 4h1v1h-1zM14 4h1v1h-1zM15 4h1v1h-1zM16 4h1v1h-1zM17 4h1v1h-1zM18 4h1v1h-1zM19 4h1v1h-1zM20 4h1v1h-1zM21 4h1v1h-1zM13 5h1v1h-1zM14 5h1v1h-1zM12 6h1v1h-1zM13 6h1v1h-1zM12 7h1v1h-1zM13 7h1v1h-1zM12 8h1v1h-1zM13 8h1v1h-1zM12 9h1v1h-1zM13 9h1v1h-1zM12 10h1v1h-1zM13 10h1v1h-1zM2 11h1v1H2zM3 11h1v1H3zM4 11h1v1H4zM5 11h1v1H5zM6 11h1v1H6zM11 11h1v1h-1zM12 11h1v1h-1zM2 12h1v1H2zM3 12h1v1H3zM4 12h1v1H4zM5 12h1v1H5zM6 12h1v1H6zM7 12h1v1H7zM11 12h1v1h-1zM12 12h1v1h-1zM6 13h1v1H6zM7 13h1v1H7zM8 13h1v1H8zM11 13h1v1h-1zM12 13h1v1h-1zM7 14h1v1H7zM8 14h1v1H8zM11 14h1v1h-1zM12 14h1v1h-1zM7 15h1v1H7zM8 15h1v1H8zM11 15h1v1h-1zM12 15h1v1h-1zM7 16h1v1H7zM8 16h1v1H8zM10 16h1v1h-1zM11 16h1v1h-1zM8 17h1v1H8zM9 17h1v1H9zM10 17h1v1h-1zM11 17h1v1h-1zM8 18h1v1H8zM9 18h1v1H9zM10 18h1v1h-1zM11 18h1v1h-1zM8 19h1v1H8zM9 19h1v1H9zM10 19h1v1h-1zM11 19h1v1h-1zM8 20h1v1H8zM9 20h1v1H9zM10 20h1v1h-1zM11 20h1v1h-1zM9 21h1v1H9zM10 21h1v1h-1z"/></svg>