<svg xmlns="http://www.w3.org/2000/svg" width="24" height="24" shape-rendering="crispEdges"><path d="M4 5h1v1H4zM5 5h1v1H5zM10 5h1v1h-1zM11 5h1v1h-1zM12 5h1v1h-1zM13 5h1v1h-1zM14 5h1v1h-1zM15 5h1v1h-1zM16 5h1v1h-1zM17 5h1v1h-1zM18 5h1v1h-1zM3 6h1v1H3zM4 6h1v1H4zM5 6h1v1H5zM6 6h1v1H6zM10 6h1v1h-1zM11 6h1v1h-1zM12 6h1v1h-1zM13 6h1v1h-1zM14 6h1v1h-1zM15 6h1v1h-1zM16 6h1v1h-1zM17 6h1v1h-1zM18 6h1v1h-1zM19 6h1v1h-1zM2 7h1v1H2zM3 7h1v1H3zM4 7h1v1H4zM5 7h1v1H5zM6 7h1v1H6zM7 7h1v1H7zM18 7h1v1h-1zM19 7h1v1h-1zM1 8h1v1H1zM2 8h1v1H2zM3 8h1v1H3zM4 8h1v1H4zM5 8h1v1H5zM6 8h1v1H6zM7 8h1v1H7zM8 8h1v1H8zM18 8h1v1h-1zM19 8h1v1h-1zM1 9h1v1H1zM2 9h1v1H2zM4 9h1v1H4zM5 9h1v1H5zM7 9h1v1H7zM8 9h1v1H8zM18 9h1v1h-1zM19 9h1v1h-1zM4 10h1v1H4zM5 10h1v1H5zM18 10h1v1h-1zM19 10h1v1h-1zM4 11h1v1H4zM5 11h1v1H5zM18 11h1v1h-1zM19 11h1v1h-1zM4 12h1v1H4zM5 12h1v1H5zM18 12h1v1h-1zM19 12h1v1h-1zM4 13h1v1H4zM5 13h1v1H5zM18 13h1v1h-1zM19 13h1v1h-1zM4 14h1v1H4zM5 14h1v1H5zM15 14h1v1h-1zM16 14h1v1h-1zM18 14h1v1h-1zM19 14h1v1h-1zM21 14h1v1h-1zM22 14h1v1h-1zM4 15h1v1H4zM5 15h1v1H5zM15 15h1v1h-1zM16 15h1v1h-1zM17 15h1v1h-1zM18 15h1v1h-1zM19 15h1v1h-1zM20 15h1v1h-1zM21 15h1v1h-1zM22 15h1v1h-1zM4 16h1v1H4zM5 16h1v1H5zM16 16h1v1h-1zM17 16h1v1h-1zM18 16h1v1h-1zM19 16h1v1h-1zM20 16h1v1h-1zM21 16h1v1h-1zM4 17h1v1H4zM5 17h1v1H5zM6 17h1v1H6zM7 17h1v1H7zM8 17h1v1H8zM9 17h1v1H9zM10 17h1v1h-1zM11 17h1v1h-1zM12 17h1v1h-1zM13 17h1v1h-1zM17 17h1v1h-1zM18 17h1v1h-1zM19 17h1v1h-1zM20 17h1v1h-1zM5 18h1v1H5zM6 18h1v1H6zM7 18h1v1H7zM8 18h1v1H8zM9 18h1v1H9zM10 18h1v1h-1zM11 18h1v1h-1zM12 18h1v1h-1zM13 18h1v1h-1zM18 18h1v1h-1zM19 18h1v1h-1z"/></svg>