<svg xmlns="http://www.w3.org/2000/svg" width="24" height="24" shape-rendering="crispEdges"><path d="M8 6h1v1H8zM9 6h1v1H9zM7 7h1v1H7zM8 7h1v1H8zM9 7h1v1H9zM6 8h1v1H6zM7 8h1v1H7zM8 8h1v1H8zM5 9h1v1H5zM6 9h1v1H6zM7 9h1v1H7zM4 10h1v1H4zM5 10h1v1H5zM6 10h1v1H6zM3 11h1v1H3zM4 11h1v1H4zM5 11h1v1H5zM6 11h1v1H6zM7 11h1v1H7zM8 11h1v1H8zM9 11h1v1H9zM10 11h1v1h-1zM11 11h1v1h-1zM12 11h1v1h-1zM13 11h1v1h-1zM14 11h1v1h-1zM15 11h1v1h-1zM16 11h1v1h-1zM17 11h1v1h-1zM3 12h1v1H3zM4 12h1v1H4zM5 12h1v1H5zM6 12h1v1H6zM7 12h1v1H7zM8 12h1v1H8zM9 12h1v1H9zM10 12h1v1h-1zM11 12h1v1h-1zM12 12h1v1h-1zM13 12h1v1h-1zM14 12h1v1h-1zM15 12h1v1h-1zM16 12h1v1h-1zM17 12h1v1h-1zM18 12h1v1h-1zM19 12h1v1h-1zM4 13h1v1H4zM5 13h1v1H5zM6 13h1v1H6zM18 13h1v1h-1zM19 13h1v1h-1zM5 14h1v1H5zM6 14h1v1H6zM7 14h1v1H7zM19 14h1v1h-1zM20 14h1v1h-1zM6 15h1v1H6zM7 15h1v1H7zM8 15h1v1H8zM19 15h1v1h-1zM20 15h1v1h-1zM7 16h1v1H7zM8 16h1v1H8zM9 16h1v1H9zM19 16h1v1h-1zM20 16h1v1h-1zM8 17h1v1H8zM9 17h1v1H9zM19 17h1v1h-1zM20 17h1v1h-1zM19 18h1v1h-1zM20 18h1v1h-1z"/></svg>