<svg xmlns="http://www.w3.org/2000/svg" width="24" height="24" shape-rendering="crispEdges"><path d="M8 2h1v1H8zM9 2h1v1H9zM10 2h1v1h-1zM11 2h1v1h-1zM12 2h1v1h-1zM13 2h1v1h-1zM14 2h1v1h-1zM15 2h1v1h-1zM8 3h1v1H8zM9 3h1v1H9zM10 3h1v1h-1zM11 3h1v1h-1zM12 3h1v1h-1zM13 3h1v1h-1zM14 3h1v1h-1zM15 3h1v1h-1zM16 3h1v1h-1zM17 3h1v1h-1zM8 4h1v1H8zM9 4h1v1H9zM16 4h1v1h-1zM17 4h1v1h-1zM8 5h1v1H8zM9 5h1v1H9zM17 5h1v1h-1zM18 5h1v1h-1zM8 6h1v1H8zM9 6h1v1H9zM17 6h1v1h-1zM18 6h1v1h-1zM8 7h1v1H8zM9 7h1v1H9zM17 7h1v1h-1zM18 7h1v1h-1zM8 8h1v1H8zM9 8h1v1H9zM17 8h1v1h-1zM18 8h1v1h-1zM8 9h1v1H8zM9 9h1v1H9zM16 9h1v1h-1zM17 9h1v1h-1zM5 10h1v1H5zM6 10h1v1H6zM7 10h1v1H7zM8 10h1v1H8zM9 10h1v1H9zM10 10h1v1h-1zM11 10h1v1h-1zM12 10h1v1h-1zM13 10h1v1h-1zM14 10h1v1h-1zM15 10h1v1h-1zM16 10h1v1h-1zM5 11h1v1H5zM6 11h1v1H6zM7 11h1v1H7zM8 11h1v1H8zM9 11h1v1H9zM10 11h1v1h-1zM11 11h1v1h-1zM12 11h1v1h-1zM13 11h1v1h-1zM14 11h1v1h-1zM15 11h1v1h-1zM8 12h1v1H8zM9 12h1v1H9zM8 13h1v1H8zM9 13h1v1H9zM5 14h1v1H5zM6 14h1v1H6zM7 14h1v1H7zM8 14h1v1H8zM9 14h1v1H9zM10 14h1v1h-1zM11 14h1v1h-1zM12 14h1v1h-1zM13 14h1v1h-1zM14 14h1v1h-1zM5 15h1v1H5zM6 15h1v1H6zM7 15h1v1H7zM8 15h1v1H8zM9 15h1v1H9zM10 15h1v1h-1zM11 15h1v1h-1zM12 15h1v1h-1zM13 15h1v1h-1zM14 15h1v1h-1zM8 16h1v1H8zM9 16h1v1H9zM8 17h1v1H8zM9 17h1v1H9zM8 18h1v1H8zM9 18h1v1H9zM8 19h1v1H8zM9 19h1v1H9zM8 20h1v1H8zM9 20h1v1H9zM8 21h1v1H8zM9 21h1v1H9z"/></svg>