<svg xmlns="http://www.w3.org/2000/svg" width="24" height="24" shape-rendering="crispEdges"><path d="M2 5h1v1H2zM3 5h1v1H3zM4 5h1v1H4zM5 5h1v1H5zM13 5h1v1h-1zM14 5h1v1h-1zM1 6h1v1H1zM2 6h1v1H2zM3 6h1v1H3zM4 6h1v1H4zM5 6h1v1H5zM6 6h1v1H6zM12 6h1v1h-1zM13 6h1v1h-1zM14 6h1v1h-1zM1 7h1v1H1zM2 7h1v1H2zM5 7h1v1H5zM6 7h1v1H6zM11 7h1v1h-1zM12 7h1v1h-1zM13 7h1v1h-1zM1 8h1v1H1zM2 8h1v1H2zM5 8h1v1H5zM6 8h1v1H6zM10 8h1v1h-1zM11 8h1v1h-1zM12 8h1v1h-1zM1 9h1v1H1zM2 9h1v1H2zM3 9h1v1H3zM4 9h1v1H4zM5 9h1v1H5zM6 9h1v1H6zM9 9h1v1H9zM10 9h1v1h-1zM11 9h1v1h-1zM2 10h1v1H2zM3 10h1v1H3zM4 10h1v1H4zM5 10h1v1H5zM6 10h1v1H6zM7 10h1v1H7zM8 10h1v1H8zM9 10h1v1H9zM10 10h1v1h-1zM6 11h1v1H6zM7 11h1v1H7zM8 11h1v1H8zM9 11h1v1H9zM13 11h1v1h-1zM14 11h1v1h-1zM15 11h1v1h-1zM16 11h1v1h-1zM19 11h1v1h-1zM20 11h1v1h-1zM21 11h1v1h-1zM22 11h1v1h-1zM6 12h1v1H6zM7 12h1v1H7zM8 12h1v1H8zM13 12h1v1h-1zM14 12h1v1h-1zM15 12h1v1h-1zM16 12h1v1h-1zM19 12h1v1h-1zM20 12h1v1h-1zM21 12h1v1h-1zM22 12h1v1h-1zM2 13h1v1H2zM3 13h1v1H3zM4 13h1v1H4zM5 13h1v1H5zM6 13h1v1H6zM7 13h1v1H7zM1 14h1v1H1zM2 14h1v1H2zM3 14h1v1H3zM4 14h1v1H4zM5 14h1v1H5zM6 14h1v1H6zM10 14h1v1h-1zM11 14h1v1h-1zM1 15h1v1H1zM2 15h1v1H2zM5 15h1v1H5zM6 15h1v1H6zM10 15h1v1h-1zM11 15h1v1h-1zM12 15h1v1h-1zM1 16h1v1H1zM2 16h1v1H2zM5 16h1v1H5zM6 16h1v1H6zM11 16h1v1h-1zM12 16h1v1h-1zM13 16h1v1h-1zM1 17h1v1H1zM2 17h1v1H2zM3 17h1v1H3zM4 17h1v1H4zM5 17h1v1H5zM6 17h1v1H6zM12 17h1v1h-1zM13 17h1v1h-1zM14 17h1v1h-1zM2 18h1v1H2zM3 18h1v1H3zM4 18h1v1H4zM5 18h1v1H5zM13 18h1v1h-1zM14 18h1v1h-1z"/></svg>