<svg xmlns="http://www.w3.org/2000/svg" width="24" height="24" shape-rendering="crispEdges"><path d="M8 2h1v1H8zM9 2h1v1H9zM10 2h1v1h-1zM11 2h1v1h-1zM12 2h1v1h-1zM13 2h1v1h-1zM6 3h1v1H6zM7 3h1v1H7zM8 3h1v1H8zM9 3h1v1H9zM10 3h1v1h-1zM11 3h1v1h-1zM12 3h1v1h-1zM13 3h1v1h-1zM14 3h1v1h-1zM15 3h1v1h-1zM5 4h1v1H5zM6 4h1v1H6zM7 4h1v1H7zM14 4h1v1h-1zM15 4h1v1h-1zM16 4h1v1h-1zM4 5h1v1H4zM5 5h1v1H5zM6 5h1v1H6zM15 5h1v1h-1zM16 5h1v1h-1zM17 5h1v1h-1zM3 6h1v1H3zM4 6h1v1H4zM5 6h1v1H5zM16 6h1v1h-1zM17 6h1v1h-1zM18 6h1v1h-1zM3 7h1v1H3zM4 7h1v1H4zM17 7h1v1h-1zM18 7h1v1h-1zM2 8h1v1H2zM3 8h1v1H3zM8 8h1v1H8zM9 8h1v1H9zM12 8h1v1h-1zM13 8h1v1h-1zM18 8h1v1h-1zM19 8h1v1h-1zM2 9h1v1H2zM3 9h1v1H3zM7 9h1v1H7zM8 9h1v1H8zM13 9h1v1h-1zM14 9h1v1h-1zM18 9h1v1h-1zM19 9h1v1h-1zM2 10h1v1H2zM3 10h1v1H3zM6 10h1v1H6zM7 10h1v1H7zM8 10h1v1H8zM13 10h1v1h-1zM14 10h1v1h-1zM15 10h1v1h-1zM18 10h1v1h-1zM19 10h1v1h-1zM2 11h1v1H2zM3 11h1v1H3zM6 11h1v1H6zM7 11h1v1H7zM8 11h1v1H8zM13 11h1v1h-1zM14 11h1v1h-1zM15 11h1v1h-1zM18 11h1v1h-1zM19 11h1v1h-1zM2 12h1v1H2zM3 12h1v1H3zM7 12h1v1H7zM8 12h1v1H8zM13 12h1v1h-1zM14 12h1v1h-1zM18 12h1v1h-1zM19 12h1v1h-1zM2 13h1v1H2zM3 13h1v1H3zM8 13h1v1H8zM9 13h1v1H9zM12 13h1v1h-1zM13 13h1v1h-1zM18 13h1v1h-1zM19 13h1v1h-1zM3 14h1v1H3zM4 14h1v1H4zM17 14h1v1h-1zM18 14h1v1h-1zM3 15h1v1H3zM4 15h1v1H4zM5 15h1v1H5zM16 15h1v1h-1zM17 15h1v1h-1zM18 15h1v1h-1zM4 16h1v1H4zM5 16h1v1H5zM6 16h1v1H6zM15 16h1v1h-1zM16 16h1v1h-1zM17 16h1v1h-1zM5 17h1v1H5zM6 17h1v1H6zM7 17h1v1H7zM14 17h1v1h-1zM15 17h1v1h-1zM16 17h1v1h-1zM17 17h1v1h-1zM18 17h1v1h-1zM6 18h1v1H6zM7 18h1v1H7zM8 18h1v1H8zM9 18h1v1H9zM10 18h1v1h-1zM11 18h1v1h-1zM12 18h1v1h-1zM13 18h1v1h-1zM14 18h1v1h-1zM15 18h1v1h-1zM17 18h1v1h-1zM18 18h1v1h-1zM19 18h1v1h-1zM8 19h1v1H8zM9 19h1v1H9zM10 19h1v1h-1zM11 19h1v1h-1zM12 19h1v1h-1zM13 19h1v1h-1zM18 19h1v1h-1zM19 19h1v1h-1zM20 19h1v1h-1zM19 20h1v1h-1zM20 20h1v1h-1zM21 20h1v1h-1zM20 21h1v1h-1zM21 21h1v1h-1z"/></svg>