<svg xmlns="http://www.w3.org/2000/svg" width="24" height="24" shape-rendering="crispEdges"><path d="M8 3h1v1H8zM9 3h1v1H9zM14 3h1v1h-1zM15 3h1v1h-1zM8 4h1v1H8zM9 4h1v1H9zM14 4h1v1h-1zM15 4h1v1h-1zM7 5h1v1H7zM8 5h1v1H8zM15 5h1v1h-1zM16 5h1v1h-1zM6 6h1v1H6zM7 6h1v1H7zM8 6h1v1H8zM15 6h1v1h-1zM16 6h1v1h-1zM17 6h1v1h-1zM6 7h1v1H6zM7 7h1v1H7zM16 7h1v1h-1zM17 7h1v1h-1zM5 8h1v1H5zM6 8h1v1H6zM7 8h1v1H7zM16 8h1v1h-1zM17 8h1v1h-1zM18 8h1v1h-1zM5 9h1v1H5zM6 9h1v1H6zM17 9h1v1h-1zM18 9h1v1h-1zM1 10h1v1H1zM2 10h1v1H2zM3 10h1v1H3zM4 10h1v1H4zM5 10h1v1H5zM6 10h1v1H6zM7 10h1v1H7zM8 10h1v1H8zM9 10h1v1H9zM10 10h1v1h-1zM11 10h1v1h-1zM12 10h1v1h-1zM13 10h1v1h-1zM14 10h1v1h-1zM15 10h1v1h-1zM16 10h1v1h-1zM17 10h1v1h-1zM18 10h1v1h-1zM19 10h1v1h-1zM20 10h1v1h-1zM21 10h1v1h-1zM22 10h1v1h-1zM1 11h1v1H1zM2 11h1v1H2zM3 11h1v1H3zM4 11h1v1H4zM5 11h1v1H5zM6 11h1v1H6zM7 11h1v1H7zM8 11h1v1H8zM9 11h1v1H9zM10 11h1v1h-1zM11 11h1v1h-1zM12 11h1v1h-1zM13 11h1v1h-1zM14 11h1v1h-1zM15 11h1v1h-1zM16 11h1v1h-1zM17 11h1v1h-1zM18 11h1v1h-1zM19 11h1v1h-1zM20 11h1v1h-1zM21 11h1v1h-1zM22 11h1v1h-1zM3 12h1v1H3zM4 12h1v1H4zM8 12h1v1H8zM9 12h1v1H9zM14 12h1v1h-1zM15 12h1v1h-1zM19 12h1v1h-1zM20 12h1v1h-1zM3 13h1v1H3zM4 13h1v1H4zM8 13h1v1H8zM9 13h1v1H9zM14 13h1v1h-1zM15 13h1v1h-1zM19 13h1v1h-1zM20 13h1v1h-1zM3 14h1v1H3zM4 14h1v1H4zM5 14h1v1H5zM8 14h1v1H8zM9 14h1v1H9zM10 14h1v1h-1zM13 14h1v1h-1zM14 14h1v1h-1zM15 14h1v1h-1zM18 14h1v1h-1zM19 14h1v1h-1zM20 14h1v1h-1zM3 15h1v1H3zM4 15h1v1H4zM5 15h1v1H5zM6 15h1v1H6zM7 15h1v1H7zM8 15h1v1H8zM9 15h1v1H9zM10 15h1v1h-1zM11 15h1v1h-1zM12 15h1v1h-1zM13 15h1v1h-1zM14 15h1v1h-1zM15 15h1v1h-1zM16 15h1v1h-1zM17 15h1v1h-1zM18 15h1v1h-1zM19 15h1v1h-1zM20 15h1v1h-1zM4 16h1v1H4zM5 16h1v1H5zM6 16h1v1H6zM7 16h1v1H7zM8 16h1v1H8zM9 16h1v1H9zM10 16h1v1h-1zM11 16h1v1h-1zM12 16h1v1h-1zM13 16h1v1h-1zM14 16h1v1h-1zM15 16h1v1h-1zM16 16h1v1h-1zM17 16h1v1h-1zM18 16h1v1h-1zM19 16h1v1h-1zM4 17h1v1H4zM5 17h1v1H5zM9 17h1v1H9zM10 17h1v1h-1zM13 17h1v1h-1zM14 17h1v1h-1zM18 17h1v1h-1zM19 17h1v1h-1zM4 18h1v1H4zM5 18h1v1H5zM9 18h1v1H9zM10 18h1v1h-1zM13 18h1v1h-1zM14 18h1v1h-1zM18 18h1v1h-1zM19 18h1v1h-1zM5 19h1v1H5zM6 19h1v1H6zM7 19h1v1H7zM8 19h1v1H8zM9 19h1v1H9zM10 19h1v1h-1zM11 19h1v1h-1zM12 19h1v1h-1zM13 19h1v1h-1zM14 19h1v1h-1zM15 19h1v1h-1zM16 19h1v1h-1zM17 19h1v1h-1zM18 19h1v1h-1zM5 20h1v1H5zM6 20h1v1H6zM7 20h1v1H7zM8 20h1v1H8zM9 20h1v1H9zM10 20h1v1h-1zM11 20h1v1h-1zM12 20h1v1h-1zM13 20h1v1h-1zM14 20h1v1h-1zM15 20h1v1h-1zM16 20h1v1h-1zM17 20h1v1h-1z"/></svg>