<svg xmlns="http://www.w3.org/2000/svg" width="24" height="24" shape-rendering="crispEdges"><path d="M3 3h1v1H3zM4 3h1v1H4zM3 4h1v1H3zM4 4h1v1H4zM5 4h1v1H5zM8 4h1v1H8zM9 4h1v1H9zM10 4h1v1h-1zM11 4h1v1h-1zM14 4h1v1h-1zM15 4h1v1h-1zM4 5h1v1H4zM5 5h1v1H5zM6 5h1v1H6zM7 5h1v1H7zM8 5h1v1H8zM9 5h1v1H9zM10 5h1v1h-1zM11 5h1v1h-1zM12 5h1v1h-1zM13 5h1v1h-1zM14 5h1v1h-1zM15 5h1v1h-1zM5 6h1v1H5zM6 6h1v1H6zM7 6h1v1H7zM12 6h1v1h-1zM13 6h1v1h-1zM14 6h1v1h-1zM5 7h1v1H5zM6 7h1v1H6zM11 7h1v1h-1zM12 7h1v1h-1zM13 7h1v1h-1zM4 8h1v1H4zM5 8h1v1H5zM10 8h1v1h-1zM11 8h1v1h-1zM12 8h1v1h-1zM4 9h1v1H4zM5 9h1v1H5zM9 9h1v1H9zM10 9h1v1h-1zM11 9h1v1h-1zM15 9h1v1h-1zM16 9h1v1h-1zM4 10h1v1H4zM5 10h1v1H5zM8 10h1v1H8zM9 10h1v1H9zM10 10h1v1h-1zM15 10h1v1h-1zM16 10h1v1h-1zM19 10h1v1h-1zM20 10h1v1h-1zM4 11h1v1H4zM5 11h1v1H5zM7 11h1v1H7zM8 11h1v1H8zM9 11h1v1H9zM19 11h1v1h-1zM20 11h1v1h-1zM5 12h1v1H5zM6 12h1v1H6zM7 12h1v1H7zM8 12h1v1H8zM12 12h1v1h-1zM13 12h1v1h-1zM5 13h1v1H5zM6 13h1v1H6zM7 13h1v1H7zM12 13h1v1h-1zM13 13h1v1h-1zM16 13h1v1h-1zM17 13h1v1h-1zM4 14h1v1H4zM5 14h1v1H5zM6 14h1v1H6zM16 14h1v1h-1zM17 14h1v1h-1zM4 15h1v1H4zM5 15h1v1H5zM9 15h1v1H9zM10 15h1v1h-1zM9 16h1v1H9zM10 16h1v1h-1zM13 16h1v1h-1zM14 16h1v1h-1zM13 17h1v1h-1zM14 17h1v1h-1zM10 19h1v1h-1zM11 19h1v1h-1zM10 20h1v1h-1zM11 20h1v1h-1z"/></svg>