<svg xmlns="http://www.w3.org/2000/svg" width="24" height="24" shape-rendering="crispEdges"><path d="M5 3h1v1H5zM6 3h1v1H6zM7 3h1v1H7zM8 3h1v1H8zM9 3h1v1H9zM10 3h1v1h-1zM11 3h1v1h-1zM12 3h1v1h-1zM13 3h1v1h-1zM14 3h1v1h-1zM15 3h1v1h-1zM16 3h1v1h-1zM17 3h1v1h-1zM5 4h1v1H5zM6 4h1v1H6zM7 4h1v1H7zM8 4h1v1H8zM9 4h1v1H9zM10 4h1v1h-1zM11 4h1v1h-1zM12 4h1v1h-1zM13 4h1v1h-1zM14 4h1v1h-1zM15 4h1v1h-1zM16 4h1v1h-1zM17 4h1v1h-1zM18 4h1v1h-1zM5 5h1v1H5zM6 5h1v1H6zM7 5h1v1H7zM17 5h1v1h-1zM18 5h1v1h-1zM6 6h1v1H6zM7 6h1v1H7zM8 6h1v1H8zM17 6h1v1h-1zM18 6h1v1h-1zM7 7h1v1H7zM8 7h1v1H8zM17 7h1v1h-1zM18 7h1v1h-1zM8 8h1v1H8zM9 8h1v1H9zM8 9h1v1H8zM9 9h1v1H9zM10 9h1v1h-1zM9 10h1v1H9zM10 10h1v1h-1zM11 10h1v1h-1zM10 11h1v1h-1zM11 11h1v1h-1zM10 12h1v1h-1zM11 12h1v1h-1zM9 13h1v1H9zM10 13h1v1h-1zM11 13h1v1h-1zM8 14h1v1H8zM9 14h1v1H9zM10 14h1v1h-1zM8 15h1v1H8zM9 15h1v1H9zM7 16h1v1H7zM8 16h1v1H8zM17 16h1v1h-1zM18 16h1v1h-1zM6 17h1v1H6zM7 17h1v1H7zM8 17h1v1H8zM17 17h1v1h-1zM18 17h1v1h-1zM5 18h1v1H5zM6 18h1v1H6zM7 18h1v1H7zM17 18h1v1h-1zM18 18h1v1h-1zM5 19h1v1H5zM6 19h1v1H6zM7 19h1v1H7zM8 19h1v1H8zM9 19h1v1H9zM10 19h1v1h-1zM11 19h1v1h-1zM12 19h1v1h-1zM13 19h1v1h-1zM14 19h1v1h-1zM15 19h1v1h-1zM16 19h1v1h-1zM17 19h1v1h-1zM18 19h1v1h-1zM6 20h1v1H6zM7 20h1v1H7zM8 20h1v1H8zM9 20h1v1H9zM10 20h1v1h-1zM11 20h1v1h-1zM12 20h1v1h-1zM13 20h1v1h-1zM14 20h1v1h-1zM15 20h1v1h-1zM16 20h1v1h-1zM17 20h1v1h-1z"/></svg>