<svg xmlns="http://www.w3.org/2000/svg" width="24" height="24" shape-rendering="crispEdges"><path d="M11 11h1v1h-1zM12 11h1v1h-1zM11 12h1v1h-1zM12 12h1v1h-1zM11 13h1v1h-1zM12 13h1v1h-1zM11 14h1v1h-1zM12 14h1v1h-1zM6 15h1v1H6zM7 15h1v1H7zM11 15h1v1h-1zM12 15h1v1h-1zM6 16h1v1H6zM7 16h1v1H7zM11 16h1v1h-1zM12 16h1v1h-1zM6 17h1v1H6zM7 17h1v1H7zM11 17h1v1h-1zM12 17h1v1h-1zM6 18h1v1H6zM7 18h1v1H7zM11 18h1v1h-1zM12 18h1v1h-1zM1 19h1v1H1zM2 19h1v1H2zM6 19h1v1H6zM7 19h1v1H7zM11 19h1v1h-1zM12 19h1v1h-1zM1 20h1v1H1zM2 20h1v1H2zM6 20h1v1H6zM7 20h1v1H7zM11 20h1v1h-1zM12 20h1v1h-1z"/></svg>