<svg xmlns="http://www.w3.org/2000/svg" width="24" height="24" shape-rendering="crispEdges"><path d="M21 1h1v1h-1zM22 1h1v1h-1zM20 2h1v1h-1zM21 2h1v1h-1zM22 2h1v1h-1zM19 3h1v1h-1zM20 3h1v1h-1zM21 3h1v1h-1zM18 4h1v1h-1zM19 4h1v1h-1zM20 4h1v1h-1zM17 5h1v1h-1zM18 5h1v1h-1zM19 5h1v1h-1zM16 6h1v1h-1zM17 6h1v1h-1zM18 6h1v1h-1zM15 7h1v1h-1zM16 7h1v1h-1zM17 7h1v1h-1zM14 8h1v1h-1zM15 8h1v1h-1zM16 8h1v1h-1zM13 9h1v1h-1zM14 9h1v1h-1zM15 9h1v1h-1zM12 10h1v1h-1zM13 10h1v1h-1zM14 10h1v1h-1zM11 11h1v1h-1zM12 11h1v1h-1zM13 11h1v1h-1zM10 12h1v1h-1zM11 12h1v1h-1zM12 12h1v1h-1zM9 13h1v1H9zM10 13h1v1h-1zM11 13h1v1h-1zM8 14h1v1H8zM9 14h1v1H9zM10 14h1v1h-1zM7 15h1v1H7zM8 15h1v1H8zM9 15h1v1H9zM6 16h1v1H6zM7 16h1v1H7zM8 16h1v1H8zM5 17h1v1H5zM6 17h1v1H6zM7 17h1v1H7zM4 18h1v1H4zM5 18h1v1H5zM6 18h1v1H6zM3 19h1v1H3zM4 19h1v1H4zM5 19h1v1H5zM2 20h1v1H2zM3 20h1v1H3zM4 20h1v1H4zM1 21h1v1H1zM2 21h1v1H2zM3 21h1v1H3zM1 22h1v1H1zM2 22h1v1H2z"/></svg>