<svg xmlns="http://www.w3.org/2000/svg" width="24" height="24" shape-rendering="crispEdges"><path d="M3 2h1v1H3zM4 2h1v1H4zM11 2h1v1h-1zM12 2h1v1h-1zM19 2h1v1h-1zM20 2h1v1h-1zM3 3h1v1H3zM4 3h1v1H4zM11 3h1v1h-1zM12 3h1v1h-1zM19 3h1v1h-1zM20 3h1v1h-1zM3 4h1v1H3zM4 4h1v1H4zM11 4h1v1h-1zM12 4h1v1h-1zM19 4h1v1h-1zM20 4h1v1h-1zM3 5h1v1H3zM4 5h1v1H4zM11 5h1v1h-1zM12 5h1v1h-1zM19 5h1v1h-1zM20 5h1v1h-1zM3 6h1v1H3zM4 6h1v1H4zM11 6h1v1h-1zM12 6h1v1h-1zM19 6h1v1h-1zM20 6h1v1h-1zM3 7h1v1H3zM4 7h1v1H4zM9 7h1v1H9zM10 7h1v1h-1zM11 7h1v1h-1zM12 7h1v1h-1zM13 7h1v1h-1zM14 7h1v1h-1zM19 7h1v1h-1zM20 7h1v1h-1zM3 8h1v1H3zM4 8h1v1H4zM9 8h1v1H9zM10 8h1v1h-1zM11 8h1v1h-1zM12 8h1v1h-1zM13 8h1v1h-1zM14 8h1v1h-1zM19 8h1v1h-1zM20 8h1v1h-1zM3 9h1v1H3zM4 9h1v1H4zM19 9h1v1h-1zM20 9h1v1h-1zM3 10h1v1H3zM4 10h1v1H4zM19 10h1v1h-1zM20 10h1v1h-1zM11 11h1v1h-1zM12 11h1v1h-1zM19 11h1v1h-1zM20 11h1v1h-1zM11 12h1v1h-1zM12 12h1v1h-1zM19 12h1v1h-1zM20 12h1v1h-1zM1 13h1v1H1zM2 13h1v1H2zM3 13h1v1H3zM4 13h1v1H4zM5 13h1v1H5zM6 13h1v1H6zM11 13h1v1h-1zM12 13h1v1h-1zM1 14h1v1H1zM2 14h1v1H2zM3 14h1v1H3zM4 14h1v1H4zM5 14h1v1H5zM6 14h1v1H6zM11 14h1v1h-1zM12 14h1v1h-1zM3 15h1v1H3zM4 15h1v1H4zM11 15h1v1h-1zM12 15h1v1h-1zM17 15h1v1h-1zM18 15h1v1h-1zM19 15h1v1h-1zM20 15h1v1h-1zM21 15h1v1h-1zM22 15h1v1h-1zM3 16h1v1H3zM4 16h1v1H4zM11 16h1v1h-1zM12 16h1v1h-1zM17 16h1v1h-1zM18 16h1v1h-1zM19 16h1v1h-1zM20 16h1v1h-1zM21 16h1v1h-1zM22 16h1v1h-1zM3 17h1v1H3zM4 17h1v1H4zM11 17h1v1h-1zM12 17h1v1h-1zM19 17h1v1h-1zM20 17h1v1h-1zM3 18h1v1H3zM4 18h1v1H4zM11 18h1v1h-1zM12 18h1v1h-1zM19 18h1v1h-1zM20 18h1v1h-1zM3 19h1v1H3zM4 19h1v1H4zM11 19h1v1h-1zM12 19h1v1h-1zM19 19h1v1h-1zM20 19h1v1h-1zM3 20h1v1H3zM4 20h1v1H4zM11 20h1v1h-1zM12 20h1v1h-1zM19 20h1v1h-1zM20 20h1v1h-1zM3 21h1v1H3zM4 21h1v1H4zM11 21h1v1h-1zM12 21h1v1h-1zM19 21h1v1h-1zM20 21h1v1h-1z"/></svg>