<svg xmlns="http://www.w3.org/2000/svg" width="24" height="24" shape-rendering="crispEdges"><path d="M11 1h1v1h-1zM12 1h1v1h-1zM10 2h1v1h-1zM11 2h1v1h-1zM12 2h1v1h-1zM13 2h1v1h-1zM19 2h1v1h-1zM20 2h1v1h-1zM10 3h1v1h-1zM11 3h1v1h-1zM12 3h1v1h-1zM13 3h1v1h-1zM19 3h1v1h-1zM20 3h1v1h-1zM10 4h1v1h-1zM11 4h1v1h-1zM12 4h1v1h-1zM13 4h1v1h-1zM17 4h1v1h-1zM18 4h1v1h-1zM19 4h1v1h-1zM20 4h1v1h-1zM21 4h1v1h-1zM22 4h1v1h-1zM10 5h1v1h-1zM11 5h1v1h-1zM12 5h1v1h-1zM13 5h1v1h-1zM17 5h1v1h-1zM18 5h1v1h-1zM19 5h1v1h-1zM20 5h1v1h-1zM21 5h1v1h-1zM22 5h1v1h-1zM9 6h1v1H9zM10 6h1v1h-1zM13 6h1v1h-1zM14 6h1v1h-1zM19 6h1v1h-1zM20 6h1v1h-1zM9 7h1v1H9zM10 7h1v1h-1zM13 7h1v1h-1zM14 7h1v1h-1zM19 7h1v1h-1zM20 7h1v1h-1zM9 8h1v1H9zM10 8h1v1h-1zM13 8h1v1h-1zM14 8h1v1h-1zM6 9h1v1H6zM7 9h1v1H7zM8 9h1v1H8zM9 9h1v1H9zM14 9h1v1h-1zM15 9h1v1h-1zM16 9h1v1h-1zM17 9h1v1h-1zM2 10h1v1H2zM3 10h1v1H3zM4 10h1v1H4zM5 10h1v1H5zM6 10h1v1H6zM7 10h1v1H7zM8 10h1v1H8zM15 10h1v1h-1zM16 10h1v1h-1zM17 10h1v1h-1zM18 10h1v1h-1zM19 10h1v1h-1zM20 10h1v1h-1zM21 10h1v1h-1zM1 11h1v1H1zM2 11h1v1H2zM3 11h1v1H3zM4 11h1v1H4zM5 11h1v1H5zM18 11h1v1h-1zM19 11h1v1h-1zM20 11h1v1h-1zM21 11h1v1h-1zM22 11h1v1h-1zM1 12h1v1H1zM2 12h1v1H2zM3 12h1v1H3zM4 12h1v1H4zM5 12h1v1H5zM18 12h1v1h-1zM19 12h1v1h-1zM20 12h1v1h-1zM21 12h1v1h-1zM22 12h1v1h-1zM2 13h1v1H2zM3 13h1v1H3zM4 13h1v1H4zM5 13h1v1H5zM6 13h1v1H6zM7 13h1v1H7zM8 13h1v1H8zM15 13h1v1h-1zM16 13h1v1h-1zM17 13h1v1h-1zM18 13h1v1h-1zM19 13h1v1h-1zM20 13h1v1h-1zM21 13h1v1h-1zM6 14h1v1H6zM7 14h1v1H7zM8 14h1v1H8zM9 14h1v1H9zM14 14h1v1h-1zM15 14h1v1h-1zM16 14h1v1h-1zM17 14h1v1h-1zM9 15h1v1H9zM10 15h1v1h-1zM13 15h1v1h-1zM14 15h1v1h-1zM3 16h1v1H3zM4 16h1v1H4zM9 16h1v1H9zM10 16h1v1h-1zM13 16h1v1h-1zM14 16h1v1h-1zM2 17h1v1H2zM3 17h1v1H3zM4 17h1v1H4zM5 17h1v1H5zM9 17h1v1H9zM10 17h1v1h-1zM13 17h1v1h-1zM14 17h1v1h-1zM2 18h1v1H2zM3 18h1v1H3zM4 18h1v1H4zM5 18h1v1H5zM10 18h1v1h-1zM11 18h1v1h-1zM12 18h1v1h-1zM13 18h1v1h-1zM3 19h1v1H3zM4 19h1v1H4zM10 19h1v1h-1zM11 19h1v1h-1zM12 19h1v1h-1zM13 19h1v1h-1zM10 20h1v1h-1zM11 20h1v1h-1zM12 20h1v1h-1zM13 20h1v1h-1zM10 21h1v1h-1zM11 21h1v1h-1zM12 21h1v1h-1zM13 21h1v1h-1zM11 22h1v1h-1zM12 22h1v1h-1z"/></svg>