<svg xmlns="http://www.w3.org/2000/svg" width="24" height="24" shape-rendering="crispEdges"><path d="M11 3h1v1h-1zM12 3h1v1h-1zM11 4h1v1h-1zM12 4h1v1h-1zM10 5h1v1h-1zM11 5h1v1h-1zM12 5h1v1h-1zM13 5h1v1h-1zM10 6h1v1h-1zM11 6h1v1h-1zM12 6h1v1h-1zM13 6h1v1h-1zM9 7h1v1H9zM10 7h1v1h-1zM13 7h1v1h-1zM14 7h1v1h-1zM9 8h1v1H9zM10 8h1v1h-1zM13 8h1v1h-1zM14 8h1v1h-1zM8 9h1v1H8zM9 9h1v1H9zM14 9h1v1h-1zM15 9h1v1h-1zM8 10h1v1H8zM9 10h1v1H9zM14 10h1v1h-1zM15 10h1v1h-1zM7 11h1v1H7zM8 11h1v1H8zM9 11h1v1H9zM10 11h1v1h-1zM11 11h1v1h-1zM12 11h1v1h-1zM13 11h1v1h-1zM14 11h1v1h-1zM15 11h1v1h-1zM16 11h1v1h-1zM7 12h1v1H7zM8 12h1v1H8zM9 12h1v1H9zM10 12h1v1h-1zM11 12h1v1h-1zM12 12h1v1h-1zM13 12h1v1h-1zM14 12h1v1h-1zM15 12h1v1h-1zM16 12h1v1h-1zM6 13h1v1H6zM7 13h1v1H7zM16 13h1v1h-1zM17 13h1v1h-1zM6 14h1v1H6zM7 14h1v1H7zM16 14h1v1h-1zM17 14h1v1h-1zM5 15h1v1H5zM6 15h1v1H6zM17 15h1v1h-1zM18 15h1v1h-1zM5 16h1v1H5zM6 16h1v1H6zM17 16h1v1h-1zM18 16h1v1h-1zM5 19h1v1H5zM6 19h1v1H6zM7 19h1v1H7zM9 19h1v1H9zM10 19h1v1h-1zM11 19h1v1h-1zM14 19h1v1h-1zM15 19h1v1h-1zM16 19h1v1h-1zM19 19h1v1h-1zM20 19h1v1h-1zM3 20h1v1H3zM4 20h1v1H4zM5 20h1v1H5zM6 20h1v1H6zM7 20h1v1H7zM8 20h1v1H8zM9 20h1v1H9zM10 20h1v1h-1zM11 20h1v1h-1zM12 20h1v1h-1zM13 20h1v1h-1zM14 20h1v1h-1zM15 20h1v1h-1zM16 20h1v1h-1zM17 20h1v1h-1zM18 20h1v1h-1zM19 20h1v1h-1zM20 20h1v1h-1zM3 21h1v1H3zM4 21h1v1H4zM7 21h1v1H7zM8 21h1v1H8zM9 21h1v1H9zM12 21h1v1h-1zM13 21h1v1h-1zM14 21h1v1h-1zM16 21h1v1h-1zM17 21h1v1h-1zM18 21h1v1h-1z"/></svg>