<svg xmlns="http://www.w3.org/2000/svg" width="24" height="24" shape-rendering="crispEdges"><path d="M17 2h1v1h-1zM18 2h1v1h-1zM19 2h1v1h-1zM20 2h1v1h-1zM16 3h1v1h-1zM17 3h1v1h-1zM18 3h1v1h-1zM19 3h1v1h-1zM20 3h1v1h-1zM21 3h1v1h-1zM14 4h1v1h-1zM15 4h1v1h-1zM16 4h1v1h-1zM17 4h1v1h-1zM20 4h1v1h-1zM21 4h1v1h-1zM11 5h1v1h-1zM12 5h1v1h-1zM13 5h1v1h-1zM14 5h1v1h-1zM15 5h1v1h-1zM16 5h1v1h-1zM17 5h1v1h-1zM20 5h1v1h-1zM21 5h1v1h-1zM9 6h1v1H9zM10 6h1v1h-1zM11 6h1v1h-1zM12 6h1v1h-1zM13 6h1v1h-1zM16 6h1v1h-1zM17 6h1v1h-1zM18 6h1v1h-1zM19 6h1v1h-1zM20 6h1v1h-1zM21 6h1v1h-1zM8 7h1v1H8zM9 7h1v1H9zM10 7h1v1h-1zM11 7h1v1h-1zM17 7h1v1h-1zM18 7h1v1h-1zM19 7h1v1h-1zM20 7h1v1h-1zM7 8h1v1H7zM8 8h1v1H8zM9 8h1v1H9zM6 9h1v1H6zM7 9h1v1H7zM8 9h1v1H8zM6 10h1v1H6zM7 10h1v1H7zM5 11h1v1H5zM6 11h1v1H6zM7 11h1v1H7zM5 12h1v1H5zM6 12h1v1H6zM5 13h1v1H5zM6 13h1v1H6zM4 14h1v1H4zM5 14h1v1H5zM4 15h1v1H4zM5 15h1v1H5zM3 16h1v1H3zM4 16h1v1H4zM5 16h1v1H5zM6 16h1v1H6zM2 17h1v1H2zM3 17h1v1H3zM4 17h1v1H4zM5 17h1v1H5zM6 17h1v1H6zM7 17h1v1H7zM2 18h1v1H2zM3 18h1v1H3zM6 18h1v1H6zM7 18h1v1H7zM2 19h1v1H2zM3 19h1v1H3zM6 19h1v1H6zM7 19h1v1H7zM2 20h1v1H2zM3 20h1v1H3zM4 20h1v1H4zM5 20h1v1H5zM6 20h1v1H6zM7 20h1v1H7zM3 21h1v1H3zM4 21h1v1H4zM5 21h1v1H5zM6 21h1v1H6z"/></svg>