<svg xmlns="http://www.w3.org/2000/svg" width="24" height="24" shape-rendering="crispEdges"><path d="M2 2h1v1H2zM3 2h1v1H3zM2 3h1v1H2zM3 3h1v1H3zM6 4h1v1H6zM7 4h1v1H7zM14 4h1v1h-1zM15 4h1v1h-1zM16 4h1v1h-1zM17 4h1v1h-1zM18 4h1v1h-1zM19 4h1v1h-1zM6 5h1v1H6zM7 5h1v1H7zM14 5h1v1h-1zM15 5h1v1h-1zM16 5h1v1h-1zM17 5h1v1h-1zM18 5h1v1h-1zM19 5h1v1h-1zM2 6h1v1H2zM3 6h1v1H3zM10 6h1v1h-1zM11 6h1v1h-1zM14 6h1v1h-1zM15 6h1v1h-1zM18 6h1v1h-1zM19 6h1v1h-1zM2 7h1v1H2zM3 7h1v1H3zM10 7h1v1h-1zM11 7h1v1h-1zM14 7h1v1h-1zM15 7h1v1h-1zM18 7h1v1h-1zM19 7h1v1h-1zM6 8h1v1H6zM7 8h1v1H7zM14 8h1v1h-1zM15 8h1v1h-1zM16 8h1v1h-1zM17 8h1v1h-1zM18 8h1v1h-1zM19 8h1v1h-1zM6 9h1v1H6zM7 9h1v1H7zM13 9h1v1h-1zM14 9h1v1h-1zM15 9h1v1h-1zM16 9h1v1h-1zM17 9h1v1h-1zM18 9h1v1h-1zM19 9h1v1h-1zM20 9h1v1h-1zM2 10h1v1H2zM3 10h1v1H3zM12 10h1v1h-1zM13 10h1v1h-1zM14 10h1v1h-1zM19 10h1v1h-1zM20 10h1v1h-1zM21 10h1v1h-1zM2 11h1v1H2zM3 11h1v1H3zM12 11h1v1h-1zM13 11h1v1h-1zM19 11h1v1h-1zM20 11h1v1h-1zM21 11h1v1h-1zM12 12h1v1h-1zM13 12h1v1h-1zM15 12h1v1h-1zM16 12h1v1h-1zM17 12h1v1h-1zM18 12h1v1h-1zM19 12h1v1h-1zM20 12h1v1h-1zM21 12h1v1h-1zM12 13h1v1h-1zM13 13h1v1h-1zM14 13h1v1h-1zM15 13h1v1h-1zM16 13h1v1h-1zM17 13h1v1h-1zM18 13h1v1h-1zM20 13h1v1h-1zM21 13h1v1h-1zM12 14h1v1h-1zM13 14h1v1h-1zM14 14h1v1h-1zM20 14h1v1h-1zM21 14h1v1h-1zM12 15h1v1h-1zM13 15h1v1h-1zM20 15h1v1h-1zM21 15h1v1h-1zM12 16h1v1h-1zM13 16h1v1h-1zM19 16h1v1h-1zM20 16h1v1h-1zM21 16h1v1h-1zM12 17h1v1h-1zM13 17h1v1h-1zM15 17h1v1h-1zM16 17h1v1h-1zM17 17h1v1h-1zM18 17h1v1h-1zM19 17h1v1h-1zM20 17h1v1h-1zM21 17h1v1h-1zM12 18h1v1h-1zM13 18h1v1h-1zM14 18h1v1h-1zM15 18h1v1h-1zM16 18h1v1h-1zM17 18h1v1h-1zM18 18h1v1h-1zM20 18h1v1h-1zM21 18h1v1h-1zM12 19h1v1h-1zM13 19h1v1h-1zM14 19h1v1h-1zM20 19h1v1h-1zM21 19h1v1h-1zM12 20h1v1h-1zM13 20h1v1h-1zM20 20h1v1h-1zM21 20h1v1h-1zM12 21h1v1h-1zM13 21h1v1h-1zM14 21h1v1h-1zM15 21h1v1h-1zM16 21h1v1h-1zM17 21h1v1h-1zM18 21h1v1h-1zM19 21h1v1h-1zM20 21h1v1h-1zM21 21h1v1h-1zM13 22h1v1h-1zM14 22h1v1h-1zM15 22h1v1h-1zM16 22h1v1h-1zM17 22h1v1h-1zM18 22h1v1h-1zM19 22h1v1h-1zM20 22h1v1h-1z"/></svg>