<svg xmlns="http://www.w3.org/2000/svg" width="24" height="24" shape-rendering="crispEdges"><path d="M2 1h1v1H2zM3 1h1v1H3zM4 1h1v1H4zM5 1h1v1H5zM6 1h1v1H6zM7 1h1v1H7zM8 1h1v1H8zM9 1h1v1H9zM1 2h1v1H1zM2 2h1v1H2zM3 2h1v1H3zM4 2h1v1H4zM5 2h1v1H5zM6 2h1v1H6zM7 2h1v1H7zM8 2h1v1H8zM9 2h1v1H9zM10 2h1v1h-1zM1 3h1v1H1zM2 3h1v1H2zM9 3h1v1H9zM10 3h1v1h-1zM1 4h1v1H1zM2 4h1v1H2zM9 4h1v1H9zM10 4h1v1h-1zM1 5h1v1H1zM2 5h1v1H2zM1 6h1v1H1zM2 6h1v1H2zM1 7h1v1H1zM2 7h1v1H2zM8 7h1v1H8zM9 7h1v1H9zM10 7h1v1h-1zM11 7h1v1h-1zM12 7h1v1h-1zM13 7h1v1h-1zM14 7h1v1h-1zM15 7h1v1h-1zM1 8h1v1H1zM2 8h1v1H2zM7 8h1v1H7zM8 8h1v1H8zM9 8h1v1H9zM10 8h1v1h-1zM11 8h1v1h-1zM12 8h1v1h-1zM13 8h1v1h-1zM14 8h1v1h-1zM15 8h1v1h-1zM16 8h1v1h-1zM1 9h1v1H1zM2 9h1v1H2zM3 9h1v1H3zM4 9h1v1H4zM7 9h1v1H7zM8 9h1v1H8zM15 9h1v1h-1zM16 9h1v1h-1zM2 10h1v1H2zM3 10h1v1H3zM4 10h1v1H4zM7 10h1v1H7zM8 10h1v1H8zM15 10h1v1h-1zM16 10h1v1h-1zM7 11h1v1H7zM8 11h1v1H8zM7 12h1v1H7zM8 12h1v1H8zM7 13h1v1H7zM8 13h1v1H8zM14 13h1v1h-1zM15 13h1v1h-1zM16 13h1v1h-1zM17 13h1v1h-1zM18 13h1v1h-1zM19 13h1v1h-1zM20 13h1v1h-1zM21 13h1v1h-1zM7 14h1v1H7zM8 14h1v1H8zM13 14h1v1h-1zM14 14h1v1h-1zM15 14h1v1h-1zM16 14h1v1h-1zM17 14h1v1h-1zM18 14h1v1h-1zM19 14h1v1h-1zM20 14h1v1h-1zM21 14h1v1h-1zM22 14h1v1h-1zM7 15h1v1H7zM8 15h1v1H8zM9 15h1v1H9zM10 15h1v1h-1zM13 15h1v1h-1zM14 15h1v1h-1zM21 15h1v1h-1zM22 15h1v1h-1zM8 16h1v1H8zM9 16h1v1H9zM10 16h1v1h-1zM13 16h1v1h-1zM14 16h1v1h-1zM21 16h1v1h-1zM22 16h1v1h-1zM13 17h1v1h-1zM14 17h1v1h-1zM21 17h1v1h-1zM22 17h1v1h-1zM13 18h1v1h-1zM14 18h1v1h-1zM21 18h1v1h-1zM22 18h1v1h-1zM13 19h1v1h-1zM14 19h1v1h-1zM21 19h1v1h-1zM22 19h1v1h-1zM13 20h1v1h-1zM14 20h1v1h-1zM21 20h1v1h-1zM22 20h1v1h-1zM13 21h1v1h-1zM14 21h1v1h-1zM15 21h1v1h-1zM16 21h1v1h-1zM17 21h1v1h-1zM18 21h1v1h-1zM19 21h1v1h-1zM20 21h1v1h-1zM21 21h1v1h-1zM22 21h1v1h-1zM14 22h1v1h-1zM15 22h1v1h-1zM16 22h1v1h-1zM17 22h1v1h-1zM18 22h1v1h-1zM19 22h1v1h-1zM20 22h1v1h-1zM21 22h1v1h-1z"/></svg>