<svg xmlns="http://www.w3.org/2000/svg" width="24" height="24" shape-rendering="crispEdges"><path d="M13 3h1v1h-1zM14 3h1v1h-1zM17 3h1v1h-1zM18 3h1v1h-1zM12 4h1v1h-1zM13 4h1v1h-1zM14 4h1v1h-1zM17 4h1v1h-1zM18 4h1v1h-1zM11 5h1v1h-1zM12 5h1v1h-1zM13 5h1v1h-1zM14 5h1v1h-1zM17 5h1v1h-1zM18 5h1v1h-1zM9 6h1v1H9zM10 6h1v1h-1zM11 6h1v1h-1zM13 6h1v1h-1zM14 6h1v1h-1zM17 6h1v1h-1zM18 6h1v1h-1zM8 7h1v1H8zM9 7h1v1H9zM10 7h1v1h-1zM13 7h1v1h-1zM14 7h1v1h-1zM17 7h1v1h-1zM18 7h1v1h-1zM7 8h1v1H7zM8 8h1v1H8zM9 8h1v1H9zM13 8h1v1h-1zM14 8h1v1h-1zM17 8h1v1h-1zM18 8h1v1h-1zM6 9h1v1H6zM7 9h1v1H7zM8 9h1v1H8zM13 9h1v1h-1zM14 9h1v1h-1zM17 9h1v1h-1zM18 9h1v1h-1zM4 10h1v1H4zM5 10h1v1H5zM6 10h1v1H6zM7 10h1v1H7zM13 10h1v1h-1zM14 10h1v1h-1zM17 10h1v1h-1zM18 10h1v1h-1zM3 11h1v1H3zM4 11h1v1H4zM5 11h1v1H5zM13 11h1v1h-1zM14 11h1v1h-1zM17 11h1v1h-1zM18 11h1v1h-1zM3 12h1v1H3zM4 12h1v1H4zM5 12h1v1H5zM13 12h1v1h-1zM14 12h1v1h-1zM17 12h1v1h-1zM18 12h1v1h-1zM4 13h1v1H4zM5 13h1v1H5zM6 13h1v1H6zM7 13h1v1H7zM13 13h1v1h-1zM14 13h1v1h-1zM17 13h1v1h-1zM18 13h1v1h-1zM6 14h1v1H6zM7 14h1v1H7zM8 14h1v1H8zM13 14h1v1h-1zM14 14h1v1h-1zM17 14h1v1h-1zM18 14h1v1h-1zM7 15h1v1H7zM8 15h1v1H8zM9 15h1v1H9zM13 15h1v1h-1zM14 15h1v1h-1zM17 15h1v1h-1zM18 15h1v1h-1zM8 16h1v1H8zM9 16h1v1H9zM10 16h1v1h-1zM13 16h1v1h-1zM14 16h1v1h-1zM17 16h1v1h-1zM18 16h1v1h-1zM9 17h1v1H9zM10 17h1v1h-1zM11 17h1v1h-1zM13 17h1v1h-1zM14 17h1v1h-1zM17 17h1v1h-1zM18 17h1v1h-1zM11 18h1v1h-1zM12 18h1v1h-1zM13 18h1v1h-1zM14 18h1v1h-1zM17 18h1v1h-1zM18 18h1v1h-1zM12 19h1v1h-1zM13 19h1v1h-1zM14 19h1v1h-1zM17 19h1v1h-1zM18 19h1v1h-1zM13 20h1v1h-1zM14 20h1v1h-1zM17 20h1v1h-1zM18 20h1v1h-1z"/></svg>