<svg xmlns="http://www.w3.org/2000/svg" width="24" height="24" shape-rendering="crispEdges"><path d="M4 1h1v1H4zM5 1h1v1H5zM10 1h1v1h-1zM11 1h1v1h-1zM2 2h1v1H2zM3 2h1v1H3zM4 2h1v1H4zM5 2h1v1H5zM10 2h1v1h-1zM11 2h1v1h-1zM12 2h1v1h-1zM13 2h1v1h-1zM1 3h1v1H1zM2 3h1v1H2zM3 3h1v1H3zM4 3h1v1H4zM5 3h1v1H5zM10 3h1v1h-1zM11 3h1v1h-1zM12 3h1v1h-1zM13 3h1v1h-1zM14 3h1v1h-1zM1 4h1v1H1zM2 4h1v1H2zM4 4h1v1H4zM5 4h1v1H5zM10 4h1v1h-1zM11 4h1v1h-1zM13 4h1v1h-1zM14 4h1v1h-1zM1 5h1v1H1zM2 5h1v1H2zM13 5h1v1h-1zM14 5h1v1h-1zM1 6h1v1H1zM2 6h1v1H2zM13 6h1v1h-1zM14 6h1v1h-1zM1 7h1v1H1zM2 7h1v1H2zM13 7h1v1h-1zM14 7h1v1h-1zM18 7h1v1h-1zM19 7h1v1h-1zM20 7h1v1h-1zM21 7h1v1h-1zM1 8h1v1H1zM2 8h1v1H2zM13 8h1v1h-1zM14 8h1v1h-1zM17 8h1v1h-1zM18 8h1v1h-1zM19 8h1v1h-1zM20 8h1v1h-1zM21 8h1v1h-1zM22 8h1v1h-1zM1 9h1v1H1zM2 9h1v1H2zM13 9h1v1h-1zM14 9h1v1h-1zM17 9h1v1h-1zM18 9h1v1h-1zM21 9h1v1h-1zM22 9h1v1h-1zM1 10h1v1H1zM2 10h1v1H2zM13 10h1v1h-1zM14 10h1v1h-1zM17 10h1v1h-1zM18 10h1v1h-1zM21 10h1v1h-1zM22 10h1v1h-1zM1 11h1v1H1zM2 11h1v1H2zM3 11h1v1H3zM12 11h1v1h-1zM13 11h1v1h-1zM14 11h1v1h-1zM17 11h1v1h-1zM18 11h1v1h-1zM19 11h1v1h-1zM20 11h1v1h-1zM21 11h1v1h-1zM22 11h1v1h-1zM2 12h1v1H2zM3 12h1v1H3zM12 12h1v1h-1zM13 12h1v1h-1zM18 12h1v1h-1zM19 12h1v1h-1zM20 12h1v1h-1zM21 12h1v1h-1zM3 13h1v1H3zM4 13h1v1H4zM5 13h1v1H5zM10 13h1v1h-1zM11 13h1v1h-1zM12 13h1v1h-1zM19 13h1v1h-1zM20 13h1v1h-1zM4 14h1v1H4zM5 14h1v1H5zM6 14h1v1H6zM7 14h1v1H7zM8 14h1v1H8zM9 14h1v1H9zM10 14h1v1h-1zM11 14h1v1h-1zM19 14h1v1h-1zM20 14h1v1h-1zM5 15h1v1H5zM6 15h1v1H6zM7 15h1v1H7zM8 15h1v1H8zM9 15h1v1H9zM10 15h1v1h-1zM19 15h1v1h-1zM20 15h1v1h-1zM7 16h1v1H7zM8 16h1v1H8zM19 16h1v1h-1zM20 16h1v1h-1zM7 17h1v1H7zM8 17h1v1H8zM9 17h1v1H9zM18 17h1v1h-1zM19 17h1v1h-1zM20 17h1v1h-1zM8 18h1v1H8zM9 18h1v1H9zM18 18h1v1h-1zM19 18h1v1h-1zM9 19h1v1H9zM10 19h1v1h-1zM11 19h1v1h-1zM16 19h1v1h-1zM17 19h1v1h-1zM18 19h1v1h-1zM10 20h1v1h-1zM11 20h1v1h-1zM12 20h1v1h-1zM13 20h1v1h-1zM14 20h1v1h-1zM15 20h1v1h-1zM16 20h1v1h-1zM17 20h1v1h-1zM11 21h1v1h-1zM12 21h1v1h-1zM13 21h1v1h-1zM14 21h1v1h-1zM15 21h1v1h-1zM16 21h1v1h-1z"/></svg>