<svg xmlns="http://www.w3.org/2000/svg" width="24" height="24" shape-rendering="crispEdges"><path d="M16 4h1v1h-1zM17 4h1v1h-1zM18 4h1v1h-1zM19 4h1v1h-1zM15 5h1v1h-1zM16 5h1v1h-1zM17 5h1v1h-1zM18 5h1v1h-1zM19 5h1v1h-1zM20 5h1v1h-1zM15 6h1v1h-1zM16 6h1v1h-1zM19 6h1v1h-1zM20 6h1v1h-1zM19 7h1v1h-1zM20 7h1v1h-1zM17 8h1v1h-1zM18 8h1v1h-1zM19 8h1v1h-1zM16 9h1v1h-1zM17 9h1v1h-1zM18 9h1v1h-1zM3 10h1v1H3zM4 10h1v1H4zM11 10h1v1h-1zM12 10h1v1h-1zM15 10h1v1h-1zM16 10h1v1h-1zM17 10h1v1h-1zM3 11h1v1H3zM4 11h1v1H4zM5 11h1v1H5zM10 11h1v1h-1zM11 11h1v1h-1zM12 11h1v1h-1zM15 11h1v1h-1zM16 11h1v1h-1zM17 11h1v1h-1zM18 11h1v1h-1zM19 11h1v1h-1zM20 11h1v1h-1zM4 12h1v1H4zM5 12h1v1H5zM6 12h1v1H6zM9 12h1v1H9zM10 12h1v1h-1zM11 12h1v1h-1zM15 12h1v1h-1zM16 12h1v1h-1zM17 12h1v1h-1zM18 12h1v1h-1zM19 12h1v1h-1zM20 12h1v1h-1zM5 13h1v1H5zM6 13h1v1H6zM7 13h1v1H7zM8 13h1v1H8zM9 13h1v1H9zM10 13h1v1h-1zM6 14h1v1H6zM7 14h1v1H7zM8 14h1v1H8zM9 14h1v1H9zM6 15h1v1H6zM7 15h1v1H7zM8 15h1v1H8zM9 15h1v1H9zM5 16h1v1H5zM6 16h1v1H6zM7 16h1v1H7zM8 16h1v1H8zM9 16h1v1H9zM10 16h1v1h-1zM4 17h1v1H4zM5 17h1v1H5zM6 17h1v1H6zM9 17h1v1H9zM10 17h1v1h-1zM11 17h1v1h-1zM3 18h1v1H3zM4 18h1v1H4zM5 18h1v1H5zM10 18h1v1h-1zM11 18h1v1h-1zM12 18h1v1h-1zM3 19h1v1H3zM4 19h1v1H4zM11 19h1v1h-1zM12 19h1v1h-1z"/></svg>