<svg xmlns="http://www.w3.org/2000/svg" width="24" height="24" shape-rendering="crispEdges"><path d="M2 2h1v1H2zM3 2h1v1H3zM4 2h1v1H4zM5 2h1v1H5zM6 2h1v1H6zM2 3h1v1H2zM3 3h1v1H3zM4 3h1v1H4zM5 3h1v1H5zM6 3h1v1H6zM7 3h1v1H7zM2 4h1v1H2zM3 4h1v1H3zM6 4h1v1H6zM7 4h1v1H7zM8 4h1v1H8zM2 5h1v1H2zM3 5h1v1H3zM7 5h1v1H7zM8 5h1v1H8zM9 5h1v1H9zM2 6h1v1H2zM3 6h1v1H3zM4 6h1v1H4zM8 6h1v1H8zM9 6h1v1H9zM10 6h1v1h-1zM3 7h1v1H3zM4 7h1v1H4zM5 7h1v1H5zM9 7h1v1H9zM10 7h1v1h-1zM11 7h1v1h-1zM4 8h1v1H4zM5 8h1v1H5zM6 8h1v1H6zM10 8h1v1h-1zM11 8h1v1h-1zM12 8h1v1h-1zM5 9h1v1H5zM6 9h1v1H6zM7 9h1v1H7zM11 9h1v1h-1zM12 9h1v1h-1zM13 9h1v1h-1zM6 10h1v1H6zM7 10h1v1H7zM8 10h1v1H8zM12 10h1v1h-1zM13 10h1v1h-1zM14 10h1v1h-1zM7 11h1v1H7zM8 11h1v1H8zM9 11h1v1H9zM13 11h1v1h-1zM14 11h1v1h-1zM15 11h1v1h-1zM8 12h1v1H8zM9 12h1v1H9zM10 12h1v1h-1zM14 12h1v1h-1zM15 12h1v1h-1zM16 12h1v1h-1zM18 12h1v1h-1zM19 12h1v1h-1zM9 13h1v1H9zM10 13h1v1h-1zM11 13h1v1h-1zM15 13h1v1h-1zM16 13h1v1h-1zM17 13h1v1h-1zM18 13h1v1h-1zM19 13h1v1h-1zM10 14h1v1h-1zM11 14h1v1h-1zM12 14h1v1h-1zM16 14h1v1h-1zM17 14h1v1h-1zM18 14h1v1h-1zM11 15h1v1h-1zM12 15h1v1h-1zM13 15h1v1h-1zM15 15h1v1h-1zM16 15h1v1h-1zM17 15h1v1h-1zM12 16h1v1h-1zM13 16h1v1h-1zM14 16h1v1h-1zM15 16h1v1h-1zM16 16h1v1h-1zM17 16h1v1h-1zM13 17h1v1h-1zM14 17h1v1h-1zM15 17h1v1h-1zM16 17h1v1h-1zM17 17h1v1h-1zM18 17h1v1h-1zM12 18h1v1h-1zM13 18h1v1h-1zM14 18h1v1h-1zM17 18h1v1h-1zM18 18h1v1h-1zM19 18h1v1h-1zM20 18h1v1h-1zM21 18h1v1h-1zM12 19h1v1h-1zM13 19h1v1h-1zM18 19h1v1h-1zM19 19h1v1h-1zM20 19h1v1h-1zM21 19h1v1h-1zM18 20h1v1h-1zM19 20h1v1h-1zM20 20h1v1h-1zM18 21h1v1h-1zM19 21h1v1h-1z"/></svg>