<svg xmlns="http://www.w3.org/2000/svg" width="24" height="24" shape-rendering="crispEdges"><path d="M5 1h1v1H5zM6 1h1v1H6zM7 1h1v1H7zM8 1h1v1H8zM3 2h1v1H3zM4 2h1v1H4zM5 2h1v1H5zM6 2h1v1H6zM7 2h1v1H7zM8 2h1v1H8zM9 2h1v1H9zM10 2h1v1h-1zM2 3h1v1H2zM3 3h1v1H3zM4 3h1v1H4zM9 3h1v1H9zM10 3h1v1h-1zM11 3h1v1h-1zM2 4h1v1H2zM3 4h1v1H3zM8 4h1v1H8zM9 4h1v1H9zM10 4h1v1h-1zM11 4h1v1h-1zM1 5h1v1H1zM2 5h1v1H2zM7 5h1v1H7zM8 5h1v1H8zM9 5h1v1H9zM11 5h1v1h-1zM12 5h1v1h-1zM1 6h1v1H1zM2 6h1v1H2zM6 6h1v1H6zM7 6h1v1H7zM8 6h1v1H8zM11 6h1v1h-1zM12 6h1v1h-1zM1 7h1v1H1zM2 7h1v1H2zM5 7h1v1H5zM6 7h1v1H6zM7 7h1v1H7zM11 7h1v1h-1zM12 7h1v1h-1zM1 8h1v1H1zM2 8h1v1H2zM4 8h1v1H4zM5 8h1v1H5zM6 8h1v1H6zM11 8h1v1h-1zM12 8h1v1h-1zM2 9h1v1H2zM3 9h1v1H3zM4 9h1v1H4zM5 9h1v1H5zM10 9h1v1h-1zM11 9h1v1h-1zM2 10h1v1H2zM3 10h1v1H3zM4 10h1v1H4zM9 10h1v1H9zM10 10h1v1h-1zM11 10h1v1h-1zM3 11h1v1H3zM4 11h1v1H4zM5 11h1v1H5zM6 11h1v1H6zM7 11h1v1H7zM8 11h1v1H8zM9 11h1v1H9zM10 11h1v1h-1zM15 11h1v1h-1zM16 11h1v1h-1zM17 11h1v1h-1zM18 11h1v1h-1zM5 12h1v1H5zM6 12h1v1H6zM7 12h1v1H7zM8 12h1v1H8zM13 12h1v1h-1zM14 12h1v1h-1zM15 12h1v1h-1zM16 12h1v1h-1zM17 12h1v1h-1zM18 12h1v1h-1zM19 12h1v1h-1zM20 12h1v1h-1zM12 13h1v1h-1zM13 13h1v1h-1zM14 13h1v1h-1zM19 13h1v1h-1zM20 13h1v1h-1zM21 13h1v1h-1zM12 14h1v1h-1zM13 14h1v1h-1zM20 14h1v1h-1zM21 14h1v1h-1zM11 15h1v1h-1zM12 15h1v1h-1zM21 15h1v1h-1zM22 15h1v1h-1zM11 16h1v1h-1zM12 16h1v1h-1zM13 16h1v1h-1zM14 16h1v1h-1zM15 16h1v1h-1zM16 16h1v1h-1zM17 16h1v1h-1zM18 16h1v1h-1zM19 16h1v1h-1zM20 16h1v1h-1zM21 16h1v1h-1zM22 16h1v1h-1zM11 17h1v1h-1zM12 17h1v1h-1zM13 17h1v1h-1zM14 17h1v1h-1zM15 17h1v1h-1zM16 17h1v1h-1zM17 17h1v1h-1zM18 17h1v1h-1zM19 17h1v1h-1zM20 17h1v1h-1zM21 17h1v1h-1zM22 17h1v1h-1zM11 18h1v1h-1zM12 18h1v1h-1zM21 18h1v1h-1zM22 18h1v1h-1zM12 19h1v1h-1zM13 19h1v1h-1zM20 19h1v1h-1zM21 19h1v1h-1zM12 20h1v1h-1zM13 20h1v1h-1zM14 20h1v1h-1zM19 20h1v1h-1zM20 20h1v1h-1zM21 20h1v1h-1zM13 21h1v1h-1zM14 21h1v1h-1zM15 21h1v1h-1zM16 21h1v1h-1zM17 21h1v1h-1zM18 21h1v1h-1zM19 21h1v1h-1zM20 21h1v1h-1zM15 22h1v1h-1zM16 22h1v1h-1zM17 22h1v1h-1zM18 22h1v1h-1z"/></svg>