<svg xmlns="http://www.w3.org/2000/svg" width="24" height="24" shape-rendering="crispEdges"><path d="M2 1h1v1H2zM3 1h1v1H3zM4 1h1v1H4zM5 1h1v1H5zM6 1h1v1H6zM7 1h1v1H7zM8 1h1v1H8zM9 1h1v1H9zM10 1h1v1h-1zM11 1h1v1h-1zM12 1h1v1h-1zM1 2h1v1H1zM2 2h1v1H2zM3 2h1v1H3zM4 2h1v1H4zM5 2h1v1H5zM6 2h1v1H6zM7 2h1v1H7zM8 2h1v1H8zM9 2h1v1H9zM10 2h1v1h-1zM11 2h1v1h-1zM12 2h1v1h-1zM13 2h1v1h-1zM1 3h1v1H1zM2 3h1v1H2zM12 3h1v1h-1zM13 3h1v1h-1zM14 3h1v1h-1zM1 4h1v1H1zM2 4h1v1H2zM13 4h1v1h-1zM14 4h1v1h-1zM15 4h1v1h-1zM1 5h1v1H1zM2 5h1v1H2zM14 5h1v1h-1zM15 5h1v1h-1zM16 5h1v1h-1zM1 6h1v1H1zM2 6h1v1H2zM7 6h1v1H7zM15 6h1v1h-1zM16 6h1v1h-1zM17 6h1v1h-1zM1 7h1v1H1zM2 7h1v1H2zM6 7h1v1H6zM7 7h1v1H7zM8 7h1v1H8zM16 7h1v1h-1zM17 7h1v1h-1zM18 7h1v1h-1zM1 8h1v1H1zM2 8h1v1H2zM7 8h1v1H7zM17 8h1v1h-1zM18 8h1v1h-1zM19 8h1v1h-1zM1 9h1v1H1zM2 9h1v1H2zM18 9h1v1h-1zM19 9h1v1h-1zM20 9h1v1h-1zM1 10h1v1H1zM2 10h1v1H2zM19 10h1v1h-1zM20 10h1v1h-1zM21 10h1v1h-1zM1 11h1v1H1zM2 11h1v1H2zM20 11h1v1h-1zM21 11h1v1h-1zM22 11h1v1h-1zM1 12h1v1H1zM2 12h1v1H2zM3 12h1v1H3zM21 12h1v1h-1zM22 12h1v1h-1zM2 13h1v1H2zM3 13h1v1H3zM4 13h1v1H4zM21 13h1v1h-1zM22 13h1v1h-1zM3 14h1v1H3zM4 14h1v1H4zM5 14h1v1H5zM20 14h1v1h-1zM21 14h1v1h-1zM22 14h1v1h-1zM4 15h1v1H4zM5 15h1v1H5zM6 15h1v1H6zM19 15h1v1h-1zM20 15h1v1h-1zM21 15h1v1h-1zM5 16h1v1H5zM6 16h1v1H6zM7 16h1v1H7zM18 16h1v1h-1zM19 16h1v1h-1zM20 16h1v1h-1zM6 17h1v1H6zM7 17h1v1H7zM8 17h1v1H8zM17 17h1v1h-1zM18 17h1v1h-1zM19 17h1v1h-1zM7 18h1v1H7zM8 18h1v1H8zM9 18h1v1H9zM16 18h1v1h-1zM17 18h1v1h-1zM18 18h1v1h-1zM8 19h1v1H8zM9 19h1v1H9zM10 19h1v1h-1zM15 19h1v1h-1zM16 19h1v1h-1zM17 19h1v1h-1zM9 20h1v1H9zM10 20h1v1h-1zM11 20h1v1h-1zM14 20h1v1h-1zM15 20h1v1h-1zM16 20h1v1h-1zM10 21h1v1h-1zM11 21h1v1h-1zM12 21h1v1h-1zM13 21h1v1h-1zM14 21h1v1h-1zM15 21h1v1h-1zM11 22h1v1h-1zM12 22h1v1h-1zM13 22h1v1h-1zM14 22h1v1h-1z"/></svg>