<svg xmlns="http://www.w3.org/2000/svg" width="24" height="24" shape-rendering="crispEdges"><path d="M2 4h1v1H2zM3 4h1v1H3zM4 4h1v1H4zM5 4h1v1H5zM6 4h1v1H6zM7 4h1v1H7zM8 4h1v1H8zM9 4h1v1H9zM14 4h1v1h-1zM15 4h1v1h-1zM1 5h1v1H1zM2 5h1v1H2zM3 5h1v1H3zM4 5h1v1H4zM5 5h1v1H5zM6 5h1v1H6zM7 5h1v1H7zM8 5h1v1H8zM9 5h1v1H9zM10 5h1v1h-1zM14 5h1v1h-1zM15 5h1v1h-1zM16 5h1v1h-1zM1 6h1v1H1zM2 6h1v1H2zM9 6h1v1H9zM10 6h1v1h-1zM11 6h1v1h-1zM15 6h1v1h-1zM16 6h1v1h-1zM17 6h1v1h-1zM1 7h1v1H1zM2 7h1v1H2zM10 7h1v1h-1zM11 7h1v1h-1zM12 7h1v1h-1zM16 7h1v1h-1zM17 7h1v1h-1zM18 7h1v1h-1zM1 8h1v1H1zM2 8h1v1H2zM6 8h1v1H6zM11 8h1v1h-1zM12 8h1v1h-1zM13 8h1v1h-1zM17 8h1v1h-1zM18 8h1v1h-1zM19 8h1v1h-1zM1 9h1v1H1zM2 9h1v1H2zM5 9h1v1H5zM6 9h1v1H6zM7 9h1v1H7zM12 9h1v1h-1zM13 9h1v1h-1zM14 9h1v1h-1zM18 9h1v1h-1zM19 9h1v1h-1zM20 9h1v1h-1zM1 10h1v1H1zM2 10h1v1H2zM6 10h1v1H6zM13 10h1v1h-1zM14 10h1v1h-1zM15 10h1v1h-1zM19 10h1v1h-1zM20 10h1v1h-1zM21 10h1v1h-1zM1 11h1v1H1zM2 11h1v1H2zM14 11h1v1h-1zM15 11h1v1h-1zM16 11h1v1h-1zM20 11h1v1h-1zM21 11h1v1h-1zM22 11h1v1h-1zM1 12h1v1H1zM2 12h1v1H2zM3 12h1v1H3zM15 12h1v1h-1zM16 12h1v1h-1zM21 12h1v1h-1zM22 12h1v1h-1zM2 13h1v1H2zM3 13h1v1H3zM4 13h1v1H4zM15 13h1v1h-1zM16 13h1v1h-1zM21 13h1v1h-1zM22 13h1v1h-1zM3 14h1v1H3zM4 14h1v1H4zM5 14h1v1H5zM14 14h1v1h-1zM15 14h1v1h-1zM16 14h1v1h-1zM20 14h1v1h-1zM21 14h1v1h-1zM22 14h1v1h-1zM4 15h1v1H4zM5 15h1v1H5zM6 15h1v1H6zM13 15h1v1h-1zM14 15h1v1h-1zM15 15h1v1h-1zM19 15h1v1h-1zM20 15h1v1h-1zM21 15h1v1h-1zM5 16h1v1H5zM6 16h1v1H6zM7 16h1v1H7zM12 16h1v1h-1zM13 16h1v1h-1zM14 16h1v1h-1zM18 16h1v1h-1zM19 16h1v1h-1zM20 16h1v1h-1zM6 17h1v1H6zM7 17h1v1H7zM8 17h1v1H8zM11 17h1v1h-1zM12 17h1v1h-1zM13 17h1v1h-1zM17 17h1v1h-1zM18 17h1v1h-1zM19 17h1v1h-1zM7 18h1v1H7zM8 18h1v1H8zM9 18h1v1H9zM10 18h1v1h-1zM11 18h1v1h-1zM12 18h1v1h-1zM16 18h1v1h-1zM17 18h1v1h-1zM18 18h1v1h-1zM8 19h1v1H8zM9 19h1v1H9zM10 19h1v1h-1zM11 19h1v1h-1zM16 19h1v1h-1zM17 19h1v1h-1z"/></svg>