<svg xmlns="http://www.w3.org/2000/svg" width="24" height="24" shape-rendering="crispEdges"><path d="M3 3h1v1H3zM4 3h1v1H4zM3 4h1v1H3zM4 4h1v1H4zM3 5h1v1H3zM4 5h1v1H4zM3 6h1v1H3zM4 6h1v1H4zM3 7h1v1H3zM4 7h1v1H4zM3 8h1v1H3zM4 8h1v1H4zM3 9h1v1H3zM4 9h1v1H4zM3 10h1v1H3zM4 10h1v1H4zM3 11h1v1H3zM4 11h1v1H4zM3 12h1v1H3zM4 12h1v1H4zM3 13h1v1H3zM4 13h1v1H4zM3 14h1v1H3zM4 14h1v1H4zM3 15h1v1H3zM4 15h1v1H4zM3 16h1v1H3zM4 16h1v1H4zM3 17h1v1H3zM4 17h1v1H4zM3 18h1v1H3zM4 18h1v1H4zM3 19h1v1H3zM4 19h1v1H4zM3 20h1v1H3zM4 20h1v1H4z"/></svg>