<svg xmlns="http://www.w3.org/2000/svg" width="24" height="24" shape-rendering="crispEdges"><path d="M3 3h1v1H3zM4 3h1v1H4zM8 3h1v1H8zM9 3h1v1H9zM13 3h1v1h-1zM14 3h1v1h-1zM18 3h1v1h-1zM19 3h1v1h-1zM3 4h1v1H3zM4 4h1v1H4zM8 4h1v1H8zM9 4h1v1H9zM13 4h1v1h-1zM14 4h1v1h-1zM18 4h1v1h-1zM19 4h1v1h-1zM3 5h1v1H3zM4 5h1v1H4zM8 5h1v1H8zM9 5h1v1H9zM13 5h1v1h-1zM14 5h1v1h-1zM18 5h1v1h-1zM19 5h1v1h-1zM3 6h1v1H3zM4 6h1v1H4zM8 6h1v1H8zM9 6h1v1H9zM13 6h1v1h-1zM14 6h1v1h-1zM18 6h1v1h-1zM19 6h1v1h-1zM3 7h1v1H3zM4 7h1v1H4zM8 7h1v1H8zM9 7h1v1H9zM13 7h1v1h-1zM14 7h1v1h-1zM18 7h1v1h-1zM19 7h1v1h-1zM3 8h1v1H3zM4 8h1v1H4zM8 8h1v1H8zM9 8h1v1H9zM13 8h1v1h-1zM14 8h1v1h-1zM18 8h1v1h-1zM19 8h1v1h-1zM3 9h1v1H3zM4 9h1v1H4zM8 9h1v1H8zM9 9h1v1H9zM13 9h1v1h-1zM14 9h1v1h-1zM18 9h1v1h-1zM19 9h1v1h-1zM3 10h1v1H3zM4 10h1v1H4zM8 10h1v1H8zM9 10h1v1H9zM13 10h1v1h-1zM14 10h1v1h-1zM18 10h1v1h-1zM19 10h1v1h-1zM3 11h1v1H3zM4 11h1v1H4zM8 11h1v1H8zM9 11h1v1H9zM13 11h1v1h-1zM14 11h1v1h-1zM18 11h1v1h-1zM19 11h1v1h-1zM3 12h1v1H3zM4 12h1v1H4zM8 12h1v1H8zM9 12h1v1H9zM13 12h1v1h-1zM14 12h1v1h-1zM18 12h1v1h-1zM19 12h1v1h-1zM3 13h1v1H3zM4 13h1v1H4zM8 13h1v1H8zM9 13h1v1H9zM13 13h1v1h-1zM14 13h1v1h-1zM18 13h1v1h-1zM19 13h1v1h-1zM3 14h1v1H3zM4 14h1v1H4zM8 14h1v1H8zM9 14h1v1H9zM13 14h1v1h-1zM14 14h1v1h-1zM18 14h1v1h-1zM19 14h1v1h-1zM3 15h1v1H3zM4 15h1v1H4zM8 15h1v1H8zM9 15h1v1H9zM13 15h1v1h-1zM14 15h1v1h-1zM18 15h1v1h-1zM19 15h1v1h-1zM3 16h1v1H3zM4 16h1v1H4zM8 16h1v1H8zM9 16h1v1H9zM13 16h1v1h-1zM14 16h1v1h-1zM18 16h1v1h-1zM19 16h1v1h-1zM3 17h1v1H3zM4 17h1v1H4zM8 17h1v1H8zM9 17h1v1H9zM13 17h1v1h-1zM14 17h1v1h-1zM18 17h1v1h-1zM19 17h1v1h-1zM3 18h1v1H3zM4 18h1v1H4zM8 18h1v1H8zM9 18h1v1H9zM13 18h1v1h-1zM14 18h1v1h-1zM18 18h1v1h-1zM19 18h1v1h-1zM3 19h1v1H3zM4 19h1v1H4zM8 19h1v1H8zM9 19h1v1H9zM13 19h1v1h-1zM14 19h1v1h-1zM18 19h1v1h-1zM19 19h1v1h-1zM3 20h1v1H3zM4 20h1v1H4zM8 20h1v1H8zM9 20h1v1H9zM13 20h1v1h-1zM14 20h1v1h-1zM18 20h1v1h-1zM19 20h1v1h-1z"/></svg>