<svg xmlns="http://www.w3.org/2000/svg" width="24" height="24" shape-rendering="crispEdges"><path d="M3 4h1v1H3zM4 4h1v1H4zM3 5h1v1H3zM4 5h1v1H4zM5 5h1v1H5zM4 6h1v1H4zM5 6h1v1H5zM6 6h1v1H6zM5 7h1v1H5zM6 7h1v1H6zM7 7h1v1H7zM6 8h1v1H6zM7 8h1v1H7zM8 8h1v1H8zM7 9h1v1H7zM8 9h1v1H8zM9 9h1v1H9zM8 10h1v1H8zM9 10h1v1H9zM10 10h1v1h-1zM8 11h1v1H8zM9 11h1v1H9zM10 11h1v1h-1zM7 12h1v1H7zM8 12h1v1H8zM9 12h1v1H9zM6 13h1v1H6zM7 13h1v1H7zM8 13h1v1H8zM5 14h1v1H5zM6 14h1v1H6zM7 14h1v1H7zM4 15h1v1H4zM5 15h1v1H5zM6 15h1v1H6zM3 16h1v1H3zM4 16h1v1H4zM5 16h1v1H5zM3 17h1v1H3zM4 17h1v1H4zM11 18h1v1h-1zM12 18h1v1h-1zM13 18h1v1h-1zM14 18h1v1h-1zM15 18h1v1h-1zM16 18h1v1h-1zM17 18h1v1h-1zM18 18h1v1h-1zM19 18h1v1h-1zM20 18h1v1h-1zM11 19h1v1h-1zM12 19h1v1h-1zM13 19h1v1h-1zM14 19h1v1h-1zM15 19h1v1h-1zM16 19h1v1h-1zM17 19h1v1h-1zM18 19h1v1h-1zM19 19h1v1h-1zM20 19h1v1h-1z"/></svg>