<svg xmlns="http://www.w3.org/2000/svg" width="24" height="24" shape-rendering="crispEdges"><path d="M5 1h1v1H5zM6 1h1v1H6zM7 1h1v1H7zM8 1h1v1H8zM9 1h1v1H9zM10 1h1v1h-1zM11 1h1v1h-1zM12 1h1v1h-1zM13 1h1v1h-1zM14 1h1v1h-1zM15 1h1v1h-1zM16 1h1v1h-1zM17 1h1v1h-1zM18 1h1v1h-1zM19 1h1v1h-1zM20 1h1v1h-1zM21 1h1v1h-1zM4 2h1v1H4zM5 2h1v1H5zM6 2h1v1H6zM7 2h1v1H7zM8 2h1v1H8zM9 2h1v1H9zM10 2h1v1h-1zM11 2h1v1h-1zM12 2h1v1h-1zM13 2h1v1h-1zM14 2h1v1h-1zM15 2h1v1h-1zM16 2h1v1h-1zM17 2h1v1h-1zM18 2h1v1h-1zM19 2h1v1h-1zM20 2h1v1h-1zM21 2h1v1h-1zM22 2h1v1h-1zM4 3h1v1H4zM5 3h1v1H5zM16 3h1v1h-1zM17 3h1v1h-1zM21 3h1v1h-1zM22 3h1v1h-1zM3 4h1v1H3zM4 4h1v1H4zM16 4h1v1h-1zM17 4h1v1h-1zM21 4h1v1h-1zM22 4h1v1h-1zM3 5h1v1H3zM4 5h1v1H4zM16 5h1v1h-1zM17 5h1v1h-1zM21 5h1v1h-1zM22 5h1v1h-1zM3 6h1v1H3zM4 6h1v1H4zM16 6h1v1h-1zM17 6h1v1h-1zM21 6h1v1h-1zM22 6h1v1h-1zM2 7h1v1H2zM3 7h1v1H3zM16 7h1v1h-1zM17 7h1v1h-1zM21 7h1v1h-1zM22 7h1v1h-1zM2 8h1v1H2zM3 8h1v1H3zM16 8h1v1h-1zM17 8h1v1h-1zM21 8h1v1h-1zM22 8h1v1h-1zM2 9h1v1H2zM3 9h1v1H3zM16 9h1v1h-1zM17 9h1v1h-1zM21 9h1v1h-1zM22 9h1v1h-1zM1 10h1v1H1zM2 10h1v1H2zM3 10h1v1H3zM16 10h1v1h-1zM17 10h1v1h-1zM21 10h1v1h-1zM22 10h1v1h-1zM1 11h1v1H1zM2 11h1v1H2zM16 11h1v1h-1zM17 11h1v1h-1zM21 11h1v1h-1zM22 11h1v1h-1zM1 12h1v1H1zM2 12h1v1H2zM16 12h1v1h-1zM17 12h1v1h-1zM21 12h1v1h-1zM22 12h1v1h-1zM2 13h1v1H2zM3 13h1v1H3zM4 13h1v1H4zM5 13h1v1H5zM6 13h1v1H6zM7 13h1v1H7zM8 13h1v1H8zM9 13h1v1H9zM10 13h1v1h-1zM16 13h1v1h-1zM17 13h1v1h-1zM18 13h1v1h-1zM19 13h1v1h-1zM20 13h1v1h-1zM21 13h1v1h-1zM22 13h1v1h-1zM3 14h1v1H3zM4 14h1v1H4zM5 14h1v1H5zM6 14h1v1H6zM7 14h1v1H7zM8 14h1v1H8zM9 14h1v1H9zM10 14h1v1h-1zM15 14h1v1h-1zM16 14h1v1h-1zM17 14h1v1h-1zM18 14h1v1h-1zM19 14h1v1h-1zM20 14h1v1h-1zM21 14h1v1h-1zM9 15h1v1H9zM10 15h1v1h-1zM14 15h1v1h-1zM15 15h1v1h-1zM8 16h1v1H8zM9 16h1v1H9zM14 16h1v1h-1zM15 16h1v1h-1zM8 17h1v1H8zM9 17h1v1H9zM13 17h1v1h-1zM14 17h1v1h-1zM8 18h1v1H8zM9 18h1v1H9zM13 18h1v1h-1zM14 18h1v1h-1zM8 19h1v1H8zM9 19h1v1H9zM12 19h1v1h-1zM13 19h1v1h-1zM8 20h1v1H8zM9 20h1v1H9zM10 20h1v1h-1zM12 20h1v1h-1zM13 20h1v1h-1zM9 21h1v1H9zM10 21h1v1h-1zM11 21h1v1h-1zM12 21h1v1h-1zM10 22h1v1h-1zM11 22h1v1h-1zM12 22h1v1h-1z"/></svg>