<svg xmlns="http://www.w3.org/2000/svg" width="24" height="24" shape-rendering="crispEdges"><path d="M1 1h1v1H1zM2 1h1v1H2zM9 1h1v1H9zM10 1h1v1h-1zM11 1h1v1h-1zM12 1h1v1h-1zM13 1h1v1h-1zM14 1h1v1h-1zM1 2h1v1H1zM2 2h1v1H2zM3 2h1v1H3zM9 2h1v1H9zM10 2h1v1h-1zM11 2h1v1h-1zM12 2h1v1h-1zM13 2h1v1h-1zM14 2h1v1h-1zM2 3h1v1H2zM3 3h1v1H3zM4 3h1v1H4zM3 4h1v1H3zM4 4h1v1H4zM5 4h1v1H5zM4 5h1v1H4zM5 5h1v1H5zM6 5h1v1H6zM9 5h1v1H9zM10 5h1v1h-1zM11 5h1v1h-1zM12 5h1v1h-1zM13 5h1v1h-1zM14 5h1v1h-1zM5 6h1v1H5zM6 6h1v1H6zM7 6h1v1H7zM8 6h1v1H8zM9 6h1v1H9zM10 6h1v1h-1zM11 6h1v1h-1zM12 6h1v1h-1zM13 6h1v1h-1zM14 6h1v1h-1zM15 6h1v1h-1zM16 6h1v1h-1zM6 7h1v1H6zM7 7h1v1H7zM8 7h1v1H8zM15 7h1v1h-1zM16 7h1v1h-1zM17 7h1v1h-1zM7 8h1v1H7zM8 8h1v1H8zM9 8h1v1H9zM16 8h1v1h-1zM17 8h1v1h-1zM18 8h1v1h-1zM8 9h1v1H8zM9 9h1v1H9zM10 9h1v1h-1zM11 9h1v1h-1zM12 9h1v1h-1zM17 9h1v1h-1zM18 9h1v1h-1zM19 9h1v1h-1zM4 10h1v1H4zM9 10h1v1H9zM10 10h1v1h-1zM11 10h1v1h-1zM12 10h1v1h-1zM18 10h1v1h-1zM19 10h1v1h-1zM3 11h1v1H3zM4 11h1v1H4zM10 11h1v1h-1zM11 11h1v1h-1zM12 11h1v1h-1zM19 11h1v1h-1zM20 11h1v1h-1zM3 12h1v1H3zM4 12h1v1H4zM11 12h1v1h-1zM12 12h1v1h-1zM13 12h1v1h-1zM19 12h1v1h-1zM20 12h1v1h-1zM3 13h1v1H3zM4 13h1v1H4zM12 13h1v1h-1zM13 13h1v1h-1zM14 13h1v1h-1zM19 13h1v1h-1zM20 13h1v1h-1zM3 14h1v1H3zM4 14h1v1H4zM13 14h1v1h-1zM14 14h1v1h-1zM15 14h1v1h-1zM19 14h1v1h-1zM20 14h1v1h-1zM3 15h1v1H3zM4 15h1v1H4zM14 15h1v1h-1zM15 15h1v1h-1zM16 15h1v1h-1zM19 15h1v1h-1zM20 15h1v1h-1zM3 16h1v1H3zM4 16h1v1H4zM15 16h1v1h-1zM16 16h1v1h-1zM17 16h1v1h-1zM18 16h1v1h-1zM19 16h1v1h-1zM20 16h1v1h-1zM4 17h1v1H4zM5 17h1v1H5zM16 17h1v1h-1zM17 17h1v1h-1zM18 17h1v1h-1zM19 17h1v1h-1zM4 18h1v1H4zM5 18h1v1H5zM6 18h1v1H6zM17 18h1v1h-1zM18 18h1v1h-1zM19 18h1v1h-1zM5 19h1v1H5zM6 19h1v1H6zM7 19h1v1H7zM18 19h1v1h-1zM19 19h1v1h-1zM20 19h1v1h-1zM6 20h1v1H6zM7 20h1v1H7zM8 20h1v1H8zM19 20h1v1h-1zM20 20h1v1h-1zM21 20h1v1h-1zM7 21h1v1H7zM8 21h1v1H8zM9 21h1v1H9zM10 21h1v1h-1zM11 21h1v1h-1zM12 21h1v1h-1zM13 21h1v1h-1zM14 21h1v1h-1zM15 21h1v1h-1zM20 21h1v1h-1zM21 21h1v1h-1zM22 21h1v1h-1zM9 22h1v1H9zM10 22h1v1h-1zM11 22h1v1h-1zM12 22h1v1h-1zM13 22h1v1h-1zM14 22h1v1h-1zM21 22h1v1h-1zM22 22h1v1h-1z"/></svg>