<svg xmlns="http://www.w3.org/2000/svg" width="24" height="24" shape-rendering="crispEdges"><path d="M12 2h1v1h-1zM13 2h1v1h-1zM11 3h1v1h-1zM12 3h1v1h-1zM13 3h1v1h-1zM14 3h1v1h-1zM11 4h1v1h-1zM12 4h1v1h-1zM13 4h1v1h-1zM14 4h1v1h-1zM15 4h1v1h-1zM14 5h1v1h-1zM15 5h1v1h-1zM16 5h1v1h-1zM5 6h1v1H5zM6 6h1v1H6zM7 6h1v1H7zM8 6h1v1H8zM15 6h1v1h-1zM16 6h1v1h-1zM17 6h1v1h-1zM4 7h1v1H4zM5 7h1v1H5zM6 7h1v1H6zM7 7h1v1H7zM8 7h1v1H8zM9 7h1v1H9zM16 7h1v1h-1zM17 7h1v1h-1zM3 8h1v1H3zM4 8h1v1H4zM5 8h1v1H5zM8 8h1v1H8zM9 8h1v1H9zM10 8h1v1h-1zM15 8h1v1h-1zM16 8h1v1h-1zM17 8h1v1h-1zM3 9h1v1H3zM4 9h1v1H4zM9 9h1v1H9zM10 9h1v1h-1zM15 9h1v1h-1zM16 9h1v1h-1zM17 9h1v1h-1zM2 10h1v1H2zM3 10h1v1H3zM4 10h1v1H4zM9 10h1v1H9zM10 10h1v1h-1zM11 10h1v1h-1zM16 10h1v1h-1zM17 10h1v1h-1zM18 10h1v1h-1zM1 11h1v1H1zM2 11h1v1H2zM3 11h1v1H3zM10 11h1v1h-1zM11 11h1v1h-1zM12 11h1v1h-1zM17 11h1v1h-1zM18 11h1v1h-1zM19 11h1v1h-1zM1 12h1v1H1zM2 12h1v1H2zM11 12h1v1h-1zM12 12h1v1h-1zM18 12h1v1h-1zM19 12h1v1h-1zM1 13h1v1H1zM2 13h1v1H2zM11 13h1v1h-1zM12 13h1v1h-1zM17 13h1v1h-1zM18 13h1v1h-1zM19 13h1v1h-1zM1 14h1v1H1zM2 14h1v1H2zM3 14h1v1H3zM10 14h1v1h-1zM11 14h1v1h-1zM12 14h1v1h-1zM17 14h1v1h-1zM18 14h1v1h-1zM19 14h1v1h-1zM2 15h1v1H2zM3 15h1v1H3zM4 15h1v1H4zM5 15h1v1H5zM6 15h1v1H6zM7 15h1v1H7zM8 15h1v1H8zM9 15h1v1H9zM10 15h1v1h-1zM11 15h1v1h-1zM18 15h1v1h-1zM19 15h1v1h-1zM20 15h1v1h-1zM3 16h1v1H3zM4 16h1v1H4zM5 16h1v1H5zM6 16h1v1H6zM7 16h1v1H7zM8 16h1v1H8zM9 16h1v1H9zM10 16h1v1h-1zM19 16h1v1h-1zM20 16h1v1h-1zM21 16h1v1h-1zM6 17h1v1H6zM7 17h1v1H7zM20 17h1v1h-1zM21 17h1v1h-1zM6 18h1v1H6zM7 18h1v1H7zM11 18h1v1h-1zM12 18h1v1h-1zM13 18h1v1h-1zM14 18h1v1h-1zM15 18h1v1h-1zM16 18h1v1h-1zM17 18h1v1h-1zM18 18h1v1h-1zM19 18h1v1h-1zM20 18h1v1h-1zM21 18h1v1h-1zM6 19h1v1H6zM7 19h1v1H7zM11 19h1v1h-1zM12 19h1v1h-1zM13 19h1v1h-1zM14 19h1v1h-1zM15 19h1v1h-1zM16 19h1v1h-1zM17 19h1v1h-1zM18 19h1v1h-1zM19 19h1v1h-1zM20 19h1v1h-1zM6 20h1v1H6zM7 20h1v1H7zM12 20h1v1h-1zM13 20h1v1h-1zM6 21h1v1H6zM7 21h1v1H7zM12 21h1v1h-1zM13 21h1v1h-1zM6 22h1v1H6zM7 22h1v1H7zM12 22h1v1h-1zM13 22h1v1h-1z"/></svg>