<svg xmlns="http://www.w3.org/2000/svg" width="24" height="24" shape-rendering="crispEdges"><path d="M15 6h1v1h-1zM16 6h1v1h-1zM17 6h1v1h-1zM18 6h1v1h-1zM19 6h1v1h-1zM20 6h1v1h-1zM21 6h1v1h-1zM22 6h1v1h-1zM15 7h1v1h-1zM16 7h1v1h-1zM17 7h1v1h-1zM18 7h1v1h-1zM19 7h1v1h-1zM20 7h1v1h-1zM21 7h1v1h-1zM22 7h1v1h-1zM19 8h1v1h-1zM20 8h1v1h-1zM21 8h1v1h-1zM22 8h1v1h-1zM18 9h1v1h-1zM19 9h1v1h-1zM20 9h1v1h-1zM21 9h1v1h-1zM22 9h1v1h-1zM7 10h1v1H7zM8 10h1v1H8zM9 10h1v1H9zM17 10h1v1h-1zM18 10h1v1h-1zM19 10h1v1h-1zM21 10h1v1h-1zM22 10h1v1h-1zM6 11h1v1H6zM7 11h1v1H7zM8 11h1v1H8zM9 11h1v1H9zM10 11h1v1h-1zM16 11h1v1h-1zM17 11h1v1h-1zM18 11h1v1h-1zM21 11h1v1h-1zM22 11h1v1h-1zM5 12h1v1H5zM6 12h1v1H6zM7 12h1v1H7zM9 12h1v1H9zM10 12h1v1h-1zM11 12h1v1h-1zM15 12h1v1h-1zM16 12h1v1h-1zM17 12h1v1h-1zM21 12h1v1h-1zM22 12h1v1h-1zM4 13h1v1H4zM5 13h1v1H5zM6 13h1v1H6zM10 13h1v1h-1zM11 13h1v1h-1zM12 13h1v1h-1zM14 13h1v1h-1zM15 13h1v1h-1zM16 13h1v1h-1zM21 13h1v1h-1zM22 13h1v1h-1zM3 14h1v1H3zM4 14h1v1H4zM5 14h1v1H5zM11 14h1v1h-1zM12 14h1v1h-1zM13 14h1v1h-1zM14 14h1v1h-1zM15 14h1v1h-1zM2 15h1v1H2zM3 15h1v1H3zM4 15h1v1H4zM12 15h1v1h-1zM13 15h1v1h-1zM14 15h1v1h-1zM1 16h1v1H1zM2 16h1v1H2zM3 16h1v1H3zM1 17h1v1H1zM2 17h1v1H2z"/></svg>