<svg xmlns="http://www.w3.org/2000/svg" width="24" height="24" shape-rendering="crispEdges"><path d="M1 6h1v1H1zM2 6h1v1H2zM1 7h1v1H1zM2 7h1v1H2zM3 7h1v1H3zM2 8h1v1H2zM3 8h1v1H3zM4 8h1v1H4zM12 8h1v1h-1zM13 8h1v1h-1zM14 8h1v1h-1zM3 9h1v1H3zM4 9h1v1H4zM5 9h1v1H5zM11 9h1v1h-1zM12 9h1v1h-1zM13 9h1v1h-1zM14 9h1v1h-1zM15 9h1v1h-1zM4 10h1v1H4zM5 10h1v1H5zM6 10h1v1H6zM10 10h1v1h-1zM11 10h1v1h-1zM12 10h1v1h-1zM14 10h1v1h-1zM15 10h1v1h-1zM16 10h1v1h-1zM21 10h1v1h-1zM22 10h1v1h-1zM5 11h1v1H5zM6 11h1v1H6zM7 11h1v1H7zM9 11h1v1H9zM10 11h1v1h-1zM11 11h1v1h-1zM15 11h1v1h-1zM16 11h1v1h-1zM17 11h1v1h-1zM21 11h1v1h-1zM22 11h1v1h-1zM6 12h1v1H6zM7 12h1v1H7zM8 12h1v1H8zM9 12h1v1H9zM10 12h1v1h-1zM16 12h1v1h-1zM17 12h1v1h-1zM18 12h1v1h-1zM21 12h1v1h-1zM22 12h1v1h-1zM7 13h1v1H7zM8 13h1v1H8zM9 13h1v1H9zM17 13h1v1h-1zM18 13h1v1h-1zM19 13h1v1h-1zM21 13h1v1h-1zM22 13h1v1h-1zM18 14h1v1h-1zM19 14h1v1h-1zM20 14h1v1h-1zM21 14h1v1h-1zM22 14h1v1h-1zM19 15h1v1h-1zM20 15h1v1h-1zM21 15h1v1h-1zM22 15h1v1h-1zM15 16h1v1h-1zM16 16h1v1h-1zM17 16h1v1h-1zM18 16h1v1h-1zM19 16h1v1h-1zM20 16h1v1h-1zM21 16h1v1h-1zM22 16h1v1h-1zM15 17h1v1h-1zM16 17h1v1h-1zM17 17h1v1h-1zM18 17h1v1h-1zM19 17h1v1h-1zM20 17h1v1h-1zM21 17h1v1h-1zM22 17h1v1h-1z"/></svg>