<svg xmlns="http://www.w3.org/2000/svg" width="24" height="24" shape-rendering="crispEdges"><path d="M1 1h1v1H1zM2 1h1v1H2zM11 1h1v1h-1zM12 1h1v1h-1zM1 2h1v1H1zM2 2h1v1H2zM3 2h1v1H3zM9 2h1v1H9zM10 2h1v1h-1zM11 2h1v1h-1zM12 2h1v1h-1zM13 2h1v1h-1zM14 2h1v1h-1zM2 3h1v1H2zM3 3h1v1H3zM4 3h1v1H4zM8 3h1v1H8zM9 3h1v1H9zM10 3h1v1h-1zM11 3h1v1h-1zM12 3h1v1h-1zM13 3h1v1h-1zM14 3h1v1h-1zM15 3h1v1h-1zM16 3h1v1h-1zM17 3h1v1h-1zM3 4h1v1H3zM4 4h1v1H4zM5 4h1v1H5zM15 4h1v1h-1zM16 4h1v1h-1zM17 4h1v1h-1zM18 4h1v1h-1zM4 5h1v1H4zM5 5h1v1H5zM6 5h1v1H6zM17 5h1v1h-1zM18 5h1v1h-1zM19 5h1v1h-1zM3 6h1v1H3zM4 6h1v1H4zM5 6h1v1H5zM6 6h1v1H6zM7 6h1v1H7zM18 6h1v1h-1zM19 6h1v1h-1zM20 6h1v1h-1zM2 7h1v1H2zM3 7h1v1H3zM4 7h1v1H4zM6 7h1v1H6zM7 7h1v1H7zM8 7h1v1H8zM19 7h1v1h-1zM20 7h1v1h-1zM21 7h1v1h-1zM2 8h1v1H2zM3 8h1v1H3zM7 8h1v1H7zM8 8h1v1H8zM9 8h1v1H9zM20 8h1v1h-1zM21 8h1v1h-1zM2 9h1v1H2zM3 9h1v1H3zM8 9h1v1H8zM9 9h1v1H9zM10 9h1v1h-1zM20 9h1v1h-1zM21 9h1v1h-1zM1 10h1v1H1zM2 10h1v1H2zM9 10h1v1H9zM10 10h1v1h-1zM11 10h1v1h-1zM21 10h1v1h-1zM22 10h1v1h-1zM1 11h1v1H1zM2 11h1v1H2zM3 11h1v1H3zM4 11h1v1H4zM5 11h1v1H5zM6 11h1v1H6zM7 11h1v1H7zM8 11h1v1H8zM9 11h1v1H9zM10 11h1v1h-1zM11 11h1v1h-1zM12 11h1v1h-1zM17 11h1v1h-1zM18 11h1v1h-1zM19 11h1v1h-1zM20 11h1v1h-1zM21 11h1v1h-1zM22 11h1v1h-1zM1 12h1v1H1zM2 12h1v1H2zM3 12h1v1H3zM4 12h1v1H4zM5 12h1v1H5zM6 12h1v1H6zM7 12h1v1H7zM8 12h1v1H8zM9 12h1v1H9zM10 12h1v1h-1zM11 12h1v1h-1zM12 12h1v1h-1zM13 12h1v1h-1zM17 12h1v1h-1zM18 12h1v1h-1zM19 12h1v1h-1zM20 12h1v1h-1zM21 12h1v1h-1zM22 12h1v1h-1zM11 13h1v1h-1zM12 13h1v1h-1zM13 13h1v1h-1zM14 13h1v1h-1zM11 14h1v1h-1zM12 14h1v1h-1zM13 14h1v1h-1zM14 14h1v1h-1zM15 14h1v1h-1zM11 15h1v1h-1zM12 15h1v1h-1zM14 15h1v1h-1zM15 15h1v1h-1zM16 15h1v1h-1zM11 16h1v1h-1zM12 16h1v1h-1zM15 16h1v1h-1zM16 16h1v1h-1zM17 16h1v1h-1zM11 17h1v1h-1zM12 17h1v1h-1zM16 17h1v1h-1zM17 17h1v1h-1zM18 17h1v1h-1zM11 18h1v1h-1zM12 18h1v1h-1zM17 18h1v1h-1zM18 18h1v1h-1zM19 18h1v1h-1zM11 19h1v1h-1zM12 19h1v1h-1zM18 19h1v1h-1zM19 19h1v1h-1zM20 19h1v1h-1zM11 20h1v1h-1zM12 20h1v1h-1zM15 20h1v1h-1zM19 20h1v1h-1zM20 20h1v1h-1zM21 20h1v1h-1zM11 21h1v1h-1zM12 21h1v1h-1zM13 21h1v1h-1zM14 21h1v1h-1zM15 21h1v1h-1zM20 21h1v1h-1zM21 21h1v1h-1zM22 21h1v1h-1zM12 22h1v1h-1zM13 22h1v1h-1zM14 22h1v1h-1zM21 22h1v1h-1zM22 22h1v1h-1z"/></svg>