<svg xmlns="http://www.w3.org/2000/svg" width="24" height="24" shape-rendering="crispEdges"><path d="M8 3h1v1H8zM9 3h1v1H9zM7 4h1v1H7zM8 4h1v1H8zM9 4h1v1H9zM6 5h1v1H6zM7 5h1v1H7zM8 5h1v1H8zM5 6h1v1H5zM6 6h1v1H6zM7 6h1v1H7zM4 7h1v1H4zM5 7h1v1H5zM6 7h1v1H6zM3 8h1v1H3zM4 8h1v1H4zM5 8h1v1H5zM6 8h1v1H6zM7 8h1v1H7zM8 8h1v1H8zM9 8h1v1H9zM10 8h1v1h-1zM11 8h1v1h-1zM12 8h1v1h-1zM13 8h1v1h-1zM14 8h1v1h-1zM15 8h1v1h-1zM16 8h1v1h-1zM3 9h1v1H3zM4 9h1v1H4zM5 9h1v1H5zM6 9h1v1H6zM7 9h1v1H7zM8 9h1v1H8zM9 9h1v1H9zM10 9h1v1h-1zM11 9h1v1h-1zM12 9h1v1h-1zM13 9h1v1h-1zM14 9h1v1h-1zM15 9h1v1h-1zM16 9h1v1h-1zM17 9h1v1h-1zM18 9h1v1h-1zM4 10h1v1H4zM5 10h1v1H5zM6 10h1v1H6zM17 10h1v1h-1zM18 10h1v1h-1zM19 10h1v1h-1zM5 11h1v1H5zM6 11h1v1H6zM7 11h1v1H7zM18 11h1v1h-1zM19 11h1v1h-1zM6 12h1v1H6zM7 12h1v1H7zM8 12h1v1H8zM18 12h1v1h-1zM19 12h1v1h-1zM20 12h1v1h-1zM7 13h1v1H7zM8 13h1v1H8zM9 13h1v1H9zM19 13h1v1h-1zM20 13h1v1h-1zM8 14h1v1H8zM9 14h1v1H9zM19 14h1v1h-1zM20 14h1v1h-1zM19 15h1v1h-1zM20 15h1v1h-1zM18 16h1v1h-1zM19 16h1v1h-1zM20 16h1v1h-1zM18 17h1v1h-1zM19 17h1v1h-1zM16 18h1v1h-1zM17 18h1v1h-1zM18 18h1v1h-1zM19 18h1v1h-1zM10 19h1v1h-1zM11 19h1v1h-1zM12 19h1v1h-1zM13 19h1v1h-1zM14 19h1v1h-1zM15 19h1v1h-1zM16 19h1v1h-1zM17 19h1v1h-1zM18 19h1v1h-1zM10 20h1v1h-1zM11 20h1v1h-1zM12 20h1v1h-1zM13 20h1v1h-1zM14 20h1v1h-1zM15 20h1v1h-1zM16 20h1v1h-1z"/></svg>