<svg xmlns="http://www.w3.org/2000/svg" width="24" height="24" shape-rendering="crispEdges"><path d="M11 1h1v1h-1zM12 1h1v1h-1zM11 2h1v1h-1zM12 2h1v1h-1zM11 3h1v1h-1zM12 3h1v1h-1zM11 4h1v1h-1zM12 4h1v1h-1zM11 7h1v1h-1zM12 7h1v1h-1zM4 8h1v1H4zM5 8h1v1H5zM11 8h1v1h-1zM12 8h1v1h-1zM18 8h1v1h-1zM19 8h1v1h-1zM3 9h1v1H3zM4 9h1v1H4zM5 9h1v1H5zM11 9h1v1h-1zM12 9h1v1h-1zM18 9h1v1h-1zM19 9h1v1h-1zM20 9h1v1h-1zM2 10h1v1H2zM3 10h1v1H3zM4 10h1v1H4zM11 10h1v1h-1zM12 10h1v1h-1zM19 10h1v1h-1zM20 10h1v1h-1zM21 10h1v1h-1zM1 11h1v1H1zM2 11h1v1H2zM3 11h1v1H3zM4 11h1v1H4zM5 11h1v1H5zM6 11h1v1H6zM7 11h1v1H7zM8 11h1v1H8zM15 11h1v1h-1zM16 11h1v1h-1zM17 11h1v1h-1zM18 11h1v1h-1zM19 11h1v1h-1zM20 11h1v1h-1zM21 11h1v1h-1zM22 11h1v1h-1zM1 12h1v1H1zM2 12h1v1H2zM3 12h1v1H3zM4 12h1v1H4zM5 12h1v1H5zM6 12h1v1H6zM7 12h1v1H7zM8 12h1v1H8zM15 12h1v1h-1zM16 12h1v1h-1zM17 12h1v1h-1zM18 12h1v1h-1zM19 12h1v1h-1zM20 12h1v1h-1zM21 12h1v1h-1zM22 12h1v1h-1zM2 13h1v1H2zM3 13h1v1H3zM4 13h1v1H4zM11 13h1v1h-1zM12 13h1v1h-1zM19 13h1v1h-1zM20 13h1v1h-1zM21 13h1v1h-1zM3 14h1v1H3zM4 14h1v1H4zM5 14h1v1H5zM11 14h1v1h-1zM12 14h1v1h-1zM18 14h1v1h-1zM19 14h1v1h-1zM20 14h1v1h-1zM4 15h1v1H4zM5 15h1v1H5zM11 15h1v1h-1zM12 15h1v1h-1zM18 15h1v1h-1zM19 15h1v1h-1zM11 16h1v1h-1zM12 16h1v1h-1zM11 19h1v1h-1zM12 19h1v1h-1zM11 20h1v1h-1zM12 20h1v1h-1zM11 21h1v1h-1zM12 21h1v1h-1zM11 22h1v1h-1zM12 22h1v1h-1z"/></svg>