<svg xmlns="http://www.w3.org/2000/svg" width="24" height="24" shape-rendering="crispEdges"><path d="M11 2h1v1h-1zM12 2h1v1h-1zM10 3h1v1h-1zM11 3h1v1h-1zM12 3h1v1h-1zM13 3h1v1h-1zM9 4h1v1H9zM10 4h1v1h-1zM11 4h1v1h-1zM12 4h1v1h-1zM13 4h1v1h-1zM14 4h1v1h-1zM8 5h1v1H8zM9 5h1v1H9zM10 5h1v1h-1zM11 5h1v1h-1zM12 5h1v1h-1zM13 5h1v1h-1zM14 5h1v1h-1zM15 5h1v1h-1zM7 6h1v1H7zM8 6h1v1H8zM9 6h1v1H9zM11 6h1v1h-1zM12 6h1v1h-1zM14 6h1v1h-1zM15 6h1v1h-1zM16 6h1v1h-1zM6 7h1v1H6zM7 7h1v1H7zM8 7h1v1H8zM11 7h1v1h-1zM12 7h1v1h-1zM15 7h1v1h-1zM16 7h1v1h-1zM17 7h1v1h-1zM6 8h1v1H6zM7 8h1v1H7zM11 8h1v1h-1zM12 8h1v1h-1zM16 8h1v1h-1zM17 8h1v1h-1zM11 9h1v1h-1zM12 9h1v1h-1zM11 10h1v1h-1zM12 10h1v1h-1zM11 11h1v1h-1zM12 11h1v1h-1zM11 12h1v1h-1zM12 12h1v1h-1zM11 13h1v1h-1zM12 13h1v1h-1zM2 14h1v1H2zM3 14h1v1H3zM11 14h1v1h-1zM12 14h1v1h-1zM20 14h1v1h-1zM21 14h1v1h-1zM2 15h1v1H2zM3 15h1v1H3zM11 15h1v1h-1zM12 15h1v1h-1zM20 15h1v1h-1zM21 15h1v1h-1zM2 16h1v1H2zM3 16h1v1H3zM20 16h1v1h-1zM21 16h1v1h-1zM2 17h1v1H2zM3 17h1v1H3zM20 17h1v1h-1zM21 17h1v1h-1zM2 18h1v1H2zM3 18h1v1H3zM20 18h1v1h-1zM21 18h1v1h-1zM2 19h1v1H2zM3 19h1v1H3zM20 19h1v1h-1zM21 19h1v1h-1zM2 20h1v1H2zM3 20h1v1H3zM4 20h1v1H4zM5 20h1v1H5zM6 20h1v1H6zM7 20h1v1H7zM8 20h1v1H8zM9 20h1v1H9zM10 20h1v1h-1zM11 20h1v1h-1zM12 20h1v1h-1zM13 20h1v1h-1zM14 20h1v1h-1zM15 20h1v1h-1zM16 20h1v1h-1zM17 20h1v1h-1zM18 20h1v1h-1zM19 20h1v1h-1zM20 20h1v1h-1zM21 20h1v1h-1zM3 21h1v1H3zM4 21h1v1H4zM5 21h1v1H5zM6 21h1v1H6zM7 21h1v1H7zM8 21h1v1H8zM9 21h1v1H9zM10 21h1v1h-1zM11 21h1v1h-1zM12 21h1v1h-1zM13 21h1v1h-1zM14 21h1v1h-1zM15 21h1v1h-1zM16 21h1v1h-1zM17 21h1v1h-1zM18 21h1v1h-1zM19 21h1v1h-1zM20 21h1v1h-1z"/></svg>