<svg xmlns="http://www.w3.org/2000/svg" width="24" height="24" shape-rendering="crispEdges"><path d="M8 2h1v1H8zM9 2h1v1H9zM10 2h1v1h-1zM11 2h1v1h-1zM7 3h1v1H7zM8 3h1v1H8zM9 3h1v1H9zM10 3h1v1h-1zM11 3h1v1h-1zM12 3h1v1h-1zM13 3h1v1h-1zM6 4h1v1H6zM7 4h1v1H7zM12 4h1v1h-1zM13 4h1v1h-1zM5 5h1v1H5zM6 5h1v1H6zM13 5h1v1h-1zM14 5h1v1h-1zM5 6h1v1H5zM6 6h1v1H6zM13 6h1v1h-1zM14 6h1v1h-1zM5 7h1v1H5zM6 7h1v1H6zM13 7h1v1h-1zM14 7h1v1h-1zM5 8h1v1H5zM6 8h1v1H6zM13 8h1v1h-1zM14 8h1v1h-1zM6 9h1v1H6zM7 9h1v1H7zM12 9h1v1h-1zM13 9h1v1h-1zM6 10h1v1H6zM7 10h1v1H7zM8 10h1v1H8zM9 10h1v1H9zM10 10h1v1h-1zM11 10h1v1h-1zM12 10h1v1h-1zM8 11h1v1H8zM9 11h1v1H9zM10 11h1v1h-1zM11 11h1v1h-1zM15 13h1v1h-1zM16 13h1v1h-1zM17 13h1v1h-1zM18 13h1v1h-1zM5 14h1v1H5zM6 14h1v1H6zM7 14h1v1H7zM8 14h1v1H8zM9 14h1v1H9zM10 14h1v1h-1zM14 14h1v1h-1zM15 14h1v1h-1zM16 14h1v1h-1zM17 14h1v1h-1zM18 14h1v1h-1zM19 14h1v1h-1zM4 15h1v1H4zM5 15h1v1H5zM6 15h1v1H6zM7 15h1v1H7zM8 15h1v1H8zM9 15h1v1H9zM10 15h1v1h-1zM13 15h1v1h-1zM14 15h1v1h-1zM15 15h1v1h-1zM18 15h1v1h-1zM19 15h1v1h-1zM20 15h1v1h-1zM3 16h1v1H3zM4 16h1v1H4zM13 16h1v1h-1zM14 16h1v1h-1zM19 16h1v1h-1zM20 16h1v1h-1zM2 17h1v1H2zM3 17h1v1H3zM13 17h1v1h-1zM14 17h1v1h-1zM19 17h1v1h-1zM20 17h1v1h-1zM2 18h1v1H2zM3 18h1v1H3zM13 18h1v1h-1zM14 18h1v1h-1zM15 18h1v1h-1zM18 18h1v1h-1zM19 18h1v1h-1zM20 18h1v1h-1zM2 19h1v1H2zM3 19h1v1H3zM14 19h1v1h-1zM15 19h1v1h-1zM16 19h1v1h-1zM17 19h1v1h-1zM18 19h1v1h-1zM19 19h1v1h-1zM20 19h1v1h-1zM2 20h1v1H2zM3 20h1v1H3zM15 20h1v1h-1zM16 20h1v1h-1zM17 20h1v1h-1zM18 20h1v1h-1zM19 20h1v1h-1zM20 20h1v1h-1zM21 20h1v1h-1zM2 21h1v1H2zM3 21h1v1H3zM20 21h1v1h-1zM21 21h1v1h-1z"/></svg>