<svg xmlns="http://www.w3.org/2000/svg" width="24" height="24" shape-rendering="crispEdges"><path d="M7 2h1v1H7zM8 2h1v1H8zM9 2h1v1H9zM10 2h1v1h-1zM6 3h1v1H6zM7 3h1v1H7zM8 3h1v1H8zM9 3h1v1H9zM10 3h1v1h-1zM11 3h1v1h-1zM12 3h1v1h-1zM5 4h1v1H5zM6 4h1v1H6zM11 4h1v1h-1zM12 4h1v1h-1zM4 5h1v1H4zM5 5h1v1H5zM12 5h1v1h-1zM13 5h1v1h-1zM4 6h1v1H4zM5 6h1v1H5zM12 6h1v1h-1zM13 6h1v1h-1zM4 7h1v1H4zM5 7h1v1H5zM12 7h1v1h-1zM13 7h1v1h-1zM18 7h1v1h-1zM19 7h1v1h-1zM4 8h1v1H4zM5 8h1v1H5zM12 8h1v1h-1zM13 8h1v1h-1zM18 8h1v1h-1zM19 8h1v1h-1zM5 9h1v1H5zM6 9h1v1H6zM11 9h1v1h-1zM12 9h1v1h-1zM18 9h1v1h-1zM19 9h1v1h-1zM5 10h1v1H5zM6 10h1v1H6zM7 10h1v1H7zM8 10h1v1H8zM9 10h1v1H9zM10 10h1v1h-1zM11 10h1v1h-1zM15 10h1v1h-1zM16 10h1v1h-1zM17 10h1v1h-1zM18 10h1v1h-1zM19 10h1v1h-1zM20 10h1v1h-1zM21 10h1v1h-1zM22 10h1v1h-1zM7 11h1v1H7zM8 11h1v1H8zM9 11h1v1H9zM10 11h1v1h-1zM15 11h1v1h-1zM16 11h1v1h-1zM17 11h1v1h-1zM18 11h1v1h-1zM19 11h1v1h-1zM20 11h1v1h-1zM21 11h1v1h-1zM22 11h1v1h-1zM18 12h1v1h-1zM19 12h1v1h-1zM18 13h1v1h-1zM19 13h1v1h-1zM4 14h1v1H4zM5 14h1v1H5zM6 14h1v1H6zM7 14h1v1H7zM8 14h1v1H8zM9 14h1v1H9zM10 14h1v1h-1zM11 14h1v1h-1zM12 14h1v1h-1zM13 14h1v1h-1zM18 14h1v1h-1zM19 14h1v1h-1zM3 15h1v1H3zM4 15h1v1H4zM5 15h1v1H5zM6 15h1v1H6zM7 15h1v1H7zM8 15h1v1H8zM9 15h1v1H9zM10 15h1v1h-1zM11 15h1v1h-1zM12 15h1v1h-1zM13 15h1v1h-1zM14 15h1v1h-1zM15 15h1v1h-1zM2 16h1v1H2zM3 16h1v1H3zM14 16h1v1h-1zM15 16h1v1h-1zM1 17h1v1H1zM2 17h1v1H2zM15 17h1v1h-1zM16 17h1v1h-1zM1 18h1v1H1zM2 18h1v1H2zM15 18h1v1h-1zM16 18h1v1h-1zM1 19h1v1H1zM2 19h1v1H2zM15 19h1v1h-1zM16 19h1v1h-1zM1 20h1v1H1zM2 20h1v1H2zM15 20h1v1h-1zM16 20h1v1h-1zM1 21h1v1H1zM2 21h1v1H2zM15 21h1v1h-1zM16 21h1v1h-1z"/></svg>