<svg xmlns="http://www.w3.org/2000/svg" width="24" height="24" shape-rendering="crispEdges"><path d="M8 2h1v1H8zM9 2h1v1H9zM10 2h1v1h-1zM11 2h1v1h-1zM6 3h1v1H6zM7 3h1v1H7zM8 3h1v1H8zM9 3h1v1H9zM10 3h1v1h-1zM11 3h1v1h-1zM12 3h1v1h-1zM13 3h1v1h-1zM5 4h1v1H5zM6 4h1v1H6zM7 4h1v1H7zM12 4h1v1h-1zM13 4h1v1h-1zM14 4h1v1h-1zM5 5h1v1H5zM6 5h1v1H6zM13 5h1v1h-1zM14 5h1v1h-1zM4 6h1v1H4zM5 6h1v1H5zM14 6h1v1h-1zM15 6h1v1h-1zM4 7h1v1H4zM5 7h1v1H5zM14 7h1v1h-1zM15 7h1v1h-1zM4 8h1v1H4zM5 8h1v1H5zM14 8h1v1h-1zM15 8h1v1h-1zM4 9h1v1H4zM5 9h1v1H5zM14 9h1v1h-1zM15 9h1v1h-1zM5 10h1v1H5zM6 10h1v1H6zM13 10h1v1h-1zM14 10h1v1h-1zM5 11h1v1H5zM6 11h1v1H6zM7 11h1v1H7zM12 11h1v1h-1zM13 11h1v1h-1zM14 11h1v1h-1zM6 12h1v1H6zM7 12h1v1H7zM8 12h1v1H8zM9 12h1v1H9zM10 12h1v1h-1zM11 12h1v1h-1zM12 12h1v1h-1zM13 12h1v1h-1zM5 13h1v1H5zM6 13h1v1H6zM7 13h1v1H7zM8 13h1v1H8zM9 13h1v1H9zM10 13h1v1h-1zM11 13h1v1h-1zM12 13h1v1h-1zM13 13h1v1h-1zM14 13h1v1h-1zM4 14h1v1H4zM5 14h1v1H5zM6 14h1v1H6zM7 14h1v1H7zM12 14h1v1h-1zM13 14h1v1h-1zM14 14h1v1h-1zM3 15h1v1H3zM4 15h1v1H4zM5 15h1v1H5zM2 16h1v1H2zM3 16h1v1H3zM4 16h1v1H4zM16 16h1v1h-1zM17 16h1v1h-1zM21 16h1v1h-1zM22 16h1v1h-1zM2 17h1v1H2zM3 17h1v1H3zM16 17h1v1h-1zM17 17h1v1h-1zM18 17h1v1h-1zM20 17h1v1h-1zM21 17h1v1h-1zM22 17h1v1h-1zM1 18h1v1H1zM2 18h1v1H2zM3 18h1v1H3zM17 18h1v1h-1zM18 18h1v1h-1zM19 18h1v1h-1zM20 18h1v1h-1zM21 18h1v1h-1zM1 19h1v1H1zM2 19h1v1H2zM18 19h1v1h-1zM19 19h1v1h-1zM20 19h1v1h-1zM1 20h1v1H1zM2 20h1v1H2zM17 20h1v1h-1zM18 20h1v1h-1zM19 20h1v1h-1zM20 20h1v1h-1zM21 20h1v1h-1zM1 21h1v1H1zM2 21h1v1H2zM16 21h1v1h-1zM17 21h1v1h-1zM18 21h1v1h-1zM20 21h1v1h-1zM21 21h1v1h-1zM22 21h1v1h-1zM16 22h1v1h-1zM17 22h1v1h-1zM21 22h1v1h-1zM22 22h1v1h-1z"/></svg>