<svg xmlns="http://www.w3.org/2000/svg" width="24" height="24" shape-rendering="crispEdges"><path d="M2 1h1v1H2zM3 1h1v1H3zM6 1h1v1H6zM7 1h1v1H7zM10 1h1v1h-1zM11 1h1v1h-1zM19 1h1v1h-1zM20 1h1v1h-1zM21 1h1v1h-1zM2 2h1v1H2zM3 2h1v1H3zM6 2h1v1H6zM7 2h1v1H7zM10 2h1v1h-1zM11 2h1v1h-1zM17 2h1v1h-1zM18 2h1v1h-1zM19 2h1v1h-1zM20 2h1v1h-1zM21 2h1v1h-1zM2 3h1v1H2zM3 3h1v1H3zM6 3h1v1H6zM7 3h1v1H7zM10 3h1v1h-1zM11 3h1v1h-1zM16 3h1v1h-1zM17 3h1v1h-1zM18 3h1v1h-1zM20 3h1v1h-1zM21 3h1v1h-1zM2 4h1v1H2zM3 4h1v1H3zM6 4h1v1H6zM7 4h1v1H7zM10 4h1v1h-1zM11 4h1v1h-1zM16 4h1v1h-1zM17 4h1v1h-1zM20 4h1v1h-1zM21 4h1v1h-1zM2 5h1v1H2zM3 5h1v1H3zM6 5h1v1H6zM7 5h1v1H7zM10 5h1v1h-1zM11 5h1v1h-1zM15 5h1v1h-1zM16 5h1v1h-1zM20 5h1v1h-1zM21 5h1v1h-1zM2 6h1v1H2zM3 6h1v1H3zM6 6h1v1H6zM7 6h1v1H7zM10 6h1v1h-1zM11 6h1v1h-1zM15 6h1v1h-1zM16 6h1v1h-1zM20 6h1v1h-1zM21 6h1v1h-1zM2 7h1v1H2zM3 7h1v1H3zM6 7h1v1H6zM7 7h1v1H7zM10 7h1v1h-1zM11 7h1v1h-1zM15 7h1v1h-1zM16 7h1v1h-1zM20 7h1v1h-1zM21 7h1v1h-1zM2 8h1v1H2zM3 8h1v1H3zM6 8h1v1H6zM7 8h1v1H7zM10 8h1v1h-1zM11 8h1v1h-1zM15 8h1v1h-1zM16 8h1v1h-1zM20 8h1v1h-1zM21 8h1v1h-1zM2 9h1v1H2zM3 9h1v1H3zM6 9h1v1H6zM7 9h1v1H7zM10 9h1v1h-1zM11 9h1v1h-1zM15 9h1v1h-1zM16 9h1v1h-1zM20 9h1v1h-1zM21 9h1v1h-1zM2 10h1v1H2zM3 10h1v1H3zM4 10h1v1H4zM5 10h1v1H5zM6 10h1v1H6zM7 10h1v1H7zM8 10h1v1H8zM9 10h1v1H9zM10 10h1v1h-1zM11 10h1v1h-1zM15 10h1v1h-1zM16 10h1v1h-1zM20 10h1v1h-1zM21 10h1v1h-1zM3 11h1v1H3zM4 11h1v1H4zM5 11h1v1H5zM6 11h1v1H6zM7 11h1v1H7zM8 11h1v1H8zM9 11h1v1H9zM10 11h1v1h-1zM15 11h1v1h-1zM16 11h1v1h-1zM20 11h1v1h-1zM21 11h1v1h-1zM6 12h1v1H6zM7 12h1v1H7zM15 12h1v1h-1zM16 12h1v1h-1zM20 12h1v1h-1zM21 12h1v1h-1zM6 13h1v1H6zM7 13h1v1H7zM15 13h1v1h-1zM16 13h1v1h-1zM20 13h1v1h-1zM21 13h1v1h-1zM6 14h1v1H6zM7 14h1v1H7zM15 14h1v1h-1zM16 14h1v1h-1zM17 14h1v1h-1zM18 14h1v1h-1zM19 14h1v1h-1zM20 14h1v1h-1zM21 14h1v1h-1zM6 15h1v1H6zM7 15h1v1H7zM16 15h1v1h-1zM17 15h1v1h-1zM18 15h1v1h-1zM19 15h1v1h-1zM20 15h1v1h-1zM21 15h1v1h-1zM6 16h1v1H6zM7 16h1v1H7zM20 16h1v1h-1zM21 16h1v1h-1zM6 17h1v1H6zM7 17h1v1H7zM20 17h1v1h-1zM21 17h1v1h-1zM6 18h1v1H6zM7 18h1v1H7zM20 18h1v1h-1zM21 18h1v1h-1zM6 19h1v1H6zM7 19h1v1H7zM20 19h1v1h-1zM21 19h1v1h-1zM6 20h1v1H6zM7 20h1v1H7zM20 20h1v1h-1zM21 20h1v1h-1zM6 21h1v1H6zM7 21h1v1H7zM20 21h1v1h-1zM21 21h1v1h-1zM6 22h1v1H6zM7 22h1v1H7zM20 22h1v1h-1zM21 22h1v1h-1z"/></svg>