<svg xmlns="http://www.w3.org/2000/svg" width="24" height="24" shape-rendering="crispEdges"><path d="M11 1h1v1h-1zM12 1h1v1h-1zM2 2h1v1H2zM3 2h1v1H3zM6 2h1v1H6zM7 2h1v1H7zM11 2h1v1h-1zM12 2h1v1h-1zM16 2h1v1h-1zM17 2h1v1h-1zM20 2h1v1h-1zM21 2h1v1h-1zM2 3h1v1H2zM3 3h1v1H3zM6 3h1v1H6zM7 3h1v1H7zM11 3h1v1h-1zM12 3h1v1h-1zM16 3h1v1h-1zM17 3h1v1h-1zM20 3h1v1h-1zM21 3h1v1h-1zM1 4h1v1H1zM2 4h1v1H2zM3 4h1v1H3zM4 4h1v1H4zM5 4h1v1H5zM6 4h1v1H6zM7 4h1v1H7zM8 4h1v1H8zM9 4h1v1H9zM10 4h1v1h-1zM11 4h1v1h-1zM12 4h1v1h-1zM13 4h1v1h-1zM14 4h1v1h-1zM15 4h1v1h-1zM16 4h1v1h-1zM17 4h1v1h-1zM18 4h1v1h-1zM19 4h1v1h-1zM20 4h1v1h-1zM21 4h1v1h-1zM22 4h1v1h-1zM1 5h1v1H1zM2 5h1v1H2zM3 5h1v1H3zM4 5h1v1H4zM5 5h1v1H5zM6 5h1v1H6zM7 5h1v1H7zM8 5h1v1H8zM9 5h1v1H9zM10 5h1v1h-1zM11 5h1v1h-1zM12 5h1v1h-1zM13 5h1v1h-1zM14 5h1v1h-1zM15 5h1v1h-1zM16 5h1v1h-1zM17 5h1v1h-1zM18 5h1v1h-1zM19 5h1v1h-1zM20 5h1v1h-1zM21 5h1v1h-1zM22 5h1v1h-1zM5 6h1v1H5zM6 6h1v1H6zM7 6h1v1H7zM11 6h1v1h-1zM12 6h1v1h-1zM16 6h1v1h-1zM17 6h1v1h-1zM18 6h1v1h-1zM6 7h1v1H6zM7 7h1v1H7zM8 7h1v1H8zM11 7h1v1h-1zM12 7h1v1h-1zM15 7h1v1h-1zM16 7h1v1h-1zM17 7h1v1h-1zM7 8h1v1H7zM8 8h1v1H8zM9 8h1v1H9zM11 8h1v1h-1zM12 8h1v1h-1zM14 8h1v1h-1zM15 8h1v1h-1zM16 8h1v1h-1zM8 9h1v1H8zM9 9h1v1H9zM10 9h1v1h-1zM11 9h1v1h-1zM12 9h1v1h-1zM13 9h1v1h-1zM14 9h1v1h-1zM15 9h1v1h-1zM9 10h1v1H9zM10 10h1v1h-1zM11 10h1v1h-1zM12 10h1v1h-1zM13 10h1v1h-1zM14 10h1v1h-1zM10 11h1v1h-1zM11 11h1v1h-1zM12 11h1v1h-1zM13 11h1v1h-1zM11 12h1v1h-1zM12 12h1v1h-1zM11 13h1v1h-1zM12 13h1v1h-1zM11 14h1v1h-1zM12 14h1v1h-1zM11 15h1v1h-1zM12 15h1v1h-1zM11 16h1v1h-1zM12 16h1v1h-1zM11 17h1v1h-1zM12 17h1v1h-1zM11 18h1v1h-1zM12 18h1v1h-1zM11 19h1v1h-1zM12 19h1v1h-1zM11 20h1v1h-1zM12 20h1v1h-1zM11 21h1v1h-1zM12 21h1v1h-1zM11 22h1v1h-1zM12 22h1v1h-1z"/></svg>