<svg xmlns="http://www.w3.org/2000/svg" width="24" height="24" shape-rendering="crispEdges"><path d="M16 1h1v1h-1zM17 1h1v1h-1zM18 1h1v1h-1zM19 1h1v1h-1zM20 1h1v1h-1zM21 1h1v1h-1zM16 2h1v1h-1zM17 2h1v1h-1zM18 2h1v1h-1zM19 2h1v1h-1zM20 2h1v1h-1zM21 2h1v1h-1zM18 3h1v1h-1zM19 3h1v1h-1zM20 3h1v1h-1zM21 3h1v1h-1zM17 4h1v1h-1zM18 4h1v1h-1zM19 4h1v1h-1zM20 4h1v1h-1zM21 4h1v1h-1zM10 5h1v1h-1zM11 5h1v1h-1zM12 5h1v1h-1zM13 5h1v1h-1zM16 5h1v1h-1zM17 5h1v1h-1zM18 5h1v1h-1zM20 5h1v1h-1zM21 5h1v1h-1zM8 6h1v1H8zM9 6h1v1H9zM10 6h1v1h-1zM11 6h1v1h-1zM12 6h1v1h-1zM13 6h1v1h-1zM14 6h1v1h-1zM15 6h1v1h-1zM16 6h1v1h-1zM17 6h1v1h-1zM20 6h1v1h-1zM21 6h1v1h-1zM7 7h1v1H7zM8 7h1v1H8zM9 7h1v1H9zM14 7h1v1h-1zM15 7h1v1h-1zM16 7h1v1h-1zM7 8h1v1H7zM8 8h1v1H8zM15 8h1v1h-1zM16 8h1v1h-1zM6 9h1v1H6zM7 9h1v1H7zM16 9h1v1h-1zM17 9h1v1h-1zM6 10h1v1H6zM7 10h1v1H7zM16 10h1v1h-1zM17 10h1v1h-1zM6 11h1v1H6zM7 11h1v1H7zM16 11h1v1h-1zM17 11h1v1h-1zM6 12h1v1H6zM7 12h1v1H7zM16 12h1v1h-1zM17 12h1v1h-1zM7 13h1v1H7zM8 13h1v1H8zM15 13h1v1h-1zM16 13h1v1h-1zM7 14h1v1H7zM8 14h1v1H8zM9 14h1v1H9zM14 14h1v1h-1zM15 14h1v1h-1zM16 14h1v1h-1zM8 15h1v1H8zM9 15h1v1H9zM10 15h1v1h-1zM11 15h1v1h-1zM12 15h1v1h-1zM13 15h1v1h-1zM14 15h1v1h-1zM15 15h1v1h-1zM10 16h1v1h-1zM11 16h1v1h-1zM12 16h1v1h-1zM13 16h1v1h-1zM11 17h1v1h-1zM12 17h1v1h-1zM11 18h1v1h-1zM12 18h1v1h-1zM9 19h1v1H9zM10 19h1v1h-1zM11 19h1v1h-1zM12 19h1v1h-1zM13 19h1v1h-1zM14 19h1v1h-1zM9 20h1v1H9zM10 20h1v1h-1zM11 20h1v1h-1zM12 20h1v1h-1zM13 20h1v1h-1zM14 20h1v1h-1zM11 21h1v1h-1zM12 21h1v1h-1zM11 22h1v1h-1zM12 22h1v1h-1z"/></svg>