<svg xmlns="http://www.w3.org/2000/svg" width="24" height="24" shape-rendering="crispEdges"><path d="M5 4h1v1H5zM6 4h1v1H6zM7 4h1v1H7zM8 4h1v1H8zM9 4h1v1H9zM10 4h1v1h-1zM11 4h1v1h-1zM12 4h1v1h-1zM13 4h1v1h-1zM14 4h1v1h-1zM15 4h1v1h-1zM16 4h1v1h-1zM17 4h1v1h-1zM18 4h1v1h-1zM4 5h1v1H4zM5 5h1v1H5zM6 5h1v1H6zM7 5h1v1H7zM8 5h1v1H8zM9 5h1v1H9zM10 5h1v1h-1zM11 5h1v1h-1zM12 5h1v1h-1zM13 5h1v1h-1zM14 5h1v1h-1zM15 5h1v1h-1zM16 5h1v1h-1zM17 5h1v1h-1zM18 5h1v1h-1zM19 5h1v1h-1zM4 6h1v1H4zM5 6h1v1H5zM18 6h1v1h-1zM19 6h1v1h-1zM4 7h1v1H4zM5 7h1v1H5zM18 7h1v1h-1zM19 7h1v1h-1zM4 8h1v1H4zM5 8h1v1H5zM18 8h1v1h-1zM19 8h1v1h-1zM4 9h1v1H4zM5 9h1v1H5zM14 9h1v1h-1zM15 9h1v1h-1zM18 9h1v1h-1zM19 9h1v1h-1zM4 10h1v1H4zM5 10h1v1H5zM13 10h1v1h-1zM14 10h1v1h-1zM15 10h1v1h-1zM18 10h1v1h-1zM19 10h1v1h-1zM4 11h1v1H4zM5 11h1v1H5zM8 11h1v1H8zM9 11h1v1H9zM12 11h1v1h-1zM13 11h1v1h-1zM14 11h1v1h-1zM18 11h1v1h-1zM19 11h1v1h-1zM4 12h1v1H4zM5 12h1v1H5zM8 12h1v1H8zM9 12h1v1H9zM10 12h1v1h-1zM11 12h1v1h-1zM12 12h1v1h-1zM13 12h1v1h-1zM18 12h1v1h-1zM19 12h1v1h-1zM4 13h1v1H4zM5 13h1v1H5zM9 13h1v1H9zM10 13h1v1h-1zM11 13h1v1h-1zM12 13h1v1h-1zM18 13h1v1h-1zM19 13h1v1h-1zM4 14h1v1H4zM5 14h1v1H5zM10 14h1v1h-1zM11 14h1v1h-1zM18 14h1v1h-1zM19 14h1v1h-1zM4 15h1v1H4zM5 15h1v1H5zM18 15h1v1h-1zM19 15h1v1h-1zM4 16h1v1H4zM5 16h1v1H5zM18 16h1v1h-1zM19 16h1v1h-1zM4 17h1v1H4zM5 17h1v1H5zM18 17h1v1h-1zM19 17h1v1h-1zM1 18h1v1H1zM2 18h1v1H2zM3 18h1v1H3zM4 18h1v1H4zM5 18h1v1H5zM6 18h1v1H6zM7 18h1v1H7zM8 18h1v1H8zM9 18h1v1H9zM10 18h1v1h-1zM11 18h1v1h-1zM12 18h1v1h-1zM13 18h1v1h-1zM14 18h1v1h-1zM15 18h1v1h-1zM16 18h1v1h-1zM17 18h1v1h-1zM18 18h1v1h-1zM19 18h1v1h-1zM20 18h1v1h-1zM21 18h1v1h-1zM22 18h1v1h-1zM1 19h1v1H1zM2 19h1v1H2zM3 19h1v1H3zM4 19h1v1H4zM5 19h1v1H5zM6 19h1v1H6zM7 19h1v1H7zM8 19h1v1H8zM9 19h1v1H9zM10 19h1v1h-1zM11 19h1v1h-1zM12 19h1v1h-1zM13 19h1v1h-1zM14 19h1v1h-1zM15 19h1v1h-1zM16 19h1v1h-1zM17 19h1v1h-1zM18 19h1v1h-1zM19 19h1v1h-1zM20 19h1v1h-1zM21 19h1v1h-1zM22 19h1v1h-1z"/></svg>