<svg xmlns="http://www.w3.org/2000/svg" width="24" height="24" shape-rendering="crispEdges"><path d="M9 1h1v1H9zM10 1h1v1h-1zM18 1h1v1h-1zM19 1h1v1h-1zM20 1h1v1h-1zM8 2h1v1H8zM9 2h1v1H9zM10 2h1v1h-1zM11 2h1v1h-1zM17 2h1v1h-1zM18 2h1v1h-1zM19 2h1v1h-1zM20 2h1v1h-1zM21 2h1v1h-1zM8 3h1v1H8zM9 3h1v1H9zM10 3h1v1h-1zM11 3h1v1h-1zM16 3h1v1h-1zM17 3h1v1h-1zM18 3h1v1h-1zM20 3h1v1h-1zM21 3h1v1h-1zM22 3h1v1h-1zM9 4h1v1H9zM10 4h1v1h-1zM15 4h1v1h-1zM16 4h1v1h-1zM17 4h1v1h-1zM21 4h1v1h-1zM22 4h1v1h-1zM4 5h1v1H4zM5 5h1v1H5zM14 5h1v1h-1zM15 5h1v1h-1zM16 5h1v1h-1zM20 5h1v1h-1zM21 5h1v1h-1zM22 5h1v1h-1zM4 6h1v1H4zM5 6h1v1H5zM13 6h1v1h-1zM14 6h1v1h-1zM15 6h1v1h-1zM19 6h1v1h-1zM20 6h1v1h-1zM21 6h1v1h-1zM2 7h1v1H2zM3 7h1v1H3zM4 7h1v1H4zM5 7h1v1H5zM6 7h1v1H6zM7 7h1v1H7zM12 7h1v1h-1zM13 7h1v1h-1zM14 7h1v1h-1zM15 7h1v1h-1zM18 7h1v1h-1zM19 7h1v1h-1zM20 7h1v1h-1zM2 8h1v1H2zM3 8h1v1H3zM4 8h1v1H4zM5 8h1v1H5zM6 8h1v1H6zM7 8h1v1H7zM11 8h1v1h-1zM12 8h1v1h-1zM13 8h1v1h-1zM14 8h1v1h-1zM15 8h1v1h-1zM16 8h1v1h-1zM17 8h1v1h-1zM18 8h1v1h-1zM19 8h1v1h-1zM4 9h1v1H4zM5 9h1v1H5zM10 9h1v1h-1zM11 9h1v1h-1zM12 9h1v1h-1zM15 9h1v1h-1zM16 9h1v1h-1zM17 9h1v1h-1zM18 9h1v1h-1zM4 10h1v1H4zM5 10h1v1H5zM9 10h1v1H9zM10 10h1v1h-1zM11 10h1v1h-1zM15 10h1v1h-1zM16 10h1v1h-1zM17 10h1v1h-1zM8 11h1v1H8zM9 11h1v1H9zM10 11h1v1h-1zM14 11h1v1h-1zM15 11h1v1h-1zM16 11h1v1h-1zM7 12h1v1H7zM8 12h1v1H8zM9 12h1v1H9zM13 12h1v1h-1zM14 12h1v1h-1zM15 12h1v1h-1zM6 13h1v1H6zM7 13h1v1H7zM8 13h1v1H8zM12 13h1v1h-1zM13 13h1v1h-1zM14 13h1v1h-1zM18 13h1v1h-1zM19 13h1v1h-1zM5 14h1v1H5zM6 14h1v1H6zM7 14h1v1H7zM11 14h1v1h-1zM12 14h1v1h-1zM13 14h1v1h-1zM18 14h1v1h-1zM19 14h1v1h-1zM4 15h1v1H4zM5 15h1v1H5zM6 15h1v1H6zM10 15h1v1h-1zM11 15h1v1h-1zM12 15h1v1h-1zM16 15h1v1h-1zM17 15h1v1h-1zM18 15h1v1h-1zM19 15h1v1h-1zM20 15h1v1h-1zM21 15h1v1h-1zM3 16h1v1H3zM4 16h1v1H4zM5 16h1v1H5zM9 16h1v1H9zM10 16h1v1h-1zM11 16h1v1h-1zM16 16h1v1h-1zM17 16h1v1h-1zM18 16h1v1h-1zM19 16h1v1h-1zM20 16h1v1h-1zM21 16h1v1h-1zM2 17h1v1H2zM3 17h1v1H3zM4 17h1v1H4zM8 17h1v1H8zM9 17h1v1H9zM10 17h1v1h-1zM18 17h1v1h-1zM19 17h1v1h-1zM1 18h1v1H1zM2 18h1v1H2zM3 18h1v1H3zM7 18h1v1H7zM8 18h1v1H8zM9 18h1v1H9zM18 18h1v1h-1zM19 18h1v1h-1zM1 19h1v1H1zM2 19h1v1H2zM6 19h1v1H6zM7 19h1v1H7zM8 19h1v1H8zM1 20h1v1H1zM2 20h1v1H2zM3 20h1v1H3zM5 20h1v1H5zM6 20h1v1H6zM7 20h1v1H7zM2 21h1v1H2zM3 21h1v1H3zM4 21h1v1H4zM5 21h1v1H5zM6 21h1v1H6zM3 22h1v1H3zM4 22h1v1H4zM5 22h1v1H5z"/></svg>