<svg xmlns="http://www.w3.org/2000/svg" width="24" height="24" shape-rendering="crispEdges"><path d="M11 2h1v1h-1zM12 2h1v1h-1zM8 3h1v1H8zM9 3h1v1H9zM10 3h1v1h-1zM11 3h1v1h-1zM12 3h1v1h-1zM13 3h1v1h-1zM14 3h1v1h-1zM15 3h1v1h-1zM6 4h1v1H6zM7 4h1v1H7zM8 4h1v1H8zM9 4h1v1H9zM10 4h1v1h-1zM13 4h1v1h-1zM14 4h1v1h-1zM15 4h1v1h-1zM16 4h1v1h-1zM17 4h1v1h-1zM3 5h1v1H3zM4 5h1v1H4zM5 5h1v1H5zM6 5h1v1H6zM7 5h1v1H7zM16 5h1v1h-1zM17 5h1v1h-1zM18 5h1v1h-1zM19 5h1v1h-1zM20 5h1v1h-1zM2 6h1v1H2zM3 6h1v1H3zM4 6h1v1H4zM5 6h1v1H5zM18 6h1v1h-1zM19 6h1v1h-1zM20 6h1v1h-1zM21 6h1v1h-1zM1 7h1v1H1zM2 7h1v1H2zM3 7h1v1H3zM20 7h1v1h-1zM21 7h1v1h-1zM22 7h1v1h-1zM1 8h1v1H1zM2 8h1v1H2zM21 8h1v1h-1zM22 8h1v1h-1zM1 9h1v1H1zM2 9h1v1H2zM5 9h1v1H5zM6 9h1v1H6zM7 9h1v1H7zM8 9h1v1H8zM9 9h1v1H9zM10 9h1v1h-1zM11 9h1v1h-1zM12 9h1v1h-1zM13 9h1v1h-1zM14 9h1v1h-1zM15 9h1v1h-1zM16 9h1v1h-1zM17 9h1v1h-1zM18 9h1v1h-1zM21 9h1v1h-1zM22 9h1v1h-1zM1 10h1v1H1zM2 10h1v1H2zM5 10h1v1H5zM6 10h1v1H6zM7 10h1v1H7zM8 10h1v1H8zM9 10h1v1H9zM10 10h1v1h-1zM11 10h1v1h-1zM12 10h1v1h-1zM13 10h1v1h-1zM14 10h1v1h-1zM15 10h1v1h-1zM16 10h1v1h-1zM17 10h1v1h-1zM18 10h1v1h-1zM21 10h1v1h-1zM22 10h1v1h-1zM1 11h1v1H1zM2 11h1v1H2zM5 11h1v1H5zM6 11h1v1H6zM17 11h1v1h-1zM18 11h1v1h-1zM21 11h1v1h-1zM22 11h1v1h-1zM1 12h1v1H1zM2 12h1v1H2zM5 12h1v1H5zM6 12h1v1H6zM17 12h1v1h-1zM18 12h1v1h-1zM21 12h1v1h-1zM22 12h1v1h-1zM1 13h1v1H1zM2 13h1v1H2zM5 13h1v1H5zM6 13h1v1H6zM7 13h1v1H7zM8 13h1v1H8zM9 13h1v1H9zM10 13h1v1h-1zM11 13h1v1h-1zM12 13h1v1h-1zM13 13h1v1h-1zM14 13h1v1h-1zM15 13h1v1h-1zM16 13h1v1h-1zM17 13h1v1h-1zM18 13h1v1h-1zM21 13h1v1h-1zM22 13h1v1h-1zM1 14h1v1H1zM2 14h1v1H2zM5 14h1v1H5zM6 14h1v1H6zM7 14h1v1H7zM8 14h1v1H8zM9 14h1v1H9zM10 14h1v1h-1zM11 14h1v1h-1zM12 14h1v1h-1zM13 14h1v1h-1zM14 14h1v1h-1zM15 14h1v1h-1zM16 14h1v1h-1zM17 14h1v1h-1zM18 14h1v1h-1zM21 14h1v1h-1zM22 14h1v1h-1zM1 15h1v1H1zM2 15h1v1H2zM5 15h1v1H5zM6 15h1v1H6zM17 15h1v1h-1zM18 15h1v1h-1zM21 15h1v1h-1zM22 15h1v1h-1zM1 16h1v1H1zM2 16h1v1H2zM5 16h1v1H5zM6 16h1v1H6zM17 16h1v1h-1zM18 16h1v1h-1zM21 16h1v1h-1zM22 16h1v1h-1zM1 17h1v1H1zM2 17h1v1H2zM5 17h1v1H5zM6 17h1v1H6zM7 17h1v1H7zM8 17h1v1H8zM9 17h1v1H9zM10 17h1v1h-1zM11 17h1v1h-1zM12 17h1v1h-1zM13 17h1v1h-1zM14 17h1v1h-1zM15 17h1v1h-1zM16 17h1v1h-1zM17 17h1v1h-1zM18 17h1v1h-1zM21 17h1v1h-1zM22 17h1v1h-1zM1 18h1v1H1zM2 18h1v1H2zM5 18h1v1H5zM6 18h1v1H6zM7 18h1v1H7zM8 18h1v1H8zM9 18h1v1H9zM10 18h1v1h-1zM11 18h1v1h-1zM12 18h1v1h-1zM13 18h1v1h-1zM14 18h1v1h-1zM15 18h1v1h-1zM16 18h1v1h-1zM17 18h1v1h-1zM18 18h1v1h-1zM21 18h1v1h-1zM22 18h1v1h-1zM1 19h1v1H1zM2 19h1v1H2zM5 19h1v1H5zM6 19h1v1H6zM17 19h1v1h-1zM18 19h1v1h-1zM21 19h1v1h-1zM22 19h1v1h-1zM1 20h1v1H1zM2 20h1v1H2zM5 20h1v1H5zM6 20h1v1H6zM17 20h1v1h-1zM18 20h1v1h-1zM21 20h1v1h-1zM22 20h1v1h-1zM1 21h1v1H1zM2 21h1v1H2zM3 21h1v1H3zM4 21h1v1H4zM5 21h1v1H5zM6 21h1v1H6zM7 21h1v1H7zM8 21h1v1H8zM9 21h1v1H9zM10 21h1v1h-1zM11 21h1v1h-1zM12 21h1v1h-1zM13 21h1v1h-1zM14 21h1v1h-1zM15 21h1v1h-1zM16 21h1v1h-1zM17 21h1v1h-1zM18 21h1v1h-1zM19 21h1v1h-1zM20 21h1v1h-1zM21 21h1v1h-1zM22 21h1v1h-1zM2 22h1v1H2zM3 22h1v1H3zM4 22h1v1H4zM5 22h1v1H5zM6 22h1v1H6zM7 22h1v1H7zM8 22h1v1H8zM9 22h1v1H9zM10 22h1v1h-1zM11 22h1v1h-1zM12 22h1v1h-1zM13 22h1v1h-1zM14 22h1v1h-1zM15 22h1v1h-1zM16 22h1v1h-1zM17 22h1v1h-1zM18 22h1v1h-1zM19 22h1v1h-1zM20 22h1v1h-1zM21 22h1v1h-1z"/></svg>