<svg xmlns="http://www.w3.org/2000/svg" width="24" height="24" shape-rendering="crispEdges"><path d="M3 2h1v1H3zM4 2h1v1H4zM5 2h1v1H5zM6 2h1v1H6zM7 2h1v1H7zM8 2h1v1H8zM9 2h1v1H9zM10 2h1v1h-1zM2 3h1v1H2zM3 3h1v1H3zM4 3h1v1H4zM5 3h1v1H5zM6 3h1v1H6zM7 3h1v1H7zM8 3h1v1H8zM9 3h1v1H9zM10 3h1v1h-1zM11 3h1v1h-1zM2 4h1v1H2zM3 4h1v1H3zM10 4h1v1h-1zM11 4h1v1h-1zM2 5h1v1H2zM3 5h1v1H3zM10 5h1v1h-1zM11 5h1v1h-1zM2 6h1v1H2zM3 6h1v1H3zM10 6h1v1h-1zM11 6h1v1h-1zM2 7h1v1H2zM3 7h1v1H3zM10 7h1v1h-1zM11 7h1v1h-1zM2 8h1v1H2zM3 8h1v1H3zM10 8h1v1h-1zM11 8h1v1h-1zM2 9h1v1H2zM3 9h1v1H3zM10 9h1v1h-1zM11 9h1v1h-1zM2 10h1v1H2zM3 10h1v1H3zM4 10h1v1H4zM5 10h1v1H5zM6 10h1v1H6zM7 10h1v1H7zM8 10h1v1H8zM9 10h1v1H9zM10 10h1v1h-1zM11 10h1v1h-1zM3 11h1v1H3zM4 11h1v1H4zM5 11h1v1H5zM6 11h1v1H6zM7 11h1v1H7zM8 11h1v1H8zM9 11h1v1H9zM10 11h1v1h-1zM6 12h1v1H6zM7 12h1v1H7zM13 12h1v1h-1zM14 12h1v1h-1zM15 12h1v1h-1zM16 12h1v1h-1zM17 12h1v1h-1zM18 12h1v1h-1zM19 12h1v1h-1zM20 12h1v1h-1zM6 13h1v1H6zM7 13h1v1H7zM12 13h1v1h-1zM13 13h1v1h-1zM14 13h1v1h-1zM15 13h1v1h-1zM16 13h1v1h-1zM17 13h1v1h-1zM18 13h1v1h-1zM19 13h1v1h-1zM20 13h1v1h-1zM21 13h1v1h-1zM6 14h1v1H6zM7 14h1v1H7zM12 14h1v1h-1zM13 14h1v1h-1zM20 14h1v1h-1zM21 14h1v1h-1zM6 15h1v1H6zM7 15h1v1H7zM12 15h1v1h-1zM13 15h1v1h-1zM20 15h1v1h-1zM21 15h1v1h-1zM6 16h1v1H6zM7 16h1v1H7zM8 16h1v1H8zM9 16h1v1H9zM10 16h1v1h-1zM11 16h1v1h-1zM12 16h1v1h-1zM13 16h1v1h-1zM20 16h1v1h-1zM21 16h1v1h-1zM7 17h1v1H7zM8 17h1v1H8zM9 17h1v1H9zM10 17h1v1h-1zM11 17h1v1h-1zM12 17h1v1h-1zM13 17h1v1h-1zM20 17h1v1h-1zM21 17h1v1h-1zM12 18h1v1h-1zM13 18h1v1h-1zM20 18h1v1h-1zM21 18h1v1h-1zM12 19h1v1h-1zM13 19h1v1h-1zM20 19h1v1h-1zM21 19h1v1h-1zM12 20h1v1h-1zM13 20h1v1h-1zM14 20h1v1h-1zM15 20h1v1h-1zM16 20h1v1h-1zM17 20h1v1h-1zM18 20h1v1h-1zM19 20h1v1h-1zM20 20h1v1h-1zM21 20h1v1h-1zM13 21h1v1h-1zM14 21h1v1h-1zM15 21h1v1h-1zM16 21h1v1h-1zM17 21h1v1h-1zM18 21h1v1h-1zM19 21h1v1h-1zM20 21h1v1h-1z"/></svg>