<svg xmlns="http://www.w3.org/2000/svg" width="24" height="24" shape-rendering="crispEdges"><path d="M5 2h1v1H5zM6 2h1v1H6zM7 2h1v1H7zM8 2h1v1H8zM9 2h1v1H9zM3 3h1v1H3zM4 3h1v1H4zM5 3h1v1H5zM6 3h1v1H6zM7 3h1v1H7zM8 3h1v1H8zM9 3h1v1H9zM10 3h1v1h-1zM11 3h1v1h-1zM2 4h1v1H2zM3 4h1v1H3zM4 4h1v1H4zM10 4h1v1h-1zM11 4h1v1h-1zM12 4h1v1h-1zM1 5h1v1H1zM2 5h1v1H2zM11 5h1v1h-1zM12 5h1v1h-1zM13 5h1v1h-1zM1 6h1v1H1zM2 6h1v1H2zM12 6h1v1h-1zM13 6h1v1h-1zM1 7h1v1H1zM2 7h1v1H2zM6 7h1v1H6zM7 7h1v1H7zM8 7h1v1H8zM13 7h1v1h-1zM14 7h1v1h-1zM2 8h1v1H2zM3 8h1v1H3zM4 8h1v1H4zM5 8h1v1H5zM6 8h1v1H6zM7 8h1v1H7zM8 8h1v1H8zM9 8h1v1H9zM13 8h1v1h-1zM14 8h1v1h-1zM3 9h1v1H3zM4 9h1v1H4zM5 9h1v1H5zM8 9h1v1H8zM9 9h1v1H9zM13 9h1v1h-1zM14 9h1v1h-1zM8 10h1v1H8zM9 10h1v1H9zM13 10h1v1h-1zM14 10h1v1h-1zM7 11h1v1H7zM8 11h1v1H8zM9 11h1v1H9zM13 11h1v1h-1zM14 11h1v1h-1zM18 11h1v1h-1zM19 11h1v1h-1zM7 12h1v1H7zM8 12h1v1H8zM12 12h1v1h-1zM13 12h1v1h-1zM18 12h1v1h-1zM19 12h1v1h-1zM7 13h1v1H7zM8 13h1v1H8zM12 13h1v1h-1zM13 13h1v1h-1zM17 13h1v1h-1zM18 13h1v1h-1zM7 14h1v1H7zM8 14h1v1H8zM12 14h1v1h-1zM13 14h1v1h-1zM16 14h1v1h-1zM17 14h1v1h-1zM18 14h1v1h-1zM7 15h1v1H7zM8 15h1v1H8zM12 15h1v1h-1zM13 15h1v1h-1zM14 15h1v1h-1zM15 15h1v1h-1zM16 15h1v1h-1zM17 15h1v1h-1zM18 15h1v1h-1zM19 15h1v1h-1zM7 16h1v1H7zM8 16h1v1H8zM13 16h1v1h-1zM14 16h1v1h-1zM15 16h1v1h-1zM18 16h1v1h-1zM19 16h1v1h-1zM20 16h1v1h-1zM8 17h1v1H8zM9 17h1v1H9zM19 17h1v1h-1zM20 17h1v1h-1zM8 18h1v1H8zM9 18h1v1H9zM10 18h1v1h-1zM18 18h1v1h-1zM19 18h1v1h-1zM20 18h1v1h-1zM9 19h1v1H9zM10 19h1v1h-1zM11 19h1v1h-1zM17 19h1v1h-1zM18 19h1v1h-1zM19 19h1v1h-1zM20 19h1v1h-1zM21 19h1v1h-1zM22 19h1v1h-1zM10 20h1v1h-1zM11 20h1v1h-1zM12 20h1v1h-1zM13 20h1v1h-1zM14 20h1v1h-1zM15 20h1v1h-1zM16 20h1v1h-1zM17 20h1v1h-1zM18 20h1v1h-1zM21 20h1v1h-1zM22 20h1v1h-1zM12 21h1v1h-1zM13 21h1v1h-1zM14 21h1v1h-1zM15 21h1v1h-1zM16 21h1v1h-1z"/></svg>